<svg width="200" height="160" viewBox="0 0 200 160" fill="none" xmlns="http://www.w3.org/2000/svg">
<circle cx="101" cy="80" r="80" fill="#EBF5FF"/>
<path d="M133.237 109.361C137.458 109.361 140.88 105.945 140.88 101.731C140.88 97.5175 137.458 94.1016 133.237 94.1016C129.016 94.1016 125.594 97.5175 125.594 101.731C125.594 105.945 129.016 109.361 133.237 109.361Z" fill="white"/>
<path d="M133.237 109.647C131.669 109.647 130.136 109.183 128.832 108.313C127.528 107.443 126.512 106.207 125.911 104.761C125.311 103.314 125.154 101.723 125.46 100.187C125.766 98.6515 126.521 97.241 127.63 96.1339C128.739 95.0269 130.152 94.273 131.69 93.9675C133.229 93.6621 134.823 93.8189 136.272 94.418C137.721 95.0171 138.959 96.0317 139.831 97.3335C140.702 98.6353 141.167 100.166 141.167 101.731C141.165 103.83 140.328 105.842 138.842 107.326C137.355 108.81 135.34 109.645 133.237 109.647ZM133.237 94.3877C131.782 94.3877 130.36 94.8184 129.15 95.6253C127.941 96.4322 126.998 97.5792 126.441 98.921C125.884 100.263 125.739 101.739 126.022 103.164C126.306 104.589 127.007 105.897 128.036 106.924C129.064 107.951 130.375 108.651 131.802 108.934C133.229 109.217 134.708 109.072 136.053 108.516C137.397 107.96 138.546 107.019 139.354 105.811C140.162 104.604 140.594 103.184 140.594 101.731C140.592 99.7843 139.816 97.9177 138.437 96.541C137.058 95.1643 135.188 94.3899 133.237 94.3877Z" fill="#222433"/>
<path d="M120.232 136.951C120.232 136.951 113.879 135.365 111.052 131.239C111.002 131.256 110.949 131.265 110.895 131.266C109.917 131.282 108.938 131.279 107.96 131.272C107.957 131.37 107.923 131.464 107.863 131.541C107.804 131.618 107.721 131.675 107.627 131.702C107.421 131.758 107.216 131.823 107.012 131.889C106.791 132.006 106.571 132.148 106.344 132.204C105.946 132.301 105.578 132.278 105.261 132.574C104.689 133.107 104.301 133.653 103.472 133.798C101.74 134.1 100.344 132.744 99.2681 131.579C99.2215 131.53 99.1856 131.471 99.1625 131.407C98.0484 131.447 96.9342 131.481 95.8194 131.487L95.8125 142.588H101.363L101.328 135.589L109.264 142.588H124.244C124.35 141.326 124.006 140.068 123.271 139.036C122.537 138.004 121.46 137.266 120.232 136.951Z" fill="white"/>
<path d="M124.244 142.874H109.264C109.194 142.874 109.127 142.848 109.074 142.802L101.618 136.226L101.65 142.586C101.65 142.624 101.643 142.661 101.628 142.696C101.614 142.731 101.593 142.763 101.566 142.789C101.54 142.816 101.508 142.837 101.473 142.852C101.438 142.866 101.401 142.874 101.363 142.874H95.8125C95.7365 142.874 95.6636 142.844 95.6098 142.79C95.5561 142.736 95.5259 142.663 95.5259 142.588L95.5328 131.486C95.5328 131.411 95.5627 131.338 95.6161 131.285C95.6695 131.231 95.7419 131.201 95.8176 131.2C96.9653 131.193 98.0986 131.158 99.1519 131.12C99.2129 131.118 99.273 131.135 99.3235 131.17C99.374 131.204 99.4121 131.254 99.4325 131.311C99.4427 131.338 99.4584 131.363 99.4786 131.384C100.563 132.559 101.852 133.789 103.423 133.515C104.006 133.413 104.333 133.086 104.749 132.672C104.849 132.572 104.953 132.468 105.065 132.364C105.363 132.086 105.697 132.03 105.993 131.98C106.09 131.963 106.182 131.948 106.276 131.925C106.433 131.875 106.584 131.806 106.725 131.719C106.775 131.69 106.826 131.662 106.877 131.636C106.892 131.628 106.907 131.622 106.922 131.617C107.094 131.56 107.321 131.487 107.551 131.425C107.587 131.412 107.619 131.389 107.641 131.357C107.663 131.326 107.675 131.288 107.674 131.25C107.679 131.178 107.712 131.111 107.765 131.062C107.818 131.013 107.887 130.986 107.96 130.986H107.962C108.89 130.992 109.887 130.996 110.891 130.979C110.914 130.979 110.937 130.975 110.959 130.968C111.019 130.947 111.083 130.947 111.143 130.967C111.202 130.986 111.254 131.025 111.289 131.077C114.02 135.063 120.239 136.657 120.301 136.673L120.304 136.673C121.594 137.01 122.724 137.789 123.497 138.874C124.27 139.959 124.635 141.281 124.53 142.608C124.525 142.681 124.492 142.748 124.439 142.797C124.386 142.846 124.316 142.874 124.244 142.874ZM109.373 142.301H123.972C124.004 141.15 123.645 140.023 122.953 139.101C122.261 138.18 121.277 137.52 120.161 137.229C119.887 137.16 113.818 135.601 110.921 131.551L110.901 131.552C109.972 131.567 109.049 131.566 108.182 131.56C108.139 131.662 108.074 131.752 107.991 131.824C107.908 131.897 107.809 131.949 107.702 131.977C107.495 132.035 107.287 132.1 107.124 132.153C107.084 132.175 107.044 132.197 107.003 132.22C106.819 132.333 106.62 132.421 106.412 132.482C106.299 132.509 106.192 132.527 106.088 132.545C105.831 132.588 105.628 132.623 105.456 132.783C105.351 132.881 105.251 132.981 105.154 133.078C104.706 133.525 104.283 133.947 103.522 134.079C103.346 134.11 103.168 134.126 102.99 134.126C101.229 134.126 99.8376 132.618 99.0573 131.773C99.0356 131.749 99.0153 131.725 98.9965 131.699C98.0764 131.731 97.0994 131.761 96.1058 131.771L96.0991 142.301H101.075L101.041 135.59C101.041 135.535 101.057 135.481 101.087 135.434C101.116 135.388 101.159 135.351 101.209 135.328C101.26 135.305 101.316 135.297 101.37 135.306C101.425 135.314 101.476 135.338 101.518 135.374L109.373 142.301Z" fill="#222433"/>
<path d="M111.741 102.494L111.748 131.324L108.227 131.339L99.1366 131.363L94.0827 131.381L93.9712 105.451" fill="white"/>
<path d="M94.0832 131.667C94.0074 131.667 93.9347 131.637 93.8809 131.584C93.8272 131.531 93.7969 131.458 93.7966 131.383L93.6851 105.452C93.6849 105.415 93.6922 105.377 93.7064 105.343C93.7207 105.308 93.7416 105.276 93.7681 105.249C93.7946 105.223 93.8261 105.202 93.8608 105.187C93.8956 105.172 93.9328 105.165 93.9704 105.165H93.9717C94.0475 105.165 94.1202 105.195 94.1739 105.248C94.2276 105.302 94.258 105.374 94.2583 105.45L94.3685 131.094L99.1358 131.077L108.227 131.052L111.461 131.039L111.455 102.494C111.455 102.418 111.485 102.346 111.539 102.292C111.593 102.238 111.666 102.208 111.742 102.208C111.818 102.208 111.891 102.238 111.944 102.292C111.998 102.346 112.028 102.418 112.028 102.494L112.034 131.324C112.034 131.4 112.004 131.472 111.951 131.526C111.897 131.58 111.825 131.61 111.749 131.61L108.228 131.625L99.1374 131.649L94.0842 131.667L94.0832 131.667Z" fill="#222433"/>
<path d="M67.3139 136.951H67.0751C66.6576 136.961 66.2423 136.889 65.853 136.738C65.4636 136.587 65.1079 136.361 64.8063 136.073C64.5046 135.785 64.263 135.44 64.0952 135.058C63.9274 134.677 63.8368 134.265 63.8286 133.849C63.7235 133.825 50.3507 124.282 50.3197 124.256L41.7866 136.875L46.3915 139.974L50.5982 133.49L56.3464 142.588H71.3264C71.4328 141.326 71.0881 140.068 70.3535 139.036C69.619 138.004 68.5421 137.266 67.3139 136.951Z" fill="white"/>
<path d="M71.3265 142.874H56.3464C56.298 142.874 56.2504 142.862 56.208 142.838C56.1656 142.815 56.1298 142.781 56.104 142.74L50.5951 134.022L46.6321 140.13C46.6113 140.162 46.5845 140.189 46.553 140.211C46.5216 140.232 46.4861 140.247 46.4488 140.255C46.4115 140.262 46.3731 140.263 46.3357 140.255C46.2984 140.248 46.2629 140.233 46.2313 140.212L41.6264 137.112C41.5952 137.091 41.5684 137.064 41.5476 137.033C41.5269 137.001 41.5125 136.966 41.5053 136.929C41.4981 136.893 41.4982 136.855 41.5058 136.818C41.5133 136.781 41.528 136.746 41.549 136.715L50.0821 124.096C50.1038 124.064 50.132 124.037 50.1648 124.016C50.1976 123.995 50.2343 123.98 50.2728 123.974C50.3112 123.968 50.3506 123.969 50.3884 123.979C50.4263 123.988 50.4618 124.005 50.4929 124.028C50.6559 124.147 63.4321 133.267 63.9601 133.594C64.0062 133.618 64.045 133.654 64.0724 133.698C64.0998 133.742 64.1147 133.792 64.1156 133.844C64.1334 134.612 64.4555 135.341 65.0114 135.873C65.2843 136.135 65.6067 136.34 65.9599 136.476C66.3131 136.612 66.6899 136.676 67.0683 136.665H67.314C67.3382 136.665 67.3624 136.668 67.3859 136.674C68.6762 137.011 69.8067 137.79 70.5794 138.875C71.3521 139.961 71.7178 141.282 71.6123 142.61C71.6068 142.682 71.5743 142.749 71.5213 142.798C71.4683 142.847 71.3987 142.874 71.3265 142.874ZM56.5045 142.302H71.0541C71.0862 141.157 70.7309 140.034 70.0456 139.115C69.3603 138.196 68.385 137.535 67.2769 137.237H67.0751C66.6222 137.25 66.1712 137.173 65.7487 137.009C65.3261 136.846 64.9405 136.6 64.6143 136.286C63.986 135.684 63.6056 134.87 63.5479 134.003C63.1126 133.714 61.7146 132.728 56.8795 129.287C54.8289 127.827 51.3603 125.354 50.3918 124.66L42.1846 136.798L46.3096 139.574L50.3577 133.335C50.3838 133.295 50.4197 133.262 50.4621 133.239C50.5044 133.216 50.5518 133.204 50.5999 133.204C50.648 133.205 50.6953 133.217 50.7374 133.24C50.7794 133.264 50.8149 133.297 50.8406 133.338L56.5045 142.302Z" fill="#222433"/>
<path d="M103.771 84.9063L96.1947 79.3747C91.9357 76.2654 86.7966 74.5887 81.5203 74.587H72.559C70.0989 74.5879 67.7399 75.5638 66.0004 77.3004C64.2609 79.0369 63.2833 81.3919 63.2824 83.8477C63.2824 83.8505 63.2824 83.8532 63.2824 83.856L63.2728 83.8572L62.6614 105.812L49.7354 123.837L64.4957 134.386L78.9981 114.157" fill="white"/>
<path d="M64.4957 134.672C64.4359 134.672 64.3775 134.653 64.3289 134.618L49.5685 124.07C49.5379 124.048 49.5119 124.021 49.492 123.989C49.4721 123.957 49.4587 123.921 49.4526 123.884C49.4464 123.847 49.4477 123.809 49.4562 123.773C49.4647 123.736 49.4804 123.701 49.5023 123.671L62.3774 105.717L62.9862 83.8493C62.9867 83.8268 62.99 83.8044 62.9958 83.7826C63.0162 81.2629 64.0324 78.8532 65.8233 77.0776C67.6142 75.302 70.0349 74.3041 72.5589 74.3009H81.5203C86.8592 74.2912 92.061 75.9883 96.3637 79.1439L103.94 84.6755C103.97 84.6976 103.996 84.7256 104.015 84.7577C104.035 84.7898 104.048 84.8254 104.054 84.8625C104.06 84.8997 104.058 84.9376 104.049 84.9741C104.04 85.0106 104.024 85.045 104.002 85.0753C103.98 85.1056 103.952 85.1313 103.92 85.1508C103.887 85.1704 103.852 85.1834 103.815 85.1891C103.777 85.1949 103.739 85.1933 103.703 85.1844C103.666 85.1755 103.632 85.1595 103.601 85.1374L96.0253 79.6058C91.8207 76.5222 86.7375 74.8637 81.5203 74.8732H72.5589C70.1755 74.8759 67.8904 75.8222 66.205 77.5047C64.5197 79.1872 63.5717 81.4683 63.569 83.8477C63.5689 83.8751 63.5651 83.9023 63.5576 83.9286L62.948 105.82C62.9463 105.877 62.9277 105.932 62.8945 105.979L50.1352 123.771L64.4295 133.986L78.765 113.991C78.8092 113.929 78.8762 113.887 78.9512 113.875C79.0263 113.862 79.1031 113.88 79.1649 113.924C79.2268 113.969 79.2685 114.035 79.2809 114.11C79.2933 114.185 79.2755 114.262 79.2312 114.324L64.7288 134.552C64.7023 134.589 64.6673 134.619 64.6267 134.64C64.5862 134.661 64.5413 134.672 64.4957 134.672V134.672Z" fill="#222433"/>
<path d="M110.562 98.2167C111.386 98.3918 112.182 98.6667 113.007 98.8367C113.631 98.965 114.265 99.3122 114.907 99.3435C114.951 99.341 114.996 99.3416 115.04 99.3454C115.059 99.347 115.075 99.3517 115.092 99.3549C115.157 99.158 115.233 98.9645 115.318 98.7752C115.52 98.3558 115.819 97.9899 116.19 97.707C116.859 97.1741 117.733 96.5975 118.626 96.6916C119.049 96.736 119.461 96.8708 119.876 96.9567C120.204 97.0084 120.516 97.1286 120.793 97.3096L115.159 77.9537C114.795 76.8608 114.173 75.8715 113.345 75.0696C112.517 74.2678 111.508 73.6771 110.402 73.3477C109.297 73.0182 108.128 72.9597 106.996 73.1771C105.863 73.3946 104.799 73.8815 103.895 74.5966L92.9465 85.1162L100.647 95.4355L104.774 92.1642L106.109 97.307C107.618 97.4646 109.081 97.9019 110.562 98.2167Z" fill="#82B1FF"/>
<path d="M100.817 103.282C100.318 101.938 100.744 100.219 101.674 99.165C102.221 98.5451 103.053 98.0945 103.794 97.7516C104.569 97.3933 105.394 97.1282 106.255 97.1294C107.167 97.1308 108.079 97.3878 108.953 97.6212C109.924 97.8805 110.887 98.1526 111.867 98.3834C112.78 98.5988 113.655 98.896 114.554 99.1541C114.727 99.2072 114.903 99.2466 115.081 99.272C115.093 99.2386 115.107 99.2064 115.125 99.1757C115.161 99.1107 115.205 99.0499 115.254 98.9944C115.908 98.0762 116.579 97.1366 117.722 96.8025C118.556 96.5589 119.305 96.7616 119.995 97.141C119.829 96.9814 119.652 96.8325 119.467 96.6952L97.5131 80.5383C96.4722 79.9837 95.311 79.6922 94.1312 79.6895H76.9728C71.747 79.6895 68.2694 85.078 70.4286 89.8275L75.406 100.767C76.1933 102.487 77.4592 103.946 79.0529 104.969C80.6467 105.991 82.5013 106.536 84.396 106.537H106.161C105.764 106.4 102.043 106.58 100.817 103.282Z" fill="#82B1FF"/>
<path d="M116.364 97.6939C116.305 97.6939 116.247 97.6756 116.199 97.6416C116.151 97.6076 116.114 97.5596 116.094 97.504C115.163 94.9037 113.543 92.7375 111.277 91.0654L96.959 80.2875C96.929 80.2649 96.9037 80.2366 96.8846 80.2042C96.8655 80.1718 96.853 80.136 96.8478 80.0988C96.8425 80.0616 96.8447 80.0237 96.8541 79.9874C96.8636 79.951 96.8801 79.9168 96.9027 79.8868C96.9254 79.8568 96.9537 79.8316 96.9862 79.8125C97.0186 79.7934 97.0545 79.7809 97.0918 79.7757C97.129 79.7705 97.167 79.7727 97.2034 79.7821C97.2398 79.7915 97.2741 79.808 97.3041 79.8306L111.62 90.6068C113.923 92.2936 115.669 94.6282 116.634 97.3115C116.649 97.3547 116.654 97.401 116.648 97.4464C116.642 97.4918 116.625 97.5351 116.598 97.5726C116.572 97.6101 116.537 97.6407 116.496 97.6618C116.455 97.6829 116.41 97.694 116.364 97.694V97.6939Z" fill="#222433"/>
<path d="M115.071 99.2512L106.522 97.2571C105.385 96.9901 103.94 97.1676 103.045 97.9152C100.177 100.31 99.9493 102.932 101.621 104.706C102.14 105.25 102.797 105.642 103.522 105.841L109.425 107.408C109.7 108.962 110.514 110.37 111.725 111.385C112.936 112.399 114.466 112.955 116.047 112.955C116.146 112.955 116.245 112.953 116.342 112.949L126.741 109.457C126.908 109.355 127.064 109.236 127.206 109.102C128.348 108.098 129.115 106.737 129.382 105.241C129.649 103.745 129.399 102.203 128.674 100.868C127.949 99.5316 126.792 98.4808 125.391 97.8868C123.99 97.2929 122.429 97.1909 120.962 97.5976" fill="white"/>
<path d="M116.047 113.242C114.43 113.244 112.861 112.688 111.608 111.666C110.356 110.645 109.496 109.221 109.177 107.639L103.449 106.117C102.672 105.905 101.968 105.485 101.413 104.902C100.616 104.057 100.229 103.037 100.294 101.954C100.381 100.498 101.269 99.0254 102.861 97.6958C103.889 96.8374 105.473 96.7168 106.588 96.9787L115.136 98.9726C115.209 98.9906 115.272 99.0367 115.312 99.1009C115.351 99.1651 115.364 99.2423 115.346 99.3156C115.329 99.3889 115.284 99.4525 115.22 99.4926C115.156 99.5327 115.079 99.5461 115.005 99.5298L106.457 97.5357C105.481 97.3068 104.105 97.403 103.229 98.1347C101.761 99.3607 100.944 100.693 100.866 101.988C100.811 102.91 101.144 103.782 101.83 104.509C102.312 105.015 102.924 105.38 103.599 105.565L109.499 107.132C109.551 107.146 109.599 107.175 109.636 107.215C109.673 107.255 109.698 107.305 109.707 107.359C109.968 108.848 110.746 110.197 111.906 111.169C113.066 112.141 114.533 112.672 116.047 112.669C116.128 112.669 116.209 112.668 116.29 112.665L126.613 109.198L126.624 109.19C126.765 109.103 126.896 109.001 127.017 108.888C128.11 107.926 128.844 106.623 129.1 105.191C129.355 103.759 129.116 102.283 128.422 101.004C127.728 99.7247 126.62 98.7187 125.278 98.15C123.937 97.5814 122.443 97.4838 121.039 97.8732C120.966 97.8926 120.888 97.8824 120.823 97.845C120.757 97.8076 120.709 97.7458 120.689 97.6732C120.669 97.6006 120.678 97.523 120.715 97.4572C120.752 97.3914 120.813 97.3427 120.885 97.3218C122.415 96.8931 124.046 96.9964 125.509 97.6146C126.973 98.2329 128.182 99.3295 128.939 100.724C129.696 102.119 129.956 103.73 129.675 105.291C129.394 106.852 128.59 108.272 127.395 109.317C127.256 109.448 127.104 109.565 126.942 109.667L126.9 109.695C126.879 109.709 126.856 109.72 126.832 109.728L116.434 113.22C116.408 113.229 116.382 113.234 116.355 113.235C116.252 113.239 116.149 113.242 116.047 113.242Z" fill="#222433"/>
<path d="M117.872 104.057V105.307L124.751 104.954C125.258 104.927 125.756 105.092 126.147 105.416C126.538 105.739 126.793 106.197 126.862 106.699L127.196 109.102" fill="white"/>
<path d="M127.196 109.389C127.127 109.388 127.06 109.363 127.008 109.318C126.956 109.273 126.922 109.21 126.913 109.142L126.578 106.738C126.518 106.308 126.298 105.916 125.963 105.639C125.628 105.361 125.201 105.219 124.766 105.239L117.887 105.592C117.848 105.595 117.809 105.589 117.773 105.575C117.736 105.562 117.703 105.541 117.675 105.514C117.647 105.487 117.624 105.455 117.609 105.419C117.594 105.384 117.586 105.345 117.586 105.307V104.057C117.586 103.981 117.616 103.909 117.67 103.855C117.723 103.801 117.796 103.771 117.872 103.771C117.948 103.771 118.021 103.801 118.075 103.855C118.129 103.909 118.159 103.981 118.159 104.057V105.005L124.736 104.668C125.314 104.641 125.882 104.83 126.328 105.198C126.773 105.567 127.065 106.088 127.146 106.66L127.481 109.063C127.491 109.139 127.471 109.215 127.425 109.275C127.379 109.336 127.311 109.375 127.236 109.386C127.223 109.388 127.209 109.388 127.196 109.389Z" fill="#222433"/>
<path d="M114.891 100.385C114.892 99.6304 115.126 98.8941 115.562 98.277C115.997 97.6598 116.613 97.1919 117.325 96.937C118.037 96.6821 118.81 96.6526 119.539 96.8527C120.268 97.0528 120.918 97.4726 121.399 98.0549C121.88 98.6372 122.17 99.3536 122.228 100.106C122.287 100.859 122.111 101.611 121.725 102.261C121.34 102.91 120.762 103.425 120.073 103.734C119.383 104.044 118.615 104.134 117.872 103.991" fill="white"/>
<path d="M118.569 104.343C118.317 104.343 118.065 104.32 117.818 104.272C117.781 104.265 117.745 104.251 117.713 104.231C117.681 104.21 117.654 104.184 117.633 104.152C117.611 104.121 117.596 104.086 117.589 104.049C117.581 104.012 117.581 103.974 117.588 103.937C117.595 103.9 117.609 103.864 117.63 103.833C117.651 103.801 117.678 103.774 117.71 103.753C117.741 103.732 117.776 103.718 117.813 103.71C117.851 103.703 117.889 103.703 117.926 103.71C118.612 103.843 119.321 103.76 119.958 103.475C120.596 103.189 121.129 102.714 121.485 102.115C121.842 101.515 122.004 100.821 121.951 100.126C121.897 99.4306 121.63 98.769 121.185 98.2312C120.741 97.6935 120.141 97.3059 119.468 97.1212C118.794 96.9366 118.08 96.964 117.423 97.1996C116.766 97.4353 116.197 97.8677 115.795 98.4379C115.394 99.0081 115.178 99.6882 115.178 100.385C115.178 100.461 115.148 100.534 115.094 100.588C115.04 100.641 114.967 100.671 114.891 100.671C114.815 100.671 114.742 100.641 114.688 100.588C114.635 100.534 114.604 100.461 114.604 100.385C114.604 99.6025 114.837 98.8373 115.273 98.1864C115.708 97.5355 116.328 97.0282 117.052 96.7287C117.776 96.4291 118.574 96.3507 119.343 96.5034C120.112 96.6561 120.818 97.0331 121.373 97.5866C121.927 98.1402 122.305 98.8454 122.458 99.6132C122.611 100.381 122.532 101.177 122.232 101.9C121.932 102.623 121.424 103.241 120.772 103.676C120.12 104.111 119.353 104.343 118.569 104.343Z" fill="#222433"/>
<path d="M114.958 110.543C114.903 110.543 114.85 110.527 114.803 110.498C114.757 110.468 114.72 110.426 114.698 110.376L114.583 110.128C114.316 109.538 114.201 108.891 114.248 108.245C114.294 107.599 114.502 106.975 114.85 106.429L115.234 105.846C115.254 105.814 115.281 105.787 115.312 105.766C115.343 105.745 115.378 105.73 115.415 105.723C115.452 105.715 115.49 105.715 115.527 105.722C115.564 105.729 115.599 105.743 115.631 105.764C115.662 105.784 115.689 105.811 115.71 105.842C115.732 105.873 115.746 105.908 115.754 105.945C115.762 105.981 115.762 106.019 115.755 106.056C115.748 106.093 115.734 106.128 115.713 106.16L115.331 106.742C115.034 107.206 114.858 107.737 114.818 108.287C114.779 108.836 114.877 109.387 115.104 109.89L115.218 110.137C115.238 110.18 115.247 110.228 115.244 110.276C115.241 110.324 115.226 110.37 115.2 110.411C115.174 110.451 115.138 110.484 115.096 110.507C115.054 110.53 115.006 110.543 114.958 110.543H114.958Z" fill="#222433"/>
<path d="M118.56 101.434C118.555 101.434 118.549 101.434 118.544 101.434C118.489 101.431 118.436 101.413 118.391 101.38C118.347 101.348 118.312 101.303 118.292 101.252L117.605 99.4782C117.577 99.4073 117.579 99.3285 117.61 99.2591C117.64 99.1896 117.698 99.1352 117.769 99.1078C117.839 99.0804 117.918 99.0823 117.988 99.113C118.058 99.1437 118.112 99.2008 118.14 99.2716L118.598 100.454L119.376 98.9569C119.411 98.8908 119.472 98.8415 119.544 98.8194C119.615 98.7974 119.693 98.8043 119.76 98.8389C119.826 98.8734 119.877 98.9327 119.9 99.004C119.924 99.0754 119.918 99.153 119.885 99.2202L118.814 101.28C118.79 101.327 118.754 101.366 118.709 101.393C118.664 101.42 118.612 101.435 118.56 101.434Z" fill="#222433"/>
<path d="M109.81 124.46C109.749 124.46 109.689 124.441 109.64 124.404C109.591 124.368 109.554 124.317 109.536 124.258C109.518 124.2 109.519 124.137 109.54 124.079C109.56 124.022 109.598 123.972 109.649 123.937L116.694 119.159C116.725 119.138 116.76 119.123 116.797 119.116C116.834 119.108 116.872 119.108 116.909 119.115C116.945 119.122 116.981 119.136 117.012 119.157C117.044 119.177 117.071 119.204 117.092 119.235C117.113 119.266 117.128 119.301 117.135 119.338C117.143 119.375 117.143 119.413 117.136 119.45C117.129 119.487 117.115 119.522 117.094 119.553C117.074 119.585 117.047 119.612 117.016 119.633L109.971 124.411C109.924 124.443 109.868 124.46 109.81 124.46Z" fill="#222433"/>
<path d="M122.773 122.216C126.551 122.216 129.613 119.159 129.613 115.387C129.613 111.616 126.551 108.559 122.773 108.559C118.995 108.559 115.932 111.616 115.932 115.387C115.932 119.159 118.995 122.216 122.773 122.216Z" fill="white"/>
<path d="M122.773 122.502C121.363 122.502 119.985 122.085 118.813 121.303C117.641 120.521 116.728 119.41 116.188 118.11C115.649 116.81 115.508 115.38 115.783 113.999C116.058 112.619 116.736 111.352 117.733 110.357C118.73 109.362 120 108.684 121.382 108.409C122.765 108.135 124.198 108.276 125.5 108.814C126.802 109.353 127.916 110.265 128.699 111.435C129.482 112.605 129.9 113.98 129.9 115.388C129.898 117.274 129.146 119.082 127.81 120.416C126.474 121.75 124.662 122.5 122.773 122.502ZM122.773 108.845C121.477 108.845 120.209 109.229 119.132 109.948C118.054 110.666 117.214 111.688 116.718 112.884C116.222 114.079 116.092 115.395 116.345 116.664C116.598 117.933 117.222 119.099 118.139 120.014C119.055 120.929 120.223 121.552 121.494 121.804C122.765 122.057 124.083 121.927 125.281 121.432C126.478 120.937 127.502 120.098 128.222 119.022C128.942 117.946 129.327 116.682 129.327 115.388C129.325 113.653 128.633 111.99 127.405 110.763C126.176 109.537 124.51 108.847 122.773 108.845V108.845Z" fill="#222433"/>
<path d="M118.321 112.888C118.273 112.888 118.225 112.876 118.183 112.853C118.141 112.83 118.106 112.796 118.08 112.756C118.054 112.716 118.039 112.669 118.035 112.622C118.032 112.574 118.041 112.526 118.061 112.482C118.307 112.021 118.647 111.615 119.06 111.293C119.472 110.97 119.947 110.737 120.455 110.609C120.492 110.599 120.53 110.597 120.567 110.602C120.604 110.607 120.64 110.62 120.673 110.639C120.705 110.658 120.734 110.683 120.756 110.713C120.779 110.743 120.796 110.777 120.805 110.813C120.815 110.85 120.817 110.888 120.812 110.925C120.807 110.962 120.794 110.998 120.775 111.03C120.756 111.063 120.731 111.091 120.701 111.114C120.671 111.136 120.637 111.153 120.601 111.163C120.174 111.269 119.774 111.463 119.426 111.731C119.079 112 118.791 112.338 118.58 112.724C118.557 112.773 118.52 112.814 118.474 112.843C118.429 112.873 118.375 112.888 118.321 112.888Z" fill="#222433"/>
<path d="M111.652 127.824L111.165 126.336L111.146 126.331L111.156 126.327C110.229 124.648 109.035 122.989 108.022 122.044C107.735 121.777 107.42 121.463 107.076 121.119C105.122 119.145 102.636 117.779 99.9191 117.187C97.2027 116.594 94.3725 116.801 91.7712 117.781L95.564 121.072C94.9717 122.693 93.9113 127.462 95.2679 128.205C96.0065 128.614 97.0696 128.546 98.1753 128.436C98.6664 129.745 99.122 130.789 99.4237 131.486C99.6674 132.055 100.099 132.523 100.647 132.812L101.869 133.46C102.189 133.628 102.539 133.731 102.898 133.762C103.258 133.792 103.62 133.751 103.964 133.64C104.307 133.528 104.625 133.35 104.898 133.114C105.171 132.878 105.394 132.59 105.554 132.267C105.918 132.33 106.292 132.317 106.651 132.228C107.01 132.14 107.346 131.978 107.64 131.753C107.882 131.57 108.091 131.348 108.259 131.095C108.643 131.183 109.042 131.185 109.427 131.101C109.812 131.016 110.174 130.849 110.487 130.609C111.318 129.979 111.863 128.835 111.652 127.824Z" fill="white"/>
<path d="M103.131 134.062C102.644 134.063 102.164 133.943 101.734 133.713L100.512 133.065C99.9072 132.744 99.4301 132.226 99.1598 131.598L99.1167 131.498C98.8385 130.856 98.4259 129.903 97.9845 128.742C96.9056 128.842 95.8858 128.874 95.1291 128.455C93.4748 127.548 94.7851 122.515 95.2302 121.161L91.5832 117.998C91.5458 117.965 91.5174 117.924 91.5009 117.877C91.4844 117.83 91.4804 117.78 91.4891 117.731C91.4978 117.683 91.5191 117.637 91.5508 117.599C91.5825 117.561 91.6236 117.532 91.67 117.514C94.3233 116.515 97.2096 116.306 99.9799 116.91C102.75 117.514 105.286 118.907 107.28 120.919C107.616 121.254 107.934 121.572 108.218 121.836C109.211 122.762 110.424 124.417 111.39 126.16C111.411 126.186 111.427 126.216 111.438 126.248L111.925 127.736C111.928 127.746 111.931 127.756 111.933 127.766C112.156 128.838 111.632 130.101 110.66 130.837C110.34 131.083 109.974 131.261 109.582 131.36C109.191 131.459 108.784 131.476 108.385 131.411C108.076 131.817 107.668 132.137 107.2 132.341C106.732 132.545 106.22 132.627 105.712 132.578C105.513 132.917 105.25 133.213 104.937 133.451C104.419 133.848 103.784 134.063 103.131 134.062ZM98.1754 128.149C98.2338 128.149 98.2907 128.167 98.3387 128.2C98.3866 128.234 98.4232 128.281 98.4437 128.335C98.9091 129.576 99.3507 130.596 99.643 131.271L99.6868 131.372C99.9056 131.881 100.292 132.3 100.782 132.559L102.004 133.208C102.289 133.358 102.602 133.449 102.924 133.477C103.245 133.504 103.569 133.467 103.876 133.367C104.183 133.268 104.466 133.108 104.71 132.898C104.954 132.687 105.154 132.429 105.297 132.141C105.324 132.085 105.369 132.04 105.424 132.012C105.479 131.984 105.541 131.975 105.602 131.985C106.064 132.062 106.538 132.004 106.967 131.818C107.396 131.632 107.762 131.326 108.02 130.936C108.052 130.888 108.099 130.85 108.153 130.829C108.207 130.807 108.266 130.803 108.323 130.816C108.666 130.895 109.022 130.897 109.366 130.822C109.71 130.747 110.033 130.597 110.312 130.382C111.099 129.786 111.543 128.744 111.375 127.897L110.919 126.505C110.895 126.473 110.878 126.437 110.868 126.399C109.933 124.719 108.772 123.135 107.827 122.254C107.536 121.983 107.214 121.662 106.874 121.322C105.015 119.446 102.666 118.13 100.095 117.522C97.5232 116.915 94.8323 117.041 92.329 117.886L95.7523 120.856C95.7961 120.894 95.8273 120.944 95.8418 121C95.8563 121.056 95.8534 121.116 95.8335 121.17C95.1 123.178 94.3628 127.383 95.4062 127.955C96.0703 128.322 97.0818 128.257 98.1471 128.151C98.1565 128.15 98.166 128.15 98.1754 128.15V128.149Z" fill="#222433"/>
<path d="M102.481 130.456C102.424 130.456 102.368 130.439 102.321 130.408C102.274 130.376 102.237 130.331 102.216 130.278C101.156 127.691 99.7878 126.662 98.9649 126.8C98.8575 126.824 98.7568 126.872 98.6694 126.939C98.5821 127.007 98.5102 127.092 98.4586 127.189C98.3672 127.344 98.3108 127.517 98.2932 127.696C98.2755 127.875 98.2971 128.056 98.3565 128.226C98.3689 128.261 98.3741 128.299 98.372 128.336C98.3699 128.374 98.3603 128.411 98.344 128.444C98.3276 128.478 98.3048 128.508 98.2767 128.534C98.2486 128.559 98.2158 128.578 98.1803 128.59C98.1448 128.603 98.1071 128.608 98.0696 128.606C98.032 128.604 97.9952 128.594 97.9613 128.578C97.9274 128.561 97.897 128.539 97.872 128.51C97.8469 128.482 97.8277 128.45 97.8153 128.414C97.7286 128.165 97.6974 127.9 97.7236 127.637C97.7499 127.375 97.833 127.121 97.9673 126.894C98.0608 126.725 98.1904 126.578 98.347 126.464C98.5036 126.35 98.6833 126.272 98.8735 126.235C99.8665 126.067 101.48 126.969 102.746 130.062C102.764 130.105 102.771 130.153 102.766 130.199C102.761 130.246 102.745 130.291 102.719 130.33C102.692 130.369 102.657 130.401 102.615 130.423C102.574 130.445 102.528 130.456 102.481 130.456H102.481Z" fill="#222433"/>
<path d="M95.2584 129.894L70.6864 123.532C69.5655 123.243 68.5316 122.686 67.6731 121.911C66.8147 121.135 66.1573 120.163 65.7572 119.079C65.3572 117.994 65.2264 116.829 65.376 115.683C65.5257 114.537 65.9514 113.444 66.6166 112.498L79.1414 94.6439L90.8828 102.865L84.2813 112.278L98.8601 116.055L95.2584 129.894Z" fill="#82B1FF"/>
<path d="M62.6709 108.673C62.5949 108.673 62.522 108.643 62.4682 108.589C62.4145 108.536 62.3843 108.463 62.3843 108.387V105.812C62.3843 105.736 62.4145 105.663 62.4682 105.61C62.522 105.556 62.5949 105.526 62.6709 105.526C62.7469 105.526 62.8198 105.556 62.8736 105.61C62.9273 105.663 62.9575 105.736 62.9575 105.812V108.387C62.9575 108.463 62.9273 108.536 62.8736 108.589C62.8198 108.643 62.7469 108.673 62.6709 108.673Z" fill="#222433"/>
<path d="M75.1958 100.576C75.1565 100.576 75.1177 100.568 75.0817 100.552C75.0457 100.537 75.0133 100.514 74.9865 100.485C74.9597 100.457 74.939 100.423 74.9258 100.386C74.9127 100.349 74.9072 100.31 74.9098 100.271L75.1582 96.5419C75.1602 96.504 75.1697 96.4669 75.1862 96.4327C75.2026 96.3985 75.2257 96.368 75.2542 96.3428C75.2826 96.3176 75.3157 96.2983 75.3517 96.286C75.3876 96.2738 75.4256 96.2687 75.4635 96.2713C75.5014 96.2738 75.5385 96.2838 75.5725 96.3008C75.6065 96.3177 75.6367 96.3412 75.6615 96.37C75.6863 96.3987 75.7052 96.4321 75.7169 96.4681C75.7287 96.5042 75.7332 96.5422 75.7301 96.58L75.5497 99.2886L76.6044 97.7889C76.6258 97.7574 76.6532 97.7305 76.685 97.7098C76.7169 97.689 76.7525 97.6748 76.7899 97.6679C76.8274 97.6611 76.8658 97.6617 76.9029 97.6698C76.9401 97.6779 76.9753 97.6933 77.0064 97.7152C77.0375 97.737 77.064 97.7648 77.0843 97.7969C77.1046 97.829 77.1182 97.8649 77.1245 97.9023C77.1307 97.9398 77.1294 97.9781 77.1207 98.0151C77.1119 98.0521 77.0959 98.0869 77.0735 98.1176L75.4303 100.454C75.4039 100.492 75.3688 100.523 75.3279 100.544C75.2871 100.565 75.2418 100.576 75.1958 100.576Z" fill="#222433"/>
<path d="M82.7937 114.13C82.7406 114.13 82.6887 114.115 82.6435 114.087C82.5984 114.059 82.5619 114.019 82.5382 113.972C82.5144 113.925 82.5043 113.872 82.5089 113.819C82.5135 113.766 82.5328 113.716 82.5644 113.673L89.201 104.764C89.2469 104.704 89.3143 104.665 89.3888 104.655C89.4634 104.644 89.539 104.664 89.5993 104.709C89.6597 104.753 89.7 104.82 89.7115 104.894C89.723 104.969 89.7049 105.044 89.6609 105.105L83.024 114.014C82.9973 114.05 82.9625 114.079 82.9225 114.099C82.8826 114.119 82.8384 114.13 82.7937 114.13Z" fill="#222433"/>
<path d="M84.2813 114.443C84.2053 114.443 84.1324 114.413 84.0787 114.359C84.0249 114.306 83.9947 114.233 83.9947 114.157V112.997L82.98 114.068C82.9543 114.096 82.9233 114.118 82.8888 114.134C82.8543 114.15 82.8169 114.159 82.779 114.16C82.741 114.161 82.7031 114.155 82.6675 114.142C82.632 114.128 82.5994 114.108 82.5718 114.082C82.5442 114.056 82.5221 114.025 82.5067 113.99C82.4913 113.955 82.483 113.918 82.4822 113.88C82.4815 113.842 82.4883 113.804 82.5023 113.769C82.5163 113.734 82.5371 113.702 82.5637 113.674L84.0732 112.082C84.1126 112.04 84.1636 112.011 84.2196 111.999C84.2756 111.987 84.334 111.991 84.3873 112.012C84.4406 112.034 84.4863 112.07 84.5185 112.118C84.5507 112.165 84.5679 112.221 84.5679 112.278V114.157C84.5679 114.195 84.5605 114.232 84.5461 114.267C84.5317 114.301 84.5106 114.333 84.484 114.359C84.4574 114.386 84.4258 114.407 84.391 114.421C84.3562 114.436 84.319 114.443 84.2813 114.443Z" fill="#222433"/>
<path d="M121.117 119.471C121.107 119.471 121.096 119.47 121.086 119.469C121.043 119.464 121.002 119.45 120.965 119.427C120.928 119.404 120.897 119.373 120.874 119.337L118.473 115.522C118.452 115.49 118.438 115.454 118.431 115.417C118.424 115.38 118.425 115.341 118.433 115.304C118.441 115.267 118.457 115.232 118.478 115.201C118.5 115.17 118.528 115.143 118.56 115.123C118.593 115.103 118.629 115.089 118.666 115.083C118.704 115.077 118.742 115.078 118.779 115.087C118.816 115.096 118.851 115.112 118.882 115.134C118.913 115.157 118.939 115.185 118.958 115.217L121.166 118.725L125.389 114.407C125.415 114.379 125.447 114.357 125.481 114.342C125.516 114.327 125.553 114.319 125.591 114.318C125.629 114.317 125.667 114.324 125.702 114.338C125.738 114.352 125.77 114.373 125.797 114.399C125.824 114.426 125.846 114.457 125.86 114.492C125.875 114.527 125.883 114.565 125.883 114.602C125.883 114.64 125.876 114.678 125.862 114.713C125.847 114.748 125.826 114.78 125.799 114.807L121.322 119.384C121.295 119.412 121.263 119.433 121.228 119.448C121.193 119.463 121.155 119.471 121.117 119.471Z" fill="#222433"/>
<path d="M117.009 119.185C116.937 119.184 116.867 119.157 116.815 119.109C116.762 119.06 116.729 118.993 116.723 118.922C116.717 118.85 116.739 118.779 116.783 118.723C116.827 118.666 116.891 118.628 116.962 118.616L117.056 118.601C118.08 118.429 119.049 118.02 119.885 117.406L119.921 117.38C119.951 117.358 119.985 117.342 120.022 117.333C120.059 117.324 120.097 117.322 120.134 117.328C120.171 117.334 120.207 117.347 120.239 117.366C120.271 117.385 120.299 117.411 120.321 117.441C120.344 117.471 120.36 117.506 120.369 117.542C120.378 117.579 120.38 117.617 120.374 117.654C120.368 117.691 120.355 117.727 120.336 117.759C120.317 117.791 120.291 117.819 120.261 117.841L120.225 117.867C119.316 118.534 118.263 118.979 117.15 119.165L117.056 119.181C117.04 119.183 117.024 119.185 117.009 119.185Z" fill="#222433"/>
<path d="M124.692 116.441C124.484 116.445 124.277 116.43 124.073 116.395C123.999 116.38 123.934 116.336 123.893 116.273C123.852 116.21 123.837 116.133 123.852 116.059C123.867 115.985 123.91 115.92 123.973 115.878C124.035 115.836 124.112 115.821 124.186 115.835C124.204 115.838 125.601 116.092 127.957 115.119C128.463 114.909 128.923 114.601 129.309 114.213C129.363 114.16 129.435 114.131 129.511 114.131C129.586 114.131 129.659 114.162 129.712 114.215C129.766 114.268 129.796 114.341 129.796 114.416C129.797 114.492 129.767 114.564 129.714 114.618C129.275 115.059 128.752 115.409 128.176 115.648C126.56 116.315 125.363 116.441 124.692 116.441Z" fill="#222433"/>
<path d="M123.922 112.032C124.476 112.032 124.925 111.583 124.925 111.03C124.925 110.477 124.476 110.029 123.922 110.029C123.368 110.029 122.919 110.477 122.919 111.03C122.919 111.583 123.368 112.032 123.922 112.032Z" fill="#222433"/>
<path d="M195.004 142.816H4.80753C4.58929 142.816 4.43652 142.698 4.43652 142.533C4.43652 142.368 4.58929 142.25 4.80753 142.25H195.004C195.222 142.25 195.375 142.368 195.375 142.533C195.375 142.698 195.179 142.816 195.004 142.816Z" fill="#222433"/>
<path d="M161.841 142.653C161.773 142.643 161.712 142.606 161.67 142.55C161.628 142.495 161.61 142.425 161.618 142.356L165.045 113.486C165.054 113.415 165.09 113.35 165.145 113.305C165.2 113.261 165.271 113.24 165.341 113.248C165.411 113.257 165.475 113.293 165.518 113.349C165.562 113.405 165.581 113.476 165.573 113.547L162.146 142.417C162.142 142.452 162.131 142.486 162.114 142.517C162.096 142.548 162.073 142.576 162.046 142.598C162.019 142.62 161.987 142.636 161.954 142.646C161.92 142.656 161.885 142.659 161.85 142.654L161.841 142.653Z" fill="#222433"/>
<path d="M164.784 117.808C164.74 117.801 164.699 117.784 164.664 117.757C164.629 117.73 164.601 117.695 164.583 117.654L163.302 114.804C163.273 114.739 163.27 114.664 163.295 114.597C163.32 114.53 163.37 114.475 163.434 114.445C163.498 114.415 163.572 114.412 163.638 114.437C163.704 114.461 163.758 114.512 163.787 114.577L164.887 117.025L166.534 114.891C166.556 114.863 166.583 114.839 166.613 114.821C166.644 114.803 166.678 114.791 166.713 114.787C166.748 114.782 166.783 114.784 166.817 114.794C166.851 114.803 166.883 114.819 166.911 114.841C166.938 114.863 166.961 114.89 166.979 114.922C166.996 114.953 167.007 114.987 167.01 115.022C167.014 115.058 167.011 115.094 167.001 115.128C166.992 115.163 166.975 115.195 166.953 115.223L165.035 117.707C165.006 117.743 164.969 117.772 164.927 117.79C164.885 117.808 164.839 117.815 164.793 117.809L164.784 117.808Z" fill="#222433"/>
<path d="M164.462 120.509C164.418 120.503 164.377 120.485 164.341 120.458C164.306 120.431 164.278 120.395 164.26 120.354L162.415 116.199C162.4 116.167 162.392 116.132 162.391 116.097C162.39 116.061 162.396 116.026 162.408 115.992C162.421 115.959 162.439 115.928 162.463 115.902C162.487 115.876 162.516 115.855 162.548 115.84C162.58 115.826 162.615 115.817 162.65 115.816C162.685 115.815 162.72 115.821 162.752 115.833C162.785 115.846 162.815 115.865 162.841 115.889C162.866 115.913 162.886 115.942 162.901 115.975L164.565 119.723L167.072 116.454C167.093 116.425 167.119 116.4 167.15 116.381C167.181 116.363 167.215 116.35 167.25 116.345C167.285 116.34 167.321 116.342 167.356 116.351C167.39 116.36 167.423 116.376 167.451 116.399C167.479 116.421 167.502 116.448 167.52 116.48C167.537 116.511 167.548 116.546 167.551 116.582C167.555 116.618 167.552 116.655 167.541 116.689C167.531 116.724 167.514 116.756 167.491 116.784L164.713 120.408C164.684 120.444 164.647 120.473 164.605 120.491C164.562 120.509 164.516 120.516 164.471 120.511L164.462 120.509Z" fill="#222433"/>
<path d="M164.099 123.596C164.056 123.589 164.015 123.572 163.979 123.545C163.944 123.518 163.916 123.483 163.898 123.442L161.497 118.1C161.469 118.035 161.467 117.961 161.492 117.895C161.517 117.829 161.567 117.775 161.631 117.745C161.694 117.715 161.767 117.712 161.832 117.736C161.898 117.76 161.952 117.809 161.981 117.873L164.202 122.813L167.524 118.513C167.545 118.484 167.572 118.46 167.602 118.442C167.633 118.424 167.667 118.413 167.702 118.408C167.737 118.403 167.772 118.406 167.806 118.415C167.84 118.424 167.872 118.441 167.9 118.463C167.927 118.484 167.951 118.512 167.968 118.543C167.985 118.574 167.996 118.608 168 118.644C168.004 118.679 168.001 118.715 167.991 118.75C167.981 118.784 167.964 118.816 167.942 118.844L164.35 123.495C164.322 123.531 164.285 123.56 164.242 123.578C164.2 123.596 164.154 123.603 164.109 123.597L164.099 123.596Z" fill="#222433"/>
<path d="M163.745 126.569C163.701 126.563 163.66 126.545 163.625 126.518C163.59 126.492 163.562 126.456 163.544 126.416L160.706 120.107C160.691 120.075 160.682 120.04 160.681 120.004C160.679 119.968 160.684 119.932 160.697 119.899C160.709 119.865 160.727 119.834 160.751 119.807C160.775 119.781 160.804 119.759 160.836 119.744C160.869 119.729 160.903 119.721 160.939 119.72C160.974 119.718 161.009 119.724 161.042 119.737C161.075 119.749 161.105 119.769 161.131 119.793C161.156 119.818 161.177 119.847 161.191 119.88L163.848 125.787L167.825 120.646C167.869 120.59 167.933 120.553 168.003 120.544C168.073 120.535 168.144 120.555 168.199 120.599C168.255 120.643 168.291 120.708 168.299 120.779C168.307 120.85 168.287 120.922 168.244 120.978L163.996 126.468C163.967 126.505 163.93 126.533 163.888 126.551C163.846 126.569 163.8 126.576 163.754 126.571C163.751 126.57 163.748 126.57 163.745 126.569Z" fill="#222433"/>
<path d="M176.403 113.169L173.97 115.823L171.306 113.397C170.892 113.021 170.556 112.567 170.318 112.062C170.08 111.558 169.944 111.011 169.918 110.454C169.891 109.896 169.976 109.339 170.165 108.815C170.355 108.29 170.647 107.808 171.023 107.395L171.033 107.386L173.465 104.732L176.129 107.158C176.543 107.534 176.879 107.988 177.117 108.493C177.355 108.997 177.491 109.544 177.518 110.101C177.544 110.659 177.46 111.216 177.27 111.74C177.08 112.265 176.789 112.747 176.412 113.16L176.403 113.169Z" fill="white"/>
<path d="M174.044 116.074C174.001 116.087 173.955 116.089 173.911 116.078C173.866 116.068 173.826 116.047 173.792 116.017L171.128 113.59C170.241 112.785 169.711 111.661 169.655 110.466C169.599 109.271 170.021 108.104 170.829 107.22L170.838 107.21L173.272 104.556C173.319 104.505 173.384 104.474 173.454 104.471C173.523 104.468 173.591 104.493 173.642 104.54L176.306 106.966C177.193 107.771 177.723 108.895 177.78 110.09C177.836 111.285 177.413 112.452 176.605 113.336L176.596 113.346L174.163 116C174.131 116.035 174.09 116.061 174.044 116.074ZM173.482 105.102L171.218 107.571C170.864 107.958 170.591 108.41 170.412 108.903C170.234 109.395 170.155 109.918 170.179 110.441C170.204 110.964 170.332 111.477 170.555 111.951C170.779 112.425 171.094 112.851 171.482 113.204L173.952 115.453L176.217 112.984C176.931 112.202 177.305 111.17 177.255 110.114C177.205 109.058 176.737 108.064 175.952 107.352L173.482 105.102Z" fill="#222433"/>
<path d="M175.229 142.479C175.208 142.485 175.187 142.489 175.165 142.49C175.131 142.491 175.096 142.486 175.064 142.474C175.032 142.462 175.002 142.444 174.976 142.421C174.951 142.398 174.93 142.37 174.916 142.339C174.901 142.308 174.893 142.274 174.891 142.24L173.462 110.71C173.458 110.641 173.483 110.573 173.53 110.522C173.577 110.471 173.642 110.44 173.712 110.437C173.781 110.434 173.849 110.459 173.901 110.505C173.952 110.552 173.983 110.618 173.986 110.687L175.416 142.216C175.418 142.275 175.401 142.332 175.368 142.38C175.334 142.427 175.285 142.462 175.229 142.479Z" fill="#222433"/>
<path d="M173.547 104.985C173.527 104.991 173.505 104.995 173.484 104.996C173.449 104.997 173.415 104.992 173.382 104.98C173.35 104.969 173.32 104.951 173.295 104.928C173.269 104.904 173.249 104.876 173.234 104.845C173.219 104.814 173.211 104.78 173.21 104.746L173.08 101.886C173.077 101.816 173.101 101.749 173.148 101.697C173.195 101.646 173.261 101.616 173.33 101.613C173.4 101.609 173.468 101.634 173.519 101.681C173.57 101.728 173.601 101.793 173.604 101.862L173.734 104.723C173.737 104.781 173.72 104.838 173.686 104.886C173.652 104.933 173.603 104.968 173.547 104.985Z" fill="#222433"/>
<path d="M173.546 104.986C173.487 105.003 173.423 104.999 173.367 104.975C173.31 104.951 173.264 104.907 173.236 104.852L171.95 102.299C171.934 102.268 171.924 102.235 171.921 102.2C171.918 102.165 171.922 102.13 171.933 102.097C171.944 102.064 171.961 102.034 171.984 102.007C172.006 101.981 172.034 101.96 172.065 101.944C172.096 101.928 172.13 101.919 172.165 101.917C172.2 101.914 172.235 101.919 172.267 101.93C172.3 101.941 172.331 101.959 172.357 101.982C172.383 102.005 172.404 102.033 172.419 102.064L173.705 104.618C173.723 104.652 173.732 104.689 173.733 104.727C173.734 104.766 173.727 104.804 173.712 104.839C173.697 104.874 173.674 104.905 173.645 104.931C173.616 104.956 173.583 104.975 173.546 104.986Z" fill="#222433"/>
<path d="M173.547 104.985C173.5 104.999 173.45 105 173.402 104.987C173.354 104.974 173.312 104.947 173.278 104.911C173.245 104.875 173.222 104.83 173.214 104.782C173.205 104.733 173.21 104.683 173.228 104.638L174.29 101.979C174.317 101.916 174.367 101.867 174.43 101.842C174.493 101.816 174.564 101.816 174.627 101.841C174.691 101.866 174.742 101.914 174.77 101.976C174.798 102.038 174.8 102.108 174.777 102.172L173.716 104.831C173.701 104.868 173.679 104.901 173.649 104.928C173.62 104.954 173.585 104.974 173.547 104.985Z" fill="#222433"/>
<path d="M174.659 119.897C175.762 119.569 176.388 118.412 176.057 117.313C175.727 116.214 174.566 115.59 173.463 115.918C172.361 116.246 171.735 117.403 172.065 118.502C172.395 119.601 173.557 120.226 174.659 119.897Z" fill="white"/>
<path d="M174.734 120.148C174.29 120.281 173.816 120.279 173.372 120.143C172.928 120.007 172.535 119.743 172.242 119.384C171.949 119.025 171.769 118.588 171.725 118.128C171.682 117.667 171.776 117.204 171.996 116.797C172.216 116.39 172.552 116.058 172.962 115.841C173.372 115.625 173.838 115.535 174.299 115.582C174.761 115.629 175.198 115.812 175.556 116.107C175.914 116.401 176.175 116.795 176.309 117.238C176.486 117.832 176.42 118.472 176.125 119.018C175.83 119.564 175.33 119.97 174.734 120.148ZM173.539 116.169C173.194 116.272 172.887 116.475 172.658 116.751C172.428 117.028 172.286 117.366 172.25 117.723C172.213 118.08 172.283 118.44 172.452 118.757C172.621 119.074 172.88 119.334 173.197 119.505C173.514 119.675 173.875 119.748 174.233 119.715C174.592 119.681 174.932 119.542 175.211 119.315C175.49 119.089 175.696 118.785 175.802 118.442C175.907 118.099 175.909 117.732 175.805 117.388C175.666 116.927 175.35 116.54 174.925 116.312C174.5 116.083 174.001 116.032 173.539 116.169L173.539 116.169Z" fill="#222433"/>
<path d="M17.0233 142.815C16.9476 142.815 16.8749 142.787 16.82 142.735C16.7651 142.684 16.7321 142.613 16.7279 142.539L13.1269 78.3084C13.1239 78.2316 13.1515 78.1567 13.2038 78.0999C13.2561 78.0431 13.3289 78.0089 13.4065 78.0046C13.484 78.0003 13.5602 78.0264 13.6185 78.0772C13.6769 78.1279 13.7127 78.1993 13.7182 78.276L17.3192 142.506C17.3236 142.584 17.2966 142.66 17.2442 142.718C17.1918 142.776 17.1184 142.811 17.04 142.815C17.0347 142.815 17.0288 142.815 17.0233 142.815Z" fill="#222433"/>
<path d="M17.4108 70.2887C17.1293 70.2486 16.8433 70.3207 16.6156 70.4891C16.388 70.6575 16.2372 70.9084 16.1966 71.1866C16.2302 70.911 16.1531 70.6333 15.9819 70.4133C15.8106 70.1933 15.5588 70.0485 15.2807 70.0102C15.0027 69.9718 14.7204 70.0429 14.4948 70.2081C14.2692 70.3734 14.1181 70.6196 14.0742 70.8938L13.2944 76.223L11.8531 71.0304C11.7903 70.756 11.6198 70.5176 11.3791 70.3675C11.1385 70.2174 10.8474 70.168 10.5699 70.2301C10.2923 70.2922 10.0512 70.4608 9.89935 70.6988C9.74755 70.9367 9.69756 71.2245 9.7604 71.4989C9.77164 71.527 9.7783 71.5567 9.78014 71.5868C9.70843 71.3151 9.53173 71.0821 9.28804 70.9379C9.04436 70.7937 8.75317 70.7498 8.47711 70.8157C8.20232 70.8866 7.96666 71.0613 7.82082 71.3023C7.67498 71.5432 7.63062 71.8311 7.69727 72.1041C7.69727 72.1138 7.70714 72.1236 7.70714 72.1334L7.8947 72.8166L9.15824 77.4235C9.37453 78.2214 9.82108 78.9398 10.4434 79.4909C11.0657 80.0421 11.8368 80.4022 12.6626 80.5273V80.5371C13.2629 80.614 13.8726 80.5776 14.4592 80.4297V80.4199C15.262 80.1911 15.9807 79.7376 16.5289 79.1142C17.0771 78.4908 17.4313 77.7241 17.549 76.9062L18.2202 72.1822L18.3189 71.4794C18.341 71.3419 18.3349 71.2014 18.3008 71.0664C18.2668 70.9313 18.2056 70.8044 18.1208 70.6932C18.036 70.582 17.9294 70.4889 17.8074 70.4194C17.6854 70.3499 17.5505 70.3054 17.4108 70.2887Z" fill="#82B1FF"/>
<path d="M10.8659 75.8327C10.8008 75.8326 10.7377 75.8114 10.686 75.7723C10.6344 75.7333 10.5973 75.6785 10.5803 75.6164L9.47467 71.5854C9.45412 71.5104 9.46453 71.4305 9.5036 71.3631C9.54267 71.2957 9.6072 71.2465 9.68301 71.2261C9.75882 71.2058 9.83968 71.2161 9.90782 71.2547C9.97595 71.2934 10.0258 71.3572 10.0463 71.4321L11.1515 75.4637C11.1721 75.5386 11.1617 75.6186 11.1226 75.6859C11.0835 75.7533 11.019 75.8025 10.9431 75.8228C10.9179 75.8295 10.8919 75.8328 10.8659 75.8327Z" fill="#222433"/>
<path d="M15.6244 75.5398C15.6104 75.5398 15.5964 75.5388 15.5826 75.5369C15.5048 75.5261 15.4346 75.4851 15.3874 75.423C15.3402 75.361 15.3198 75.2829 15.3308 75.206L15.9231 71.0676C15.9341 70.9907 15.9755 70.9213 16.0383 70.8746C16.101 70.8279 16.18 70.8078 16.2578 70.8187C16.3355 70.8296 16.4058 70.8705 16.453 70.9326C16.5002 70.9946 16.5205 71.0727 16.5095 71.1496L15.9173 75.288C15.9073 75.3578 15.8722 75.4217 15.8183 75.468C15.7645 75.5142 15.6957 75.5398 15.6244 75.5398Z" fill="#222433"/>
<path d="M13.8966 87.1841C13.8543 87.1841 13.8125 87.1751 13.774 87.1578C13.7355 87.1405 13.7012 87.1152 13.6734 87.0837L9.61624 82.4866C9.56459 82.428 9.53856 82.3516 9.5439 82.2741C9.54923 82.1966 9.58548 82.1244 9.64467 82.0733C9.70387 82.0222 9.78116 81.9965 9.85954 82.0018C9.93792 82.007 10.011 82.0429 10.0626 82.1014L14.1198 86.6986C14.1572 86.7409 14.1815 86.793 14.1897 86.8487C14.198 86.9043 14.1898 86.9611 14.1663 87.0123C14.1428 87.0635 14.1048 87.1069 14.057 87.1373C14.0092 87.1678 13.9536 87.184 13.8967 87.184L13.8966 87.1841Z" fill="#222433"/>
<path d="M13.8962 87.184C13.8434 87.1839 13.7916 87.1699 13.7462 87.1434C13.7007 87.1169 13.6632 87.0789 13.6376 87.0333C13.6119 86.9877 13.5991 86.9361 13.6004 86.8839C13.6017 86.8318 13.6171 86.7809 13.645 86.7366L16.9026 81.5538C16.9229 81.5207 16.9496 81.4918 16.9813 81.469C17.0129 81.4462 17.0488 81.4298 17.0869 81.4208C17.125 81.4117 17.1645 81.4103 17.2032 81.4165C17.2419 81.4227 17.2789 81.4364 17.3122 81.4569C17.3455 81.4773 17.3743 81.5041 17.397 81.5356C17.4198 81.5672 17.4359 81.6029 17.4446 81.6407C17.4533 81.6784 17.4543 81.7175 17.4476 81.7557C17.4409 81.7939 17.4266 81.8303 17.4055 81.863L14.1479 87.0458C14.1213 87.0881 14.0843 87.123 14.0402 87.1472C13.9962 87.1713 13.9466 87.184 13.8962 87.184Z" fill="#222433"/>
<path d="M152.213 107.682C152.273 107.629 152.328 107.571 152.379 107.506L154.283 105.043C154.706 104.495 154.605 103.708 154.057 103.283C153.509 102.859 152.721 102.959 152.298 103.506L151.477 104.568L151.306 103.235C151.217 102.548 150.589 102.062 149.902 102.149C149.216 102.236 148.731 102.863 148.819 103.55L148.99 104.883L147.926 104.059C147.378 103.635 146.591 103.734 146.168 104.282C145.745 104.829 145.846 105.617 146.394 106.041L148.861 107.951C148.958 108.026 149.063 108.084 149.172 108.127C146.467 109.212 144.73 112.019 145.119 115.047C145.582 118.646 148.873 121.195 152.471 120.739C156.068 120.284 158.609 116.997 158.146 113.399C157.745 110.28 155.22 107.952 152.213 107.682Z" fill="white"/>
<path d="M152.504 120.997C148.77 121.47 145.342 118.815 144.861 115.08C144.487 112.166 146.016 109.362 148.616 108.089L146.235 106.246C145.575 105.735 145.452 104.782 145.962 104.123C146.209 103.803 146.566 103.599 146.967 103.548C147.368 103.498 147.765 103.606 148.085 103.854L148.653 104.294L148.561 103.583C148.455 102.755 149.042 101.996 149.869 101.891C150.697 101.786 151.457 102.375 151.563 103.203L151.655 103.913L152.093 103.347C152.34 103.027 152.696 102.823 153.097 102.773C153.498 102.722 153.895 102.83 154.215 103.078C154.876 103.59 154.998 104.542 154.488 105.202L152.723 107.485C154.07 107.707 155.337 108.335 156.335 109.284C157.469 110.363 158.203 111.812 158.403 113.366C158.884 117.101 156.237 120.525 152.504 120.997ZM147.033 104.063C146.77 104.097 146.535 104.231 146.373 104.441C146.038 104.874 146.119 105.5 146.553 105.836L149.02 107.746C149.093 107.803 149.176 107.85 149.266 107.885C149.365 107.924 149.43 108.019 149.431 108.126C149.431 108.232 149.367 108.328 149.268 108.368C146.611 109.434 145.01 112.168 145.376 115.015C145.82 118.466 148.988 120.919 152.437 120.482C155.887 120.045 158.332 116.882 157.888 113.431C157.513 110.513 155.117 108.204 152.19 107.94C152.087 107.931 151.999 107.861 151.966 107.762C151.934 107.663 151.963 107.555 152.042 107.486C152.091 107.443 152.135 107.396 152.173 107.347L154.077 104.884C154.24 104.674 154.31 104.413 154.277 104.15C154.243 103.886 154.108 103.651 153.898 103.489C153.688 103.326 153.427 103.255 153.164 103.288C152.9 103.321 152.666 103.455 152.504 103.665L151.683 104.727C151.618 104.81 151.51 104.846 151.409 104.818C151.308 104.791 151.233 104.705 151.22 104.6L151.048 103.268C150.978 102.724 150.479 102.337 149.935 102.406C149.392 102.475 149.006 102.974 149.076 103.518L149.248 104.85C149.261 104.954 149.21 105.056 149.119 105.108C149.028 105.16 148.915 105.152 148.832 105.088L147.768 104.264C147.557 104.101 147.297 104.03 147.033 104.063Z" fill="#222433"/>
<path d="M155.109 142.795C154.967 142.813 154.838 142.713 154.819 142.57L151.198 114.276C151.18 114.134 151.28 114.004 151.422 113.986C151.564 113.968 151.694 114.068 151.712 114.211L155.334 142.505C155.352 142.647 155.251 142.777 155.109 142.795Z" fill="#222433"/>
<path d="M142.674 142.628C142.531 142.651 142.397 142.554 142.374 142.412L140.692 132C140.669 131.857 140.766 131.723 140.908 131.7C141.05 131.678 141.185 131.774 141.208 131.917L142.89 142.329C142.913 142.471 142.816 142.605 142.674 142.628Z" fill="#222433"/>
<path d="M141.243 133.765C142.241 133.605 142.92 132.666 142.759 131.669C142.597 130.671 141.656 129.992 140.658 130.153C139.659 130.313 138.98 131.251 139.142 132.249C139.303 133.246 140.244 133.925 141.243 133.765Z" fill="#82B1FF"/>
<path d="M23.8394 103.672C25.3293 103.672 26.5371 102.464 26.5371 100.974C26.5371 99.4841 25.3293 98.2762 23.8394 98.2762C22.3494 98.2762 21.1416 99.4841 21.1416 100.974C21.1416 102.464 22.3494 103.672 23.8394 103.672Z" fill="white"/>
<path d="M23.8395 103.948C23.2513 103.948 22.6763 103.773 22.1872 103.447C21.6981 103.12 21.317 102.655 21.0919 102.112C20.8668 101.569 20.8079 100.971 20.9226 100.394C21.0374 99.8169 21.3206 99.287 21.7365 98.871C22.1525 98.4551 22.6824 98.1719 23.2593 98.0571C23.8362 97.9424 24.4341 98.0013 24.9776 98.2264C25.521 98.4515 25.9854 98.8326 26.3122 99.3217C26.639 99.8108 26.8134 100.386 26.8134 100.974C26.8125 101.762 26.4989 102.518 25.9414 103.076C25.3838 103.633 24.6279 103.947 23.8395 103.948ZM23.8395 98.5524C23.3605 98.5524 22.8923 98.6945 22.4941 98.9605C22.0959 99.2266 21.7855 99.6048 21.6023 100.047C21.419 100.49 21.371 100.977 21.4645 101.446C21.5579 101.916 21.7885 102.348 22.1272 102.686C22.4658 103.025 22.8973 103.255 23.367 103.349C23.8368 103.442 24.3237 103.394 24.7661 103.211C25.2086 103.028 25.5868 102.717 25.8529 102.319C26.119 101.921 26.261 101.453 26.261 100.974C26.2603 100.332 26.0049 99.7164 25.5509 99.2625C25.097 98.8085 24.4815 98.5532 23.8395 98.5524Z" fill="#222433"/>
<path d="M26.6936 109.426C28.1835 109.426 29.3914 108.218 29.3914 106.728C29.3914 105.239 28.1835 104.031 26.6936 104.031C25.2037 104.031 23.9958 105.239 23.9958 106.728C23.9958 108.218 25.2037 109.426 26.6936 109.426Z" fill="white"/>
<path d="M26.6937 109.702C26.1055 109.702 25.5305 109.528 25.0415 109.201C24.5524 108.874 24.1712 108.41 23.9461 107.867C23.721 107.323 23.6621 106.725 23.7769 106.148C23.8916 105.571 24.1749 105.041 24.5908 104.626C25.0067 104.21 25.5366 103.926 26.1135 103.812C26.6904 103.697 27.2884 103.756 27.8318 103.981C28.3752 104.206 28.8397 104.587 29.1665 105.076C29.4933 105.565 29.6677 106.14 29.6677 106.728C29.6668 107.517 29.3532 108.273 28.7957 108.83C28.2381 109.388 27.4822 109.702 26.6937 109.702ZM26.6937 104.307C26.2148 104.307 25.7466 104.449 25.3484 104.715C24.9502 104.981 24.6398 105.359 24.4565 105.802C24.2732 106.244 24.2253 106.731 24.3187 107.201C24.4121 107.671 24.6428 108.102 24.9814 108.441C25.3201 108.779 25.7516 109.01 26.2213 109.103C26.691 109.197 27.1779 109.149 27.6204 108.966C28.0629 108.782 28.4411 108.472 28.7071 108.074C28.9732 107.676 29.1152 107.207 29.1152 106.728C29.1145 106.086 28.8592 105.471 28.4052 105.017C27.9512 104.563 27.3357 104.308 26.6937 104.307Z" fill="#222433"/>
<path d="M21.3074 109.574C22.7973 109.574 24.0051 108.366 24.0051 106.876C24.0051 105.386 22.7973 104.178 21.3074 104.178C19.8174 104.178 18.6096 105.386 18.6096 106.876C18.6096 108.366 19.8174 109.574 21.3074 109.574Z" fill="white"/>
<path d="M21.3075 109.85C20.7193 109.85 20.1443 109.675 19.6552 109.349C19.1662 109.022 18.785 108.557 18.5599 108.014C18.3348 107.47 18.2759 106.873 18.3906 106.296C18.5054 105.719 18.7886 105.189 19.2046 104.773C19.6205 104.357 20.1504 104.074 20.7273 103.959C21.3042 103.844 21.9021 103.903 22.4456 104.128C22.989 104.353 23.4535 104.735 23.7802 105.224C24.107 105.713 24.2815 106.288 24.2815 106.876C24.2806 107.664 23.9669 108.42 23.4094 108.978C22.8519 109.535 22.0959 109.849 21.3075 109.85ZM21.3075 104.454C20.8285 104.454 20.3604 104.596 19.9621 104.862C19.5639 105.128 19.2535 105.507 19.0703 105.949C18.887 106.392 18.839 106.878 18.9325 107.348C19.0259 107.818 19.2565 108.249 19.5952 108.588C19.9338 108.927 20.3653 109.157 20.8351 109.251C21.3048 109.344 21.7917 109.296 22.2342 109.113C22.6766 108.93 23.0548 108.619 23.3209 108.221C23.587 107.823 23.729 107.355 23.729 106.876C23.7283 106.234 23.4729 105.618 23.019 105.164C22.565 104.71 21.9495 104.455 21.3075 104.454Z" fill="#222433"/>
<path d="M26.8594 115.42C28.3493 115.42 29.5571 114.212 29.5571 112.722C29.5571 111.232 28.3493 110.025 26.8594 110.025C25.3694 110.025 24.1616 111.232 24.1616 112.722C24.1616 114.212 25.3694 115.42 26.8594 115.42Z" fill="white"/>
<path d="M26.8595 115.696C26.2713 115.696 25.6963 115.522 25.2072 115.195C24.7182 114.868 24.337 114.404 24.1119 113.86C23.8868 113.317 23.8279 112.719 23.9426 112.142C24.0574 111.565 24.3406 111.035 24.7566 110.619C25.1725 110.204 25.7024 109.92 26.2793 109.806C26.8562 109.691 27.4541 109.75 27.9976 109.975C28.541 110.2 29.0055 110.581 29.3322 111.07C29.659 111.559 29.8335 112.134 29.8335 112.722C29.8326 113.511 29.519 114.267 28.9614 114.824C28.4039 115.382 27.648 115.695 26.8595 115.696ZM26.8595 110.301C26.3805 110.301 25.9124 110.443 25.5141 110.709C25.1159 110.975 24.8056 111.353 24.6223 111.796C24.439 112.238 24.391 112.725 24.4845 113.195C24.5779 113.665 24.8085 114.096 25.1472 114.435C25.4859 114.773 25.9173 115.004 26.3871 115.097C26.8568 115.191 27.3437 115.143 27.7862 114.96C28.2286 114.776 28.6068 114.466 28.8729 114.068C29.139 113.669 29.281 113.201 29.281 112.722C29.2803 112.08 29.0249 111.465 28.571 111.011C28.117 110.557 27.5015 110.302 26.8595 110.301Z" fill="#222433"/>
<path d="M21.4641 115.558C22.954 115.558 24.1619 114.35 24.1619 112.861C24.1619 111.371 22.954 110.163 21.4641 110.163C19.9742 110.163 18.7664 111.371 18.7664 112.861C18.7664 114.35 19.9742 115.558 21.4641 115.558Z" fill="white"/>
<path d="M21.464 115.834C20.8758 115.834 20.3008 115.66 19.8117 115.333C19.3226 115.007 18.9415 114.542 18.7164 113.999C18.4913 113.455 18.4324 112.857 18.5471 112.28C18.6619 111.703 18.9451 111.174 19.361 110.758C19.777 110.342 20.3069 110.058 20.8838 109.944C21.4607 109.829 22.0586 109.888 22.6021 110.113C23.1455 110.338 23.61 110.719 23.9367 111.208C24.2635 111.697 24.438 112.272 24.438 112.861C24.437 113.649 24.1234 114.405 23.5659 114.962C23.0084 115.52 22.2524 115.834 21.464 115.834ZM21.464 110.439C20.985 110.439 20.5169 110.581 20.1186 110.847C19.7204 111.113 19.41 111.491 19.2268 111.934C19.0435 112.376 18.9955 112.863 19.089 113.333C19.1824 113.803 19.413 114.234 19.7517 114.573C20.0903 114.911 20.5218 115.142 20.9916 115.236C21.4613 115.329 21.9482 115.281 22.3907 115.098C22.8331 114.914 23.2113 114.604 23.4774 114.206C23.7435 113.808 23.8855 113.339 23.8855 112.861C23.8848 112.219 23.6294 111.603 23.1754 111.149C22.7215 110.695 22.106 110.44 21.464 110.439Z" fill="#222433"/>
<path d="M24.9536 142.223C24.8816 142.223 24.8125 142.194 24.7609 142.144C24.7093 142.094 24.6793 142.026 24.6774 141.954L23.6007 102.251C23.5997 102.214 23.6059 102.178 23.6188 102.144C23.6318 102.11 23.6513 102.079 23.6763 102.053C23.7266 102 23.7961 101.969 23.8694 101.967C23.9426 101.965 24.0137 101.992 24.0669 102.042C24.1201 102.093 24.1511 102.162 24.1531 102.235L25.2298 141.939C25.2308 141.975 25.2246 142.011 25.2117 142.045C25.1987 142.079 25.1792 142.11 25.1542 142.136C25.1293 142.163 25.0994 142.184 25.0663 142.199C25.0331 142.213 24.9974 142.221 24.9612 142.222L24.9536 142.223Z" fill="#222433"/>
<path d="M135.681 137.174C136.37 137.174 136.928 136.606 136.928 135.906C136.928 135.205 136.37 134.637 135.681 134.637C134.992 134.637 134.433 135.205 134.433 135.906C134.433 136.606 134.992 137.174 135.681 137.174Z" fill="white"/>
<path d="M135.681 137.416C135.387 137.416 135.1 137.328 134.855 137.162C134.611 136.996 134.42 136.76 134.308 136.484C134.195 136.208 134.166 135.904 134.223 135.611C134.281 135.318 134.422 135.049 134.63 134.837C134.838 134.626 135.103 134.482 135.391 134.424C135.679 134.366 135.978 134.396 136.249 134.51C136.521 134.624 136.753 134.818 136.916 135.066C137.08 135.315 137.167 135.607 137.167 135.906C137.166 136.306 137.01 136.69 136.731 136.973C136.452 137.257 136.075 137.416 135.681 137.416ZM135.681 134.88C135.481 134.88 135.286 134.94 135.12 135.053C134.954 135.165 134.825 135.326 134.748 135.513C134.672 135.701 134.652 135.907 134.691 136.106C134.73 136.305 134.826 136.488 134.967 136.631C135.108 136.775 135.288 136.872 135.484 136.912C135.68 136.951 135.883 136.931 136.067 136.853C136.251 136.776 136.409 136.644 136.52 136.476C136.631 136.307 136.69 136.109 136.69 135.906C136.69 135.634 136.583 135.373 136.394 135.181C136.205 134.988 135.948 134.88 135.681 134.88Z" fill="#222433"/>
<path d="M131.89 138.426C132.435 138.426 132.876 137.978 132.876 137.424C132.876 136.871 132.435 136.423 131.89 136.423C131.346 136.423 130.905 136.871 130.905 137.424C130.905 137.978 131.346 138.426 131.89 138.426Z" fill="white"/>
<path d="M131.89 138.668C131.648 138.668 131.412 138.595 131.211 138.459C131.009 138.322 130.853 138.128 130.76 137.9C130.667 137.673 130.643 137.423 130.69 137.182C130.737 136.94 130.854 136.719 131.025 136.545C131.196 136.371 131.414 136.252 131.652 136.204C131.889 136.156 132.135 136.181 132.359 136.275C132.582 136.369 132.773 136.529 132.908 136.733C133.042 136.938 133.114 137.178 133.114 137.424C133.114 137.754 132.985 138.07 132.755 138.304C132.526 138.537 132.215 138.668 131.89 138.668ZM131.89 136.665C131.743 136.665 131.598 136.71 131.475 136.793C131.353 136.876 131.257 136.995 131.2 137.134C131.144 137.273 131.129 137.425 131.158 137.572C131.187 137.72 131.258 137.855 131.362 137.961C131.467 138.067 131.6 138.14 131.745 138.169C131.89 138.198 132.04 138.183 132.176 138.126C132.313 138.068 132.429 137.971 132.512 137.846C132.594 137.721 132.637 137.575 132.637 137.424C132.637 137.223 132.558 137.03 132.418 136.888C132.278 136.745 132.088 136.665 131.89 136.665Z" fill="#222433"/>
<path d="M133.837 142.707C133.8 142.707 133.764 142.699 133.731 142.682C133.698 142.665 133.669 142.641 133.647 142.611C133.625 142.581 133.61 142.546 133.603 142.509C133.596 142.473 133.598 142.435 133.608 142.398L135.452 135.839C135.46 135.808 135.474 135.779 135.494 135.754C135.513 135.729 135.537 135.708 135.565 135.692C135.592 135.676 135.622 135.667 135.654 135.663C135.685 135.659 135.717 135.662 135.747 135.67C135.777 135.679 135.805 135.694 135.83 135.714C135.855 135.734 135.875 135.759 135.89 135.787C135.905 135.815 135.915 135.846 135.918 135.877C135.922 135.909 135.919 135.941 135.91 135.972L134.066 142.532C134.052 142.582 134.022 142.627 133.981 142.658C133.94 142.69 133.889 142.707 133.837 142.707Z" fill="#222433"/>
<path d="M133.837 142.708C133.79 142.708 133.743 142.693 133.703 142.666C133.664 142.638 133.633 142.599 133.616 142.554L131.669 137.513C131.646 137.453 131.647 137.387 131.672 137.328C131.697 137.269 131.744 137.222 131.803 137.199C131.862 137.175 131.928 137.176 131.986 137.202C132.044 137.228 132.089 137.276 132.112 137.336L134.059 142.376C134.073 142.413 134.079 142.453 134.074 142.492C134.07 142.531 134.056 142.569 134.035 142.602C134.013 142.634 133.983 142.661 133.949 142.679C133.915 142.698 133.876 142.708 133.837 142.708H133.837Z" fill="#222433"/>
<path d="M42.9685 89.2604C41.9506 88.0135 41.8316 86.2608 42.6716 84.8881C43.457 83.5896 43.8848 82.1068 43.9118 80.59C43.9943 76.3999 41.0343 72.8207 37.0752 71.9644L39.3184 69.7242C39.8501 69.1932 39.8501 68.3325 39.3184 67.8015C38.7868 67.2705 37.9249 67.2705 37.3933 67.8015L36.3622 68.8312V67.3748C36.3622 66.6239 35.7527 66.0153 35.0009 66.0153C34.249 66.0153 33.6396 66.6239 33.6396 67.3748V68.8318L32.6081 67.8018C32.0764 67.2708 31.2146 67.2708 30.6829 67.8018C30.1512 68.3327 30.1512 69.1935 30.6829 69.7244L33.0211 72.0595C29.3627 73.0308 26.6441 76.336 26.5884 80.3019C26.5659 81.9093 26.9921 83.4913 27.8195 84.8703C28.65 86.2505 28.571 88.0012 27.5442 89.2463C26.0404 91.071 25.2387 93.3723 25.2838 95.7352C25.3777 101.083 29.751 105.439 35.107 105.514C40.6116 105.593 45.1381 101.2 45.2173 95.703C45.251 93.358 44.4546 91.0763 42.9685 89.2604Z" fill="white"/>
<path d="M35.2525 105.796C35.2027 105.796 35.153 105.796 35.1029 105.795C32.4392 105.758 29.9248 104.695 28.023 102.801C26.1215 100.908 25.0486 98.4004 25.0018 95.7402C24.9555 93.3125 25.7811 90.9425 27.3264 89.0675C28.2566 87.9397 28.3575 86.3113 27.5777 85.0153C26.7227 83.59 26.2832 81.9589 26.3065 80.298C26.3602 76.4721 28.8773 73.0951 32.4864 71.9238L30.4836 69.9235C29.843 69.2837 29.843 68.2426 30.4836 67.6028C31.1243 66.963 32.1667 66.963 32.8074 67.6028L33.3577 68.1523V67.3748C33.3577 66.4699 34.0948 65.7338 35.0009 65.7338C35.9069 65.7338 36.644 66.4699 36.644 67.3748V68.1517L37.194 67.6025C37.8346 66.9627 38.8771 66.9627 39.5178 67.6025C40.1584 68.2423 40.1584 69.2833 39.5178 69.9232L37.6279 71.8106C41.5404 72.8915 44.2741 76.5074 44.1937 80.5955C44.1659 82.1594 43.723 83.6943 42.9131 85.0336C42.136 86.3035 42.2462 87.9299 43.187 89.0823C44.7127 90.9468 45.5339 93.2995 45.4992 95.7071C45.4184 101.301 40.8361 105.796 35.2525 105.796ZM31.6455 67.6856C31.3691 67.6856 31.0926 67.7907 30.8822 68.0009C30.4613 68.4212 30.4613 69.1051 30.8822 69.5254L33.2203 71.8604C33.2916 71.9316 33.3193 72.0354 33.2932 72.1326C33.267 72.2298 33.1909 72.3056 33.0934 72.3315C29.4817 73.2905 26.9226 76.5697 26.8702 80.3059C26.8484 81.8622 27.2602 83.3906 28.0611 84.7257C28.9634 86.2252 28.8431 88.114 27.7616 89.4253C26.3016 91.1968 25.5217 93.4358 25.5654 95.7299C25.6562 100.897 29.9383 105.16 35.1109 105.232C35.1578 105.233 35.2055 105.233 35.2523 105.233C40.5292 105.234 44.8591 100.986 44.9353 95.6991C44.9681 93.4238 44.1921 91.2005 42.7503 89.4386C42.7502 89.4385 42.7502 89.4384 42.7501 89.4383C41.6583 88.1012 41.5302 86.2136 42.4312 84.7415C43.1892 83.4882 43.604 82.0505 43.63 80.5851C43.7086 76.5952 40.9268 73.0856 37.0156 72.2397C36.9148 72.2179 36.834 72.1428 36.8049 72.0441C36.7757 71.9453 36.8031 71.8384 36.876 71.7656L39.1192 69.5253C39.323 69.3217 39.4353 69.0509 39.4353 68.763C39.4353 68.475 39.323 68.2044 39.1192 68.0007C38.9153 67.7971 38.6442 67.6849 38.3558 67.6849C38.0675 67.6849 37.7965 67.7971 37.5925 68.0007L36.5614 69.0304C36.4808 69.1109 36.3595 69.135 36.2543 69.0914C36.149 69.0478 36.0803 68.9452 36.0803 68.8313V67.3748C36.0803 66.7803 35.5961 66.2967 35.0009 66.2967C34.4056 66.2967 33.9214 66.7803 33.9214 67.3748V68.8318C33.9214 68.9456 33.8527 69.0482 33.7474 69.0919C33.6421 69.1354 33.5209 69.1114 33.4403 69.0309L32.4088 68.0009C32.1984 67.7907 31.922 67.6856 31.6455 67.6856Z" fill="#222433"/>
<path d="M35.2506 142.874C35.0949 142.874 34.9688 142.748 34.9688 142.592V82.2507C34.9688 82.0952 35.0949 81.9692 35.2506 81.9692C35.4063 81.9692 35.5324 82.0952 35.5324 82.2507V142.592C35.5324 142.748 35.4063 142.874 35.2506 142.874Z" fill="#222433"/>
<path d="M35.3136 98.2375C35.242 98.2375 35.1703 98.2104 35.1154 98.1562C35.0047 98.0469 35.0038 97.8686 35.1132 97.7581L37.8997 94.9452C38.0092 94.8347 38.1877 94.8337 38.2983 94.9431C38.409 95.0524 38.41 95.2306 38.3005 95.3412L35.514 98.154C35.4589 98.2097 35.3863 98.2375 35.3136 98.2375Z" fill="#222433"/>
<path d="M35.1878 98.2375C35.1156 98.2375 35.0435 98.21 34.9885 98.155L32.1719 95.3421C32.0618 95.2322 32.0618 95.054 32.1719 94.944C32.282 94.8341 32.4605 94.8341 32.5706 94.944L35.3871 97.7569C35.4972 97.8669 35.4972 98.0451 35.3871 98.155C35.3321 98.21 35.2599 98.2375 35.1878 98.2375Z" fill="#222433"/>
<path d="M35.3136 94.3503C35.2419 94.3503 35.1703 94.3232 35.1154 94.2689C35.0047 94.1596 35.0037 93.9813 35.1133 93.8708L37.8998 91.0588C38.0092 90.9483 38.1877 90.9474 38.2984 91.0568C38.4091 91.1661 38.41 91.3444 38.3005 91.4549L35.514 94.2668C35.4588 94.3224 35.3862 94.3503 35.3136 94.3503Z" fill="#222433"/>
<path d="M35.1878 94.3504C35.1156 94.3504 35.0436 94.3229 34.9885 94.268L32.1719 91.456C32.0618 91.3462 32.0618 91.1679 32.1719 91.0579C32.282 90.948 32.4604 90.948 32.5705 91.0579L35.387 93.8698C35.4972 93.9797 35.4972 94.1579 35.3871 94.2679C35.3321 94.3229 35.2599 94.3504 35.1878 94.3504Z" fill="#222433"/>
<path d="M35.3136 90.4641C35.242 90.4641 35.1703 90.437 35.1154 90.3828C35.0047 90.2734 35.0038 90.0952 35.1132 89.9847L37.8997 87.1718C38.0092 87.0613 38.1877 87.0603 38.2983 87.1696C38.409 87.2789 38.41 87.4572 38.3005 87.5677L35.514 90.3806C35.4589 90.4362 35.3863 90.4641 35.3136 90.4641Z" fill="#222433"/>
<path d="M35.1878 90.4642C35.1156 90.4642 35.0435 90.4367 34.9885 90.3817L32.1719 87.5688C32.0618 87.4589 32.0618 87.2807 32.1719 87.1707C32.282 87.0608 32.4605 87.0608 32.5706 87.1707L35.3871 89.9836C35.4972 90.0936 35.4972 90.2717 35.3871 90.3817C35.3321 90.4367 35.2599 90.4642 35.1878 90.4642Z" fill="#222433"/>
<path d="M35.3136 86.577C35.242 86.577 35.1703 86.5499 35.1154 86.4957C35.0047 86.3863 35.0038 86.2081 35.1132 86.0976L37.8997 83.2847C38.0092 83.1742 38.1877 83.1732 38.2983 83.2825C38.409 83.3918 38.41 83.5701 38.3005 83.6806L35.514 86.4935C35.4589 86.5491 35.3863 86.577 35.3136 86.577Z" fill="#222433"/>
<path d="M35.1878 86.577C35.1156 86.577 35.0435 86.5495 34.9885 86.4945L32.1719 83.6816C32.0618 83.5717 32.0618 83.3935 32.1719 83.2835C32.282 83.1736 32.4605 83.1736 32.5706 83.2835L35.3871 86.0964C35.4972 86.2064 35.4972 86.3845 35.3871 86.4945C35.3321 86.5495 35.2599 86.577 35.1878 86.577Z" fill="#222433"/>
<path d="M9.57949 142.758C9.57286 142.759 9.56624 142.761 9.55958 142.761C9.48012 142.77 9.40036 142.746 9.33784 142.695C9.27532 142.645 9.23516 142.571 9.2262 142.491L7.51454 127.147C7.50685 127.067 7.5305 126.988 7.58036 126.926C7.63022 126.864 7.70229 126.824 7.78101 126.816C7.85972 126.807 7.93875 126.83 8.00103 126.88C8.0633 126.93 8.10382 127.002 8.11382 127.082L9.82548 142.426C9.83399 142.503 9.81332 142.58 9.76765 142.641C9.72198 142.703 9.65473 142.745 9.57949 142.758Z" fill="#222433"/>
<path d="M7.52072 124.189C7.46107 124.2 7.39956 124.192 7.34416 124.167C7.28876 124.142 7.24203 124.101 7.21005 124.049C7.17807 123.997 7.1623 123.936 7.1648 123.875C7.1673 123.814 7.18794 123.756 7.22406 123.707L8.46973 122.021C8.5175 121.956 8.5889 121.914 8.66822 121.902C8.74754 121.891 8.82829 121.912 8.89269 121.96C8.9571 122.008 8.9999 122.081 9.01166 122.161C9.02343 122.241 9.0032 122.322 8.95543 122.386L7.70976 124.072C7.66403 124.134 7.5964 124.176 7.52072 124.189Z" fill="#222433"/>
<path d="M7.51951 124.19C7.47559 124.198 7.43046 124.196 7.38736 124.184C7.34425 124.172 7.30425 124.151 7.27021 124.122L5.6776 122.753C5.64732 122.727 5.6224 122.695 5.60426 122.66C5.58611 122.624 5.5751 122.585 5.57184 122.545C5.56527 122.465 5.59071 122.385 5.64256 122.324C5.69441 122.263 5.76843 122.225 5.84833 122.218C5.92822 122.212 6.00746 122.238 6.0686 122.291L7.08001 123.16L6.93877 121.9C6.93371 121.86 6.93661 121.819 6.94729 121.78C6.95797 121.741 6.97622 121.705 7.00098 121.673C7.02574 121.642 7.05652 121.616 7.09152 121.596C7.12652 121.577 7.16505 121.564 7.20487 121.56C7.24469 121.556 7.285 121.559 7.32346 121.571C7.36191 121.583 7.39775 121.602 7.42888 121.627C7.46002 121.653 7.48583 121.684 7.50481 121.72C7.52379 121.756 7.53557 121.795 7.53945 121.835L7.76606 123.857C7.77462 123.934 7.75391 124.011 7.70811 124.073C7.66232 124.135 7.59487 124.177 7.51942 124.19L7.51951 124.19Z" fill="#222433"/>
<path d="M10.4427 127.197L10.3393 126.276C10.2474 125.472 10.4351 124.663 10.8704 123.985L11.1901 123.485L3.72168 124.29L4.14483 124.71C4.71969 125.277 5.08179 126.026 5.16891 126.83L5.27233 127.75C5.31055 128.092 5.41513 128.423 5.58011 128.724C5.74508 129.025 5.96721 129.291 6.23381 129.507C6.50041 129.722 6.80625 129.882 7.13387 129.979C7.46149 130.076 7.80446 130.106 8.14319 130.069C8.48248 130.035 8.81127 129.933 9.11068 129.769C9.41009 129.606 9.67422 129.384 9.8879 129.117C10.1016 128.851 10.2606 128.543 10.3558 128.214C10.451 127.884 10.4805 127.539 10.4427 127.197Z" fill="#82B1FF"/>
<path d="M191.931 93.3693C190.995 92.2231 190.886 90.6118 191.658 89.3499C192.38 88.1561 192.774 86.793 192.799 85.3986C192.874 81.5466 190.153 78.2563 186.512 77.4691L188.575 75.4096C189.064 74.9215 189.064 74.1302 188.575 73.6421C188.086 73.154 187.293 73.154 186.804 73.6421L185.856 74.5887V73.2498C185.856 72.5595 185.296 72 184.604 72C183.913 72 183.352 72.5595 183.352 73.2498V74.5892L182.404 73.6424C181.915 73.1542 181.122 73.1542 180.633 73.6424C180.145 74.1305 180.145 74.9218 180.633 75.4099L182.784 77.5564C179.419 78.4494 176.919 81.4879 176.868 85.1337C176.847 86.6114 177.239 88.0657 178 89.3335C178.764 90.6023 178.691 92.2118 177.747 93.3564C176.364 95.0338 175.627 97.1494 175.668 99.3217C175.755 104.238 179.776 108.242 184.702 108.311C189.764 108.384 193.926 104.346 193.999 99.2921C194.03 97.1362 193.298 95.0387 191.931 93.3693Z" fill="#82B1FF"/>
<path d="M184.834 142.656C184.691 142.656 184.575 142.54 184.575 142.397V86.9253C184.575 86.7823 184.691 86.6665 184.834 86.6665C184.977 86.6665 185.093 86.7823 185.093 86.9253V142.397C185.093 142.54 184.977 142.656 184.834 142.656Z" fill="#222433"/>
<path d="M184.892 101.622C184.826 101.622 184.76 101.597 184.709 101.547C184.608 101.447 184.607 101.283 184.707 101.181L187.27 98.5953C187.371 98.4937 187.535 98.4929 187.637 98.5934C187.738 98.6938 187.739 98.8577 187.639 98.9593L185.076 101.545C185.025 101.596 184.959 101.622 184.892 101.622Z" fill="#222433"/>
<path d="M184.776 101.622C184.71 101.622 184.643 101.597 184.593 101.546L182.003 98.9603C181.901 98.8593 181.901 98.6955 182.003 98.5944C182.104 98.4933 182.268 98.4933 182.369 98.5944L184.959 101.18C185.061 101.281 185.061 101.445 184.959 101.546C184.909 101.597 184.842 101.622 184.776 101.622Z" fill="#222433"/>
<path d="M184.892 98.0485C184.826 98.0485 184.76 98.0236 184.709 97.9736C184.608 97.8732 184.607 97.7093 184.708 97.6077L187.27 95.0227C187.371 94.9211 187.535 94.9202 187.637 95.0208C187.738 95.1213 187.739 95.2852 187.639 95.3868L185.076 97.9717C185.025 98.0229 184.959 98.0485 184.892 98.0485Z" fill="#222433"/>
<path d="M184.776 98.0485C184.71 98.0485 184.643 98.0232 184.593 97.9727L182.003 95.3877C181.901 95.2867 181.901 95.1228 182.003 95.0218C182.104 94.9207 182.268 94.9207 182.369 95.0217L184.959 97.6067C185.061 97.7077 185.061 97.8716 184.959 97.9727C184.909 98.0232 184.842 98.0485 184.776 98.0485Z" fill="#222433"/>
<path d="M184.892 94.476C184.826 94.476 184.76 94.451 184.709 94.4012C184.608 94.3007 184.607 94.1368 184.707 94.0352L187.27 91.4493C187.371 91.3477 187.535 91.3469 187.637 91.4474C187.738 91.5478 187.739 91.7117 187.639 91.8133L185.076 94.3992C185.025 94.4504 184.959 94.476 184.892 94.476Z" fill="#222433"/>
<path d="M184.776 94.4759C184.71 94.4759 184.643 94.4507 184.593 94.4001L182.003 91.8142C181.901 91.7131 181.901 91.5493 182.003 91.4483C182.104 91.3472 182.268 91.3472 182.369 91.4483L184.959 94.0341C185.061 94.1352 185.061 94.299 184.959 94.4001C184.909 94.4507 184.842 94.4759 184.776 94.4759Z" fill="#222433"/>
<path d="M184.892 90.9025C184.826 90.9025 184.76 90.8776 184.709 90.8277C184.608 90.7272 184.607 90.5633 184.707 90.4617L187.27 87.8759C187.371 87.7742 187.535 87.7734 187.637 87.8739C187.738 87.9744 187.739 88.1382 187.639 88.2398L185.076 90.8257C185.025 90.8769 184.959 90.9025 184.892 90.9025Z" fill="#222433"/>
<path d="M184.776 90.9024C184.71 90.9024 184.643 90.8772 184.593 90.8266L182.003 88.2407C181.901 88.1397 181.901 87.9759 182.003 87.8748C182.104 87.7737 182.268 87.7737 182.369 87.8748L184.959 90.4606C185.061 90.5617 185.061 90.7255 184.959 90.8266C184.909 90.8772 184.842 90.9024 184.776 90.9024Z" fill="#222433"/>
<path d="M152.868 56.1395C152.809 56.1462 151.704 55.8696 151.529 55.8164L153.424 52.1112C153.442 52.0772 153.468 52.0486 153.501 52.0287C153.533 52.0087 153.571 51.9982 153.609 51.9982H153.612C153.651 51.9987 153.689 52.01 153.722 52.0309C153.755 52.0518 153.781 52.0814 153.797 52.1164L154.761 54.1362C154.763 54.1403 154.764 54.1444 154.766 54.1485C154.919 54.5324 154.897 54.9602 154.784 55.3793C154.758 55.3924 153.503 56.0668 152.868 56.1395Z" fill="white"/>
<path d="M152.883 56.3679C152.693 56.3679 151.473 56.0392 151.462 56.0358C151.429 56.026 151.4 56.0093 151.375 55.9869C151.35 55.9646 151.33 55.937 151.317 55.9062C151.303 55.8753 151.297 55.842 151.298 55.8085C151.299 55.7751 151.308 55.7422 151.323 55.7124L153.219 52.0072C153.256 51.9345 153.313 51.8737 153.383 51.8316C153.453 51.7894 153.534 51.7677 153.616 51.7688C153.698 51.77 153.777 51.7939 153.846 51.8379C153.915 51.8819 153.971 51.9443 154.006 52.0179L154.969 54.0379C154.973 54.0455 154.976 54.0536 154.98 54.0614C155.138 54.4579 155.146 54.9205 155.007 55.4386C154.998 55.4697 154.983 55.4987 154.963 55.5238C154.943 55.5488 154.917 55.5693 154.888 55.5839L154.881 55.5876C154.568 55.7531 153.498 56.2986 152.895 56.3674C152.891 56.3678 152.887 56.368 152.883 56.3679ZM151.863 55.669C152.207 55.7576 152.743 55.8875 152.866 55.9086C153.269 55.853 154 55.5281 154.585 55.224C154.674 54.8433 154.662 54.5103 154.552 54.2331L153.609 52.256L151.863 55.669Z" fill="#222433"/>
<path d="M155.106 57.529L158.304 56.3823C158.387 56.3532 158.477 56.3479 158.563 56.3668C158.649 56.3857 158.728 56.4282 158.791 56.4894C158.855 56.5505 158.899 56.628 158.92 56.7131C158.942 56.7982 158.939 56.8875 158.912 56.9709C158.888 57.039 158.85 57.101 158.799 57.1525C158.749 57.2041 158.687 57.2439 158.619 57.269L157.851 57.5366L158.504 57.6436C158.627 57.6629 158.738 57.7301 158.812 57.8305C158.885 57.9308 158.916 58.0561 158.896 58.1788C158.877 58.3014 158.809 58.4114 158.708 58.4845C158.607 58.5576 158.481 58.5879 158.358 58.5686L156.258 58.238" fill="white"/>
<path d="M158.433 58.8039C158.396 58.8039 158.359 58.801 158.322 58.7952L156.221 58.4645C156.161 58.4544 156.108 58.4213 156.073 58.3722C156.037 58.3232 156.023 58.2622 156.032 58.2026C156.042 58.143 156.074 58.0894 156.123 58.0537C156.172 58.0179 156.233 58.0027 156.293 58.0115L158.394 58.3421C158.431 58.3479 158.469 58.3452 158.505 58.3341C158.54 58.323 158.573 58.3039 158.601 58.2783C158.633 58.2484 158.656 58.21 158.667 58.1675C158.677 58.1251 158.676 58.0804 158.662 58.0389C158.649 57.9952 158.624 57.9561 158.589 57.9262C158.555 57.8963 158.512 57.8769 158.467 57.8701L157.813 57.7631C157.762 57.7548 157.716 57.73 157.681 57.6926C157.647 57.6552 157.625 57.6073 157.621 57.5566C157.616 57.5059 157.629 57.4551 157.657 57.4124C157.685 57.3696 157.726 57.3372 157.774 57.3204L158.539 57.0543C158.574 57.041 158.606 57.0202 158.633 56.9933C158.659 56.9665 158.68 56.9342 158.693 56.8987C158.707 56.8565 158.709 56.8112 158.698 56.768C158.687 56.7248 158.664 56.6856 158.632 56.6551C158.6 56.6228 158.559 56.6003 158.515 56.5903C158.47 56.5803 158.424 56.5832 158.381 56.5987L155.184 57.7447C155.155 57.7553 155.125 57.7601 155.094 57.759C155.064 57.7578 155.034 57.7506 155.006 57.7379C154.979 57.7251 154.954 57.707 154.933 57.6847C154.912 57.6623 154.897 57.6361 154.886 57.6076C154.876 57.5791 154.871 57.5488 154.873 57.5185C154.874 57.4882 154.882 57.4585 154.895 57.4311C154.908 57.4038 154.927 57.3793 154.949 57.359C154.972 57.3388 154.998 57.3232 155.027 57.3132L158.226 56.1665C158.35 56.1228 158.484 56.1145 158.612 56.1425C158.74 56.1705 158.858 56.2337 158.953 56.325C159.047 56.4163 159.113 56.5321 159.145 56.6591C159.176 56.7861 159.171 56.9193 159.13 57.0436C159.098 57.1395 159.045 57.2274 158.975 57.3015C158.906 57.3756 158.821 57.4341 158.727 57.4732C158.817 57.5145 158.897 57.5742 158.962 57.6484C159.027 57.7225 159.075 57.8095 159.104 57.9036C159.143 58.0273 159.146 58.1595 159.113 58.285C159.08 58.4105 159.012 58.5242 158.917 58.613C158.786 58.7354 158.613 58.8036 158.433 58.8039Z" fill="#222433"/>
<path d="M148.981 56.6422L147.167 56.818L148.942 57.529L148.981 56.6422Z" fill="#222433"/>
<path d="M149.788 58.3088C150.117 58.4591 150.392 58.7041 150.579 59.0121C150.787 59.3452 151.062 59.6316 151.387 59.853C152.547 60.6634 154.138 60.4569 155.114 59.4326L156.26 58.2247L152.824 56.023C152.417 55.8678 152.042 55.6398 151.717 55.3503C151.404 55.0771 151.005 54.9209 150.588 54.9085C150.172 54.8961 149.764 55.0284 149.435 55.2825C149.105 55.5366 148.875 55.8967 148.784 56.3011C148.693 56.7055 148.746 57.1288 148.935 57.4985C149.121 57.8553 149.421 58.1404 149.788 58.3088Z" fill="white"/>
<path d="M152.98 60.5764C152.363 60.579 151.76 60.3919 151.254 60.0407C150.903 59.802 150.607 59.4928 150.384 59.1332C150.221 58.8643 149.981 58.6501 149.694 58.5185L149.692 58.5174C149.279 58.3281 148.941 58.0074 148.731 57.6059C148.517 57.1888 148.455 56.7103 148.557 56.2529C148.659 55.7955 148.919 55.3879 149.29 55.1003C149.662 54.8126 150.123 54.6631 150.594 54.6773C151.065 54.6916 151.516 54.8688 151.87 55.1783C152.174 55.4491 152.525 55.6625 152.905 55.8081C152.92 55.8138 152.935 55.8211 152.949 55.8299L156.385 58.0316C156.413 58.0498 156.437 58.074 156.455 58.1026C156.473 58.1311 156.484 58.1632 156.489 58.1966C156.493 58.2301 156.489 58.264 156.479 58.2959C156.468 58.3279 156.451 58.3572 156.427 58.3817L155.282 59.5895C154.986 59.9007 154.629 60.1487 154.233 60.3184C153.837 60.488 153.411 60.5758 152.98 60.5764ZM149.882 58.0995C150.253 58.2682 150.564 58.5438 150.775 58.8905C150.965 59.1969 151.218 59.4602 151.517 59.6635C152.565 60.3957 154.039 60.2277 154.947 59.2748L155.902 58.2681L152.719 56.2287C152.295 56.0637 151.904 55.8244 151.564 55.5223C151.291 55.2847 150.944 55.1488 150.581 55.1381C150.219 55.1273 149.863 55.2423 149.577 55.4634C149.29 55.6845 149.09 55.9979 149.01 56.3499C148.93 56.7019 148.976 57.0705 149.139 57.3926C149.301 57.7037 149.563 57.9523 149.882 58.0995H149.882Z" fill="#222433"/>
<path d="M149.926 57.3302C150.181 57.3302 150.387 57.1248 150.387 56.8715C150.387 56.6182 150.181 56.4128 149.926 56.4128C149.671 56.4128 149.465 56.6182 149.465 56.8715C149.465 57.1248 149.671 57.3302 149.926 57.3302Z" fill="#222433"/>
<path d="M151.268 57.8476C151.201 57.7974 151.14 57.7392 151.087 57.6742C151.083 57.6685 151.079 57.6627 151.075 57.6568C150.915 57.3985 150.86 57.089 150.923 56.792C150.965 56.6072 150.935 56.4136 150.841 56.2492C150.828 56.2321 150.818 56.2151 150.807 56.1979C150.8 56.1881 150.795 56.1781 150.787 56.1682C150.783 56.1634 150.78 56.1583 150.777 56.1529C150.677 55.9935 150.517 55.8802 150.333 55.8378C150.149 55.7953 149.955 55.8273 149.795 55.9267L148.911 56.4771C148.872 56.5011 148.828 56.5132 148.782 56.5119C148.737 56.5106 148.693 56.496 148.655 56.4698C148.618 56.4437 148.59 56.4072 148.573 56.365C148.557 56.3227 148.554 56.2766 148.564 56.2325C148.669 55.7629 148.944 55.3479 149.336 55.0661C149.708 54.7927 150.162 54.6547 150.624 54.6755C151.086 54.6963 151.527 54.8745 151.872 55.1802C152.141 55.4244 152.451 55.6211 152.787 55.7618L156.972 52.5391C157.006 52.5128 157.047 52.4966 157.09 52.4923C157.133 52.4879 157.176 52.4956 157.215 52.5145C157.253 52.5334 157.286 52.5627 157.309 52.5991C157.332 52.6355 157.344 52.6775 157.344 52.7204V55.1973C157.344 55.2024 157.344 55.2073 157.343 55.2126C157.239 56.7951 154.791 57.909 154.532 58.0224C154.08 58.3135 153.552 58.4687 153.013 58.4695C152.377 58.4699 151.76 58.25 151.268 57.8476Z" fill="#5A38FD"/>
<path d="M152.691 56.2157C152.66 56.1959 152.634 56.1688 152.616 56.137C152.598 56.1051 152.587 56.0693 152.586 56.0326C152.584 55.9959 152.591 55.9593 152.607 55.926C152.623 55.8927 152.646 55.8636 152.675 55.8411L156.972 52.5386C157.006 52.5124 157.047 52.4962 157.09 52.4919C157.133 52.4876 157.176 52.4953 157.215 52.5142C157.253 52.5331 157.286 52.5624 157.309 52.5988C157.332 52.6352 157.344 52.6772 157.344 52.7201V53.6604C157.342 54.0794 157.231 54.4908 157.02 54.854C156.81 55.2171 156.509 55.5196 156.145 55.7315L155.208 56.2739C154.842 56.4885 154.425 56.6018 154 56.602C153.536 56.6012 153.081 56.467 152.691 56.2157Z" fill="#82B1FF"/>
<path d="M163.181 104.438L161.928 104.274C161.356 104.199 160.831 104.602 160.755 105.174C160.733 105.335 160.75 105.499 160.803 105.652L161.946 108.961L163.911 106.058C164.235 105.58 164.11 104.931 163.632 104.608C163.497 104.517 163.343 104.458 163.181 104.438Z" fill="#82B1FF"/>
<path d="M157.418 107.73L157.252 108.983C157.175 109.555 157.577 110.08 158.15 110.155C158.311 110.177 158.476 110.16 158.63 110.106L161.946 108.959L159.042 106.998C158.563 106.676 157.912 106.803 157.588 107.282C157.497 107.416 157.439 107.57 157.418 107.73Z" fill="#82B1FF"/>
<path d="M20.8211 62.0275L20.9764 61.1762C21.0472 60.7874 21.4268 60.5304 21.8245 60.6022C21.9364 60.6225 22.0422 60.6679 22.1334 60.7351L24.1005 62.1811L21.749 62.846C21.3613 62.9555 20.9542 62.736 20.8397 62.3556C20.8076 62.249 20.8013 62.1366 20.8211 62.0275Z" fill="white"/>
<path d="M21.3555 63.0733C21.2623 63.0544 21.1714 63.0217 21.0855 62.9753C20.8614 62.8545 20.6983 62.6559 20.6262 62.416C20.5845 62.2776 20.5761 62.1295 20.6018 61.988C20.6018 61.9879 20.6018 61.9878 20.6018 61.9878L20.7571 61.1365C20.8017 60.8914 20.9414 60.6784 21.1503 60.537C21.3593 60.3955 21.6125 60.3426 21.8633 60.388C22.0094 60.4144 22.148 60.4742 22.2663 60.5613L24.2333 62.0072C24.301 62.057 24.3344 62.1398 24.3196 62.221C24.3048 62.3022 24.2443 62.3679 24.1634 62.3908L21.8122 63.0555C21.6614 63.0981 21.5054 63.1036 21.3555 63.0733ZM21.0404 62.0672C21.0267 62.1427 21.0311 62.2216 21.0534 62.2953C21.092 62.4233 21.1789 62.5293 21.2984 62.5937C21.418 62.6581 21.5556 62.6733 21.6861 62.6365L23.6101 62.0926L22.0003 60.9092C21.9372 60.8627 21.8638 60.8311 21.7854 60.8167C21.6516 60.7925 21.5167 60.8207 21.4053 60.8961C21.2939 60.9715 21.2195 61.085 21.1957 61.2158L21.0404 62.0672Z" fill="#222433"/>
<path d="M24.2378 58.9754L25.1081 59.133C25.5057 59.2063 25.7694 59.5808 25.6971 59.9696C25.677 60.0778 25.6316 60.1798 25.5646 60.2677L24.1001 62.1834L23.4062 59.8761C23.2928 59.4957 23.5152 59.0994 23.903 58.9908C24.0118 58.9603 24.1263 58.9551 24.2378 58.9754Z" fill="white"/>
<path d="M24.0563 62.397C23.9754 62.3806 23.91 62.3217 23.8866 62.2438L23.1925 59.9364C23.0446 59.4405 23.3352 58.9225 23.8403 58.7812C23.9812 58.7417 24.1321 58.7347 24.2766 58.7611L25.1469 58.9188C25.6654 59.0146 26.0101 59.5039 25.916 60.0101C25.89 60.1505 25.8302 60.2849 25.7432 60.399L24.2786 62.3148C24.2282 62.3807 24.144 62.4129 24.0609 62.3978C24.0594 62.3976 24.0579 62.3973 24.0563 62.397ZM25.077 59.3489C25.074 59.3483 25.071 59.3477 25.068 59.3471L24.1985 59.1896C24.1984 59.1896 24.1983 59.1896 24.1983 59.1896C24.1211 59.1755 24.0406 59.1793 23.9654 59.2003C23.6959 59.2757 23.5409 59.552 23.6198 59.8163L24.1877 61.7043L25.386 60.1366C25.4322 60.0759 25.4641 60.0042 25.478 59.9293C25.5275 59.6622 25.3481 59.4038 25.077 59.3489ZM24.2375 58.9754L24.2382 58.9755L24.2375 58.9754Z" fill="#222433"/>
<path d="M189.033 75.3709L189.921 75.1118C190.326 74.9934 190.751 75.2221 190.869 75.6227C190.902 75.7355 190.909 75.8545 190.887 75.9703L190.429 78.4676L188.687 76.6135C188.399 76.3076 188.418 75.8285 188.728 75.5432C188.815 75.4632 188.919 75.4043 189.033 75.3709Z" fill="white"/>
<path d="M188.284 76.358C188.258 76.2631 188.247 76.1638 188.251 76.0626C188.261 75.7989 188.374 75.5546 188.57 75.3747C188.683 75.2709 188.82 75.1932 188.968 75.15C188.968 75.15 188.968 75.1499 188.968 75.1499L189.856 74.8908C190.112 74.8161 190.381 74.8443 190.615 74.9701C190.848 75.096 191.018 75.3045 191.093 75.5572C191.136 75.7044 191.144 75.8605 191.117 76.0108L190.658 78.508C190.643 78.594 190.579 78.6639 190.494 78.6886C190.41 78.7133 190.318 78.6886 190.258 78.6248L188.516 76.7707C188.404 76.6518 188.325 76.5106 188.284 76.358ZM189.099 75.5919C189.02 75.6149 188.946 75.6563 188.886 75.7117C188.782 75.8078 188.722 75.938 188.716 76.0787C188.711 76.2194 188.761 76.3534 188.858 76.4564L190.283 77.9736L190.658 75.9299C190.673 75.8497 190.669 75.767 190.646 75.6879C190.606 75.5532 190.516 75.4421 190.391 75.375C190.266 75.3079 190.123 75.2929 189.986 75.3327L189.099 75.5919Z" fill="#222433"/>
<path d="M193.567 77.0747L193.826 77.9525C193.943 78.3542 193.708 78.7748 193.302 78.8919C193.189 78.9246 193.069 78.9309 192.954 78.9107L190.429 78.4652L192.312 76.7333C192.623 76.4486 193.108 76.4664 193.394 76.773C193.475 76.859 193.534 76.9622 193.567 77.0747Z" fill="white"/>
<path d="M190.204 78.5259C190.182 78.4435 190.207 78.3552 190.271 78.2968L192.154 76.5649C192.559 76.1939 193.192 76.2171 193.566 76.6164C193.67 76.7278 193.747 76.8638 193.79 77.0096L194.049 77.8874C194.202 78.4112 193.895 78.9607 193.366 79.1134C193.219 79.1557 193.062 79.1641 192.912 79.1378L190.388 78.6922C190.301 78.6769 190.23 78.6143 190.206 78.5306C190.205 78.529 190.205 78.5275 190.204 78.5259ZM193.604 78.0263C193.603 78.0233 193.603 78.0202 193.602 78.0172L193.343 77.1402C193.343 77.1401 193.343 77.14 193.343 77.14C193.32 77.0621 193.279 76.9896 193.223 76.9301C193.024 76.7171 192.686 76.7047 192.47 76.9025L190.929 78.3195L192.995 78.684C193.075 78.6979 193.159 78.6934 193.237 78.6709C193.516 78.5903 193.679 78.3025 193.604 78.0263ZM193.567 77.0748L193.567 77.0756L193.567 77.0748Z" fill="#222433"/>
</svg>
