<svg width="200" height="160" viewBox="0 0 200 160" fill="none" xmlns="http://www.w3.org/2000/svg">
<circle cx="98" cy="80" r="80" fill="#EBF5FF"/>
<path d="M25.4455 63.0346C27.0862 63.0346 28.4163 61.7032 28.4163 60.0609C28.4163 58.4186 27.0862 57.0872 25.4455 57.0872C23.8047 57.0872 22.4746 58.4186 22.4746 60.0609C22.4746 61.7032 23.8047 63.0346 25.4455 63.0346Z" fill="white"/>
<path d="M25.4457 63.3475C24.7963 63.3475 24.1614 63.1548 23.6214 62.7936C23.0815 62.4325 22.6606 61.9191 22.4121 61.3186C22.1635 60.718 22.0985 60.0572 22.2252 59.4196C22.3519 58.7821 22.6646 58.1964 23.1239 57.7368C23.5831 57.2771 24.1681 56.9641 24.8051 56.8373C25.4421 56.7104 26.1023 56.7755 26.7023 57.0243C27.3023 57.2731 27.8151 57.6943 28.1759 58.2348C28.5367 58.7753 28.7293 59.4108 28.7293 60.0608C28.7283 60.9322 28.3821 61.7676 27.7665 62.3838C27.1509 63 26.3163 63.3466 25.4457 63.3475ZM25.4457 57.4001C24.92 57.4001 24.406 57.5562 23.9689 57.8486C23.5318 58.1409 23.1911 58.5564 22.9899 59.0426C22.7887 59.5288 22.7361 60.0638 22.8386 60.5799C22.9412 61.096 23.1944 61.5701 23.5661 61.9422C23.9379 62.3143 24.4115 62.5677 24.9271 62.6704C25.4427 62.773 25.9772 62.7203 26.4629 62.5189C26.9486 62.3176 27.3638 61.9765 27.6559 61.539C27.9479 61.1015 28.1038 60.587 28.1038 60.0608C28.103 59.3554 27.8227 58.6791 27.3244 58.1803C26.8261 57.6815 26.1504 57.401 25.4457 57.4001Z" fill="#222433"/>
<path d="M29.3024 68.9715C30.9432 68.9715 32.2733 67.6401 32.2733 65.9978C32.2733 64.3555 30.9432 63.0241 29.3024 63.0241C27.6616 63.0241 26.3315 64.3555 26.3315 65.9978C26.3315 67.6401 27.6616 68.9715 29.3024 68.9715Z" fill="white"/>
<path d="M29.3026 69.2845C28.6532 69.2845 28.0184 69.0918 27.4784 68.7306C26.9384 68.3695 26.5175 67.8562 26.269 67.2556C26.0205 66.655 25.9554 65.9942 26.0821 65.3566C26.2088 64.7191 26.5216 64.1334 26.9808 63.6738C27.44 63.2141 28.0251 62.9011 28.662 62.7743C29.299 62.6475 29.9592 62.7125 30.5592 62.9613C31.1592 63.2101 31.672 63.6313 32.0328 64.1718C32.3936 64.7123 32.5862 65.3478 32.5862 65.9978C32.5852 66.8692 32.239 67.7046 31.6234 68.3208C31.0078 68.9369 30.1732 69.2835 29.3026 69.2845ZM29.3026 63.3372C28.7769 63.3372 28.263 63.4932 27.8258 63.7856C27.3887 64.0779 27.048 64.4935 26.8468 64.9796C26.6456 65.4658 26.593 66.0008 26.6956 66.5169C26.7981 67.033 27.0513 67.5071 27.423 67.8792C27.7948 68.2513 28.2684 68.5047 28.7841 68.6074C29.2997 68.71 29.8341 68.6573 30.3199 68.456C30.8056 68.2546 31.2207 67.9136 31.5128 67.476C31.8049 67.0385 31.9608 66.5241 31.9608 65.9978C31.96 65.2924 31.6797 64.6161 31.1813 64.1173C30.683 63.6185 30.0074 63.338 29.3026 63.3372Z" fill="#222433"/>
<path d="M23.423 69.8166C25.0638 69.8166 26.3939 68.4853 26.3939 66.843C26.3939 65.2006 25.0638 63.8693 23.423 63.8693C21.7823 63.8693 20.4521 65.2006 20.4521 66.843C20.4521 68.4853 21.7823 69.8166 23.423 69.8166Z" fill="white"/>
<path d="M23.4232 70.1296C22.7738 70.1296 22.139 69.9368 21.599 69.5757C21.059 69.2145 20.6381 68.7012 20.3896 68.1006C20.1411 67.5001 20.076 66.8392 20.2027 66.2017C20.3294 65.5641 20.6422 64.9785 21.1014 64.5188C21.5606 64.0592 22.1457 63.7461 22.7826 63.6193C23.4196 63.4925 24.0798 63.5576 24.6798 63.8063C25.2798 64.0551 25.7926 64.4764 26.1534 65.0169C26.5143 65.5574 26.7068 66.1928 26.7068 66.8429C26.7059 67.7143 26.3596 68.5497 25.744 69.1658C25.1284 69.782 24.2938 70.1286 23.4232 70.1296ZM23.4232 64.1822C22.8975 64.1822 22.3836 64.3382 21.9465 64.6306C21.5093 64.923 21.1686 65.3385 20.9674 65.8247C20.7662 66.3108 20.7136 66.8458 20.8162 67.3619C20.9187 67.878 21.1719 68.3521 21.5436 68.7242C21.9154 69.0963 22.389 69.3497 22.9047 69.4524C23.4203 69.5551 23.9548 69.5024 24.4405 69.301C24.9262 69.0996 25.3413 68.7586 25.6334 68.321C25.9255 67.8835 26.0814 67.3691 26.0814 66.8429C26.0806 66.1375 25.8003 65.4612 25.3019 64.9624C24.8036 64.4636 24.128 64.183 23.4232 64.1822Z" fill="#222433"/>
<path d="M30.2404 75.5136C31.8812 75.5136 33.2113 74.1822 33.2113 72.5399C33.2113 70.8976 31.8812 69.5662 30.2404 69.5662C28.5996 69.5662 27.2695 70.8976 27.2695 72.5399C27.2695 74.1822 28.5996 75.5136 30.2404 75.5136Z" fill="white"/>
<path d="M30.2406 75.8266C29.5912 75.8266 28.9563 75.6339 28.4164 75.2727C27.8764 74.9116 27.4555 74.3983 27.207 73.7977C26.9585 73.1971 26.8934 72.5363 27.0201 71.8987C27.1468 71.2612 27.4596 70.6755 27.9188 70.2159C28.378 69.7562 28.9631 69.4432 29.6 69.3164C30.237 69.1896 30.8972 69.2547 31.4972 69.5034C32.0972 69.7522 32.61 70.1734 32.9708 70.7139C33.3316 71.2544 33.5242 71.8899 33.5242 72.5399C33.5232 73.4113 33.1769 74.2467 32.5614 74.8629C31.9458 75.479 31.1112 75.8256 30.2406 75.8266ZM30.2406 69.8793C29.7149 69.8793 29.201 70.0353 28.7638 70.3277C28.3267 70.62 27.986 71.0356 27.7848 71.5217C27.5836 72.0079 27.531 72.5429 27.6336 73.059C27.7361 73.5751 27.9893 74.0492 28.361 74.4213C28.7328 74.7934 29.2064 75.0468 29.722 75.1495C30.2377 75.2521 30.7721 75.1994 31.2578 74.9981C31.7436 74.7967 32.1587 74.4557 32.4508 74.0181C32.7429 73.5806 32.8988 73.0662 32.8988 72.5399C32.898 71.8345 32.6176 71.1582 32.1193 70.6594C31.621 70.1606 30.9454 69.8801 30.2406 69.8793Z" fill="#222433"/>
<path d="M24.3615 76.3588C26.0022 76.3588 27.3323 75.0274 27.3323 73.3851C27.3323 71.7428 26.0022 70.4114 24.3615 70.4114C22.7207 70.4114 21.3906 71.7428 21.3906 73.3851C21.3906 75.0274 22.7207 76.3588 24.3615 76.3588Z" fill="white"/>
<path d="M24.3617 76.6718C23.7123 76.6718 23.0774 76.479 22.5375 76.1179C21.9975 75.7567 21.5766 75.2434 21.3281 74.6429C21.0795 74.0423 21.0145 73.3815 21.1412 72.7439C21.2679 72.1063 21.5806 71.5207 22.0399 71.061C22.4991 70.6014 23.0842 70.2884 23.7211 70.1615C24.3581 70.0347 25.0183 70.0998 25.6183 70.3486C26.2183 70.5973 26.7311 71.0186 27.0919 71.5591C27.4527 72.0996 27.6453 72.735 27.6453 73.3851C27.6443 74.2565 27.298 75.0919 26.6825 75.7081C26.0669 76.3242 25.2323 76.6708 24.3617 76.6718ZM24.3617 70.7244C23.836 70.7244 23.3221 70.8805 22.8849 71.1728C22.4478 71.4652 22.1071 71.8807 21.9059 72.3669C21.7047 72.8531 21.6521 73.388 21.7546 73.9042C21.8572 74.4203 22.1104 74.8944 22.4821 75.2665C22.8539 75.6386 23.3275 75.892 23.8431 75.9946C24.3588 76.0973 24.8932 76.0446 25.3789 75.8432C25.8647 75.6419 26.2798 75.3008 26.5719 74.8633C26.864 74.4257 27.0199 73.9113 27.0199 73.3851C27.0191 72.6797 26.7387 72.0034 26.2404 71.5046C25.7421 71.0058 25.0665 70.7252 24.3617 70.7244Z" fill="#222433"/>
<path d="M16.7308 76.1397C18.0319 76.1397 19.0867 75.0839 19.0867 73.7816C19.0867 72.4792 18.0319 71.4235 16.7308 71.4235C15.4297 71.4235 14.375 72.4792 14.375 73.7816C14.375 75.0839 15.4297 76.1397 16.7308 76.1397Z" fill="white"/>
<path d="M16.7311 76.4527C16.2033 76.4527 15.6873 76.296 15.2485 76.0025C14.8096 75.709 14.4676 75.2919 14.2656 74.8038C14.0637 74.3157 14.0108 73.7786 14.1138 73.2605C14.2167 72.7423 14.4709 72.2664 14.8441 71.8928C15.2173 71.5193 15.6928 71.2649 16.2105 71.1618C16.7281 71.0587 17.2647 71.1116 17.7523 71.3138C18.2399 71.516 18.6567 71.8583 18.9499 72.2976C19.2431 72.7369 19.3996 73.2533 19.3996 73.7816C19.3988 74.4898 19.1174 75.1687 18.6172 75.6695C18.1169 76.1702 17.4386 76.4519 16.7311 76.4527ZM16.7311 71.7365C16.327 71.7365 15.932 71.8565 15.596 72.0812C15.26 72.3059 14.9981 72.6253 14.8435 72.999C14.6888 73.3727 14.6484 73.7839 14.7272 74.1806C14.806 74.5773 15.0006 74.9417 15.2864 75.2277C15.5721 75.5137 15.9362 75.7084 16.3325 75.7874C16.7288 75.8663 17.1396 75.8258 17.5129 75.671C17.8863 75.5162 18.2054 75.2541 18.4299 74.9178C18.6544 74.5815 18.7742 74.1861 18.7742 73.7816C18.7736 73.2394 18.5582 72.7195 18.1751 72.3361C17.7921 71.9527 17.2728 71.7371 16.7311 71.7365Z" fill="#222433"/>
<path d="M25.1459 93.3245C25.0851 93.3245 25.0255 93.3068 24.9746 93.2734C24.9237 93.24 24.8837 93.1925 24.8593 93.1367L16.4447 73.9069C16.4114 73.8308 16.4097 73.7446 16.44 73.6672C16.4702 73.5899 16.5299 73.5277 16.6059 73.4944C16.6819 73.4611 16.7681 73.4594 16.8454 73.4896C16.9226 73.5199 16.9848 73.5796 17.018 73.6557L25.4327 92.8856C25.4534 92.9332 25.462 92.9852 25.4577 93.037C25.4533 93.0888 25.4362 93.1386 25.4078 93.1821C25.3793 93.2256 25.3406 93.2613 25.2949 93.2861C25.2493 93.3108 25.1982 93.3238 25.1463 93.3238L25.1459 93.3245Z" fill="#222433"/>
<path d="M30.1769 93.3244C30.1017 93.3243 30.0291 93.2971 29.9723 93.2478C29.9155 93.1985 29.8784 93.1304 29.8677 93.056L25.1358 60.1054C25.1244 60.0234 25.1459 59.9403 25.1956 59.8741C25.2453 59.8079 25.3192 59.7642 25.4011 59.7524C25.4829 59.7406 25.5661 59.7618 25.6324 59.8113C25.6987 59.8608 25.7428 59.9345 25.7549 60.0164L30.4868 92.9669C30.4927 93.0077 30.4905 93.0492 30.4804 93.089C30.4702 93.1289 30.4524 93.1664 30.4277 93.1993C30.4031 93.2323 30.3722 93.2601 30.3369 93.2811C30.3015 93.302 30.2624 93.3159 30.2217 93.3217C30.2068 93.3236 30.1919 93.3245 30.1769 93.3244Z" fill="#222433"/>
<path d="M30.565 93.3245C30.5192 93.3245 30.474 93.3144 30.4325 93.295C30.391 93.2755 30.3543 93.2473 30.3249 93.2121C30.2955 93.1769 30.2742 93.1358 30.2625 93.0915C30.2507 93.0472 30.2488 93.0008 30.2568 92.9557L36.5627 58.0958C36.58 58.0166 36.6273 57.9472 36.6947 57.9022C36.7621 57.8573 36.8443 57.8402 36.9239 57.8547C37.0036 57.8691 37.0746 57.914 37.1219 57.9797C37.1692 58.0455 37.1892 58.1271 37.1777 58.2073L30.8724 93.0671C30.8594 93.1393 30.8215 93.2046 30.7653 93.2516C30.7091 93.2986 30.6382 93.3245 30.565 93.3245Z" fill="#222433"/>
<path d="M43.1666 50.6599C42.8804 50.5454 42.5606 50.5493 42.2773 50.6706C41.9939 50.7918 41.7702 51.0206 41.6551 51.3068C41.7698 51.0204 41.7662 50.7001 41.645 50.4163C41.5238 50.1326 41.295 49.9087 41.0088 49.7938C40.7227 49.679 40.4027 49.6826 40.1192 49.804C39.8358 49.9253 39.6121 50.1543 39.4973 50.4407L37.2874 55.9186L37.1311 50.013C37.1285 49.8596 37.0957 49.7082 37.0346 49.5676C36.9734 49.4269 36.885 49.2998 36.7746 49.1934C36.6641 49.0871 36.5337 49.0036 36.3909 48.9479C36.2482 48.8922 36.0958 48.8653 35.9426 48.8687C35.7893 48.8721 35.6383 48.9059 35.4982 48.9679C35.358 49.03 35.2315 49.1192 35.1259 49.2304C35.0203 49.3416 34.9378 49.4726 34.8829 49.6158C34.8281 49.7591 34.8021 49.9118 34.8065 50.0651C34.804 49.9117 34.7712 49.7604 34.71 49.6197C34.6488 49.4791 34.5604 49.3519 34.45 49.2456C34.3395 49.1392 34.2092 49.0558 34.0664 49.0001C33.9236 48.9443 33.7712 48.9174 33.618 48.9209C33.4648 48.9243 33.3137 48.958 33.1736 49.0201C33.0334 49.0822 32.9069 49.1714 32.8014 49.2826C32.6958 49.3938 32.6132 49.5248 32.5584 49.668C32.5036 49.8113 32.4776 49.964 32.4819 50.1173L32.5028 50.8894L32.6279 56.1273C32.647 57.0336 32.9293 57.9147 33.4401 58.6632C33.951 59.4117 34.6684 59.9952 35.5049 60.3426L35.4945 60.353C35.8013 60.4736 36.1189 60.5644 36.4431 60.6243C36.7662 60.684 37.0944 60.712 37.4229 60.7078V60.6974C38.3276 60.6625 39.2029 60.3661 39.9429 59.8439C40.6828 59.3218 41.2558 58.5962 41.5926 57.755L43.5419 52.8927L43.8337 52.1728C43.9393 51.8832 43.9288 51.5639 43.8044 51.2819C43.6801 50.9999 43.4515 50.777 43.1666 50.6599Z" fill="#5A38FD"/>
<path d="M34.9006 54.8648C34.819 54.8648 34.7406 54.8329 34.6822 54.7759C34.6238 54.7189 34.5899 54.6412 34.5879 54.5596L34.4732 49.9791C34.4712 49.896 34.5021 49.8156 34.5593 49.7554C34.6165 49.6953 34.6952 49.6603 34.7781 49.6582C34.8611 49.6561 34.9414 49.6871 35.0016 49.7444C35.0617 49.8016 35.0966 49.8804 35.0987 49.9634L35.2133 54.5439C35.2144 54.585 35.2073 54.6259 35.1926 54.6643C35.1778 54.7027 35.1557 54.7378 35.1273 54.7675C35.099 54.7973 35.0652 54.8213 35.0276 54.8379C34.9901 54.8546 34.9496 54.8637 34.9085 54.8648H34.9006Z" fill="#222433"/>
<path d="M39.9768 55.7935C39.9256 55.7935 39.8752 55.7809 39.8301 55.7569C39.7849 55.7329 39.7463 55.6981 39.7176 55.6557C39.689 55.6132 39.6712 55.5644 39.6658 55.5135C39.6604 55.4626 39.6676 55.4111 39.6867 55.3636L41.3962 51.1065C41.4272 51.0295 41.4874 50.9679 41.5637 50.9353C41.6015 50.9192 41.6421 50.9107 41.6831 50.9102C41.7242 50.9098 41.765 50.9175 41.8031 50.9328C41.8412 50.9481 41.8759 50.9708 41.9053 50.9996C41.9346 51.0284 41.958 51.0626 41.9741 51.1004C41.9902 51.1383 41.9988 51.1789 41.9992 51.22C41.9996 51.2611 41.992 51.3019 41.9766 51.34L40.2671 55.5971C40.2438 55.6551 40.2037 55.7048 40.152 55.7398C40.1002 55.7748 40.0392 55.7935 39.9768 55.7935Z" fill="#222433"/>
<path d="M27.2382 136.062L22.9331 131.753C22.3679 131.188 21.9196 130.517 21.6137 129.778C21.3078 129.04 21.1504 128.248 21.1504 127.449C21.1504 126.649 21.3078 125.858 21.6137 125.119C21.9196 124.381 22.3679 123.71 22.9331 123.145C23.4982 122.58 23.9465 121.909 24.2524 121.17C24.5583 120.432 24.7157 119.64 24.7157 118.841C24.7157 118.041 24.5583 117.25 24.2524 116.511C23.9465 115.773 23.4982 115.102 22.9331 114.537C22.3679 113.972 21.9196 113.301 21.6137 112.562C21.3078 111.824 21.1504 111.032 21.1504 110.233C21.1504 109.433 21.3078 108.642 21.6137 107.903C21.9196 107.165 22.3679 106.494 22.9331 105.929C23.4982 105.364 23.9465 104.693 24.2524 103.954C24.5583 103.216 24.7157 102.424 24.7157 101.625C24.7157 100.825 24.5583 100.034 24.2524 99.2951C23.9465 98.5566 23.4982 97.8856 22.9331 97.3207C22.3666 96.7556 21.9174 96.084 21.6115 95.3444C21.3056 94.6048 21.1489 93.8119 21.1505 93.0114H39.768C39.7686 93.8118 39.6115 94.6044 39.3056 95.3438C38.9997 96.0833 38.5511 96.7551 37.9854 97.3207C37.4203 97.8856 36.972 98.5566 36.6661 99.2951C36.3602 100.034 36.2028 100.825 36.2028 101.625C36.2028 102.424 36.3602 103.216 36.6661 103.954C36.972 104.693 37.4203 105.364 37.9854 105.929C38.5506 106.494 38.9989 107.165 39.3048 107.903C39.6107 108.642 39.7681 109.433 39.7681 110.233C39.7681 111.032 39.6107 111.824 39.3048 112.562C38.9989 113.301 38.5506 113.972 37.9854 114.537C37.4203 115.102 36.972 115.773 36.6661 116.511C36.3602 117.25 36.2028 118.041 36.2028 118.841C36.2028 119.64 36.3602 120.432 36.6661 121.17C36.972 121.909 37.4203 122.58 37.9854 123.145C38.5506 123.71 38.9989 124.381 39.3048 125.119C39.6107 125.858 39.7681 126.649 39.7681 127.449C39.7681 128.248 39.6107 129.04 39.3048 129.778C38.9989 130.517 38.5506 131.188 37.9854 131.753L33.6803 136.062H27.2382Z" fill="white"/>
<path d="M33.6805 136.375H27.2384C27.1554 136.375 27.0759 136.342 27.0173 136.283L22.7121 131.974C22.118 131.38 21.6466 130.675 21.325 129.898C21.0034 129.122 20.8379 128.289 20.8379 127.449C20.8379 126.608 21.0034 125.776 21.325 124.999C21.6466 124.223 22.118 123.517 22.7121 122.923C23.7923 121.84 24.3989 120.372 24.3989 118.841C24.3989 117.31 23.7923 115.842 22.7121 114.758C22.118 114.164 21.6466 113.459 21.325 112.682C21.0034 111.906 20.8379 111.073 20.8379 110.233C20.8379 109.392 21.0034 108.56 21.325 107.783C21.6466 107.007 22.118 106.301 22.7121 105.707C23.2482 105.171 23.6735 104.535 23.9637 103.834C24.2539 103.134 24.4032 102.383 24.4032 101.625C24.4032 100.866 24.2539 100.115 23.9637 99.4148C23.6735 98.7142 23.2482 98.0778 22.7121 97.5419C22.116 96.9483 21.6434 96.2422 21.3217 95.4646C21 94.6869 20.8356 93.8531 20.838 93.0114C20.838 92.9284 20.8709 92.8487 20.9296 92.79C20.9882 92.7313 21.0677 92.6984 21.1507 92.6984H39.7681C39.8511 92.6984 39.9306 92.7313 39.9893 92.79C40.0479 92.8487 40.0809 92.9284 40.0809 93.0114C40.0832 93.8531 39.9188 94.6869 39.5972 95.4645C39.2755 96.2422 38.8029 96.9483 38.2068 97.5419C37.1266 98.6256 36.52 100.094 36.52 101.625C36.52 103.155 37.1266 104.624 38.2068 105.707C38.801 106.301 39.2723 107.007 39.5939 107.783C39.9155 108.56 40.081 109.392 40.081 110.233C40.081 111.073 39.9155 111.906 39.5939 112.682C39.2723 113.459 38.801 114.164 38.2068 114.758C37.1266 115.842 36.52 117.31 36.52 118.841C36.52 120.372 37.1266 121.84 38.2068 122.923C38.801 123.517 39.2723 124.223 39.5939 124.999C39.9155 125.776 40.081 126.608 40.081 127.449C40.081 128.289 39.9155 129.122 39.5939 129.898C39.2723 130.675 38.801 131.38 38.2068 131.974L33.9017 136.283C33.8726 136.312 33.8381 136.335 33.8002 136.351C33.7622 136.367 33.7215 136.375 33.6805 136.375ZM27.3679 135.749H33.5509L37.7645 131.532C38.3006 130.996 38.7259 130.359 39.0161 129.659C39.3063 128.958 39.4556 128.207 39.4556 127.449C39.4556 126.69 39.3063 125.939 39.0161 125.239C38.7259 124.538 38.3006 123.902 37.7645 123.366C36.5672 122.165 35.8948 120.537 35.8948 118.841C35.8948 117.144 36.5672 115.517 37.7645 114.315C38.3006 113.78 38.7259 113.143 39.0161 112.443C39.3063 111.742 39.4556 110.991 39.4556 110.233C39.4556 109.474 39.3063 108.723 39.0161 108.023C38.7259 107.322 38.3006 106.686 37.7645 106.15C36.5672 104.949 35.8948 103.321 35.8948 101.625C35.8948 99.9279 36.5672 98.3004 37.7645 97.0993C38.7743 96.0939 39.3742 94.7482 39.4472 93.3244H21.4716C21.5446 94.7482 22.1444 96.0939 23.1543 97.0993C24.3516 98.3004 25.024 99.9279 25.024 101.625C25.024 103.321 24.3516 104.949 23.1543 106.15C22.6182 106.686 22.1929 107.322 21.9027 108.023C21.6126 108.723 21.4632 109.474 21.4632 110.233C21.4632 110.991 21.6126 111.742 21.9027 112.443C22.1929 113.143 22.6182 113.78 23.1543 114.315C24.3516 115.517 25.024 117.144 25.024 118.841C25.024 120.537 24.3516 122.165 23.1543 123.366C22.6182 123.902 22.1929 124.538 21.9027 125.239C21.6126 125.939 21.4632 126.69 21.4632 127.449C21.4632 128.207 21.6126 128.958 21.9027 129.659C22.1929 130.359 22.6182 130.996 23.1543 131.532L27.3679 135.749Z" fill="#222433"/>
<path d="M48.9259 136.375C48.9181 136.375 48.9103 136.375 48.9024 136.374C48.861 136.371 48.8206 136.36 48.7835 136.341C48.7464 136.323 48.7133 136.297 48.6862 136.265C48.6591 136.234 48.6384 136.198 48.6254 136.158C48.6123 136.119 48.6072 136.077 48.6102 136.036L50.6185 108.762C50.6247 108.679 50.6638 108.601 50.7272 108.546C50.7907 108.492 50.8733 108.464 50.957 108.47C51.0406 108.477 51.1184 108.516 51.1732 108.579C51.228 108.642 51.2553 108.725 51.2492 108.809L49.2412 136.082C49.2354 136.162 49.1996 136.236 49.1411 136.29C49.0826 136.345 49.0057 136.375 48.9259 136.375Z" fill="#222433"/>
<path d="M50.9391 108.719L44.8477 81.3783L66.8103 81.4088L72.7228 108.719H50.9391Z" fill="white"/>
<path d="M72.7225 109.035H50.9388C50.8669 109.035 50.7972 109.01 50.7411 108.965C50.685 108.92 50.6459 108.858 50.6302 108.787L44.5388 81.447C44.5285 81.4008 44.5287 81.3529 44.5395 81.3068C44.5502 81.2608 44.5711 81.2177 44.6007 81.1808C44.6304 81.1439 44.6679 81.1141 44.7106 81.0936C44.7533 81.0731 44.8 81.0625 44.8474 81.0625V81.0625L66.8103 81.0929C66.8824 81.093 66.9524 81.1178 67.0086 81.1631C67.0647 81.2085 67.1036 81.2716 67.1188 81.3421L73.0311 108.652C73.0411 108.698 73.0406 108.746 73.0297 108.792C73.0188 108.837 72.9978 108.88 72.9682 108.917C72.9387 108.954 72.9012 108.983 72.8587 109.004C72.8162 109.024 72.7697 109.035 72.7225 109.035ZM51.1924 108.403H72.3307L66.5549 81.7243L45.2417 81.6947L51.1924 108.403Z" fill="#222433"/>
<path d="M77.7179 136.375C77.7101 136.375 77.7023 136.375 77.6944 136.374C77.6529 136.371 77.6125 136.36 77.5755 136.341C77.5384 136.323 77.5053 136.297 77.4782 136.265C77.4511 136.234 77.4304 136.198 77.4173 136.158C77.4043 136.119 77.3992 136.077 77.4022 136.036L79.4151 108.696C79.4213 108.612 79.4604 108.534 79.5239 108.48C79.5873 108.425 79.67 108.398 79.7536 108.404C79.8372 108.41 79.915 108.449 79.9698 108.512C80.0246 108.576 80.0519 108.658 80.0458 108.742L78.0329 136.082C78.027 136.162 77.9913 136.236 77.9329 136.29C77.8745 136.345 77.7977 136.375 77.7179 136.375Z" fill="#222433"/>
<path d="M75.2939 136.375C75.222 136.375 75.1523 136.35 75.0963 136.305C75.0403 136.26 75.0012 136.198 74.9857 136.128L68.8942 108.787C68.884 108.741 68.8842 108.693 68.8949 108.647C68.9057 108.601 68.9266 108.558 68.9562 108.521C68.9857 108.484 69.0232 108.455 69.0659 108.434C69.1085 108.414 69.1552 108.403 69.2025 108.403H92.9675C93.0394 108.403 93.1091 108.427 93.1652 108.472C93.2213 108.517 93.2604 108.58 93.2761 108.65L99.3675 135.979C99.377 136.019 99.3784 136.062 99.3715 136.103C99.3646 136.144 99.3496 136.183 99.3274 136.219C99.3052 136.254 99.2761 136.285 99.242 136.309C99.2078 136.333 99.1692 136.35 99.1284 136.359C99.0876 136.368 99.0454 136.369 99.0042 136.362C98.9631 136.354 98.9238 136.339 98.8886 136.316C98.8535 136.294 98.8231 136.265 98.7994 136.23C98.7757 136.196 98.759 136.157 98.7503 136.116L92.7145 109.035H69.5967L75.6025 135.991C75.6127 136.037 75.6124 136.085 75.6016 136.131C75.5909 136.177 75.5699 136.22 75.5403 136.257C75.5107 136.293 75.4732 136.323 75.4306 136.344C75.3879 136.364 75.3412 136.375 75.2939 136.375Z" fill="#222433"/>
<path d="M69.2025 109.035H50.9387C50.8549 109.035 50.7745 109.001 50.7152 108.942C50.6559 108.883 50.6226 108.803 50.6226 108.719C50.6226 108.635 50.6559 108.555 50.7152 108.495C50.7745 108.436 50.8549 108.403 50.9387 108.403H69.2025C69.2863 108.403 69.3667 108.436 69.426 108.495C69.4853 108.555 69.5186 108.635 69.5186 108.719C69.5186 108.803 69.4853 108.883 69.426 108.942C69.3667 109.001 69.2863 109.035 69.2025 109.035Z" fill="#222433"/>
<path d="M71.5166 51.0243C71.0848 51.1595 70.6255 51.1811 70.183 51.0869C69.7405 50.9928 69.3298 50.7861 68.9904 50.4868C68.6511 50.1875 68.3946 49.8058 68.2457 49.3784C68.0968 48.951 68.0606 48.4925 68.1405 48.047C68.2205 47.6015 68.4138 47.1842 68.702 46.8353C68.9902 46.4864 69.3634 46.2178 69.7856 46.0553C70.2078 45.8928 70.6648 45.8419 71.1124 45.9076C71.56 45.9733 71.9831 46.1533 72.3409 46.4303" fill="white"/>
<path d="M70.7295 51.4558C69.9489 51.4558 69.2002 51.1456 68.6482 50.5933C68.0962 50.0411 67.7861 49.2922 67.7861 48.5112C67.7861 47.7303 68.0962 46.9813 68.6482 46.4291C69.2002 45.8769 69.9489 45.5667 70.7295 45.5667C71.3823 45.5645 72.017 45.7816 72.5318 46.1832C72.5642 46.2083 72.5913 46.2395 72.6116 46.2751C72.6319 46.3107 72.645 46.35 72.6502 46.3907C72.6553 46.4313 72.6524 46.4726 72.6416 46.5122C72.6308 46.5517 72.6123 46.5887 72.5872 46.6211C72.5621 46.6535 72.5309 46.6807 72.4953 46.701C72.4597 46.7213 72.4204 46.7344 72.3798 46.7396C72.3391 46.7447 72.2978 46.7418 72.2583 46.731C72.2188 46.7202 72.1818 46.7017 72.1494 46.6765C71.7438 46.3601 71.2438 46.1891 70.7295 46.191C70.3956 46.1915 70.0657 46.2642 69.7625 46.4041C69.4592 46.5439 69.1897 46.7476 68.9724 47.0013C68.7551 47.2549 68.5951 47.5525 68.5034 47.8737C68.4116 48.1949 68.3903 48.5321 68.4408 48.8623C68.4913 49.1925 68.6126 49.5079 68.7962 49.787C68.9798 50.066 69.2214 50.3021 69.5046 50.4791C69.7878 50.6561 70.1059 50.7698 70.4371 50.8125C70.7682 50.8552 71.1047 50.8258 71.4235 50.7264C71.4628 50.7136 71.5042 50.7087 71.5454 50.712C71.5865 50.7154 71.6266 50.7268 71.6633 50.7458C71.7 50.7647 71.7326 50.7907 71.7591 50.8224C71.7857 50.854 71.8057 50.8906 71.8181 50.93C71.8304 50.9694 71.8348 51.0109 71.8309 51.052C71.8271 51.0932 71.8152 51.1331 71.7958 51.1696C71.7764 51.2061 71.75 51.2384 71.7181 51.2646C71.6862 51.2907 71.6494 51.3103 71.6098 51.3222C71.3249 51.4112 71.028 51.4562 70.7295 51.4558Z" fill="#222433"/>
<path d="M81.4247 47.1099C81.9126 45.9502 81.9267 44.6453 81.4642 43.4752C81.0016 42.3051 80.0992 41.363 78.9504 40.8507C77.8015 40.3385 76.4978 40.297 75.3188 40.7351C74.1397 41.1732 73.1792 42.0561 72.6432 43.1944C72.4953 43.503 72.3836 43.8277 72.3104 44.1621C72.2261 44.5306 72.1842 44.9077 72.1856 45.2858C72.1922 45.5615 72.22 45.8363 72.2688 46.1078C72.3183 46.3777 72.3908 46.643 72.4855 46.9006" fill="white"/>
<path d="M81.4248 47.4222C81.3732 47.4222 81.3225 47.4094 81.2771 47.3849C81.2317 47.3605 81.193 47.3252 81.1646 47.2821C81.1362 47.2391 81.1188 47.1897 81.1142 47.1383C81.1095 47.087 81.1176 47.0352 81.1378 46.9878C81.592 45.9035 81.6039 44.6845 81.1709 43.5916C80.7378 42.4987 79.8943 41.6189 78.8209 41.1405C77.7475 40.6621 76.5295 40.6231 75.4277 41.0319C74.3259 41.4407 73.4279 42.2647 72.9259 43.3277C72.788 43.6151 72.6838 43.9176 72.6155 44.229C72.5367 44.5738 72.4973 44.9263 72.4979 45.2799C72.5039 45.5378 72.5298 45.7949 72.5755 46.0487C72.6215 46.3011 72.6891 46.549 72.7775 46.7898C72.8069 46.8672 72.8043 46.9531 72.7703 47.0286C72.7364 47.1041 72.6738 47.163 72.5965 47.1923C72.5191 47.2217 72.4332 47.2191 72.3578 47.1851C72.2823 47.1512 72.2234 47.0886 72.1941 47.0112C72.0929 46.7369 72.0155 46.4545 71.9628 46.1669C71.9106 45.8798 71.881 45.5891 71.874 45.2973C71.874 45.2935 71.874 45.2896 71.874 45.2858C71.873 44.8836 71.9176 44.4826 72.0072 44.0905C72.0857 43.7339 72.205 43.3877 72.3628 43.0585C72.7749 42.1884 73.4234 41.4519 74.2341 40.9331C75.0449 40.4144 75.9853 40.1343 76.9476 40.125C76.9669 40.125 76.9865 40.125 77.0058 40.125C77.85 40.124 78.6814 40.3325 79.4254 40.7317C80.1694 41.1309 80.8029 41.7084 81.2692 42.4126C81.7354 43.1167 82.0199 43.9255 82.0972 44.7665C82.1746 45.6076 82.0422 46.4547 81.7121 47.2321C81.6882 47.2885 81.6482 47.3366 81.5971 47.3704C81.546 47.4042 81.486 47.4222 81.4248 47.4222Z" fill="#222433"/>
<path d="M80.7894 47.7682L80.7976 45.567C80.7973 45.4123 80.7591 45.26 80.6863 45.1235C80.6135 44.987 80.5082 44.8705 80.3799 44.7842C80.2515 44.6979 80.1039 44.6444 79.95 44.6285C79.7962 44.6126 79.6408 44.6348 79.4975 44.693C78.6447 45.0468 77.5526 45.2653 76.3565 45.2653C75.0461 45.2653 73.85 45.0052 72.9764 44.5786C72.941 44.5619 72.9021 44.5544 72.8631 44.5567C72.8241 44.559 72.7863 44.5711 72.7532 44.5918C72.7201 44.6125 72.6927 44.6412 72.6735 44.6752C72.6544 44.7093 72.6441 44.7476 72.6435 44.7867L72.4859 46.9009L72.1907 47.807C71.8875 48.2945 71.6745 48.8327 71.5619 49.3957C71.4988 49.7249 71.4675 50.0594 71.4683 50.3945C71.4773 51.2401 71.7087 52.0683 72.1394 52.7959C72.57 53.5235 73.1845 54.1249 73.9212 54.5394L73.8158 55.7984L79.876 59.4088C79.9802 59.162 80.0489 58.9017 80.0799 58.6356L80.8551 51.8249C80.9826 51.6128 81.0475 51.3689 81.0423 51.1214L81.0403 51.0278C81.4114 51.4289 81.8981 51.7045 82.4329 51.8163C82.9676 51.9282 83.5239 51.8708 84.0246 51.652C84.5253 51.4333 84.9454 51.0641 85.2269 50.5956C85.5083 50.1272 85.6369 49.5827 85.595 49.0378C85.5531 48.4928 85.3427 47.9744 84.993 47.5546C84.6433 47.1347 84.1716 46.8341 83.6434 46.6945C83.1152 46.5549 82.5567 46.5833 82.0453 46.7757C81.5339 46.9681 81.0951 47.3149 80.7897 47.7681" fill="white"/>
<path d="M79.876 59.7209C79.8198 59.7209 79.7646 59.7057 79.7164 59.6768L73.6561 56.0664C73.6059 56.0364 73.5651 55.993 73.5384 55.9409C73.5116 55.8889 73.5 55.8304 73.5049 55.7721L73.5941 54.7083C72.8585 54.2525 72.2497 53.6187 71.8236 52.8654C71.3975 52.1121 71.168 51.2635 71.1563 50.398C71.1555 50.0419 71.1888 49.6865 71.2556 49.3368C71.3726 48.7488 71.5927 48.1863 71.9055 47.675L72.1776 46.8401L72.3317 44.7727C72.3346 44.6824 72.3598 44.5942 72.4052 44.516C72.4505 44.4379 72.5146 44.3722 72.5915 44.3249C72.6685 44.2776 72.756 44.2502 72.8462 44.2451C72.9364 44.24 73.0264 44.2574 73.1082 44.2957C73.9784 44.7206 75.1302 44.9532 76.3566 44.9532C77.4523 44.9532 78.5253 44.7584 79.378 44.4048C79.5664 44.3258 79.7714 44.2948 79.9747 44.3145C80.178 44.3343 80.3732 44.4041 80.5429 44.5178C80.7168 44.6321 80.8597 44.7878 80.9586 44.9709C81.0575 45.1541 81.1095 45.3589 81.1097 45.5671L81.1045 46.9633C81.5285 46.6155 82.0411 46.3931 82.5847 46.3211C83.1282 46.2491 83.6811 46.3304 84.1809 46.5559C84.6807 46.7814 85.1077 47.1421 85.4136 47.5973C85.7195 48.0525 85.8923 48.5841 85.9123 49.1323C85.9324 49.6804 85.7991 50.2233 85.5273 50.6997C85.2555 51.1761 84.8562 51.5671 84.3742 51.8286C83.8922 52.0901 83.3468 52.2117 82.7995 52.1797C82.2521 52.1478 81.7245 51.9635 81.2762 51.6477C81.2454 51.7432 81.2058 51.8356 81.158 51.9238L80.3901 58.6709C80.3556 58.9667 80.2793 59.256 80.1635 59.5303C80.1396 59.5869 80.0996 59.6351 80.0485 59.669C79.9974 59.7029 79.9374 59.721 79.8761 59.721L79.876 59.7209ZM74.143 55.6302L79.7052 58.9437C79.7348 58.8304 79.7564 58.7153 79.7701 58.599L80.5451 51.7894C80.5503 51.7452 80.5648 51.7027 80.5876 51.6645C80.6848 51.5029 80.7342 51.317 80.7301 51.1285L80.7281 51.0348C80.7268 50.9715 80.7448 50.9094 80.7797 50.8565C80.8145 50.8037 80.8646 50.7627 80.9232 50.739C80.9819 50.7153 81.0464 50.71 81.1081 50.7238C81.1699 50.7376 81.226 50.7699 81.269 50.8163C81.5961 51.1699 82.0251 51.4128 82.4964 51.5114C82.9678 51.61 83.4581 51.5594 83.8994 51.3666C84.3407 51.1737 84.7111 50.8483 84.9591 50.4353C85.2072 50.0224 85.3206 49.5425 85.2836 49.0621C85.2466 48.5818 85.0611 48.1249 84.7528 47.7548C84.4445 47.3847 84.0287 47.1198 83.5631 46.9968C83.0975 46.8739 82.6052 46.8989 82.1545 47.0686C81.7038 47.2382 81.317 47.544 81.0478 47.9435C81.0104 47.9989 80.9561 48.0409 80.893 48.0631C80.8299 48.0854 80.7613 48.0867 80.6974 48.067C80.6334 48.0473 80.5775 48.0076 80.5379 47.9536C80.4983 47.8997 80.477 47.8344 80.4773 47.7675L80.4855 45.5664C80.4849 45.4615 80.4584 45.3584 80.4082 45.2663C80.358 45.1742 80.2858 45.096 80.198 45.0387C80.1142 44.9812 80.0172 44.9458 79.916 44.9357C79.8148 44.9256 79.7128 44.9412 79.6192 44.981C78.6767 45.3719 77.5495 45.5779 76.3565 45.5779C75.0865 45.5779 73.8811 45.3415 72.9471 44.9107L72.7967 46.9242C72.7949 46.9492 72.79 46.9738 72.7822 46.9977L72.487 47.9037C72.4793 47.9275 72.4689 47.9504 72.4558 47.9718C72.1721 48.4275 71.973 48.9307 71.868 49.4571C71.8091 49.7662 71.7798 50.0802 71.7804 50.3948C71.7916 51.1846 72.0093 51.9576 72.4118 52.6371C72.8143 53.3165 73.3876 53.8788 74.0747 54.2678C74.1267 54.2972 74.1692 54.3408 74.1972 54.3937C74.2251 54.4465 74.2373 54.5062 74.2323 54.5658L74.143 55.6302Z" fill="#222433"/>
<path d="M77.6515 85.8853C78.7852 84.9379 91.6786 75.6715 92.978 74.877L92.9802 72.0338L97.5392 72.5137C96.8433 72.2536 79.5181 67.4417 79.1614 67.4844C78.78 67.5303 77.9493 67.5637 77.566 67.6106C76.6035 67.7284 75.5807 67.2933 74.8997 66.6236C74.53 66.2595 72.7525 64.2451 71.444 63.9988C71.0898 63.9321 67.371 64.2639 66.686 63.9901C66.9621 64.8579 66.9569 65.7909 66.671 66.6556C66.3852 67.5202 65.8334 68.2724 65.0945 68.8044C64.3556 69.3365 63.4675 69.6212 62.5571 69.6178C61.6468 69.6144 60.7608 69.3232 60.0258 68.7857C59.2909 68.2482 58.7446 67.492 58.4652 66.6253C58.1857 65.7585 58.1874 64.8255 58.4699 63.9597C58.7525 63.094 59.3014 62.3397 60.0383 61.8049C60.7751 61.27 61.6621 60.9819 62.5725 60.9818C63.9226 60.9818 64.9531 61.4017 65.7447 62.3726C65.8151 62.1928 69.3121 60.7884 69.4825 60.7016C69.2095 60.6478 64.8653 60.282 63.5284 59.1805C62.6354 59.4506 61.8035 59.8921 61.0791 60.4803L41.4893 73.0537C42.4141 73.0782 43.6838 73.4537 44.5678 73.7545C46.5795 74.4386 51.8535 80.2713 52.4515 81.0356L58.2565 77.4678C58.2315 77.292 59.2705 73.9042 62.5727 73.9042C66.2129 73.9042 66.8391 77.3003 66.8786 77.5032H68.1402C68.3461 77.5032 77.3052 84.901 77.6463 85.8708C77.6483 85.876 77.6498 85.8804 77.6515 85.8853Z" fill="#5A38FD"/>
<path d="M122.272 129.154L112.818 126.407C111.048 125.954 109.467 124.951 108.302 123.543C107.137 122.135 106.448 120.395 106.334 118.57C105.55 118.876 91.023 119.058 89.6964 118.863L89.687 135.906H96.333L96.2706 130.558L105.787 135.906H127.077C127.204 134.394 126.791 132.886 125.911 131.65C125.031 130.413 123.742 129.529 122.272 129.154Z" fill="#82B1FF"/>
<path d="M77.1004 86.3015L93.14 75.0381C94.6237 74.0182 96.3576 73.4233 98.1547 73.3174C99.9517 73.2115 101.744 73.5988 103.337 74.4374C104.93 75.2761 106.263 76.5342 107.194 78.0758C108.124 79.6175 108.616 81.3842 108.616 83.1851V118.832H88.8549V101.966L82.277 106.832C79.8016 108.102 77.8255 108.726 73.7693 108.622C68.5706 108.489 64.792 104.563 64.3488 99.9591L62.6406 93.4314L77.1004 86.3015Z" fill="white"/>
<path d="M108.616 119.144H88.8548C88.772 119.144 88.6927 119.111 88.6342 119.053C88.5757 118.994 88.5428 118.915 88.5428 118.832V102.585L82.4626 107.083C82.449 107.093 82.4346 107.102 82.4195 107.109C79.9 108.403 77.8695 109.04 73.7612 108.934C71.2647 108.886 68.8759 107.908 67.0605 106.193C65.3471 104.561 64.2757 102.369 64.0407 100.014L62.3388 93.5105C62.3206 93.4409 62.3269 93.3672 62.3568 93.3017C62.3867 93.2363 62.4382 93.1832 62.5027 93.1514L76.9407 86.0327L92.9609 74.7827C94.4913 73.7301 96.2801 73.1158 98.1341 73.0062C99.9881 72.8966 101.837 73.2958 103.48 74.1608C105.124 75.0258 106.5 76.3236 107.46 77.9141C108.421 79.5045 108.928 81.3272 108.928 83.1852V118.832C108.928 118.915 108.895 118.994 108.837 119.053C108.778 119.111 108.699 119.144 108.616 119.144ZM89.1668 118.52H108.304V83.1851C108.304 81.4411 107.828 79.7302 106.927 78.2372C106.026 76.7442 104.734 75.5259 103.191 74.7137C101.648 73.9016 99.9133 73.5265 98.173 73.629C96.4327 73.7315 94.7535 74.3077 93.3167 75.2953L77.2789 86.5574C77.2658 86.5667 77.2519 86.5748 77.2373 86.5818L63.0062 93.5988L64.6495 99.88C64.6538 99.8961 64.6567 99.9125 64.6582 99.9291C65.1138 104.662 68.9484 108.187 73.7761 108.31C77.7371 108.412 79.6958 107.803 82.1108 106.566L88.6683 101.715C88.7148 101.681 88.7698 101.66 88.8274 101.655C88.885 101.65 88.9428 101.661 88.9943 101.687C89.0459 101.713 89.0893 101.753 89.1196 101.802C89.1498 101.851 89.1659 101.908 89.1659 101.966L89.1668 118.52Z" fill="#222433"/>
<path d="M177.188 117.896C176.576 116.506 175.49 115.379 174.123 114.717C172.757 114.056 171.199 113.902 169.73 114.285L160.12 116.428C158.332 116.892 156.441 116.769 154.728 116.077C153.014 115.386 151.568 114.162 150.602 112.586C150.168 113.184 136.73 120.588 136.303 121.051C136.297 121.057 136.291 121.062 136.285 121.067L144.426 135.906L150.25 132.702L147.629 128.051L158.539 128.155L177.188 117.896Z" fill="#82B1FF"/>
<path d="M104.597 61.8857C104.947 62.2202 105.255 62.5961 105.515 63.0051C105.559 62.9872 105.606 62.9755 105.653 62.9705C105.294 62.4571 104.86 62.0003 104.366 61.6156C104.45 61.6996 104.527 61.7899 104.597 61.8857Z" fill="#5A38FD"/>
<path d="M101.19 60.3365L87.9398 58.9423C87.7766 58.9247 84.4581 58.9099 80.4289 58.8983C80.4273 58.9186 80.4264 58.9387 80.4235 58.9589C80.3842 59.1952 80.3079 59.4237 80.1973 59.6361C81.455 59.8462 82.7268 59.8954 84.0009 59.9091C86.498 59.9358 88.9919 60.1047 91.4845 60.2427C92.6935 60.3096 93.9051 60.3909 95.1163 60.3892C96.25 60.3874 97.3829 60.3322 98.5163 60.3656C99.5027 60.3947 100.454 60.5677 101.428 60.6894C102.212 60.787 103.031 60.8604 103.756 61.1967C102.974 60.7255 102.098 60.4319 101.19 60.3365Z" fill="#5A38FD"/>
<path d="M108.621 106.292L124.633 104.088L135.387 121.495L152.517 111.642L139.298 88.2415C138.305 86.5135 136.814 85.126 135.019 84.2608C133.224 83.3956 131.21 83.093 129.241 83.3929L108.616 86.2022L108.621 106.292Z" fill="white"/>
<path d="M135.387 121.808C135.334 121.808 135.282 121.794 135.235 121.768C135.189 121.742 135.15 121.705 135.122 121.66L124.475 104.425L108.663 106.601C108.619 106.607 108.574 106.604 108.531 106.591C108.489 106.578 108.449 106.557 108.416 106.527C108.382 106.498 108.355 106.462 108.337 106.421C108.318 106.381 108.309 106.337 108.309 106.292L108.304 86.2027C108.304 86.1271 108.332 86.0541 108.381 85.9971C108.431 85.9402 108.5 85.9033 108.575 85.8932L129.199 83.0839C131.23 82.7756 133.307 83.0883 135.157 83.981C137.008 84.8736 138.546 86.3047 139.569 88.0866L152.789 111.489C152.83 111.56 152.84 111.645 152.819 111.725C152.797 111.804 152.745 111.872 152.673 111.913L135.543 121.766C135.496 121.794 135.442 121.808 135.387 121.808ZM124.633 103.776C124.686 103.776 124.739 103.79 124.785 103.816C124.831 103.842 124.871 103.879 124.898 103.924L135.494 121.074L152.093 111.526L139.027 88.3954C138.06 86.7275 136.614 85.3884 134.878 84.5516C133.142 83.7148 131.194 83.4187 129.288 83.7018L108.928 86.4751L108.932 105.934L124.591 103.779C124.605 103.777 124.619 103.776 124.633 103.776V103.776Z" fill="#222433"/>
<path d="M151.58 112.494C151.526 112.494 151.473 112.48 151.426 112.454C151.379 112.427 151.34 112.389 151.312 112.343L136.888 88.3617C136.248 87.3008 135.317 86.446 134.205 85.8988C133.094 85.3517 131.849 85.1351 130.618 85.275L108.662 88.5042C108.621 88.5106 108.58 88.5089 108.54 88.4991C108.5 88.4893 108.462 88.4717 108.429 88.4472C108.396 88.4228 108.368 88.392 108.346 88.3566C108.325 88.3212 108.311 88.282 108.305 88.2412C108.299 88.2004 108.301 88.1588 108.311 88.1188C108.322 88.0789 108.34 88.0413 108.364 88.0083C108.389 87.9753 108.42 87.9476 108.456 87.9267C108.491 87.9058 108.531 87.8922 108.571 87.8866L130.538 84.656C131.889 84.5009 133.256 84.7373 134.476 85.3371C135.697 85.9368 136.72 86.8747 137.423 88.0391L151.847 112.02C151.875 112.068 151.891 112.122 151.891 112.177C151.892 112.232 151.878 112.287 151.851 112.335C151.824 112.383 151.784 112.423 151.737 112.451C151.689 112.479 151.635 112.493 151.58 112.494V112.494Z" fill="#222433"/>
<path d="M147.933 114.591C147.88 114.591 147.827 114.577 147.78 114.551C147.733 114.524 147.694 114.486 147.666 114.44L134.371 92.3363C133.731 91.2756 132.8 90.421 131.688 89.8739C130.577 89.3267 129.332 89.1101 128.101 89.2496L108.662 92.1087C108.621 92.1156 108.579 92.1142 108.539 92.1047C108.498 92.0951 108.46 92.0777 108.427 92.0532C108.393 92.0288 108.365 91.9979 108.343 91.9623C108.322 91.9268 108.308 91.8873 108.302 91.8462C108.296 91.8051 108.298 91.7632 108.308 91.723C108.319 91.6828 108.337 91.645 108.362 91.612C108.387 91.5789 108.419 91.5512 108.454 91.5304C108.49 91.5097 108.53 91.4963 108.571 91.4911L128.021 88.6308C129.372 88.4757 130.739 88.7121 131.959 89.3118C133.18 89.9115 134.203 90.8494 134.906 92.0138L148.201 114.118C148.229 114.165 148.245 114.219 148.245 114.275C148.246 114.33 148.232 114.384 148.205 114.432C148.178 114.481 148.138 114.521 148.091 114.548C148.043 114.576 147.989 114.591 147.934 114.591H147.933Z" fill="#222433"/>
<path d="M144.292 116.686C144.238 116.686 144.185 116.672 144.138 116.645C144.091 116.619 144.052 116.581 144.024 116.535L131.854 96.3005C131.214 95.2398 130.283 94.3851 129.171 93.8379C128.06 93.2908 126.815 93.0742 125.584 93.2138L108.662 95.7027C108.621 95.7096 108.579 95.7082 108.539 95.6987C108.498 95.6892 108.46 95.6717 108.427 95.6472C108.393 95.6228 108.365 95.5919 108.343 95.5563C108.322 95.5208 108.308 95.4813 108.302 95.4402C108.296 95.3991 108.298 95.3572 108.308 95.317C108.319 95.2768 108.337 95.239 108.362 95.206C108.387 95.1729 108.419 95.1452 108.454 95.1244C108.49 95.1037 108.53 95.0903 108.571 95.0851L125.504 92.5949C126.855 92.4399 128.222 92.6764 129.442 93.2761C130.663 93.8759 131.686 94.8136 132.389 95.978L144.559 116.212C144.588 116.26 144.603 116.314 144.604 116.369C144.605 116.424 144.591 116.479 144.564 116.527C144.536 116.575 144.497 116.615 144.449 116.643C144.402 116.671 144.347 116.685 144.292 116.685V116.686Z" fill="#222433"/>
<path d="M140.651 118.78C140.597 118.78 140.544 118.767 140.497 118.74C140.45 118.714 140.411 118.675 140.383 118.629L129.337 100.265C128.697 99.2041 127.766 98.3495 126.654 97.8024C125.543 97.2553 124.298 97.0386 123.067 97.1781L108.662 99.2968C108.621 99.3037 108.579 99.3023 108.539 99.2928C108.498 99.2833 108.46 99.2658 108.427 99.2414C108.393 99.2169 108.365 99.186 108.343 99.1505C108.322 99.1149 108.308 99.0755 108.302 99.0344C108.296 98.9933 108.298 98.9514 108.308 98.9112C108.319 98.8709 108.337 98.8332 108.362 98.8001C108.387 98.7671 108.419 98.7393 108.454 98.7186C108.49 98.6978 108.53 98.6845 108.571 98.6793L122.987 96.5592C124.338 96.4043 125.705 96.6408 126.925 97.2405C128.146 97.8402 129.169 98.7779 129.872 99.9422L140.918 118.307C140.946 118.354 140.962 118.408 140.962 118.463C140.963 118.519 140.949 118.573 140.922 118.621C140.895 118.669 140.855 118.709 140.808 118.737C140.76 118.765 140.706 118.78 140.651 118.78L140.651 118.78Z" fill="#222433"/>
<path d="M137.002 120.879C136.948 120.879 136.895 120.865 136.848 120.839C136.801 120.812 136.762 120.774 136.734 120.728L126.82 104.239C126.18 103.178 125.249 102.323 124.137 101.776C123.026 101.229 121.781 101.012 120.55 101.152L108.662 102.901C108.621 102.907 108.58 102.905 108.54 102.896C108.5 102.886 108.462 102.868 108.429 102.844C108.396 102.819 108.368 102.788 108.346 102.753C108.325 102.718 108.311 102.679 108.305 102.638C108.299 102.597 108.301 102.555 108.311 102.515C108.322 102.475 108.34 102.438 108.364 102.405C108.389 102.372 108.42 102.344 108.456 102.323C108.491 102.302 108.531 102.289 108.571 102.283L120.47 100.533C121.821 100.378 123.188 100.615 124.409 101.215C125.629 101.815 126.652 102.752 127.355 103.917L137.269 120.406C137.298 120.453 137.313 120.507 137.314 120.562C137.314 120.618 137.301 120.672 137.273 120.72C137.246 120.768 137.207 120.808 137.159 120.836C137.112 120.864 137.057 120.879 137.002 120.879V120.879Z" fill="#222433"/>
<path d="M105.777 119.102C105.694 119.102 105.615 119.07 105.556 119.011C105.498 118.952 105.465 118.873 105.465 118.79V85.3909C105.464 83.8222 105.036 82.2834 104.226 80.9401C103.416 79.5969 102.256 78.5 100.869 77.7677C99.4824 77.0354 97.9224 76.6953 96.3568 76.7841C94.7913 76.8729 93.2797 77.3873 91.9847 78.2717L77.2764 88.3138C77.2426 88.3377 77.2043 88.3547 77.1639 88.3637C77.1235 88.3727 77.0817 88.3735 77.0409 88.3662C77.0002 88.3588 76.9613 88.3434 76.9265 88.3209C76.8918 88.2984 76.8618 88.2692 76.8385 88.2349C76.8151 88.2007 76.7988 88.1622 76.7905 88.1216C76.7822 88.081 76.7821 88.0392 76.7901 87.9985C76.7981 87.9579 76.8141 87.9192 76.8372 87.8849C76.8603 87.8505 76.89 87.821 76.9246 87.7982L91.6331 77.7562C94.5154 75.7882 98.0784 75.587 101.164 77.2175C104.248 78.8471 106.089 81.9026 106.089 85.3909V118.79C106.089 118.873 106.056 118.952 105.997 119.011C105.939 119.07 105.86 119.102 105.777 119.102Z" fill="#222433"/>
<path d="M101.585 119.144C101.503 119.144 101.423 119.111 101.365 119.053C101.306 118.994 101.273 118.915 101.273 118.832V90.4996C101.273 89.0861 100.886 87.6994 100.156 86.4891C99.4264 85.2788 98.3802 84.2906 97.1304 83.631C95.8806 82.9715 94.4747 82.6654 93.0639 82.746C91.6532 82.8265 90.2912 83.2905 89.1245 84.088L74.0178 94.4085C73.9495 94.4552 73.8654 94.4728 73.7841 94.4575C73.7027 94.4422 73.6308 94.3952 73.5841 94.3268C73.5375 94.2584 73.5199 94.1743 73.5352 94.093C73.5505 94.0116 73.5975 93.9397 73.6658 93.893L88.7728 83.5723C90.0333 82.7108 91.5048 82.2096 93.0288 82.1227C94.5529 82.0358 96.0718 82.3665 97.4219 83.0791C98.772 83.7917 99.9023 84.8593 100.691 86.1669C101.48 87.4745 101.897 88.9725 101.897 90.4996V118.832C101.897 118.915 101.864 118.994 101.806 119.053C101.747 119.111 101.668 119.144 101.585 119.144Z" fill="#222433"/>
<path d="M96.6865 119.144C96.6038 119.144 96.5244 119.111 96.4659 119.053C96.4074 118.994 96.3745 118.915 96.3745 118.832V95.1402C96.3729 94.0344 96.07 92.95 95.4985 92.0035C94.9269 91.057 94.1083 90.2843 93.1307 89.7683C92.153 89.2524 91.0533 89.0128 89.9497 89.0752C88.8461 89.1377 87.7805 89.4999 86.8672 90.1229L65.9612 104.403C65.8928 104.449 65.8088 104.467 65.7274 104.452C65.6461 104.436 65.5742 104.389 65.5275 104.321C65.4808 104.253 65.4632 104.168 65.4785 104.087C65.4939 104.006 65.5409 103.934 65.6092 103.887L86.5158 89.6071C87.5228 88.9202 88.6979 88.5208 89.9148 88.452C91.1317 88.3831 92.3443 88.6474 93.4223 89.2164C94.5003 89.7854 95.4029 90.6376 96.033 91.6813C96.6631 92.725 96.9969 93.9209 96.9986 95.1402V118.832C96.9986 118.915 96.9657 118.994 96.9072 119.053C96.8487 119.111 96.7693 119.144 96.6865 119.144Z" fill="#222433"/>
<path d="M92.6302 119.102C92.5475 119.102 92.4681 119.069 92.4096 119.01C92.3511 118.952 92.3182 118.872 92.3182 118.79V99.0108C92.3185 98.2406 92.1088 97.485 91.7117 96.8253C91.3145 96.1656 90.745 95.6267 90.0644 95.2668C89.3838 94.9069 88.618 94.7396 87.8494 94.7829C87.0808 94.8262 86.3385 95.0784 85.7026 95.5125L68.6188 107.179C68.5504 107.225 68.4668 107.242 68.386 107.226C68.3053 107.21 68.234 107.164 68.1876 107.096C68.1413 107.028 68.1236 106.944 68.1384 106.863C68.1533 106.782 68.1995 106.711 68.2669 106.664L85.351 94.9969C86.0806 94.4989 86.9323 94.2095 87.8142 94.1598C88.6961 94.1101 89.5749 94.3021 90.3559 94.715C91.1368 95.1279 91.7903 95.7462 92.2461 96.5031C92.7019 97.2601 92.9426 98.1271 92.9423 99.0108V118.79C92.9423 118.872 92.9094 118.952 92.8509 119.01C92.7924 119.069 92.713 119.102 92.6302 119.102Z" fill="#222433"/>
<path d="M73.9813 108.885C73.9143 108.885 73.849 108.864 73.7951 108.824C73.7412 108.784 73.7017 108.727 73.6823 108.663C73.6629 108.599 73.6647 108.53 73.6874 108.467C73.7101 108.404 73.7526 108.35 73.8085 108.313L88.6827 98.4335C88.7169 98.4109 88.7551 98.3951 88.7954 98.3873C88.8356 98.3794 88.877 98.3795 88.9171 98.3877C88.9573 98.3958 88.9955 98.4117 89.0295 98.4346C89.0635 98.4575 89.0926 98.4869 89.1153 98.521C89.1379 98.5552 89.1537 98.5935 89.1615 98.6337C89.1694 98.674 89.1693 98.7153 89.1611 98.7555C89.153 98.7957 89.1371 98.8339 89.1142 98.8679C89.0913 98.9019 89.062 98.9311 89.0278 98.9538L74.1537 108.833C74.1026 108.867 74.0427 108.885 73.9813 108.885Z" fill="#222433"/>
<path d="M67.2839 77.3167H67.0038C67.2236 77.6378 66.9406 78.2342 66.4273 78.1379C65.8259 78.0249 59.425 78.0997 58.7502 78.1367C58.6127 78.1355 58.4811 78.0802 58.3839 77.983C58.2866 77.8857 58.2315 77.7541 58.2302 77.6165C58.2302 77.6165 58.2359 77.3772 58.2439 77.3392C57.0466 77.4202 55.8788 77.7475 54.8137 78.3007C53.7487 78.8539 52.8092 79.6211 52.0542 80.5543C53.003 81.6087 54.0946 82.5184 55.0755 83.5426C56.0183 84.527 56.8075 85.8908 58.0071 86.5808C59.905 87.6733 62.2272 87.622 64.2135 88.4838C66.5565 89.5005 68.4143 91.2602 70.3388 92.8894C70.6697 93.1695 71.0882 93.4336 71.4297 93.7518C73.1417 92.8282 74.4967 91.3595 75.2801 89.5785C76.0635 87.7974 76.2304 85.8058 75.7545 83.9191C75.2786 82.0324 74.187 80.3585 72.6527 79.1626C71.1183 77.9666 69.229 77.3171 67.2839 77.3167Z" fill="#82B1FF"/>
<path d="M77.6957 83.4036H74.3467V88.71H77.6957V83.4036Z" fill="#82B1FF"/>
<path d="M71.3831 90.6091L69.9201 92.0729C70.2324 92.3189 70.5261 92.5877 70.7987 92.8772C71.2541 93.3419 71.8067 93.9271 71.9365 94.5897C72.0942 95.394 71.37 95.8241 70.6544 95.6424C70.2479 95.5265 69.8597 95.3541 69.501 95.1303C68.9686 94.8151 68.5454 94.3475 67.981 94.0855C67.9639 94.0776 67.9498 94.0683 67.9343 94.0594L67.4927 94.5011L71.9788 98.989L75.8692 95.0976L71.3831 90.6091Z" fill="#82B1FF"/>
<path d="M58.1079 94.9858C58.0031 94.9879 57.9002 94.957 57.8139 94.8975C57.7283 94.9563 57.6266 94.9872 57.5227 94.9858C56.614 94.9932 55.6952 95.0995 54.7967 94.9091C53.7475 94.6868 53.1981 93.8419 52.3416 93.2974C52.2826 93.2605 52.231 93.2131 52.1892 93.1576L50.248 95.0995L54.1385 98.9909L58.1427 94.9856C58.1311 94.9861 58.1195 94.9858 58.1079 94.9858Z" fill="#82B1FF"/>
<path d="M71.6834 74.008H71.5482C70.4945 74.008 69.4839 74.4268 68.7389 75.1722C67.9938 75.9176 67.5752 76.9285 67.5752 77.9827V80.9272H71.6834V74.008Z" fill="#82B1FF"/>
<path d="M70.6438 83.9966C71.0172 83.9966 71.3198 83.6938 71.3198 83.3203C71.3198 82.9468 71.0172 82.644 70.6438 82.644C70.2704 82.644 69.9678 82.9468 69.9678 83.3203C69.9678 83.6938 70.2704 83.9966 70.6438 83.9966Z" fill="#222433"/>
<path d="M62.5727 87.7424C60.243 86.9828 58.8181 86.6082 58.2773 86.4626L58.2461 86.4938L46.4622 74.8508C46.1283 74.5267 45.7624 74.2374 45.3701 73.9872C44.6701 73.5483 43.8903 73.252 43.0756 73.1153C42.2608 72.9786 41.4271 73.0042 40.6223 73.1906C39.8174 73.377 39.0573 73.7205 38.3854 74.2015C37.7136 74.6824 37.1433 75.2913 36.7072 75.9933C36.2711 76.6952 35.9779 77.4764 35.8443 78.292C35.7107 79.1076 35.7394 79.9416 35.9287 80.746C36.1181 81.5505 36.4643 82.3097 36.9476 82.98C37.4308 83.6503 38.0417 84.2185 38.745 84.6521L52.6194 93.2777C53.441 94.1725 54.3563 94.7552 55.3755 94.8176C57.6533 94.9633 59.2861 94.3182 61.3663 97.2523C62.3127 98.5738 63.5192 100.696 64.7361 99.7599C65.5785 99.1148 64.268 96.576 63.3736 94.672C65.6929 96.6177 68.7403 99.1668 69.6867 98.168C70.6228 97.1691 68.5843 95.1194 65.5577 92.6118C69.3643 94.7656 71.07 96.4304 71.8605 95.3691C73.1502 93.6107 65.6305 88.7308 62.5727 87.7424Z" fill="white"/>
<path d="M64.1133 100.304C64.0475 100.303 63.9817 100.298 63.9166 100.288C62.9836 100.142 62.1768 98.9712 61.4649 97.9388C61.3441 97.7634 61.2266 97.593 61.1128 97.4342C59.5007 95.1608 58.265 95.1593 56.5542 95.1571C56.1723 95.1571 55.7775 95.1561 55.3558 95.1293C54.3403 95.0668 53.3522 94.5258 52.419 93.5207L38.5804 84.9177C37.0964 83.995 36.0395 82.5204 35.6423 80.8183C35.245 79.1161 35.54 77.3258 36.4622 75.8411C37.3845 74.3565 38.8585 73.2992 40.56 72.9018C42.2615 72.5044 44.0511 72.7995 45.5351 73.7221C45.946 73.9842 46.3293 74.2872 46.6791 74.6266L58.3517 86.1596C58.3539 86.1596 58.3561 86.1606 58.3584 86.1612L58.4551 86.1872C59.0549 86.3482 60.4593 86.7251 62.6686 87.4454C65.288 88.2922 71.4993 92.1433 72.24 94.4355C72.4149 94.9765 72.267 95.3425 72.112 95.5538C71.5778 96.2711 70.7495 95.9531 70.4773 95.8487C69.9146 95.6326 69.205 95.1989 68.3202 94.6457C69.6019 95.9071 70.1809 96.7936 70.2254 97.4981C70.2391 97.659 70.2185 97.821 70.1649 97.9733C70.1112 98.1256 70.0259 98.2647 69.9144 98.3815C68.9708 99.3772 66.906 97.9798 64.2565 95.8104C65.1009 97.627 65.7769 99.3564 64.9262 100.008C64.6963 100.195 64.4099 100.299 64.1133 100.304ZM42.0701 73.351C41.6097 73.3512 41.1508 73.4044 40.7025 73.5095C39.5538 73.7776 38.5103 74.3806 37.7041 75.242C36.8979 76.1034 36.3652 77.1847 36.1733 78.3491C35.9814 79.5134 36.139 80.7086 36.6261 81.7833C37.1132 82.8581 37.908 83.7642 38.9099 84.387L52.7843 93.0126C52.8083 93.0275 52.8302 93.0457 52.8493 93.0665C53.6781 93.969 54.5342 94.4534 55.3947 94.506C55.7978 94.5317 56.1827 94.5322 56.5549 94.5327C58.309 94.5349 59.8238 94.5368 61.621 97.0715C61.7354 97.232 61.8556 97.4055 61.9786 97.584C62.5875 98.4671 63.3452 99.5661 64.0133 99.671C64.1083 99.6844 64.205 99.6771 64.297 99.6497C64.3889 99.6223 64.4738 99.5754 64.546 99.5122C65.118 99.0744 63.9948 96.7093 63.3242 95.2964C63.2446 95.129 63.1666 94.9644 63.0914 94.8044C63.0611 94.74 63.0537 94.6673 63.0705 94.5981C63.0872 94.529 63.127 94.4676 63.1834 94.4242C63.2397 94.3808 63.3092 94.358 63.3803 94.3595C63.4514 94.361 63.5198 94.3867 63.5743 94.4324C64.6778 95.3585 66.0512 96.5105 67.2145 97.2617C68.7804 98.2729 69.2939 98.1287 69.461 97.953C69.5135 97.8982 69.5535 97.8325 69.5781 97.7606C69.6026 97.6888 69.6113 97.6124 69.6033 97.5368C69.5343 96.4434 67.299 94.4586 65.3593 92.8516C65.2992 92.8019 65.2599 92.7314 65.2491 92.6541C65.2383 92.5768 65.2569 92.4983 65.3012 92.434C65.3455 92.3697 65.4122 92.3243 65.4883 92.3068C65.5643 92.2894 65.6441 92.301 65.712 92.3395C66.7736 92.9401 67.6542 93.4913 68.4312 93.9778C70.3592 95.1847 71.2278 95.6965 71.6109 95.182C71.6469 95.133 71.7604 94.9782 71.6469 94.6268C71.0114 92.6603 65.2269 88.9276 62.4775 88.0388H62.4768C60.3143 87.3339 58.9295 86.9603 58.3203 86.7968C58.2686 86.8093 58.2146 86.8084 58.1634 86.7942C58.1121 86.78 58.0654 86.7529 58.0275 86.7155L46.2437 75.0725C45.9257 74.7642 45.5775 74.4888 45.2042 74.2506C44.2644 73.663 43.1784 73.3513 42.0701 73.351Z" fill="#222433"/>
<path d="M66.7694 64.2849C67.0148 65.2993 66.885 66.3683 66.4038 67.2943C65.9227 68.2203 65.1227 68.9409 64.1518 69.3227C63.1808 69.7045 62.1046 69.7218 61.1219 69.3714C60.1392 69.021 59.3164 68.3266 58.8058 67.4166C58.2951 66.5065 58.1309 65.4422 58.3437 64.4205C58.5564 63.3987 59.1317 62.4886 59.9632 61.8582C60.7946 61.2278 61.826 60.9198 62.8669 60.9911C63.9077 61.0624 64.8875 61.5082 65.6253 62.2461" fill="white"/>
<path d="M62.5726 69.9293C61.8115 69.9293 61.0621 69.7416 60.3909 69.3826C59.7196 69.0237 59.1472 68.5047 58.7244 67.8716C58.3015 67.2385 58.0412 66.5108 57.9666 65.753C57.892 64.9953 58.0054 64.2308 58.2966 63.5273C58.5879 62.8238 59.0481 62.2031 59.6365 61.72C60.2248 61.237 60.9232 60.9065 61.6697 60.758C62.4162 60.6095 63.1878 60.6474 63.9161 60.8684C64.6445 61.0895 65.3071 61.4868 65.8453 62.0252C65.8747 62.0541 65.898 62.0885 65.914 62.1265C65.93 62.1645 65.9383 62.2052 65.9385 62.2464C65.9387 62.2876 65.9307 62.3285 65.915 62.3666C65.8993 62.4047 65.8763 62.4393 65.8471 62.4684C65.818 62.4976 65.7834 62.5207 65.7453 62.5363C65.7073 62.552 65.6664 62.56 65.6253 62.5599C65.5841 62.5597 65.5433 62.5514 65.5054 62.5354C65.4674 62.5194 65.433 62.496 65.4041 62.4667C64.749 61.8113 63.8871 61.4035 62.9652 61.3126C62.0432 61.2218 61.1183 61.4536 60.3481 61.9684C59.5778 62.4833 59.0098 63.2495 58.7409 64.1363C58.4719 65.0232 58.5187 65.9759 58.8732 66.8322C59.2277 67.6884 59.8681 68.3952 60.6851 68.8321C61.5021 69.2689 62.4452 69.4089 63.3538 69.2281C64.2624 69.0473 65.0803 68.5569 65.668 67.8405C66.2557 67.1241 66.5769 66.226 66.5769 65.2992C66.577 64.9821 66.5397 64.6661 66.4657 64.3578C66.4556 64.3177 66.4536 64.2761 66.4597 64.2353C66.4658 64.1944 66.48 64.1552 66.5013 64.1199C66.5227 64.0846 66.5509 64.0539 66.5842 64.0295C66.6175 64.0052 66.6553 63.9877 66.6955 63.978C66.7356 63.9684 66.7772 63.9668 66.818 63.9734C66.8587 63.98 66.8977 63.9946 66.9328 64.0163C66.9679 64.0381 66.9983 64.0666 67.0222 64.1002C67.0462 64.1338 67.0633 64.1718 67.0725 64.2121C67.2361 64.893 67.2433 65.6022 67.0936 66.2864C66.9439 66.9705 66.6411 67.6118 66.208 68.1621C65.775 68.7123 65.2228 69.1572 64.5932 69.4633C63.9635 69.7694 63.2727 69.9287 62.5726 69.9293Z" fill="#222433"/>
<path d="M62.5728 68.7848C61.9782 68.7848 61.3934 68.6325 60.8741 68.3424C60.3549 68.0523 59.9186 67.6341 59.6067 67.1275C59.2947 66.621 59.1176 66.043 59.0921 65.4486C59.0666 64.8543 59.1936 64.2632 59.461 63.7318C59.7284 63.2004 60.1273 62.7464 60.6198 62.4128C61.1123 62.0793 61.6819 61.8774 62.2744 61.8264C62.8669 61.7754 63.4626 61.877 64.0048 62.1215C64.5469 62.3659 65.0175 62.7451 65.3718 63.223C65.4061 63.2694 65.427 63.3243 65.4321 63.3818C65.4371 63.4393 65.4261 63.4971 65.4004 63.5487C65.4582 63.5482 65.5149 63.5639 65.5642 63.5941C65.6136 63.6242 65.6534 63.6676 65.6793 63.7193C65.9292 64.2084 66.0587 64.75 66.057 65.2992C66.056 66.2233 65.6886 67.1093 65.0354 67.7627C64.3822 68.4162 63.4966 68.7838 62.5728 68.7848ZM62.5728 62.4379C62.0072 62.4379 61.4542 62.6057 60.9838 62.9201C60.5135 63.2345 60.1469 63.6814 59.9304 64.2042C59.7139 64.7271 59.6573 65.3024 59.7676 65.8574C59.878 66.4125 60.1504 66.9223 60.5504 67.3225C60.9504 67.7226 61.46 67.9951 62.0149 68.1055C62.5697 68.216 63.1448 68.1593 63.6674 67.9427C64.19 67.7262 64.6367 67.3594 64.951 66.8889C65.2653 66.4183 65.433 65.8651 65.433 65.2992C65.4344 64.8485 65.3282 64.404 65.1233 64.0026C65.1012 63.9591 65.0896 63.911 65.0894 63.8622C65.0892 63.8134 65.1005 63.7653 65.1222 63.7216C65.0735 63.7214 65.0254 63.7098 64.9818 63.688C64.9382 63.6661 64.9002 63.6345 64.8708 63.5955C64.606 63.2351 64.2599 62.9423 63.8605 62.7411C63.4612 62.54 63.02 62.4361 62.5728 62.4379Z" fill="#222433"/>
<path d="M62.8849 62.9165V63.4263C63.2907 63.4575 63.6814 63.5937 64.0186 63.8217L63.7169 64.3003C63.4618 64.137 63.1745 64.0305 62.8745 63.9882V65.0286C63.4881 65.1119 64.0498 65.372 64.0394 66.0275C64.029 66.6622 63.5193 67.0368 62.8745 67.12V67.6611H62.3545V67.1304C61.8968 67.0888 61.3976 66.9327 61.0752 66.6622L61.3872 66.194C61.6636 66.4098 61.9953 66.5433 62.3441 66.579V65.5385L62.2921 65.5281C61.7096 65.4448 61.1688 65.1847 61.1896 64.5188C61.2 63.9049 61.6888 63.52 62.3441 63.4367V62.9165H62.8849ZM62.3649 64.9454V63.9986C62.0217 64.061 61.8136 64.2379 61.8032 64.498C61.8032 64.7477 61.9904 64.8726 62.3649 64.9454ZM62.8849 65.6113V66.5582C63.2177 66.4957 63.4465 66.3188 63.4569 66.0587C63.4569 65.8298 63.2489 65.6946 62.8849 65.6113Z" fill="#82B1FF"/>
<path d="M58.2568 78.1639C58.2727 77.0292 58.7344 75.9464 59.5422 75.1496C60.3499 74.3528 61.4387 73.9062 62.5731 73.9063C63.7074 73.9064 64.7962 74.3533 65.6037 75.1502C66.4113 75.9471 66.8729 77.0301 66.8885 78.1648" fill="white"/>
<path d="M66.8887 78.4771C66.8067 78.4771 66.7279 78.4448 66.6695 78.3871C66.6111 78.3295 66.5778 78.2511 66.5767 78.169C66.5637 77.1153 66.1361 76.1093 65.3867 75.3688C64.6373 74.6282 63.6264 74.213 62.5731 74.2129C61.5198 74.2128 60.5088 74.6279 59.7593 75.3683C59.0098 76.1087 58.5821 77.1147 58.5689 78.1684C58.5678 78.2505 58.5344 78.3288 58.476 78.3864C58.4176 78.4441 58.3389 78.4764 58.2569 78.4764H58.2527C58.2117 78.4758 58.1713 78.4672 58.1336 78.451C58.096 78.4348 58.0619 78.4114 58.0333 78.382C58.0047 78.3526 57.9822 78.3179 57.967 78.2798C57.9518 78.2418 57.9443 78.2011 57.9449 78.1601C57.9657 76.9444 58.462 75.7853 59.3272 74.9314C60.1925 74.0775 61.3577 73.5968 62.5731 73.5924H62.5939C63.807 73.5984 64.9693 74.0805 65.8309 74.9349C66.6925 75.7892 67.1846 76.9477 67.2014 78.1612C67.2019 78.2022 67.1944 78.2429 67.1792 78.281C67.164 78.3191 67.1415 78.3538 67.1129 78.3831C67.0843 78.4125 67.0502 78.4359 67.0125 78.4521C66.9749 78.4683 66.9344 78.4769 66.8934 78.4774L66.8887 78.4771Z" fill="#222433"/>
<path d="M65.7434 78.4501C65.662 78.4501 65.5838 78.4183 65.5255 78.3615C65.4673 78.3047 65.4335 78.2273 65.4314 78.146C65.413 77.4037 65.1065 76.6977 64.5767 76.1777C64.0469 75.6578 63.3355 75.3646 62.5933 75.3605C61.8511 75.3564 61.1365 75.6415 60.6009 76.1556C60.0654 76.6696 59.7509 77.3721 59.7243 78.1141C59.7213 78.1969 59.6855 78.2751 59.6249 78.3315C59.5642 78.3879 59.4836 78.4178 59.4009 78.4148C59.3181 78.4118 59.24 78.376 59.1836 78.3153C59.1272 78.2546 59.0973 78.174 59.1003 78.0912C59.1328 77.1871 59.516 76.3312 60.1686 75.7049C60.8212 75.0786 61.692 74.7312 62.5963 74.7362C63.5006 74.7412 64.3675 75.0984 65.0131 75.7319C65.6587 76.3654 66.0323 77.2255 66.0548 78.1299C66.0569 78.2127 66.0261 78.2929 65.9691 78.3529C65.9121 78.4129 65.8336 78.4479 65.7509 78.45L65.7434 78.4501Z" fill="#222433"/>
<path d="M62.8847 77.9515V76.911C63.1842 76.9551 63.4712 77.0614 63.7271 77.2231L64.0287 76.7445C63.6893 76.521 63.2998 76.3851 62.8951 76.3491V75.8393H62.3647V76.3595C61.7094 76.4428 61.2206 76.8278 61.2102 77.4416C61.1998 77.9723 61.543 78.2532 61.9902 78.3781H63.8623C63.6439 78.1284 63.2799 78.0035 62.8847 77.9515ZM62.3647 77.8682C61.9902 77.7954 61.803 77.6601 61.803 77.4208C61.8134 77.1607 62.0214 76.9838 62.3647 76.9214V77.8682Z" fill="#82B1FF"/>
<path d="M101.492 60.7523L79.8376 59.6702H79.6815C78.8807 59.0667 77.2062 57.7765 75.4693 56.7569C72.6923 55.1441 64.039 52.7926 63.6022 54.936C63.3318 56.2366 65.7135 56.4031 69.8634 57.7869C65.984 57.1939 63.0926 57.0482 62.9678 58.4112C62.8534 59.7743 66.7744 60.3465 69.7802 60.7835C67.7625 61.387 64.9959 62.1049 65.0791 63.1662C65.1935 64.6957 67.5856 64.1755 69.1873 63.9986C72.7547 63.6032 73.3684 65.2472 75.0013 66.8391C75.8333 67.6611 77.6118 67.9212 79.1615 67.4842L99.5363 73.082C99.9779 73.2027 100.431 73.276 100.888 73.3005C102.552 73.3833 104.18 72.8016 105.414 71.6836C106.649 70.5655 107.389 69.0025 107.472 67.3385C107.618 63.8737 104.955 60.9188 101.492 60.7523Z" fill="white"/>
<path d="M101.211 73.621C101.098 73.621 100.986 73.6181 100.872 73.6123C100.393 73.5866 99.9181 73.5098 99.4552 73.3834L79.1616 67.8079C77.5015 68.2488 75.6715 67.9396 74.7823 67.0613C74.4797 66.7663 74.2138 66.472 73.9565 66.1872C72.8533 64.9669 71.9818 64.0032 69.2219 64.3088C69.0299 64.3296 68.8267 64.3562 68.6171 64.3832C67.3739 64.5431 65.965 64.7243 65.2325 64.127C65.0935 64.0122 64.9803 63.8694 64.9003 63.7078C64.8203 63.5462 64.7753 63.3696 64.7682 63.1894C64.6843 62.1177 66.4269 61.4669 68.3479 60.8835C64.963 60.3503 62.5433 59.7419 62.6572 58.385C62.6703 58.2232 62.7178 58.066 62.7963 57.9239C62.8749 57.7818 62.9827 57.6581 63.1127 57.5609C63.6652 57.1286 64.6879 56.9667 66.4233 57.0719C65.463 56.795 64.6968 56.5621 64.1755 56.2961C63.9128 56.1621 63.1137 55.7543 63.297 54.8723C63.349 54.6163 63.5204 54.2606 64.0385 54.0281C66.2237 53.0465 73.2396 55.1008 75.6262 56.4868C77.2487 57.4393 78.8261 58.6321 79.6736 59.2728L79.7863 59.358H79.8378C79.843 59.358 79.8482 59.358 79.8534 59.358L101.507 60.4401C105.121 60.6143 107.937 63.7144 107.784 67.3512C107.698 69.0392 106.969 70.6302 105.746 71.7965C104.523 72.9628 102.9 73.6158 101.211 73.621ZM79.1616 67.1721C79.1895 67.1721 79.2172 67.1758 79.2441 67.1833L99.6189 72.7811C100.038 72.8958 100.468 72.9656 100.903 72.9892C101.005 72.9944 101.108 72.997 101.209 72.997C102.738 72.9927 104.208 72.402 105.315 71.3465C106.422 70.291 107.083 68.8511 107.161 67.3231C107.299 64.0307 104.749 61.222 101.477 61.0645H101.476L79.8301 59.9824H79.6816C79.6141 59.9824 79.5484 59.9605 79.4944 59.92L79.2977 59.7713C78.4603 59.1383 76.9018 57.9599 75.312 57.0265C72.8081 55.5725 66.1681 53.7571 64.2943 54.5982C63.9595 54.7485 63.9212 54.9369 63.9085 54.9988C63.7762 55.6354 64.7509 55.9433 66.9677 56.5792C67.8382 56.829 68.8248 57.1119 69.9631 57.4912C70.0372 57.5159 70.0994 57.5676 70.1373 57.636C70.1752 57.7043 70.1861 57.7844 70.1678 57.8605C70.1495 57.9365 70.1033 58.0028 70.0385 58.0465C69.9736 58.0901 69.8947 58.1077 69.8175 58.0959C67.5284 57.7458 64.3828 57.3607 63.4982 58.0532C63.4358 58.0979 63.384 58.1557 63.3463 58.2225C63.3085 58.2893 63.2858 58.3635 63.2798 58.44C63.2598 58.6771 63.4939 59.1519 65.2876 59.6441C66.6152 60.0082 68.3211 60.2563 69.8262 60.475C69.8965 60.4852 69.9612 60.5192 70.0097 60.5712C70.0581 60.6232 70.0873 60.6902 70.0925 60.7611C70.0977 60.832 70.0785 60.9025 70.0382 60.9611C69.9979 61.0196 69.9388 61.0626 69.8707 61.083C69.7043 61.1328 69.532 61.1836 69.3569 61.2352C67.8526 61.6785 65.3348 62.4213 65.3914 63.1423C65.3924 63.238 65.414 63.3323 65.4548 63.4188C65.4956 63.5054 65.5546 63.5821 65.6278 63.6437C66.1523 64.0715 67.4754 63.9012 68.5385 63.7644C68.7518 63.737 68.9589 63.7104 69.1543 63.6888C72.2314 63.3471 73.2458 64.4692 74.4202 65.7691C74.6711 66.0465 74.9299 66.3334 75.2203 66.616C75.9644 67.3511 77.6223 67.5949 79.078 67.1842C79.1052 67.1764 79.1333 67.1723 79.1616 67.1721Z" fill="#222433"/>
<path d="M88.855 102.278C88.7722 102.278 88.6929 102.245 88.6344 102.187C88.5758 102.128 88.543 102.049 88.543 101.966V98.2513C88.543 98.1685 88.5758 98.0891 88.6344 98.0306C88.6929 97.9721 88.7722 97.9392 88.855 97.9392C88.9377 97.9392 89.0171 97.9721 89.0756 98.0306C89.1341 98.0891 89.167 98.1685 89.167 98.2513V101.966C89.167 102.049 89.1341 102.128 89.0756 102.187C89.0171 102.245 88.9377 102.278 88.855 102.278Z" fill="#222433"/>
<path d="M75.8127 84.5586C75.7417 84.5585 75.673 84.5342 75.6177 84.4898C75.5624 84.4454 75.5238 84.3834 75.5085 84.3141C75.4575 84.0852 75.3812 83.7505 75.3055 83.491C75.2823 83.4115 75.2916 83.3261 75.3314 83.2535C75.3712 83.1809 75.4382 83.1271 75.5176 83.1039C75.5971 83.0807 75.6825 83.0901 75.755 83.1299C75.8276 83.1697 75.8814 83.2367 75.9045 83.3162C75.9852 83.5931 76.0648 83.9405 76.1176 84.1785C76.1265 84.2186 76.1275 84.2599 76.1204 84.3003C76.1133 84.3407 76.0983 84.3793 76.0763 84.4139C76.0543 84.4485 76.0257 84.4785 75.9922 84.502C75.9586 84.5255 75.9207 84.5422 75.8807 84.5511C75.8584 84.5561 75.8356 84.5586 75.8127 84.5586Z" fill="#222433"/>
<path d="M71.6836 81.2393C71.6009 81.2393 71.5215 81.2065 71.463 81.1479C71.4045 81.0894 71.3716 81.01 71.3716 80.9272V78.5133C71.3716 78.4305 71.4045 78.3511 71.463 78.2926C71.5215 78.234 71.6009 78.2011 71.6836 78.2011C71.7664 78.2011 71.8457 78.234 71.9042 78.2926C71.9628 78.3511 71.9956 78.4305 71.9956 78.5133V80.9272C71.9956 81.01 71.9628 81.0894 71.9042 81.1479C71.8457 81.2065 71.7664 81.2393 71.6836 81.2393Z" fill="#222433"/>
<path d="M67.5445 78.5133H57.6016C57.5188 78.5133 57.4395 78.4804 57.3809 78.4219C57.3224 78.3633 57.2896 78.2839 57.2896 78.2011C57.2896 78.1184 57.3224 78.039 57.3809 77.9804C57.4395 77.9219 57.5188 77.889 57.6016 77.889H67.5445C67.6273 77.889 67.7066 77.9219 67.7652 77.9804C67.8237 78.039 67.8565 78.1184 67.8565 78.2011C67.8565 78.2839 67.8237 78.3633 67.7652 78.4219C67.7066 78.4804 67.6273 78.5133 67.5445 78.5133Z" fill="#222433"/>
<path d="M124.634 104.4C124.58 104.4 124.528 104.386 124.481 104.36C124.434 104.334 124.395 104.296 124.367 104.251L123.33 102.551C123.287 102.48 123.274 102.395 123.293 102.314C123.313 102.234 123.364 102.165 123.434 102.121C123.505 102.078 123.59 102.065 123.67 102.085C123.751 102.104 123.82 102.155 123.863 102.225L124.9 103.925C124.929 103.973 124.945 104.027 124.946 104.082C124.947 104.138 124.933 104.192 124.906 104.241C124.879 104.289 124.839 104.329 124.791 104.357C124.744 104.385 124.689 104.4 124.634 104.4Z" fill="#222433"/>
<path d="M70.273 49.5067C70.2132 49.5067 70.1546 49.4895 70.1043 49.4571C70.054 49.4248 70.0141 49.3786 69.9892 49.3242C69.9644 49.2698 69.9557 49.2094 69.9642 49.1502C69.9727 49.0909 69.9981 49.0354 70.0372 48.9902L70.465 48.4959L69.2772 48.2266C69.1976 48.2073 69.1287 48.1574 69.0855 48.0878C69.0422 48.0181 69.0282 47.9342 69.0463 47.8542C69.0644 47.7742 69.1133 47.7046 69.1823 47.6604C69.2513 47.6161 69.335 47.6008 69.4152 47.6178L71.1104 48.0022C71.1631 48.014 71.2118 48.0393 71.2518 48.0755C71.2918 48.1118 71.3217 48.1579 71.3386 48.2092C71.3554 48.2605 71.3587 48.3153 71.3481 48.3682C71.3374 48.4212 71.3133 48.4705 71.2779 48.5113L70.5095 49.3992C70.4801 49.4331 70.4438 49.4602 70.403 49.4787C70.3621 49.4973 70.3178 49.5068 70.273 49.5067Z" fill="#222433"/>
<path d="M76.2866 55.4721C75.404 55.4725 74.5361 55.2453 73.7669 54.8123C73.6948 54.7716 73.6418 54.704 73.6196 54.6242C73.5974 54.5445 73.6077 54.4592 73.6484 54.3871C73.6891 54.3149 73.7567 54.262 73.8364 54.2397C73.9161 54.2175 74.0014 54.2279 74.0735 54.2685C74.7599 54.654 75.5349 54.8537 76.3221 54.8478C76.9128 54.8421 77.4967 54.72 78.0403 54.4885C78.5838 54.257 79.0765 53.9206 79.4901 53.4986C79.9037 53.0766 80.2301 52.5772 80.4508 52.0289C80.6714 51.4806 80.7819 50.8943 80.7759 50.3033C80.7753 50.2716 80.7744 50.2397 80.7731 50.2078C80.6257 50.5657 80.3525 50.8574 80.0049 51.0277C79.8077 51.1246 79.5921 51.1783 79.3725 51.1852C79.1529 51.1921 78.9343 51.1519 78.7315 51.0675L77.2921 50.4414C77.1026 50.3557 76.897 50.3113 76.6889 50.3113L75.5316 50.3009C75.3437 50.2974 75.1567 50.3292 74.9804 50.3945L73.9664 50.7608C73.7154 50.8527 73.445 50.8784 73.1813 50.8353C72.9176 50.7921 72.6694 50.6816 72.4609 50.5145L71.3669 49.639C71.3072 49.5859 71.2701 49.5118 71.2633 49.4321C71.2566 49.3524 71.2806 49.2732 71.3306 49.2107C71.3805 49.1483 71.4525 49.1074 71.5317 49.0965C71.6109 49.0856 71.6913 49.1055 71.7562 49.1522L72.8483 50.0262C72.9727 50.1264 73.1209 50.1929 73.2785 50.2192C73.4361 50.2454 73.5978 50.2305 73.7479 50.176L74.7629 49.8095C75.0097 49.718 75.2713 49.673 75.5344 49.6765L76.6917 49.6869C76.9863 49.6871 77.2775 49.7498 77.5461 49.871L78.9766 50.4932C79.0969 50.5434 79.2265 50.567 79.3567 50.5624C79.487 50.5579 79.6146 50.5252 79.7311 50.4667C79.8539 50.4066 79.9625 50.3209 80.0496 50.2153C80.1367 50.1098 80.2003 49.9869 80.236 49.8548L80.5367 48.693C80.5538 48.6272 80.5919 48.5687 80.6452 48.5265C80.6985 48.4843 80.7642 48.4607 80.8322 48.4592H80.8388C80.9057 48.4592 80.9708 48.4808 81.0245 48.5206C81.0782 48.5604 81.1178 48.6164 81.1372 48.6804C81.2988 49.2039 81.3874 49.7471 81.4004 50.2947C81.4074 50.968 81.2817 51.6361 81.0306 52.2607C80.7794 52.8854 80.4076 53.4544 79.9364 53.9352C79.4653 54.416 78.9041 54.7992 78.2848 55.063C77.6655 55.3267 77.0004 55.4657 76.3274 55.4721H76.2866Z" fill="#222433"/>
<path d="M75.1919 49.9471C75.1458 49.9471 75.1003 49.9369 75.0586 49.9172C75.0169 49.8975 74.9801 49.8688 74.9509 49.8332C74.9216 49.7976 74.9006 49.7559 74.8893 49.7112C74.8781 49.6665 74.8769 49.6198 74.8858 49.5746L75.3226 47.3584C75.3305 47.3182 75.3463 47.2799 75.369 47.2458C75.3917 47.2117 75.4209 47.1824 75.455 47.1595C75.489 47.1367 75.5272 47.1208 75.5674 47.1127C75.6075 47.1047 75.6489 47.1046 75.6891 47.1125C75.7293 47.1205 75.7676 47.1362 75.8017 47.159C75.8358 47.1817 75.8651 47.2109 75.8879 47.2449C75.9107 47.279 75.9266 47.3172 75.9347 47.3574C75.9427 47.3976 75.9428 47.439 75.9349 47.4792L75.5801 49.2792L76.6868 49.1584C76.769 49.1495 76.8515 49.1735 76.916 49.2254C76.9805 49.2773 77.0218 49.3526 77.0308 49.4349C77.0397 49.5172 77.0156 49.5997 76.9638 49.6643C76.912 49.7288 76.8366 49.7701 76.7544 49.7791L75.2255 49.9455C75.2143 49.9466 75.2031 49.9472 75.1919 49.9471Z" fill="#222433"/>
<path d="M74.6089 51.1437L75.1705 51.8408C75.2705 51.9638 75.3961 52.0634 75.5386 52.1328C75.681 52.2022 75.8369 52.2397 75.9953 52.2427C76.1537 52.2457 76.3109 52.2141 76.4559 52.15C76.6008 52.086 76.7301 51.9911 76.8346 51.872L77.4586 51.1541L74.6089 51.1437Z" fill="#222433"/>
<path d="M83.5277 50.1521C83.4725 50.1521 83.4183 50.1374 83.3708 50.1095L82.0144 49.3174C81.9609 49.2861 81.9179 49.2396 81.8909 49.1837C81.864 49.1279 81.8542 49.0652 81.863 49.0038C81.8718 48.9424 81.8986 48.885 81.9401 48.839C81.9816 48.7929 82.0359 48.7602 82.0961 48.7451L83.8522 48.3059C83.8922 48.2951 83.934 48.2925 83.975 48.298C84.0161 48.3036 84.0556 48.3173 84.0913 48.3383C84.127 48.3593 84.1581 48.3872 84.1829 48.4204C84.2078 48.4536 84.2257 48.4914 84.2357 48.5316C84.2458 48.5718 84.2477 48.6136 84.2415 48.6546C84.2352 48.6956 84.2208 48.7349 84.1992 48.7702C84.1776 48.8056 84.1492 48.8363 84.1156 48.8605C84.082 48.8848 84.0439 48.9021 84.0035 48.9114L82.9907 49.1648L83.6853 49.5706C83.7445 49.6051 83.7907 49.6583 83.8167 49.7218C83.8427 49.7853 83.8471 49.8556 83.8291 49.9218C83.8112 49.988 83.772 50.0465 83.7175 50.0881C83.663 50.1298 83.5963 50.1524 83.5277 50.1523V50.1521Z" fill="#222433"/>
<path d="M73.6936 49.3127C74.5265 49.3127 75.2017 48.6373 75.2017 47.804C75.2017 46.9708 74.5265 46.2953 73.6936 46.2953C72.8607 46.2953 72.1855 46.9708 72.1855 47.804C72.1855 48.6373 72.8607 49.3127 73.6936 49.3127Z" fill="white"/>
<path d="M73.6936 49.6246C73.3337 49.6246 72.9818 49.5178 72.6824 49.3177C72.3831 49.1177 72.1498 48.8333 72.0121 48.5006C71.8743 48.1678 71.8383 47.8017 71.9085 47.4485C71.9787 47.0953 72.1521 46.7709 72.4066 46.5162C72.6612 46.2616 72.9855 46.0882 73.3386 46.0179C73.6916 45.9476 74.0576 45.9837 74.3902 46.1215C74.7227 46.2593 75.007 46.4927 75.207 46.7921C75.407 47.0916 75.5137 47.4436 75.5137 47.8038C75.5132 48.2865 75.3212 48.7493 74.98 49.0906C74.6388 49.432 74.1762 49.624 73.6936 49.6246ZM73.6936 46.6072C73.4571 46.6072 73.2258 46.6774 73.0291 46.8089C72.8324 46.9403 72.6791 47.1272 72.5886 47.3459C72.4981 47.5645 72.4744 47.8051 72.5206 48.0372C72.5667 48.2693 72.6806 48.4825 72.8479 48.6498C73.0152 48.8172 73.2283 48.9311 73.4603 48.9773C73.6923 49.0235 73.9328 48.9998 74.1514 48.9092C74.3699 48.8187 74.5567 48.6653 74.6881 48.4685C74.8196 48.2718 74.8897 48.0404 74.8897 47.8038C74.8893 47.4865 74.7632 47.1824 74.539 46.9581C74.3148 46.7337 74.0107 46.6076 73.6936 46.6072Z" fill="#222433"/>
<path d="M78.2181 49.3127C79.051 49.3127 79.7262 48.6373 79.7262 47.804C79.7262 46.9708 79.051 46.2953 78.2181 46.2953C77.3852 46.2953 76.71 46.9708 76.71 47.804C76.71 48.6373 77.3852 49.3127 78.2181 49.3127Z" fill="white"/>
<path d="M78.2181 49.6246C77.8581 49.6246 77.5062 49.5178 77.2069 49.3177C76.9075 49.1177 76.6743 48.8333 76.5365 48.5006C76.3987 48.1678 76.3627 47.8017 76.4329 47.4485C76.5032 47.0953 76.6765 46.7709 76.931 46.5162C77.1856 46.2616 77.5099 46.0882 77.863 46.0179C78.216 45.9476 78.582 45.9837 78.9146 46.1215C79.2472 46.2593 79.5314 46.4927 79.7314 46.7921C79.9314 47.0916 80.0382 47.4436 80.0382 47.8038C80.0376 48.2865 79.8456 48.7493 79.5044 49.0906C79.1632 49.432 78.7006 49.624 78.2181 49.6246ZM78.2181 46.6072C77.9815 46.6072 77.7502 46.6774 77.5536 46.8089C77.3569 46.9403 77.2036 47.1272 77.113 47.3459C77.0225 47.5645 76.9988 47.8051 77.045 48.0372C77.0911 48.2693 77.205 48.4825 77.3723 48.6498C77.5396 48.8172 77.7527 48.9311 77.9847 48.9773C78.2167 49.0235 78.4572 48.9998 78.6758 48.9092C78.8943 48.8187 79.0811 48.6653 79.2125 48.4685C79.344 48.2718 79.4141 48.0404 79.4141 47.8038C79.4138 47.4865 79.2876 47.1824 79.0634 46.9581C78.8392 46.7337 78.5352 46.6076 78.2181 46.6072Z" fill="#222433"/>
<path d="M76.7516 47.7309H75.1499C75.0672 47.7309 74.9878 47.698 74.9293 47.6395C74.8708 47.5809 74.8379 47.5015 74.8379 47.4187C74.8379 47.336 74.8708 47.2566 74.9293 47.198C74.9878 47.1395 75.0672 47.1066 75.1499 47.1066H76.7516C76.8343 47.1066 76.9137 47.1395 76.9722 47.198C77.0307 47.2566 77.0636 47.336 77.0636 47.4187C77.0636 47.5015 77.0307 47.5809 76.9722 47.6395C76.9137 47.698 76.8343 47.7309 76.7516 47.7309Z" fill="#222433"/>
<path d="M77.7084 48.8653C77.9898 48.8653 78.218 48.6371 78.218 48.3555C78.218 48.0739 77.9898 47.8457 77.7084 47.8457C77.4269 47.8457 77.1987 48.0739 77.1987 48.3555C77.1987 48.6371 77.4269 48.8653 77.7084 48.8653Z" fill="#222433"/>
<path d="M73.2049 48.8653C73.4864 48.8653 73.7146 48.6371 73.7146 48.3555C73.7146 48.0739 73.4864 47.8457 73.2049 47.8457C72.9235 47.8457 72.6953 48.0739 72.6953 48.3555C72.6953 48.6371 72.9235 48.8653 73.2049 48.8653Z" fill="#222433"/>
<path d="M188.582 136.559H13.4492C13.2655 136.559 13.125 136.416 13.125 136.23C13.125 136.043 13.2655 135.901 13.4492 135.901H188.582C188.766 135.901 188.906 136.043 188.906 136.23C188.906 136.416 188.766 136.559 188.582 136.559Z" fill="#222433"/>
</svg>
