<svg width="200" height="160" viewBox="0 0 200 160" fill="none" xmlns="http://www.w3.org/2000/svg">
<circle cx="101" cy="80" r="80" fill="#EBF5FF"/>
<g clip-path="url(#clip0_1449:45235)">
<path d="M181.35 128.61C181.336 128.612 181.321 128.613 181.306 128.613L16.6612 127.934C16.5849 127.933 16.5118 127.903 16.458 127.848C16.4042 127.794 16.3741 127.72 16.3743 127.644C16.3745 127.567 16.405 127.494 16.4591 127.44C16.5132 127.386 16.5865 127.356 16.6628 127.356L181.308 128.035C181.38 128.035 181.45 128.063 181.503 128.113C181.556 128.162 181.589 128.23 181.594 128.303C181.6 128.376 181.578 128.448 181.532 128.505C181.487 128.561 181.422 128.599 181.35 128.61Z" fill="#222433"/>
</g>
<g clip-path="url(#clip1_1449:45235)">
<path d="M168.149 51.9402L168.123 50.7362C168.111 50.1863 168.557 49.7311 169.119 49.7192C169.277 49.7159 169.434 49.7487 169.577 49.8152L172.661 51.2447L169.642 52.8006C169.144 53.057 168.528 52.8699 168.266 52.3827C168.192 52.2461 168.152 52.0946 168.149 51.9402Z" fill="white"/>
<path d="M169.169 53.2192C169.036 53.2192 168.903 53.1997 168.773 53.1602C168.434 53.0572 168.157 52.8313 167.991 52.5239C167.896 52.3467 167.843 52.1471 167.839 51.9469C167.839 51.9468 167.839 51.9467 167.839 51.9467L167.813 50.7426C167.805 50.3958 167.936 50.0668 168.182 49.8161C168.427 49.5655 168.757 49.4235 169.112 49.4161C169.318 49.4118 169.524 49.455 169.71 49.5413L172.794 50.9705C172.9 51.0197 172.969 51.1233 172.971 51.2382C172.974 51.353 172.91 51.4594 172.806 51.513L169.786 53.0689C169.593 53.1686 169.382 53.2192 169.169 53.2192ZM168.459 51.9338C168.461 52.0406 168.489 52.147 168.54 52.2414C168.628 52.4054 168.776 52.5259 168.957 52.5808C169.138 52.6357 169.33 52.6184 169.498 52.5321L171.968 51.259L169.444 50.0892C169.345 50.0432 169.236 50.0204 169.125 50.0224C168.936 50.0263 168.76 50.102 168.629 50.2357C168.498 50.3692 168.429 50.5447 168.433 50.7296L168.459 51.9338Z" fill="#222433"/>
<path d="M171.953 46.8287L173.184 46.8035C173.747 46.7938 174.211 47.232 174.221 47.7825C174.224 47.9357 174.19 48.0874 174.124 48.2259L172.661 51.2447L171.071 48.2876C170.81 47.7998 171.003 47.1975 171.501 46.9422C171.641 46.8706 171.796 46.8318 171.953 46.8287Z" fill="white"/>
<path d="M172.661 51.548C172.546 51.548 172.441 51.4857 172.387 51.3859L170.797 48.4288C170.456 47.793 170.708 47.0058 171.357 46.6734C171.539 46.5806 171.743 46.5295 171.947 46.5255L173.178 46.5003C173.911 46.4878 174.518 47.0603 174.531 47.7771C174.535 47.9759 174.491 48.1759 174.404 48.3555L172.941 51.3745C172.891 51.4783 172.785 51.5454 172.668 51.5479C172.666 51.548 172.663 51.548 172.661 51.548ZM173.202 47.1065C173.198 47.1065 173.194 47.1065 173.19 47.1066L171.96 47.1319C171.96 47.1319 171.96 47.1319 171.96 47.1319C171.851 47.134 171.742 47.1613 171.645 47.2109C171.299 47.3882 171.164 47.8081 171.346 48.1469L172.647 50.5664L173.843 48.0961C173.89 48.0005 173.913 47.8939 173.911 47.7878C173.904 47.4096 173.587 47.1065 173.202 47.1065ZM171.953 46.8287H171.954H171.953Z" fill="#222433"/>
</g>
<g clip-path="url(#clip2_1449:45235)">
<path d="M142.785 48.79C142.964 47.6252 142.889 46.4356 142.564 45.3027C142.239 44.1697 141.672 43.1202 140.902 42.2261C140.132 41.332 139.177 40.6143 138.103 40.1223C137.029 39.6303 135.861 39.3756 134.679 39.3756C133.497 39.3756 132.329 39.6303 131.255 40.1223C130.181 40.6143 129.226 41.332 128.456 42.2261C127.686 43.1202 127.119 44.1697 126.794 45.3027C126.469 46.4356 126.393 47.6252 126.572 48.79C124.917 50.3975 123.78 52.4606 123.307 54.7156C122.834 56.9706 123.046 59.315 123.916 61.4492C124.786 63.5833 126.275 65.4103 128.192 66.6965C130.11 67.9827 132.368 68.6697 134.679 68.6697C136.99 68.6697 139.248 67.9827 141.165 66.6965C143.082 65.4103 144.571 63.5833 145.442 61.4492C146.312 59.315 146.524 56.9706 146.051 54.7156C145.578 52.4606 144.441 50.3975 142.785 48.79Z" fill="white"/>
<path d="M134.679 68.9611C132.322 68.9617 130.018 68.2653 128.058 66.9601C126.099 65.6549 124.572 63.7996 123.67 61.6288C122.769 59.4581 122.533 57.0695 122.994 54.7654C123.454 52.4612 124.59 50.3451 126.258 48.6847C126.207 48.3069 126.181 47.9261 126.181 47.5449C126.189 45.3033 127.088 43.1561 128.68 41.5737C130.273 39.9913 132.43 39.1028 134.678 39.1028C136.927 39.1028 139.084 39.9913 140.676 41.5737C142.269 43.1561 143.168 45.3033 143.175 47.5449C143.175 47.9261 143.15 48.3069 143.099 48.6847C144.766 50.3451 145.902 52.4612 146.363 54.7653C146.823 57.0694 146.588 59.458 145.686 61.6287C144.785 63.7994 143.258 65.6548 141.298 66.96C139.339 68.2652 137.035 68.9616 134.678 68.9611H134.679ZM134.679 39.6639C132.583 39.6663 130.573 40.4974 129.091 41.9748C127.609 43.4523 126.776 45.4554 126.773 47.5449C126.773 47.9468 126.804 48.3482 126.864 48.7456C126.872 48.7919 126.867 48.8393 126.852 48.8837C126.837 48.9282 126.812 48.9684 126.778 49.0012C125.165 50.5677 124.057 52.5783 123.596 54.7758C123.135 56.9734 123.342 59.2581 124.19 61.338C125.038 63.4178 126.489 65.1983 128.357 66.4517C130.226 67.7052 132.427 68.3747 134.679 68.3747C136.931 68.3747 139.132 67.7052 141 66.4517C142.868 65.1983 144.319 63.4178 145.167 61.338C146.016 59.2581 146.222 56.9734 145.761 54.7758C145.3 52.5783 144.192 50.5677 142.579 49.0012C142.545 48.9684 142.52 48.9282 142.505 48.8837C142.49 48.8393 142.486 48.7919 142.493 48.7456C142.553 48.3482 142.584 47.9468 142.584 47.5449C142.581 45.4554 141.748 43.4523 140.266 41.9748C138.784 40.4974 136.774 39.6663 134.679 39.6639Z" fill="#222433"/>
<path d="M94.9571 111.231C93.5089 112.986 91.2829 114.044 88.3926 114.314L84.4112 114.44C83.1447 114.282 81.8631 114.577 80.7947 115.273C79.7262 115.97 78.9404 117.021 78.5771 118.241L91.1397 123.157L100.228 121.898L98.5428 126.05L103.743 128.08L107.453 118.63L94.9571 111.231Z" fill="white"/>
<path d="M103.743 128.375C103.706 128.375 103.669 128.368 103.635 128.355L98.4347 126.325C98.3983 126.31 98.365 126.289 98.3369 126.262C98.3088 126.235 98.2863 126.202 98.2709 126.167C98.2554 126.131 98.2472 126.092 98.2468 126.053C98.2463 126.014 98.2537 125.976 98.2684 125.939L99.7617 122.261L91.18 123.449C91.1297 123.456 91.0784 123.45 91.0312 123.431L78.4685 118.515C78.3996 118.488 78.3433 118.437 78.3108 118.37C78.2783 118.304 78.2719 118.228 78.293 118.157C78.6718 116.872 79.4964 115.763 80.6196 115.028C81.7428 114.293 83.0914 113.979 84.4249 114.144L88.3739 114.02C91.1788 113.756 93.3168 112.754 94.7285 111.044C94.7734 110.989 94.8363 110.953 94.906 110.941C94.9756 110.928 95.0473 110.942 95.108 110.978L107.604 118.376C107.664 118.412 107.71 118.468 107.733 118.534C107.755 118.6 107.754 118.672 107.728 118.737L104.018 128.188C103.997 128.243 103.959 128.29 103.91 128.324C103.861 128.357 103.802 128.375 103.743 128.375H103.743ZM98.9291 125.884L103.575 127.698L107.086 118.755L95.0203 111.612C93.5053 113.332 91.2861 114.34 88.4198 114.608C88.4137 114.609 88.4075 114.609 88.4014 114.609L84.4203 114.734C84.405 114.734 84.3896 114.734 84.3744 114.732C83.2231 114.585 82.056 114.836 81.0679 115.443C80.0797 116.05 79.3302 116.977 78.9444 118.068L91.1756 122.854L100.187 121.606C100.239 121.599 100.291 121.606 100.339 121.625C100.387 121.645 100.43 121.676 100.461 121.717C100.493 121.758 100.514 121.807 100.521 121.858C100.528 121.909 100.522 121.962 100.502 122.01L98.9291 125.884Z" fill="#222433"/>
<path d="M163.276 116.113C163.861 122.346 166.735 122.416 166.735 122.416C167.973 122.73 169.058 123.471 169.799 124.508C170.539 125.545 170.886 126.811 170.778 128.079H157.281L154.738 123.601L154.787 128.079H149.201L149.212 115.932L163.276 116.113Z" fill="white"/>
<path d="M170.778 128.374H157.281C157.228 128.374 157.177 128.36 157.132 128.334C157.086 128.308 157.049 128.27 157.023 128.225L155.047 124.743L155.083 128.076C155.083 128.115 155.076 128.154 155.061 128.19C155.046 128.226 155.025 128.259 154.997 128.287C154.969 128.314 154.937 128.336 154.901 128.351C154.865 128.366 154.826 128.374 154.787 128.374H149.201C149.123 128.374 149.047 128.343 148.992 128.288C148.936 128.232 148.905 128.157 148.905 128.079L148.916 115.932C148.916 115.893 148.924 115.854 148.939 115.818C148.954 115.782 148.976 115.749 149.004 115.722C149.061 115.668 149.137 115.637 149.216 115.637L163.28 115.818C163.353 115.819 163.423 115.847 163.477 115.896C163.531 115.945 163.564 116.013 163.571 116.085C164.119 121.934 166.719 122.121 166.745 122.122C166.766 122.123 166.787 122.126 166.808 122.131C168.115 122.458 169.263 123.239 170.045 124.334C170.826 125.429 171.191 126.766 171.073 128.104C171.067 128.178 171.033 128.247 170.978 128.297C170.924 128.346 170.852 128.374 170.778 128.374ZM157.453 127.784H170.499C170.539 126.632 170.183 125.501 169.49 124.578C168.797 123.655 167.809 122.996 166.688 122.709C166.314 122.679 163.634 122.258 163.008 116.404L149.508 116.23L149.497 127.784H154.488L154.443 123.604C154.442 123.539 154.463 123.475 154.503 123.423C154.542 123.371 154.598 123.333 154.662 123.316C154.725 123.299 154.792 123.304 154.853 123.329C154.913 123.354 154.964 123.399 154.996 123.456L157.453 127.784Z" fill="#222433"/>
<path d="M162.914 83.3324L145.203 67.5375L143.574 66.0854L141.731 51.9205L139.253 51.5912L138.839 58.5596L131.204 59.1927L130.05 52.1172L127.702 52.6205L127.893 69.0771H127.898L127.894 69.081L127.01 70.0976L122.93 74.791L121.5 76.4368L115.993 82.774L114.435 84.5613L110.918 88.6069L109.363 90.3962L94.7974 107.154C94.503 107.493 94.2869 107.893 94.1644 108.324C94.0419 108.756 94.016 109.21 94.0885 109.652C94.161 110.095 94.3302 110.517 94.5841 110.887C94.8379 111.258 95.1703 111.568 95.5578 111.797L106.562 118.301C107.191 118.672 107.933 118.808 108.653 118.684C109.374 118.56 110.026 118.184 110.494 117.624L118.932 107.517L120.323 105.846L124.332 101.044L125.724 99.3731L138.11 84.5329L140.911 87.1657L142.769 88.9127L146.148 92.0912L147.825 93.6711V114.055C147.824 114.326 147.878 114.594 147.982 114.844C148.086 115.095 148.238 115.322 148.431 115.513C148.623 115.704 148.851 115.856 149.103 115.959C149.354 116.062 149.623 116.114 149.895 116.113H163.657C164.206 116.113 164.732 115.895 165.12 115.509C165.508 115.122 165.726 114.597 165.726 114.05V89.8221C165.726 88.6064 165.476 87.4036 164.993 86.2877C164.509 85.1717 163.801 84.166 162.914 83.3324Z" fill="white"/>
<path d="M108.133 119.028C107.527 119.027 106.932 118.864 106.412 118.555L95.4069 112.051C94.9822 111.8 94.6179 111.46 94.3396 111.054C94.0613 110.647 93.8759 110.185 93.7964 109.7C93.717 109.214 93.7454 108.717 93.8797 108.244C94.014 107.771 94.2509 107.333 94.5737 106.961L114.211 84.3683L115.769 82.5806L127.595 68.9741L127.406 52.6247C127.405 52.5567 127.428 52.4905 127.471 52.4373C127.513 52.3841 127.573 52.3473 127.64 52.3329L129.988 51.8296C130.027 51.8212 130.068 51.8208 130.107 51.8285C130.146 51.8362 130.184 51.8518 130.217 51.8743C130.25 51.8969 130.278 51.9259 130.3 51.9597C130.321 51.9934 130.336 52.0312 130.342 52.0706L131.452 58.8761L138.559 58.2863L138.958 51.5731C138.96 51.5326 138.971 51.493 138.989 51.4568C139.008 51.4206 139.033 51.3886 139.065 51.3627C139.096 51.3369 139.133 51.3178 139.172 51.3066C139.211 51.2955 139.252 51.2925 139.292 51.2978L141.77 51.6273C141.835 51.6358 141.895 51.6654 141.941 51.7114C141.987 51.7574 142.016 51.8172 142.025 51.8816L143.854 65.9377L163.111 83.1126L163.117 83.1176C164.032 83.98 164.762 85.0192 165.261 86.1718C165.761 87.3245 166.02 88.5664 166.022 89.822V114.05C166.022 114.675 165.773 115.275 165.329 115.717C164.886 116.159 164.285 116.408 163.657 116.408H149.892C149.582 116.408 149.274 116.348 148.987 116.23C148.701 116.112 148.44 115.939 148.22 115.721C148.001 115.502 147.827 115.242 147.708 114.957C147.589 114.671 147.528 114.364 147.529 114.055V93.798L145.945 92.3053L138.136 84.9626L125.952 99.5617L124.559 101.233L120.55 106.035L119.159 107.706L110.721 117.812C110.406 118.192 110.011 118.498 109.564 118.708C109.116 118.918 108.628 119.027 108.133 119.028ZM128.111 69.2815L95.021 107.347C94.755 107.653 94.5598 108.015 94.4492 108.405C94.3386 108.795 94.3153 109.205 94.3809 109.605C94.4464 110.005 94.5993 110.386 94.8287 110.721C95.0581 111.056 95.3585 111.337 95.7085 111.543L106.713 118.048C107.281 118.385 107.952 118.509 108.604 118.397C109.255 118.285 109.845 117.943 110.267 117.435L118.704 107.329L120.095 105.657L124.104 100.855L125.497 99.1841L137.883 84.3436C137.909 84.3127 137.94 84.2873 137.976 84.2692C138.013 84.251 138.052 84.2404 138.092 84.2379C138.133 84.2355 138.173 84.2414 138.211 84.2551C138.249 84.2688 138.284 84.2902 138.313 84.3178L146.351 91.8761L148.028 93.4561C148.057 93.4837 148.08 93.5169 148.096 93.5538C148.112 93.5906 148.12 93.6303 148.12 93.6705V114.055C148.12 114.287 148.165 114.516 148.254 114.73C148.343 114.945 148.474 115.139 148.639 115.303C148.803 115.467 148.999 115.597 149.214 115.685C149.429 115.773 149.659 115.818 149.892 115.817H163.657C164.128 115.817 164.579 115.631 164.911 115.299C165.244 114.968 165.43 114.518 165.43 114.049V89.822C165.428 88.6475 165.186 87.4857 164.719 86.4073C164.252 85.329 163.57 84.3567 162.714 83.5497L143.377 66.3056C143.324 66.2585 143.29 66.1939 143.281 66.1238L141.467 52.183L139.529 51.9254L139.134 58.5771C139.13 58.6479 139.1 58.7149 139.05 58.7657C139 58.8164 138.934 58.8476 138.863 58.8535L131.228 59.4867C131.154 59.4928 131.08 59.4709 131.022 59.4252C130.963 59.3794 130.924 59.3134 130.912 59.2401L129.808 52.4707L128.001 52.8582L128.188 69.0336C128.195 69.078 128.192 69.1235 128.179 69.1666C128.165 69.2096 128.142 69.2489 128.111 69.2816L128.111 69.2815Z" fill="#222433"/>
<path d="M127.801 52.4237L127.86 67.0657L122.462 73.3534C122.026 73.8806 121.485 74.3114 120.873 74.6187C120.261 74.9259 119.592 75.1027 118.907 75.1378C118.823 75.1418 118.74 75.1437 118.656 75.1437C117.357 75.1435 116.112 74.6331 115.188 73.7231L106.189 64.8473C106.109 64.7677 106.974 64.3332 106.9 64.2496C107.684 64.2909 109.939 66.4007 111.827 63.4366C113.85 60.262 111.547 57.6882 110.42 56.4957C111.443 56.6543 112.39 57.1312 113.125 57.8583L118.284 62.947L125.612 54.0782C126.479 53.1521 126.936 52.7785 127.801 52.4237Z" fill="#5A38FD"/>
<path d="M139.344 51.421L138.888 58.58L131.303 59.1925L129.986 51.9239L131.498 51.645C131.498 51.645 131.52 55.1784 134.827 55.2782C138.274 55.3821 138.242 51.1852 138.242 51.1852L139.344 51.421Z" fill="#5A38FD"/>
<path d="M159.06 79.6918C157.155 78.5159 143.677 66.0843 143.677 66.0843L142.491 57.0002L141.866 51.7654C143.286 52.139 143.771 52.5528 144.554 53.716C144.555 53.7164 144.556 53.7169 144.556 53.7176C144.557 53.7183 144.557 53.7191 144.557 53.7199L145.034 54.5733L159.06 79.6918Z" fill="#5A38FD"/>
<path d="M116.091 82.7736L114.537 84.5609C114.69 85.0312 114.728 85.5307 114.65 86.0187C114.572 86.5068 114.379 86.9694 114.087 87.3688C113.795 87.7683 113.413 88.0932 112.971 88.317C112.529 88.5408 112.04 88.6572 111.544 88.6566C111.367 88.6571 111.191 88.642 111.017 88.6114L109.461 90.4007C110.497 90.8427 111.647 90.9452 112.744 90.6934C113.842 90.4416 114.831 89.8486 115.569 88.9999C116.307 88.1512 116.755 87.0908 116.849 85.9717C116.943 84.8526 116.677 83.7327 116.091 82.7736Z" fill="#5A38FD"/>
<path d="M106.483 98.2795C105.432 98.2793 104.405 98.5898 103.531 99.1718C102.657 99.7538 101.975 100.581 101.573 101.549C101.17 102.517 101.065 103.582 101.27 104.61C101.475 105.638 101.981 106.582 102.724 107.323C103.467 108.064 104.414 108.569 105.445 108.774C106.475 108.978 107.544 108.874 108.515 108.473C109.486 108.072 110.316 107.393 110.901 106.522C111.485 105.651 111.797 104.626 111.797 103.579V103.577C111.797 102.172 111.237 100.824 110.24 99.831C109.244 98.8376 107.893 98.2795 106.483 98.2795ZM106.483 106.708C105.862 106.708 105.255 106.525 104.738 106.181C104.222 105.837 103.819 105.348 103.581 104.776C103.343 104.204 103.281 103.574 103.402 102.967C103.523 102.359 103.822 101.801 104.261 101.363C104.7 100.925 105.259 100.627 105.869 100.506C106.478 100.385 107.109 100.446 107.683 100.683C108.257 100.92 108.748 101.321 109.093 101.836C109.439 102.351 109.623 102.956 109.623 103.576V103.577C109.623 103.988 109.542 104.395 109.385 104.775C109.227 105.154 108.996 105.5 108.704 105.79C108.413 106.081 108.067 106.312 107.686 106.469C107.305 106.627 106.897 106.708 106.484 106.708H106.483Z" fill="#5A38FD"/>
<path d="M122.594 98.2796C121.52 98.2797 120.472 98.6041 119.587 99.21C118.701 99.8159 118.021 100.675 117.635 101.674C117.249 102.673 117.176 103.765 117.425 104.806C117.674 105.848 118.234 106.789 119.03 107.507L120.422 105.836C119.848 105.287 119.504 104.543 119.459 103.751C119.414 102.96 119.672 102.181 120.181 101.572C120.689 100.963 121.411 100.569 122.199 100.469C122.988 100.369 123.785 100.571 124.43 101.034L125.823 99.363C124.896 98.6568 123.761 98.2759 122.594 98.2796Z" fill="#5A38FD"/>
<path d="M126.787 82.2015C125.736 82.2013 124.708 82.5119 123.834 83.0939C122.96 83.6759 122.279 84.5032 121.877 85.4712C121.474 86.4392 121.369 87.5045 121.574 88.5322C121.778 89.56 122.284 90.5041 123.028 91.2452C123.771 91.9863 124.717 92.491 125.748 92.6957C126.779 92.9003 127.848 92.7955 128.819 92.3947C129.79 91.9939 130.62 91.315 131.204 90.4438C131.788 89.5727 132.1 88.5484 132.1 87.5006V87.4986C132.1 86.0937 131.541 84.7464 130.544 83.753C129.548 82.7596 128.196 82.2015 126.787 82.2015ZM126.787 90.6299C126.166 90.6299 125.559 90.4462 125.042 90.1021C124.526 89.7581 124.123 89.269 123.885 88.6969C123.648 88.1247 123.585 87.4951 123.706 86.8877C123.828 86.2803 124.127 85.7224 124.566 85.2845C125.005 84.8466 125.565 84.5483 126.174 84.4275C126.784 84.3067 127.415 84.3687 127.989 84.6057C128.563 84.8427 129.053 85.244 129.399 85.759C129.744 86.2739 129.928 86.8793 129.928 87.4986C129.928 87.9097 129.847 88.3168 129.689 88.6966C129.532 89.0764 129.3 89.4216 129.009 89.7123C128.717 90.0031 128.371 90.2338 127.991 90.3912C127.61 90.5486 127.201 90.6297 126.789 90.6299H126.787Z" fill="#5A38FD"/>
<path d="M129.594 71.3872C129.592 71.3794 129.59 71.3725 129.588 71.3656C129.316 70.4551 128.803 69.6343 128.103 68.9894L126.808 70.6872C127.186 71.1036 127.443 71.6142 127.553 72.1649C127.554 72.1659 127.554 72.1669 127.554 72.1688C127.608 72.4007 127.635 72.6378 127.634 72.8757C127.634 73.7058 127.304 74.5018 126.715 75.089C126.126 75.6761 125.328 76.0063 124.495 76.0069H124.493C123.846 76.0076 123.214 75.8084 122.685 75.4367L121.299 77.0304C122.186 77.6861 123.256 78.0501 124.361 78.0716C125.465 78.0932 126.548 77.7713 127.46 77.1507C128.373 76.5301 129.068 75.6416 129.451 74.6087C129.833 73.5758 129.883 72.4498 129.594 71.3872Z" fill="#5A38FD"/>
<path d="M145.89 71.1275C144.838 71.1273 143.811 71.4379 142.937 72.0199C142.063 72.6019 141.382 73.4292 140.979 74.3972C140.577 75.3652 140.471 76.4305 140.676 77.4582C140.881 78.486 141.387 79.4301 142.13 80.1712C142.873 80.9123 143.82 81.4171 144.851 81.6217C145.882 81.8263 146.95 81.7216 147.921 81.3208C148.893 80.9199 149.723 80.241 150.307 79.3699C150.891 78.4987 151.203 77.4745 151.203 76.4266V76.4246C151.203 75.0198 150.643 73.6726 149.646 72.6793C148.65 71.686 147.299 71.1278 145.89 71.1275ZM145.89 79.5559C145.268 79.5563 144.661 79.373 144.144 79.0293C143.628 78.6855 143.225 78.1967 142.987 77.6247C142.748 77.0527 142.686 76.4232 142.807 75.8157C142.927 75.2082 143.226 74.6501 143.665 74.2119C144.104 73.7737 144.664 73.4751 145.273 73.3539C145.882 73.2327 146.514 73.2943 147.088 73.531C147.662 73.7676 148.153 74.1686 148.498 74.6834C148.843 75.1981 149.028 75.8034 149.028 76.4227V76.4246C149.028 77.2547 148.698 78.0509 148.109 78.6381C147.521 79.2252 146.722 79.5554 145.89 79.5559Z" fill="#5A38FD"/>
<path d="M148.418 92.0318C148.418 91.1548 148.199 90.2916 147.782 89.5196C147.365 88.7476 146.762 88.091 146.027 87.6085C145.292 87.1261 144.449 86.833 143.573 86.7555C142.697 86.6779 141.815 86.8184 141.006 87.1643L142.864 88.9114C142.944 88.9055 143.024 88.9015 143.105 88.9015C143.938 88.9015 144.736 89.2313 145.325 89.8184C145.914 90.4054 146.245 91.2016 146.245 92.0318V92.0898L147.921 93.6697V94.2664C148.249 93.5669 148.419 92.804 148.418 92.0318Z" fill="#5A38FD"/>
<path d="M159.392 89.3135C157.982 89.3139 156.631 89.8725 155.634 90.8663C154.638 91.8602 154.078 93.208 154.078 94.6133C154.078 96.0186 154.638 97.3662 155.635 98.3598C156.632 99.3534 157.984 99.9116 159.393 99.9116C160.803 99.9116 162.155 99.3534 163.152 98.3598C164.149 97.3662 164.709 96.0186 164.709 94.6133C164.709 93.208 164.149 91.8602 163.153 90.8663C162.156 89.8725 160.805 89.3139 159.395 89.3135H159.392ZM159.392 97.7419C158.771 97.7421 158.163 97.5586 157.647 97.2147C157.13 96.8708 156.727 96.3819 156.49 95.8098C156.252 95.2377 156.189 94.6081 156.31 94.0007C156.431 93.3932 156.73 92.8352 157.169 92.3972C157.608 91.9591 158.168 91.6607 158.777 91.5397C159.387 91.4187 160.018 91.4805 160.592 91.7173C161.166 91.9541 161.657 92.3553 162.002 92.8701C162.347 93.385 162.532 93.9903 162.532 94.6096V94.6106C162.532 95.4409 162.201 96.2372 161.612 96.8244C161.023 97.4116 160.225 97.7416 159.392 97.7419Z" fill="#5A38FD"/>
<path d="M148.057 104.11H147.923V106.272H148.057C148.881 106.287 149.665 106.623 150.242 107.209C150.819 107.794 151.143 108.582 151.143 109.403C151.143 110.224 150.819 111.012 150.242 111.598C149.665 112.183 148.881 112.519 148.057 112.534H147.923V114.049C147.924 114.271 147.96 114.493 148.03 114.704H148.057C149.454 114.685 150.787 114.118 151.768 113.127C152.749 112.135 153.299 110.799 153.299 109.406C153.299 108.013 152.749 106.677 151.768 105.685C150.787 104.694 149.454 104.127 148.057 104.109V104.11Z" fill="#5A38FD"/>
<path d="M161.318 114.071C161.317 114.772 161.456 115.466 161.727 116.113H163.756C163.908 116.113 164.06 116.096 164.208 116.062C163.874 115.658 163.648 115.176 163.549 114.661C163.451 114.146 163.483 113.615 163.644 113.116C163.805 112.617 164.089 112.166 164.47 111.805C164.851 111.444 165.317 111.184 165.825 111.048V108.835C164.57 109.027 163.426 109.661 162.599 110.621C161.773 111.582 161.318 112.805 161.318 114.071Z" fill="#5A38FD"/>
<path d="M127.992 69.0778L127.997 69.0768L127.993 69.0808L127.992 69.0778Z" fill="#F36B7F"/>
<path d="M140.584 68.2972L140.477 68.3739L140.473 68.3188L140.584 68.2972Z" fill="#F36B7F"/>
<path d="M138.209 84.8276C138.136 84.8277 138.067 84.8014 138.013 84.7536L134.25 81.4345C134.192 81.3824 134.158 81.3097 134.153 81.2321C134.149 81.1546 134.175 81.0785 134.227 81.0203C134.279 80.9622 134.351 80.9266 134.429 80.9215C134.507 80.9163 134.583 80.9419 134.642 80.9928L138.405 84.3119C138.45 84.3516 138.482 84.4039 138.496 84.4621C138.51 84.5202 138.507 84.5813 138.485 84.6373C138.464 84.6932 138.426 84.7414 138.377 84.7754C138.327 84.8094 138.269 84.8276 138.209 84.8276Z" fill="#222433"/>
<path d="M149.909 95.8473C149.833 95.8474 149.76 95.8183 149.705 95.7662L147.72 93.8844C147.665 93.8302 147.632 93.7563 147.631 93.6787C147.629 93.6011 147.659 93.526 147.712 93.4698C147.766 93.4135 147.84 93.3806 147.918 93.3782C147.995 93.3758 148.071 93.4041 148.128 93.4569L150.113 95.3386C150.156 95.3792 150.186 95.4318 150.198 95.4894C150.211 95.547 150.206 95.607 150.184 95.6618C150.162 95.7165 150.124 95.7635 150.075 95.7965C150.026 95.8296 149.968 95.8473 149.909 95.8473Z" fill="#222433"/>
<path d="M132.425 63.1996C132.349 63.1996 132.275 63.1703 132.22 63.1178C132.165 63.0654 132.133 62.9937 132.129 62.9179C132.126 62.842 132.152 62.7678 132.202 62.7106C132.252 62.6534 132.322 62.6177 132.398 62.6109L138.203 62.086C138.242 62.082 138.281 62.0858 138.319 62.097C138.356 62.1083 138.391 62.1269 138.421 62.1517C138.451 62.1765 138.476 62.2071 138.495 62.2416C138.513 62.2761 138.524 62.3139 138.528 62.3528C138.531 62.3916 138.527 62.4308 138.515 62.4681C138.504 62.5053 138.485 62.5399 138.459 62.5697C138.434 62.5995 138.403 62.624 138.368 62.6419C138.333 62.6597 138.295 62.6704 138.256 62.6735L132.452 63.1988C132.443 63.1988 132.434 63.1996 132.425 63.1996Z" fill="#222433"/>
<path d="M102.602 56.6481C103.948 56.539 104.496 56.9165 105.37 56.7779C107.692 56.4092 107.836 59.2357 105.405 59.5494C103.951 59.7361 102.742 59.8394 101.998 59.8925C101.394 59.8265 101.114 59.8308 100.583 59.5041L99.6595 58.868C99.3148 58.6292 99.0458 58.2969 98.8845 57.9105C98.7232 57.524 98.6763 57.0996 98.7493 56.6875C98.8337 56.266 99.0236 55.8727 99.3014 55.5441C99.5791 55.2154 99.9357 54.9621 100.338 54.8077C101.858 54.252 104.468 54.8388 105.522 55.1502C105.074 54.073 104.696 52.9678 104.391 51.8416C103.694 49.0958 106.197 48.5049 106.591 49.784C106.986 51.063 108.974 53.9583 110.562 56.7445C110.562 56.7445 111.918 57.7705 112.304 59.1935L112.508 60.0075C112.867 61.4429 112.313 62.8875 111.239 63.9076C110.215 64.8801 108.549 65.1679 107.5 64.464C107.326 64.3484 107.158 64.2229 106.997 64.0881" fill="white"/>
<path d="M108.891 65.1511C108.34 65.1611 107.798 65.0071 107.336 64.7087C107.153 64.5877 106.977 64.4564 106.809 64.3155C106.749 64.2655 106.71 64.1937 106.703 64.1158C106.696 64.0379 106.72 63.9604 106.77 63.9002C106.82 63.8399 106.892 63.802 106.97 63.7948C107.048 63.7875 107.126 63.8115 107.187 63.8615C107.339 63.99 107.499 64.1096 107.666 64.2198C108.575 64.8305 110.087 64.5948 111.035 63.6944C112.093 62.6898 112.537 61.3384 112.221 60.0794L112.017 59.2655C111.663 57.9602 110.397 56.9895 110.384 56.9799C110.352 56.9557 110.325 56.9254 110.306 56.8907C109.743 55.9049 109.139 54.9188 108.555 53.9652C107.492 52.2298 106.574 50.7307 106.309 49.8711C106.183 49.4644 105.776 49.3769 105.451 49.468C104.82 49.6441 104.337 50.4242 104.678 51.7699C104.98 52.8825 105.353 53.9744 105.796 55.0389C105.817 55.0903 105.823 55.1467 105.814 55.2014C105.804 55.2562 105.779 55.3071 105.742 55.3483C105.704 55.3895 105.656 55.4194 105.602 55.4344C105.549 55.4494 105.492 55.449 105.438 55.4332C104.216 55.0722 101.787 54.5926 100.44 55.0849C100.087 55.2226 99.7741 55.446 99.5297 55.7349C99.2853 56.0238 99.1173 56.3691 99.0408 56.7392C98.9784 57.0959 99.0193 57.4629 99.1589 57.7971C99.2984 58.1313 99.5307 58.4189 99.8285 58.6261L100.744 59.2573C101.156 59.5094 101.372 59.5315 101.843 59.5799C101.894 59.5851 101.947 59.5906 102.003 59.5967C102.756 59.5425 103.943 59.4401 105.367 59.2571C106.075 59.1658 106.596 58.8302 106.796 58.3365C106.864 58.1869 106.89 58.0221 106.871 57.8592C106.853 57.6962 106.791 57.5412 106.692 57.4103C106.444 57.0992 105.991 56.9784 105.417 57.0694C104.95 57.1436 104.568 57.0849 104.163 57.0227C103.657 56.9303 103.14 56.9033 102.626 56.9424C102.548 56.9488 102.471 56.9239 102.411 56.8732C102.351 56.8225 102.314 56.7503 102.307 56.6723C102.301 56.5943 102.326 56.517 102.377 56.4574C102.428 56.3978 102.5 56.3608 102.578 56.3544C103.138 56.3108 103.701 56.3394 104.253 56.4397C104.642 56.4994 104.948 56.5464 105.324 56.4868C106.106 56.3627 106.774 56.5655 107.155 57.0431C107.32 57.2555 107.425 57.5082 107.458 57.7747C107.491 58.0412 107.452 58.3118 107.345 58.5581C107.061 59.2547 106.368 59.7227 105.443 59.8421C103.988 60.0288 102.778 60.1328 102.019 60.1869C102.001 60.1882 101.983 60.1878 101.966 60.1859C101.901 60.1789 101.84 60.1726 101.782 60.1662C101.286 60.1153 100.959 60.0816 100.427 59.755C100.423 59.7523 100.419 59.7495 100.414 59.7466L99.4915 59.1105C99.1008 58.8389 98.7961 58.4618 98.613 58.0234C98.43 57.5851 98.3763 57.1038 98.4582 56.6361C98.5517 56.1638 98.7638 55.7229 99.0748 55.3547C99.3858 54.9865 99.7854 54.703 100.236 54.5307C101.679 54.0031 103.95 54.4474 105.03 54.7131C104.668 53.7983 104.359 52.8636 104.104 51.9136C103.667 50.1923 104.413 49.1444 105.291 48.8992C106.004 48.7 106.67 49.0355 106.874 49.6971C107.118 50.4863 108.061 52.0266 109.06 53.6571C109.637 54.5986 110.233 55.5713 110.791 56.5483C111.051 56.7566 112.221 57.7546 112.59 59.1163L112.795 59.9358C113.163 61.4036 112.657 62.9681 111.443 64.121C110.753 64.7732 109.842 65.1412 108.891 65.1511Z" fill="#222433"/>
<path d="M143.702 66.0655C143.13 66.5682 142.394 66.8451 141.632 66.8441H141.63C141.166 66.8439 140.708 66.7413 140.289 66.5437C139.87 66.3461 139.5 66.0584 139.205 65.7012C138.911 65.3441 138.699 64.9263 138.586 64.478C138.472 64.0296 138.46 63.5618 138.55 63.1082C138.639 62.6546 138.828 62.2263 139.104 61.8542C139.379 61.4821 139.733 61.1754 140.142 60.9562C140.55 60.7369 141.002 60.6105 141.465 60.586C141.928 60.5615 142.391 60.6396 142.82 60.8146L142.507 58.4875C141.608 58.3372 140.687 58.4196 139.829 58.7266C138.972 59.0337 138.209 59.5552 137.612 60.2411C137.015 60.927 136.605 61.7543 136.421 62.6436C136.237 63.5329 136.286 64.4544 136.562 65.3197C136.838 66.185 137.332 66.9651 137.998 67.5851C138.663 68.2051 139.477 68.6442 140.362 68.8603C141.247 69.0764 142.172 69.0622 143.05 68.8192C143.927 68.5761 144.727 68.1123 145.373 67.4723L143.702 66.0655Z" fill="#5A38FD"/>
<path d="M108.232 119.028C107.626 119.027 107.031 118.864 106.51 118.555L95.5055 112.051C95.0808 111.8 94.7165 111.46 94.4382 111.054C94.16 110.647 93.9745 110.185 93.8951 109.7C93.8156 109.214 93.844 108.717 93.9783 108.244C94.1126 107.771 94.3495 107.333 94.6723 106.961L114.31 84.3683L115.868 82.5806L127.694 68.9741L127.505 52.6247C127.504 52.5567 127.527 52.4905 127.569 52.4373C127.612 52.3841 127.672 52.3473 127.738 52.3329L130.086 51.8296C130.126 51.8212 130.166 51.8208 130.206 51.8285C130.245 51.8362 130.282 51.8518 130.315 51.8743C130.349 51.8969 130.377 51.9259 130.398 51.9597C130.42 51.9934 130.434 52.0312 130.441 52.0706L131.551 58.8761L138.657 58.2863L139.057 51.5731C139.059 51.5326 139.07 51.493 139.088 51.4568C139.106 51.4206 139.132 51.3886 139.163 51.3627C139.195 51.3369 139.231 51.3178 139.27 51.3066C139.31 51.2955 139.351 51.2925 139.391 51.2978L141.869 51.6273C141.934 51.6358 141.994 51.6654 142.04 51.7114C142.085 51.7574 142.115 51.8172 142.123 51.8816L143.952 65.9377L163.21 83.1126L163.215 83.1176C164.131 83.98 164.86 85.0192 165.36 86.1718C165.859 87.3245 166.118 88.5664 166.121 89.822V114.05C166.121 114.675 165.872 115.275 165.428 115.717C164.985 116.159 164.383 116.408 163.756 116.408H149.991C149.68 116.408 149.373 116.348 149.086 116.23C148.799 116.112 148.539 115.939 148.319 115.721C148.099 115.502 147.925 115.242 147.807 114.957C147.688 114.671 147.627 114.364 147.628 114.055V93.798L146.044 92.3053L138.235 84.9626L126.05 99.5617L124.658 101.233L120.649 106.035L119.258 107.706L110.82 117.812C110.505 118.192 110.11 118.498 109.662 118.708C109.215 118.918 108.726 119.027 108.232 119.028ZM128.209 69.2815L95.1196 107.347C94.8537 107.653 94.6585 108.015 94.5479 108.405C94.4373 108.795 94.4139 109.205 94.4795 109.605C94.5451 110.005 94.6979 110.386 94.9274 110.721C95.1568 111.056 95.4571 111.337 95.8072 111.543L106.812 118.048C107.38 118.385 108.05 118.509 108.702 118.397C109.354 118.285 109.944 117.943 110.365 117.435L118.803 107.329L120.194 105.657L124.203 100.855L125.595 99.1841L137.981 84.3436C138.007 84.3127 138.039 84.2873 138.075 84.2692C138.111 84.251 138.151 84.2404 138.191 84.2379C138.231 84.2355 138.272 84.2414 138.31 84.2551C138.348 84.2688 138.382 84.2902 138.412 84.3178L146.45 91.8761L148.126 93.4561C148.156 93.4837 148.179 93.5169 148.195 93.5538C148.211 93.5906 148.219 93.6303 148.219 93.6705V114.055C148.219 114.287 148.264 114.516 148.353 114.73C148.442 114.945 148.573 115.139 148.737 115.303C148.902 115.467 149.097 115.597 149.312 115.685C149.528 115.773 149.758 115.818 149.991 115.817H163.756C164.226 115.817 164.677 115.631 165.01 115.299C165.342 114.968 165.529 114.518 165.529 114.049V89.822C165.527 88.6475 165.285 87.4857 164.818 86.4073C164.351 85.329 163.668 84.3567 162.812 83.5497L143.475 66.3056C143.423 66.2585 143.388 66.1939 143.379 66.1238L141.565 52.183L139.628 51.9254L139.233 58.5771C139.228 58.6479 139.199 58.7149 139.149 58.7657C139.099 58.8164 139.033 58.8476 138.962 58.8535L131.327 59.4867C131.253 59.4927 131.179 59.4707 131.12 59.425C131.062 59.3793 131.022 59.3133 131.01 59.2401L129.907 52.4707L128.099 52.8582L128.287 69.0336C128.294 69.078 128.291 69.1235 128.277 69.1666C128.264 69.2096 128.241 69.2489 128.21 69.2816L128.209 69.2815Z" fill="#222433"/>
<path d="M106.273 61.8748C107.926 62.0986 107.812 64.3818 105.637 64.6616C104.183 64.8484 102.974 64.9516 102.231 65.0047C101.728 65.0411 101.228 64.9043 100.815 64.6173L99.8917 63.9803C99.547 63.7412 99.2781 63.4087 99.117 63.0221C98.9559 62.6355 98.9092 62.2109 98.9825 61.7987C99.0424 61.4608 99.1811 61.1417 99.3874 60.8671L99.9396 61.4252C100.675 61.9809 101.661 62.5708 103.338 62.2758L104.905 62.0617L106.273 61.8748Z" fill="white"/>
<path d="M102.073 65.3054C101.563 65.3052 101.065 65.1496 100.646 64.8595L99.7232 64.2229C99.4482 64.0322 99.2145 63.7883 99.0361 63.5057C98.8577 63.223 98.7383 62.9075 98.6848 62.5778C98.6314 62.2482 98.645 61.9112 98.725 61.5869C98.805 61.2626 98.9497 60.9577 99.1504 60.6904C99.1759 60.6564 99.2085 60.6283 99.2459 60.6081C99.2834 60.5878 99.3247 60.5758 99.3672 60.5729C99.4097 60.57 99.4523 60.5763 99.4921 60.5914C99.5319 60.6064 99.568 60.6299 99.5979 60.6601L100.135 61.203C100.885 61.7673 101.789 62.2489 103.286 61.9854L103.297 61.9837L106.232 61.5827C106.259 61.5791 106.286 61.5791 106.312 61.5827C107.145 61.6953 107.703 62.2913 107.7 63.0659C107.698 63.8501 107.063 64.7755 105.675 64.9541C104.221 65.1409 103.011 65.2448 102.252 65.2989C102.192 65.3032 102.133 65.3054 102.073 65.3054ZM99.4411 61.3417C99.2394 61.7489 99.1909 62.2148 99.3046 62.6546C99.4183 63.0944 99.6865 63.4789 100.061 63.7382L100.983 64.3749C101.341 64.6231 101.774 64.7416 102.209 64.7106C102.961 64.6569 104.159 64.5542 105.599 64.3692C106.639 64.2353 107.107 63.6172 107.108 63.0641C107.11 62.6954 106.889 62.2721 106.271 62.1729L103.383 62.5673C101.65 62.8705 100.579 62.279 99.7604 61.6603C99.749 61.6517 99.7384 61.6424 99.7284 61.6323L99.4411 61.3417Z" fill="#222433"/>
<path d="M106.329 59.2558C107.919 59.5253 107.782 61.757 105.633 62.0337C104.179 62.2205 102.97 62.3237 102.226 62.3768C101.724 62.4124 101.224 62.2753 100.811 61.9885L99.8867 61.3475C99.5415 61.1081 99.2724 60.7751 99.1113 60.3879C98.9501 60.0007 98.9037 59.5756 98.9775 59.163C99.0206 58.9199 99.1045 58.6858 99.2258 58.4706L100.181 59.2276C100.854 59.7131 101.925 59.943 102.745 59.8175L105.704 59.5226L106.329 59.2558Z" fill="white"/>
<path d="M102.071 62.6772C101.56 62.677 101.061 62.5212 100.642 62.2306L99.7175 61.5896C99.2083 61.2356 98.8495 60.7053 98.711 60.102C98.5724 59.4988 98.6641 58.8657 98.968 58.3261C98.989 58.2888 99.0178 58.2566 99.0525 58.2316C99.0872 58.2065 99.127 58.1893 99.169 58.1811C99.2111 58.1729 99.2544 58.1738 99.296 58.184C99.3376 58.1941 99.3766 58.2131 99.4101 58.2397L100.36 58.9929C100.954 59.4189 101.937 59.6433 102.701 59.5264C102.706 59.5257 102.711 59.525 102.716 59.5245L105.629 59.2341L106.212 58.9848C106.264 58.9624 106.322 58.9556 106.378 58.9651C107.182 59.1013 107.711 59.7035 107.696 60.4636C107.68 61.2371 107.04 62.15 105.671 62.3262C104.216 62.513 103.006 62.617 102.247 62.671C102.189 62.6752 102.13 62.6773 102.071 62.6772ZM99.3398 58.9377C99.2079 59.3276 99.2064 59.7496 99.3355 60.1404C99.4645 60.5312 99.7173 60.8698 100.056 61.1053L100.98 61.7464C101.338 61.9942 101.77 62.1128 102.205 62.0825C102.956 62.029 104.154 61.9264 105.595 61.7412C106.623 61.6089 107.094 60.9982 107.104 60.4517C107.111 60.0997 106.917 59.6907 106.361 59.5629L105.82 59.7941C105.792 59.8059 105.763 59.8135 105.733 59.8165L102.782 60.1107C101.864 60.2483 100.724 59.9843 100.008 59.467C100.004 59.4643 100 59.4617 99.997 59.4589L99.3398 58.9377Z" fill="#222433"/>
<path d="M129.552 44.5429C128.98 44.6944 128.371 44.6239 127.848 44.3455C127.326 44.0671 126.928 43.6016 126.736 43.0427C126.545 42.4839 126.572 41.8733 126.814 41.3341C127.056 40.7949 127.494 40.3672 128.04 40.1372L130.949 40.3545L129.552 44.5429Z" fill="white"/>
<path d="M128.951 44.9156C128.343 44.9155 127.753 44.7057 127.282 44.3217C126.811 43.9377 126.488 43.4032 126.367 42.8088C126.246 42.2143 126.335 41.5965 126.619 41.0601C126.903 40.5237 127.364 40.1016 127.925 39.8654C127.968 39.8473 128.015 39.8396 128.062 39.843L130.971 40.0604C131.016 40.0637 131.059 40.0772 131.098 40.0999C131.137 40.1225 131.17 40.1537 131.195 40.191C131.22 40.2283 131.236 40.2709 131.242 40.3153C131.248 40.3598 131.244 40.405 131.23 40.4476L129.833 44.6357C129.817 44.6821 129.79 44.724 129.755 44.7575C129.719 44.791 129.675 44.8151 129.628 44.8277C129.407 44.886 129.179 44.9155 128.951 44.9156ZM128.092 40.4368C127.64 40.6459 127.28 41.012 127.08 41.4665C126.88 41.9211 126.853 42.4328 127.004 42.9058C127.155 43.3788 127.474 43.7806 127.902 44.0357C128.329 44.2909 128.835 44.3819 129.324 44.2918L130.549 40.6204L128.092 40.4368Z" fill="#222433"/>
<path d="M131.739 39.7621C131.706 39.8156 129.793 41.9666 129.762 42.0218C129.132 43.1452 128.974 44.4722 129.325 45.7111C129.676 46.9499 130.506 47.999 131.633 48.6277H131.634L131.406 51.831C131.348 52.6367 131.588 53.4357 132.081 54.0772C132.573 54.7188 133.284 55.1587 134.079 55.3141C134.534 55.403 135.002 55.396 135.454 55.2937C135.905 55.1914 136.331 54.996 136.702 54.7201C137.073 54.4442 137.383 54.0938 137.61 53.6916C137.838 53.2893 137.979 52.844 138.023 52.3844C138.023 52.3844 138.795 45.3274 138.832 45.0653C139.18 45.4434 139.63 45.7131 140.128 45.8419C140.626 45.9706 141.151 45.9529 141.639 45.7908C142.127 45.6288 142.558 45.3293 142.879 44.9286C143.2 44.5279 143.398 44.0431 143.449 43.5326C143.5 43.0222 143.402 42.5079 143.166 42.0519C142.931 41.5959 142.568 41.2177 142.121 40.9628C141.674 40.708 141.163 40.5875 140.65 40.6158C140.136 40.6441 139.641 40.82 139.226 41.1224C139.485 40.5122 139.607 40.1636 139.618 39.8515L131.739 39.7621Z" fill="white"/>
<path d="M134.716 55.6703C134.219 55.6702 133.728 55.5681 133.273 55.3706C132.818 55.1731 132.409 54.8843 132.071 54.5221C131.733 54.16 131.473 53.7324 131.308 53.2658C131.142 52.7992 131.075 52.3038 131.111 51.8102L131.325 48.7902C130.184 48.0961 129.358 46.9885 129.018 45.6998C128.678 44.4111 128.852 43.0414 129.504 41.8778C129.529 41.8323 129.535 41.8215 130.603 40.6096C130.997 40.1631 131.443 39.658 131.499 39.5883C131.527 39.5505 131.564 39.5198 131.606 39.4987C131.648 39.4776 131.694 39.4667 131.742 39.4668L139.621 39.5562C139.66 39.5566 139.699 39.5649 139.735 39.5805C139.772 39.5962 139.804 39.6189 139.831 39.6473C139.859 39.6756 139.88 39.7092 139.894 39.7459C139.908 39.7826 139.915 39.8217 139.913 39.8609C139.901 40.0759 139.859 40.288 139.788 40.4911C140.268 40.3178 140.785 40.2712 141.288 40.3558C141.792 40.4405 142.265 40.6534 142.662 40.9741C143.058 41.2948 143.365 41.7122 143.552 42.1859C143.739 42.6596 143.8 43.1735 143.729 43.6776C143.658 44.1818 143.458 44.6591 143.147 45.0632C142.837 45.4674 142.427 45.7846 141.957 45.9841C141.487 46.1837 140.974 46.2587 140.466 46.202C139.959 46.1453 139.474 45.9588 139.061 45.6605C138.91 47.0055 138.533 50.4402 138.317 52.4146C138.23 53.3063 137.812 54.1337 137.147 54.7354C136.481 55.3372 135.614 55.6701 134.715 55.6694L134.716 55.6703ZM131.771 48.3666C131.822 48.3932 131.864 48.434 131.892 48.4841C131.92 48.5342 131.932 48.5914 131.928 48.6486L131.701 51.852C131.645 52.643 131.903 53.4241 132.421 54.0263C132.938 54.6285 133.673 55.0032 134.465 55.0693C135.258 55.1355 136.045 54.8877 136.655 54.3797C137.266 53.8717 137.652 53.1443 137.728 52.3551C137.76 52.0632 138.502 45.2872 138.538 45.0237C138.546 44.9683 138.57 44.9163 138.606 44.8736C138.642 44.8309 138.69 44.7995 138.744 44.7828C138.797 44.7662 138.854 44.7651 138.908 44.7797C138.963 44.7942 139.012 44.8238 139.049 44.865C139.288 45.1248 139.582 45.3281 139.91 45.4599C140.237 45.5917 140.59 45.6487 140.943 45.6267C141.517 45.5855 142.056 45.3399 142.464 44.9347C142.871 44.5296 143.118 43.9919 143.161 43.42C143.19 42.9719 143.09 42.5249 142.873 42.1314C142.656 41.7378 142.331 41.414 141.937 41.1979C141.542 40.9818 141.094 40.8823 140.644 40.9111C140.195 40.9399 139.763 41.0958 139.399 41.3605C139.347 41.3986 139.283 41.4185 139.219 41.4172C139.154 41.416 139.091 41.3936 139.041 41.3535C138.99 41.3134 138.954 41.2578 138.938 41.1953C138.922 41.1327 138.927 41.0667 138.952 41.0073C139.079 40.7267 139.187 40.4376 139.273 40.1421L131.874 40.0582C131.763 40.187 131.534 40.4477 131.047 40.999C130.622 41.4807 130.098 42.0762 130.009 42.1838C129.426 43.2376 129.283 44.4787 129.613 45.6367C129.943 46.7946 130.719 47.7758 131.771 48.3666Z" fill="#222433"/>
<path d="M140.811 44.1862C140.751 44.1863 140.693 44.1683 140.644 44.1347L139.224 43.1671C139.175 43.134 139.138 43.0871 139.116 43.0325C139.094 42.978 139.089 42.9182 139.102 42.8608C139.115 42.8034 139.144 42.7511 139.187 42.7105C139.229 42.6699 139.283 42.6429 139.341 42.633L141.156 42.3225C141.232 42.3104 141.311 42.329 141.374 42.3741C141.437 42.4193 141.48 42.4875 141.493 42.5639C141.506 42.6404 141.489 42.7189 141.444 42.7825C141.4 42.8461 141.332 42.8897 141.256 42.9039L140.161 43.0911L140.978 43.6478C141.03 43.6834 141.069 43.7347 141.09 43.7943C141.111 43.8538 141.112 43.9185 141.093 43.9787C141.075 44.039 141.037 44.0916 140.986 44.129C140.935 44.1663 140.873 44.1864 140.81 44.1862H140.811Z" fill="#222433"/>
<path d="M134.303 44.2845C134.28 44.2845 134.257 44.2819 134.235 44.2767L132.843 43.9531C132.768 43.9357 132.703 43.8899 132.661 43.8254C132.62 43.7609 132.605 43.6828 132.62 43.6076L133.07 41.3789C133.085 41.3024 133.131 41.2351 133.196 41.192C133.261 41.1488 133.341 41.1332 133.418 41.1487C133.495 41.1641 133.562 41.2092 133.606 41.2742C133.649 41.3392 133.665 41.4187 133.65 41.4953L133.257 43.4435L134.37 43.7023C134.44 43.7187 134.502 43.7604 134.544 43.8196C134.586 43.8788 134.605 43.9512 134.596 44.0231C134.588 44.095 134.554 44.1614 134.5 44.2096C134.445 44.2578 134.375 44.2845 134.303 44.2845Z" fill="#222433"/>
<path d="M133.75 46.5918C133.701 46.5917 133.653 46.5893 133.605 46.5844C133.423 46.5662 133.247 46.5123 133.086 46.4257C132.925 46.3391 132.783 46.2216 132.668 46.0799L132.097 45.3776C132.062 45.3343 132.039 45.282 132.033 45.2266C132.026 45.1713 132.035 45.1152 132.06 45.0649C132.084 45.0146 132.121 44.9721 132.169 44.9424C132.216 44.9126 132.271 44.8968 132.327 44.8969H135.207C135.264 44.8968 135.319 44.9131 135.367 44.9436C135.415 44.9742 135.453 45.0177 135.476 45.0692C135.5 45.1206 135.508 45.1776 135.5 45.2336C135.492 45.2896 135.468 45.342 135.431 45.3848L134.798 46.1143C134.745 46.1745 134.688 46.2301 134.626 46.2805C134.379 46.4821 134.069 46.5921 133.75 46.5918ZM132.947 45.4867L133.127 45.708C133.261 45.8719 133.455 45.976 133.666 45.9976C133.877 46.0191 134.087 45.9563 134.252 45.8229C134.287 45.794 134.32 45.7622 134.351 45.7277L134.56 45.4867H132.947Z" fill="#222433"/>
<path d="M131.395 43.244C132.239 43.244 132.924 42.5617 132.924 41.7201C132.924 40.8785 132.239 40.1963 131.395 40.1963C130.551 40.1963 129.867 40.8785 129.867 41.7201C129.867 42.5617 130.551 43.244 131.395 43.244Z" fill="white"/>
<path d="M131.395 43.539C131.034 43.539 130.682 43.4323 130.382 43.2325C130.082 43.0326 129.848 42.7486 129.71 42.4162C129.572 42.0839 129.535 41.7182 129.606 41.3654C129.676 41.0126 129.85 40.6885 130.105 40.4341C130.36 40.1798 130.685 40.0066 131.039 39.9364C131.393 39.8662 131.76 39.9022 132.093 40.0399C132.427 40.1775 132.712 40.4107 132.912 40.7098C133.113 41.0088 133.22 41.3605 133.22 41.7202C133.219 42.2024 133.027 42.6647 132.685 43.0057C132.343 43.3467 131.879 43.5385 131.395 43.539ZM131.395 40.4913C131.151 40.4913 130.913 40.5634 130.71 40.6984C130.508 40.8334 130.35 41.0254 130.256 41.2499C130.163 41.4745 130.139 41.7216 130.186 41.96C130.234 42.1983 130.351 42.4173 130.524 42.5892C130.696 42.761 130.916 42.8781 131.155 42.9255C131.394 42.9729 131.642 42.9486 131.867 42.8556C132.092 42.7626 132.285 42.6051 132.42 42.403C132.556 42.2009 132.628 41.9633 132.628 41.7202C132.628 41.3944 132.498 41.082 132.266 40.8516C132.035 40.6213 131.722 40.4917 131.395 40.4913Z" fill="#222433"/>
<path d="M135.976 43.244C136.82 43.244 137.504 42.5617 137.504 41.7201C137.504 40.8785 136.82 40.1963 135.976 40.1963C135.132 40.1963 134.447 40.8785 134.447 41.7201C134.447 42.5617 135.132 43.244 135.976 43.244Z" fill="white"/>
<path d="M135.976 43.539C135.615 43.539 135.262 43.4323 134.962 43.2325C134.662 43.0326 134.428 42.7486 134.29 42.4162C134.152 42.0839 134.116 41.7182 134.186 41.3654C134.257 41.0126 134.431 40.6885 134.686 40.4341C134.941 40.1798 135.266 40.0066 135.62 39.9364C135.974 39.8662 136.341 39.9022 136.674 40.0399C137.007 40.1775 137.292 40.4107 137.493 40.7098C137.693 41.0088 137.8 41.3605 137.8 41.7202C137.8 42.2024 137.607 42.6647 137.265 43.0057C136.923 43.3467 136.459 43.5385 135.976 43.539ZM135.976 40.4913C135.732 40.4913 135.494 40.5634 135.291 40.6984C135.088 40.8334 134.93 41.0254 134.837 41.2499C134.744 41.4745 134.719 41.7216 134.767 41.96C134.814 42.1983 134.932 42.4173 135.104 42.5892C135.277 42.761 135.496 42.8781 135.735 42.9255C135.974 42.9729 136.222 42.9486 136.447 42.8556C136.673 42.7626 136.865 42.6051 137.001 42.403C137.136 42.2009 137.208 41.9633 137.208 41.7202C137.208 41.3944 137.078 41.082 136.847 40.8516C136.616 40.6213 136.303 40.4917 135.976 40.4913Z" fill="#222433"/>
<path d="M134.298 41.7321H133.073C132.994 41.7321 132.919 41.701 132.864 41.6457C132.808 41.5904 132.777 41.5154 132.777 41.4372C132.777 41.3589 132.808 41.2839 132.864 41.2286C132.919 41.1733 132.994 41.1422 133.073 41.1422H134.298C134.377 41.1422 134.452 41.1733 134.508 41.2286C134.563 41.2839 134.594 41.3589 134.594 41.4372C134.594 41.5154 134.563 41.5904 134.508 41.6457C134.452 41.701 134.377 41.7321 134.298 41.7321Z" fill="#222433"/>
<path d="M134.012 49.5402C133.127 49.54 132.258 49.3135 131.486 48.8822C131.418 48.844 131.367 48.7802 131.346 48.7049C131.325 48.6296 131.334 48.549 131.373 48.4807C131.411 48.4124 131.475 48.3622 131.551 48.3409C131.626 48.3197 131.707 48.3292 131.775 48.3674C132.355 48.6917 132.999 48.8861 133.661 48.937C134.324 48.9879 134.99 48.8942 135.612 48.6624C135.686 48.635 135.767 48.6379 135.838 48.6703C135.91 48.7028 135.965 48.7622 135.993 48.8355C136.02 48.9088 136.017 48.99 135.985 49.0612C135.952 49.1323 135.893 49.1877 135.819 49.2151C135.241 49.4301 134.629 49.5402 134.012 49.5402Z" fill="#222433"/>
<path d="M135.461 42.8933C135.745 42.8933 135.975 42.6639 135.975 42.381C135.975 42.0982 135.745 41.8688 135.461 41.8688C135.177 41.8688 134.947 42.0982 134.947 42.381C134.947 42.6639 135.177 42.8933 135.461 42.8933Z" fill="#222433"/>
<path d="M130.907 42.8933C131.191 42.8933 131.421 42.6639 131.421 42.381C131.421 42.0982 131.191 41.8688 130.907 41.8688C130.624 41.8688 130.394 42.0982 130.394 42.381C130.394 42.6639 130.624 42.8933 130.907 42.8933Z" fill="#222433"/>
<path d="M128.617 43.6293C128.563 43.6292 128.51 43.6146 128.464 43.587C128.418 43.5594 128.381 43.5198 128.356 43.4725C128.33 43.4253 128.319 43.3721 128.321 43.3186C128.324 43.2652 128.342 43.2135 128.372 43.1692L128.934 42.34L128.055 41.9262C128.019 41.9102 127.986 41.8872 127.959 41.8585C127.932 41.8299 127.912 41.7962 127.898 41.7594C127.884 41.7226 127.878 41.6834 127.88 41.6442C127.881 41.605 127.891 41.5665 127.908 41.531C127.924 41.4955 127.948 41.4637 127.978 41.4375C128.007 41.4112 128.041 41.3911 128.078 41.3782C128.115 41.3654 128.155 41.36 128.194 41.3625C128.233 41.365 128.272 41.3753 128.307 41.3928L129.498 41.9532C129.537 41.9714 129.571 41.9976 129.599 42.0302C129.626 42.0627 129.646 42.1008 129.657 42.1419C129.669 42.1829 129.671 42.2258 129.664 42.2678C129.657 42.3098 129.641 42.3498 129.617 42.385L128.862 43.4994C128.835 43.5394 128.798 43.5722 128.756 43.5948C128.713 43.6175 128.665 43.6293 128.617 43.6293Z" fill="#222433"/>
<path d="M139.825 40.0571C140.121 35.3381 137.655 33.9618 134.632 34.0011C131.888 34.0366 129.816 35.9244 129.664 38.8411H129.663C129.663 38.8411 125.731 38.5314 125.731 39.1891C125.731 39.8773 130.737 40.2342 135.062 40.1526C135.141 40.1511 135.218 40.1496 135.295 40.1479C136.421 40.1705 137.573 40.3239 139.036 40.1559C139.236 40.1433 139.434 40.1103 139.628 40.0575L139.825 40.0571Z" fill="#82B1FF"/>
<path d="M136.517 39.8356H136.513C136.435 39.8345 136.36 39.8023 136.305 39.7462C136.251 39.6901 136.221 39.6147 136.222 39.5365C136.251 37.4942 137.284 36.4511 139.29 36.436H139.292C139.371 36.4357 139.446 36.4665 139.502 36.5216C139.558 36.5767 139.589 36.6516 139.589 36.7298C139.59 36.8081 139.559 36.8832 139.504 36.9387C139.448 36.9942 139.373 37.0256 139.295 37.0259C137.627 37.0384 136.838 37.8389 136.813 39.545C136.812 39.6225 136.78 39.6965 136.725 39.7508C136.67 39.8052 136.595 39.8357 136.517 39.8356Z" fill="#222433"/>
<path d="M139.726 40.1555C139.72 40.1555 139.714 40.1555 139.707 40.1548C130.807 39.5846 129.643 39.1562 129.539 39.1092C129.467 39.0779 129.411 39.0194 129.382 38.9466C129.354 38.8737 129.355 38.7925 129.387 38.7208C129.418 38.6491 129.477 38.5928 129.55 38.5642C129.623 38.5356 129.704 38.5372 129.776 38.5684C129.841 38.5925 131.086 39.0113 139.745 39.566C139.821 39.5709 139.893 39.6053 139.945 39.6619C139.996 39.7186 140.024 39.7931 140.022 39.8697C140.019 39.9463 139.987 40.0189 139.932 40.0722C139.877 40.1255 139.803 40.1553 139.726 40.1553L139.726 40.1555Z" fill="#222433"/>
</g>
<g clip-path="url(#clip3_1449:45235)">
<path d="M89.8776 94.9717V36.1534H34.6533V48.9108V94.9717H89.8776Z" fill="white"/>
<path d="M89.8777 95.25H34.6535C34.4997 95.25 34.375 95.1254 34.375 94.9717V36.1533C34.375 35.9996 34.4997 35.875 34.6535 35.875H89.8777C90.0316 35.875 90.1562 35.9996 90.1562 36.1533V94.9717C90.1562 95.1254 90.0316 95.25 89.8777 95.25ZM34.932 94.6934H89.5992V36.4316H34.932V94.6934Z" fill="#222433"/>
<path d="M89.8777 42.9853H34.6535C34.4997 42.9853 34.375 42.8607 34.375 42.707C34.375 42.5532 34.4997 42.4286 34.6535 42.4286H89.8777C90.0316 42.4286 90.1562 42.5532 90.1562 42.707C90.1562 42.8607 90.0316 42.9853 89.8777 42.9853Z" fill="#222433"/>
<path d="M37.5799 40.5239C38.1844 40.5239 38.6744 40.0342 38.6744 39.4301C38.6744 38.826 38.1844 38.3363 37.5799 38.3363C36.9754 38.3363 36.4854 38.826 36.4854 39.4301C36.4854 40.0342 36.9754 40.5239 37.5799 40.5239Z" fill="#82B1FF"/>
<path d="M40.6434 40.5239C41.2479 40.5239 41.7379 40.0342 41.7379 39.4301C41.7379 38.826 41.2479 38.3363 40.6434 38.3363C40.0389 38.3363 39.5488 38.826 39.5488 39.4301C39.5488 40.0342 40.0389 40.5239 40.6434 40.5239Z" fill="#82B1FF"/>
<path d="M43.7068 40.5239C44.3113 40.5239 44.8014 40.0342 44.8014 39.4301C44.8014 38.826 44.3113 38.3363 43.7068 38.3363C43.1023 38.3363 42.6123 38.826 42.6123 39.4301C42.6123 40.0342 43.1023 40.5239 43.7068 40.5239Z" fill="#82B1FF"/>
</g>
<g clip-path="url(#clip4_1449:45235)">
<path d="M78.3593 62.4815C80.4115 62.4815 82.0751 60.8179 82.0751 58.7657C82.0751 56.7136 80.4115 55.05 78.3593 55.05C76.3072 55.05 74.6436 56.7136 74.6436 58.7657C74.6436 60.8179 76.3072 62.4815 78.3593 62.4815Z" fill="white"/>
<path d="M78.3594 62.75C77.5713 62.75 76.801 62.5163 76.1458 62.0785C75.4905 61.6407 74.9799 61.0184 74.6783 60.2903C74.3767 59.5623 74.2978 58.7612 74.4516 57.9883C74.6053 57.2154 74.9848 56.5054 75.542 55.9482C76.0992 55.391 76.8092 55.0115 77.5821 54.8578C78.355 54.704 79.1561 54.7829 79.8841 55.0845C80.6122 55.3861 81.2345 55.8968 81.6723 56.552C82.1101 57.2072 82.3438 57.9776 82.3438 58.7656C82.3425 59.8219 81.9224 60.8347 81.1754 61.5816C80.4285 62.3286 79.4157 62.7487 78.3594 62.75ZM78.3594 55.3184C77.6776 55.3184 77.0111 55.5206 76.4442 55.8994C75.8774 56.2782 75.4355 56.8165 75.1746 57.4464C74.9137 58.0763 74.8454 58.7694 74.9785 59.4381C75.1115 60.1068 75.4398 60.721 75.9219 61.2031C76.404 61.6852 77.0182 62.0135 77.6869 62.1465C78.3556 62.2795 79.0487 62.2112 79.6785 61.9503C80.3084 61.6894 80.8468 61.2476 81.2256 60.6807C81.6044 60.1138 81.8065 59.4474 81.8065 58.7656C81.8055 57.8517 81.442 56.9755 80.7957 56.3292C80.1495 55.683 79.2733 55.3195 78.3594 55.3184Z" fill="#222433"/>
<path d="M78.6278 56.7153V57.154C78.9771 57.1808 79.3134 57.2981 79.6037 57.4943L79.344 57.9061C79.1244 57.7656 78.877 57.674 78.6188 57.6375V58.5329C79.1471 58.6045 79.6306 58.8284 79.6216 59.3924C79.6127 59.9386 79.1739 60.2609 78.6188 60.3326V60.7982H78.1711V60.3415C77.7772 60.3057 77.3474 60.1714 77.0698 59.9386L77.3384 59.5357C77.5764 59.7214 77.8619 59.8363 78.1622 59.867V58.9716L78.1174 58.9627C77.616 58.891 77.1504 58.6672 77.1683 58.0942C77.1773 57.5659 77.5981 57.2346 78.1622 57.163V56.7153H78.6278ZM78.1801 58.4613V57.6465C77.8846 57.7002 77.7055 57.8524 77.6966 58.0763C77.6966 58.2911 77.8577 58.3986 78.1801 58.4613ZM78.6278 59.0343V59.8491C78.9143 59.7954 79.1113 59.6431 79.1202 59.4193C79.1202 59.2223 78.9411 59.1059 78.6278 59.0343Z" fill="#82B1FF"/>
<path d="M78.3593 61.765C77.7661 61.765 77.1862 61.5891 76.6929 61.2595C76.1997 60.9299 75.8152 60.4614 75.5882 59.9134C75.3612 59.3653 75.3018 58.7622 75.4175 58.1804C75.5332 57.5985 75.8189 57.0641 76.2384 56.6446C76.6579 56.2251 77.1923 55.9394 77.7742 55.8237C78.356 55.708 78.9591 55.7674 79.5072 55.9944C80.0553 56.2214 80.5237 56.6058 80.8533 57.0991C81.1829 57.5924 81.3588 58.1723 81.3588 58.7655C81.3579 59.5608 81.0416 60.3232 80.4793 60.8855C79.917 61.4478 79.1546 61.7641 78.3593 61.765ZM78.3593 56.3033C77.8724 56.3033 77.3963 56.4477 76.9914 56.7182C76.5865 56.9888 76.2709 57.3733 76.0845 57.8233C75.8981 58.2732 75.8494 58.7683 75.9444 59.2459C76.0394 59.7235 76.2739 60.1622 76.6183 60.5066C76.9626 60.8509 77.4013 61.0855 77.879 61.1805C78.3566 61.2755 78.8517 61.2267 79.3016 61.0403C79.7515 60.854 80.1361 60.5384 80.4066 60.1335C80.6772 59.7286 80.8216 59.2525 80.8216 58.7655C80.8208 58.1127 80.5612 57.4869 80.0996 57.0253C79.638 56.5637 79.0121 56.304 78.3593 56.3033Z" fill="#222433"/>
</g>
<g clip-path="url(#clip5_1449:45235)">
<path d="M65.7906 67.938H58.0676C55.9694 67.938 53.9571 68.7731 52.4734 70.2595C50.9898 71.7459 50.1562 73.7619 50.1562 75.864C50.1562 77.9661 50.9898 79.9821 52.4734 81.4685C53.9571 82.9549 55.9694 83.7899 58.0676 83.7899H65.7906C67.8888 83.7899 69.9011 82.9549 71.3848 81.4685C72.8685 79.9821 73.702 77.9661 73.702 75.864C73.702 73.7619 72.8685 71.7459 71.3848 70.2595C69.9011 68.7731 67.8888 67.938 65.7906 67.938Z" fill="#82B1FF"/>
<path d="M69.5025 79.9923L65.9795 83.5218L70.0419 87.5917L73.5649 84.0622L69.5025 79.9923Z" fill="#82B1FF"/>
<path d="M59.3946 82.0444C61.3084 80.1271 54.4298 80.0735 54.3948 80.0264L50.3638 84.0649L53.8868 87.5943L59.4105 82.0604C59.4 82.0599 59.3872 82.0515 59.3946 82.0444Z" fill="#82B1FF"/>
<path d="M69.7744 64.9375H69.652C68.6978 64.9375 67.7827 65.3172 67.108 65.9932C66.4333 66.6692 66.0542 67.586 66.0542 68.5419V71.2122H69.7744V64.9375Z" fill="#82B1FF"/>
<path d="M68.8329 73.9957C69.171 73.9957 69.4451 73.7211 69.4451 73.3824C69.4451 73.0436 69.171 72.769 68.8329 72.769C68.4948 72.769 68.2207 73.0436 68.2207 73.3824C68.2207 73.7211 68.4948 73.9957 68.8329 73.9957Z" fill="#222433"/>
<path d="M69.7747 71.4952C69.6998 71.4952 69.6279 71.4654 69.5749 71.4123C69.522 71.3592 69.4922 71.2872 69.4922 71.2121V69.0231C69.4922 68.948 69.522 68.876 69.5749 68.8229C69.6279 68.7698 69.6998 68.74 69.7747 68.74C69.8497 68.74 69.9215 68.7698 69.9745 68.8229C70.0275 68.876 70.0573 68.948 70.0573 69.0231V71.2121C70.0573 71.2872 70.0275 71.3592 69.9745 71.4123C69.9215 71.4654 69.8497 71.4952 69.7747 71.4952Z" fill="#222433"/>
<path d="M66.0262 69.0232H57.0223C56.9474 69.0232 56.8755 68.9933 56.8225 68.9403C56.7695 68.8872 56.7397 68.8152 56.7397 68.7401C56.7397 68.665 56.7695 68.593 56.8225 68.5399C56.8755 68.4869 56.9474 68.457 57.0223 68.457H66.0262C66.1011 68.457 66.173 68.4869 66.226 68.5399C66.279 68.593 66.3087 68.665 66.3087 68.7401C66.3087 68.8152 66.279 68.8872 66.226 68.9403C66.173 68.9933 66.1011 69.0232 66.0262 69.0232Z" fill="#222433"/>
<path d="M75.1562 73.4579H72.1235V78.2701H75.1562V73.4579Z" fill="#82B1FF"/>
<path d="M73.4514 74.5815C73.3871 74.5814 73.3248 74.5593 73.2747 74.519C73.2247 74.4787 73.1898 74.4225 73.1759 74.3596C73.1297 74.152 73.0606 73.8484 72.992 73.6132C72.9813 73.5774 72.9776 73.5398 72.9814 73.5026C72.9852 73.4653 72.9964 73.4293 73.0142 73.3964C73.032 73.3635 73.0561 73.3345 73.0851 73.311C73.1142 73.2875 73.1476 73.27 73.1835 73.2596C73.2193 73.2491 73.2569 73.2459 73.294 73.25C73.3311 73.2542 73.367 73.2657 73.3996 73.2838C73.4323 73.302 73.461 73.3264 73.4842 73.3558C73.5073 73.3851 73.5244 73.4187 73.5345 73.4547C73.6077 73.7058 73.6797 74.0209 73.7275 74.237C73.7438 74.3102 73.7303 74.387 73.6901 74.4503C73.6498 74.5137 73.5861 74.5584 73.513 74.5747C73.4927 74.5791 73.4721 74.5814 73.4514 74.5815Z" fill="#222433"/>
</g>
<g clip-path="url(#clip6_1449:45235)">
<path d="M62.5 58.5488C64.7533 58.5488 66.58 56.7221 66.58 54.4687C66.58 52.2153 64.7533 50.3886 62.5 50.3886C60.2466 50.3886 58.4199 52.2153 58.4199 54.4687C58.4199 56.7221 60.2466 58.5488 62.5 58.5488Z" fill="white"/>
<path d="M62.5 58.8437C61.6347 58.8437 60.7888 58.5871 60.0694 58.1064C59.3499 57.6257 58.7892 56.9424 58.458 56.143C58.1269 55.3435 58.0403 54.4639 58.2091 53.6152C58.3779 52.7665 58.7946 51.987 59.4064 51.3751C60.0183 50.7633 60.7978 50.3466 61.6465 50.1778C62.4951 50.009 63.3748 50.0956 64.1742 50.4267C64.9737 50.7579 65.6569 51.3186 66.1377 52.0381C66.6184 52.7576 66.875 53.6034 66.875 54.4687C66.8737 55.6286 66.4123 56.7407 65.5921 57.5608C64.7719 58.381 63.6599 58.8424 62.5 58.8437ZM62.5 50.6836C61.7514 50.6836 61.0196 50.9056 60.3971 51.3215C59.7746 51.7374 59.2895 52.3286 59.003 53.0202C58.7165 53.7119 58.6416 54.4729 58.7876 55.2072C58.9337 55.9414 59.2942 56.6158 59.8235 57.1452C60.3529 57.6746 61.0273 58.0351 61.7616 58.1811C62.4958 58.3272 63.2569 58.2522 63.9485 57.9657C64.6401 57.6792 65.2313 57.1941 65.6472 56.5716C66.0631 55.9492 66.2851 55.2173 66.2851 54.4687C66.284 53.4652 65.8848 52.5031 65.1752 51.7935C64.4656 51.0839 63.5035 50.6848 62.5 50.6836Z" fill="#222433"/>
<path d="M62.7951 52.2173V52.699C63.1787 52.7285 63.548 52.8572 63.8668 53.0726L63.5817 53.5249C63.3405 53.3705 63.0689 53.2699 62.7853 53.2299V54.2131C63.3654 54.2917 63.8963 54.5375 63.8864 55.1569C63.8766 55.7566 63.3949 56.1105 62.7853 56.1892V56.7004H62.2937V56.199C61.8612 56.1597 61.3892 56.0122 61.0845 55.7566L61.3794 55.3142C61.6407 55.5182 61.9542 55.6442 62.2839 55.678V54.6948L62.2348 54.685C61.6842 54.6063 61.173 54.3605 61.1926 53.7313C61.2025 53.1513 61.6645 52.7875 62.2839 52.7089V52.2173H62.7951ZM62.3036 54.1344V53.2398C61.9791 53.2987 61.7825 53.4659 61.7727 53.7117C61.7727 53.9476 61.9496 54.0656 62.3036 54.1344ZM62.7951 54.7636V55.6583C63.1098 55.5993 63.326 55.4322 63.3359 55.1864C63.3359 54.9701 63.1392 54.8423 62.7951 54.7636Z" fill="#82B1FF"/>
<path d="M62.5001 57.7623C61.8487 57.7623 61.2119 57.5691 60.6703 57.2072C60.1287 56.8453 59.7065 56.3309 59.4573 55.7291C59.208 55.1273 59.1427 54.4651 59.2698 53.8262C59.3969 53.1873 59.7106 52.6004 60.1712 52.1398C60.6318 51.6792 61.2187 51.3655 61.8575 51.2385C62.4964 51.1114 63.1587 51.1766 63.7605 51.4259C64.3623 51.6752 64.8767 52.0973 65.2386 52.6389C65.6005 53.1805 65.7936 53.8173 65.7936 54.4687C65.7926 55.3419 65.4453 56.1791 64.8279 56.7965C64.2104 57.4139 63.3733 57.7613 62.5001 57.7623ZM62.5001 51.7651C61.9654 51.7651 61.4426 51.9236 60.998 52.2207C60.5534 52.5178 60.2069 52.94 60.0022 53.4341C59.7976 53.9281 59.7441 54.4717 59.8484 54.9962C59.9527 55.5206 60.2102 56.0024 60.5883 56.3805C60.9664 56.7586 61.4482 57.0161 61.9726 57.1204C62.4971 57.2247 63.0407 57.1712 63.5347 56.9666C64.0288 56.7619 64.451 56.4154 64.7481 55.9708C65.0452 55.5262 65.2037 55.0034 65.2037 54.4687C65.2029 53.7519 64.9178 53.0647 64.4109 52.5579C63.9041 52.051 63.2169 51.7659 62.5001 51.7651Z" fill="#222433"/>
</g>
<g clip-path="url(#clip7_1449:45235)">
<path d="M47.422 62.1583C49.5547 62.1583 51.2835 60.4294 51.2835 58.2968C51.2835 56.1641 49.5547 54.4353 47.422 54.4353C45.2894 54.4353 43.5605 56.1641 43.5605 58.2968C43.5605 60.4294 45.2894 62.1583 47.422 62.1583Z" fill="white"/>
<path d="M47.4219 62.4375C46.6029 62.4375 45.8024 62.1946 45.1215 61.7397C44.4405 61.2847 43.9098 60.638 43.5964 59.8814C43.283 59.1248 43.201 58.2923 43.3608 57.4891C43.5206 56.6858 43.9149 55.9481 44.494 55.369C45.0731 54.7899 45.8109 54.3955 46.6141 54.2358C47.4173 54.076 48.2498 54.158 49.0064 54.4714C49.763 54.7848 50.4097 55.3155 50.8647 55.9964C51.3197 56.6774 51.5625 57.4779 51.5625 58.2968C51.5612 59.3946 51.1246 60.4471 50.3484 61.2233C49.5721 61.9996 48.5197 62.4362 47.4219 62.4375ZM47.4219 54.7145C46.7134 54.7145 46.0207 54.9246 45.4316 55.3182C44.8425 55.7119 44.3834 56.2714 44.1122 56.9259C43.8411 57.5805 43.7701 58.3008 43.9084 58.9957C44.0466 59.6906 44.3878 60.3289 44.8888 60.8299C45.3898 61.3309 46.0281 61.6721 46.723 61.8104C47.4179 61.9486 48.1382 61.8776 48.7928 61.6065C49.4474 61.3354 50.0069 60.8762 50.4005 60.2871C50.7941 59.698 51.0042 59.0054 51.0042 58.2968C51.0031 57.3471 50.6254 56.4365 49.9538 55.7649C49.2822 55.0934 48.3716 54.7156 47.4219 54.7145Z" fill="#222433"/>
<path d="M47.7011 56.166V56.6219C48.0641 56.6498 48.4136 56.7716 48.7153 56.9755L48.4454 57.4035C48.2172 57.2574 47.9601 57.1622 47.6918 57.1244V58.0549C48.2407 58.1293 48.7432 58.3619 48.7339 58.9481C48.7246 59.5157 48.2687 59.8507 47.6918 59.9251V60.409H47.2265V59.9344C46.8171 59.8972 46.3705 59.7576 46.082 59.5157L46.3612 59.097C46.6084 59.29 46.9052 59.4094 47.2172 59.4413V58.5108L47.1707 58.5015C46.6496 58.427 46.1658 58.1944 46.1844 57.5989C46.1937 57.0499 46.631 56.7057 47.2172 56.6312V56.166H47.7011ZM47.2358 57.9804V57.1337C46.9288 57.1895 46.7427 57.3477 46.7334 57.5803C46.7334 57.8036 46.9009 57.9153 47.2358 57.9804ZM47.7011 58.5759V59.4227C47.9988 59.3668 48.2035 59.2086 48.2128 58.976C48.2128 58.7713 48.0267 58.6504 47.7011 58.5759Z" fill="#82B1FF"/>
<path d="M47.4218 61.414C46.8053 61.414 46.2026 61.2312 45.69 60.8887C45.1774 60.5461 44.7779 60.0593 44.542 59.4897C44.306 58.9202 44.2443 58.2934 44.3646 57.6888C44.4849 57.0841 44.7817 56.5287 45.2177 56.0928C45.6536 55.6568 46.209 55.3599 46.8137 55.2397C47.4183 55.1194 48.0451 55.1811 48.6147 55.4171C49.1842 55.653 49.6711 56.0525 50.0136 56.5651C50.3561 57.0777 50.5389 57.6804 50.5389 58.2969C50.538 59.1233 50.2092 59.9156 49.6249 60.5C49.0405 61.0843 48.2482 61.413 47.4218 61.414ZM47.4218 55.7381C46.9157 55.7381 46.421 55.8881 46.0002 56.1693C45.5794 56.4505 45.2514 56.8501 45.0578 57.3177C44.8641 57.7852 44.8134 58.2997 44.9121 58.7961C45.0109 59.2924 45.2546 59.7484 45.6124 60.1062C45.9703 60.4641 46.4262 60.7078 46.9226 60.8065C47.4189 60.9053 47.9334 60.8546 48.401 60.6609C48.8686 60.4672 49.2682 60.1393 49.5494 59.7185C49.8305 59.2977 49.9806 58.803 49.9806 58.2969C49.9798 57.6185 49.71 56.9681 49.2303 56.4884C48.7506 56.0087 48.1002 55.7389 47.4218 55.7381Z" fill="#222433"/>
</g>
<g clip-path="url(#clip8_1449:45235)">
<path d="M35.3947 127.437C35.3048 127.437 35.2186 127.402 35.155 127.339C35.0914 127.275 35.0557 127.189 35.0557 127.1V112.165C35.0557 112.075 35.0914 111.989 35.155 111.926C35.2186 111.863 35.3048 111.827 35.3947 111.827C35.4847 111.827 35.5709 111.863 35.6345 111.926C35.6981 111.989 35.7338 112.075 35.7338 112.165V127.1C35.7338 127.189 35.6981 127.275 35.6345 127.339C35.5709 127.402 35.4847 127.437 35.3947 127.437Z" fill="#222433"/>
<path d="M37.7754 112.229H33.0139C32.6289 112.224 32.2613 112.068 31.9907 111.795C31.7201 111.522 31.5684 111.154 31.5684 110.771C31.5684 110.387 31.7201 110.019 31.9907 109.746C32.2613 109.473 32.6289 109.317 33.0139 109.312H37.7754C38.1604 109.317 38.5281 109.473 38.7987 109.746C39.0692 110.019 39.221 110.387 39.221 110.771C39.221 111.154 39.0692 111.522 38.7987 111.795C38.5281 112.068 38.1604 112.224 37.7754 112.229ZM33.0139 110.482C32.9371 110.482 32.8635 110.513 32.8092 110.567C32.7549 110.621 32.7244 110.694 32.7244 110.771C32.7244 110.847 32.7549 110.921 32.8092 110.975C32.8635 111.029 32.9371 111.059 33.0139 111.059H37.7754C37.8522 111.059 37.9258 111.029 37.9801 110.975C38.0345 110.921 38.065 110.847 38.065 110.771C38.065 110.694 38.0345 110.621 37.9801 110.567C37.9258 110.513 37.8522 110.482 37.7754 110.482H33.0139Z" fill="#5A38FD"/>
<path d="M38.1854 117.517C37.4615 117.517 35.3945 116.203 35.3945 116.203C35.3945 116.203 37.4616 114.889 38.1854 114.889C38.5353 114.889 38.8708 115.027 39.1182 115.274C39.3655 115.52 39.5045 115.854 39.5045 116.203C39.5045 116.551 39.3655 116.886 39.1182 117.132C38.8708 117.379 38.5353 117.517 38.1854 117.517Z" fill="white"/>
<path d="M38.1857 117.855C37.4024 117.855 35.5714 116.716 35.2123 116.488C35.1643 116.457 35.1248 116.415 35.0974 116.365C35.07 116.316 35.0557 116.26 35.0557 116.203C35.0557 116.146 35.07 116.09 35.0974 116.041C35.1248 115.991 35.1643 115.949 35.2123 115.918C35.5715 115.69 37.4025 114.551 38.1857 114.551C38.6254 114.551 39.0472 114.725 39.3582 115.035C39.6691 115.345 39.8438 115.765 39.8438 116.203C39.8438 116.641 39.6691 117.061 39.3582 117.371C39.0472 117.681 38.6254 117.855 38.1857 117.855ZM36.0426 116.203C36.8401 116.674 37.8292 117.18 38.1857 117.18C38.4456 117.18 38.6948 117.077 38.8786 116.894C39.0624 116.71 39.1657 116.462 39.1657 116.203C39.1657 115.944 39.0624 115.696 38.8786 115.513C38.6948 115.33 38.4456 115.227 38.1857 115.227C37.829 115.227 36.8399 115.732 36.0426 116.203Z" fill="#222433"/>
<path d="M32.5955 117.517C33.3194 117.517 35.3864 116.203 35.3864 116.203C35.3864 116.203 33.3193 114.889 32.5955 114.889C32.2456 114.889 31.9101 115.027 31.6627 115.274C31.4153 115.52 31.2764 115.854 31.2764 116.203C31.2764 116.551 31.4153 116.886 31.6627 117.132C31.9101 117.379 32.2456 117.517 32.5955 117.517Z" fill="white"/>
<path d="M32.5957 117.855C32.1559 117.855 31.7341 117.681 31.4232 117.371C31.1122 117.061 30.9375 116.641 30.9375 116.203C30.9375 115.765 31.1122 115.345 31.4232 115.035C31.7341 114.725 32.1559 114.551 32.5957 114.551C33.3788 114.551 35.2098 115.69 35.569 115.918C35.617 115.949 35.6565 115.991 35.6839 116.041C35.7113 116.09 35.7257 116.146 35.7257 116.203C35.7257 116.26 35.7113 116.316 35.6839 116.365C35.6565 116.415 35.617 116.457 35.569 116.488C35.2098 116.716 33.3788 117.855 32.5957 117.855ZM32.5957 115.227C32.3357 115.227 32.0865 115.33 31.9027 115.513C31.7189 115.696 31.6156 115.944 31.6156 116.203C31.6156 116.462 31.7189 116.71 31.9027 116.893C32.0865 117.076 32.3357 117.179 32.5957 117.179C32.9521 117.179 33.9412 116.674 34.7386 116.203C33.9412 115.732 32.952 115.227 32.5957 115.227Z" fill="#222433"/>
</g>
<g clip-path="url(#clip9_1449:45235)">
<path d="M16.454 93.8197L20.2335 96.0779L22.4972 92.3078C22.8494 91.7233 23.0827 91.0754 23.1839 90.4011C23.2851 89.7267 23.2521 89.039 23.0868 88.3774C22.9216 87.7157 22.6273 87.093 22.2208 86.5448C21.8143 85.9965 21.3035 85.5336 20.7176 85.1823L20.7035 85.1738L16.9241 82.9157L14.6603 86.6858C14.3081 87.2703 14.0748 87.9182 13.9736 88.5925C13.8725 89.2669 13.9054 89.9546 14.0707 90.6162C14.2359 91.2779 14.5302 91.9006 14.9367 92.4488C15.3432 92.997 15.854 93.46 16.4399 93.8113L16.454 93.8197Z" fill="white"/>
<path d="M20.2336 96.3978C20.289 96.3978 20.3435 96.3835 20.3917 96.3563C20.4399 96.329 20.4802 96.2898 20.5086 96.2424L22.7724 92.4722C23.5273 91.2193 23.7524 89.7185 23.3981 88.2999C23.0438 86.8814 22.1391 85.6614 20.883 84.9082L20.8687 84.8997L17.0889 82.6414C17.016 82.5978 16.9287 82.5849 16.8462 82.6056C16.7638 82.6262 16.6929 82.6786 16.6492 82.7514L14.3855 86.5216C13.6306 87.7746 13.4055 89.2754 13.7598 90.6939C14.1141 92.1124 15.0188 93.3324 16.2748 94.0855L16.2891 94.0941L20.0688 96.3524C20.1186 96.3821 20.1756 96.3978 20.2336 96.3978ZM17.0345 83.3545L20.5511 85.455C21.1011 85.7845 21.5807 86.219 21.9625 86.7334C22.3442 87.2479 22.6205 87.8324 22.7757 88.4535C22.9309 89.0745 22.962 89.72 22.867 90.353C22.7721 90.9861 22.5531 91.5942 22.2224 92.1428L20.1233 95.6389L16.6051 93.5371C15.4948 92.8712 14.6952 91.7928 14.3821 90.5388C14.069 89.2849 14.268 87.9583 14.9354 86.8508L17.0345 83.3545Z" fill="#222433"/>
<path d="M28.1166 127.75C28.143 127.75 28.1693 127.747 28.1948 127.74C28.2357 127.73 28.2741 127.712 28.3079 127.687C28.3418 127.662 28.3703 127.631 28.3919 127.595C28.4136 127.558 28.4279 127.519 28.434 127.477C28.4402 127.435 28.4381 127.393 28.4279 127.352L19.0157 89.9193C18.995 89.837 18.9424 89.7663 18.8694 89.7227C18.7965 89.6791 18.7091 89.6662 18.6266 89.6869C18.5441 89.7075 18.4732 89.76 18.4295 89.8328C18.3858 89.9056 18.3728 89.9927 18.3935 90.075L27.8056 127.508C27.8229 127.577 27.863 127.638 27.9193 127.682C27.9757 127.726 28.0451 127.75 28.1166 127.75Z" fill="#222433"/>
<path d="M16.9237 83.2358C16.9501 83.2358 16.9764 83.2325 17.002 83.2261C17.0428 83.2159 17.0813 83.1978 17.1151 83.1727C17.1489 83.1477 17.1774 83.1163 17.1991 83.0802C17.2207 83.0442 17.235 83.0043 17.2412 82.9627C17.2473 82.9211 17.2452 82.8788 17.235 82.838L16.3812 79.4422C16.3605 79.3599 16.3079 79.2891 16.2349 79.2456C16.1619 79.202 16.0746 79.1891 15.9921 79.2097C15.9096 79.2304 15.8387 79.2828 15.795 79.3556C15.7513 79.4284 15.7384 79.5155 15.7591 79.5978L16.6129 82.9937C16.6303 83.0628 16.6703 83.1242 16.7266 83.1681C16.7829 83.2119 16.8523 83.2358 16.9237 83.2358Z" fill="#222433"/>
<path d="M16.9246 83.2358C16.9999 83.2357 17.0728 83.2091 17.1305 83.1608C17.1881 83.1124 17.2269 83.0454 17.2399 82.9714L17.8477 79.5317C17.8558 79.49 17.8554 79.4471 17.8468 79.4056C17.8381 79.364 17.8212 79.3246 17.797 79.2896C17.7729 79.2547 17.7421 79.2248 17.7063 79.2019C17.6705 79.1789 17.6305 79.1633 17.5886 79.1559C17.5466 79.1486 17.5037 79.1496 17.4622 79.1589C17.4207 79.1683 17.3814 79.1858 17.3468 79.2104C17.3121 79.2351 17.2827 79.2663 17.2603 79.3024C17.2379 79.3385 17.2229 79.3786 17.2162 79.4206L16.6084 82.8604C16.6003 82.9064 16.6024 82.9537 16.6145 82.9988C16.6267 83.0439 16.6486 83.0859 16.6787 83.1217C16.7089 83.1575 16.7465 83.1862 16.789 83.2059C16.8315 83.2257 16.8778 83.2358 16.9246 83.2358Z" fill="#222433"/>
<path d="M16.9246 83.2357C16.9848 83.2356 17.0439 83.2187 17.0949 83.1867C17.1459 83.1548 17.1869 83.1091 17.2131 83.055C17.2394 83.0009 17.2498 82.9406 17.2432 82.8808C17.2366 82.8211 17.2133 82.7644 17.1759 82.7173L14.9994 79.9741C14.9455 79.9109 14.8692 79.871 14.7864 79.8629C14.7037 79.8547 14.621 79.879 14.5558 79.9305C14.4907 79.982 14.4481 80.0567 14.4371 80.139C14.4261 80.2212 14.4476 80.3044 14.497 80.3712L16.673 83.1143C16.703 83.1522 16.7412 83.1828 16.7848 83.2039C16.8284 83.2249 16.8762 83.2358 16.9246 83.2357Z" fill="#222433"/>
<path d="M20.8525 101.095C19.4475 101.095 18.3085 99.9584 18.3085 98.5569C18.3085 97.1554 19.4475 96.0192 20.8525 96.0192C22.2575 96.0192 23.3965 97.1554 23.3965 98.5569C23.3965 99.9584 22.2575 101.095 20.8525 101.095Z" fill="white"/>
<path d="M20.8523 101.414C21.4188 101.414 21.9726 101.247 22.4437 100.933C22.9148 100.619 23.2819 100.173 23.4987 99.6504C23.7156 99.1283 23.7723 98.5538 23.6618 97.9995C23.5512 97.4452 23.2784 96.936 22.8778 96.5364C22.4772 96.1368 21.9668 95.8647 21.4111 95.7544C20.8554 95.6441 20.2795 95.7007 19.756 95.917C19.2326 96.1333 18.7852 96.4995 18.4705 96.9694C18.1557 97.4393 17.9877 97.9918 17.9877 98.5569C17.9886 99.3145 18.2907 100.041 18.8277 100.576C19.3647 101.112 20.0928 101.413 20.8523 101.414ZM20.8523 96.3392C21.292 96.3392 21.7218 96.4693 22.0874 96.713C22.453 96.9567 22.738 97.303 22.9062 97.7083C23.0745 98.1135 23.1185 98.5594 23.0328 98.9896C22.947 99.4198 22.7352 99.8149 22.4243 100.125C22.1134 100.435 21.7172 100.646 21.286 100.732C20.8547 100.818 20.4077 100.774 20.0015 100.606C19.5952 100.438 19.248 100.154 19.0037 99.789C18.7594 99.4243 18.629 98.9956 18.629 98.5569C18.6297 97.9689 18.8641 97.4052 19.2809 96.9894C19.6977 96.5736 20.2628 96.3397 20.8523 96.339V96.3392Z" fill="#222433"/>
</g>
<g clip-path="url(#clip10_1449:45235)">
<path d="M184.118 73.9094C185.838 74.1822 187.451 73.0166 187.723 71.306C187.994 69.5955 186.82 67.9877 185.101 67.7149C183.381 67.4422 181.767 68.6078 181.496 70.3183C181.225 72.0289 182.399 73.6367 184.118 73.9094Z" fill="white"/>
<path d="M184.068 74.2266C183.389 74.1189 182.757 73.8134 182.252 73.3487C181.747 72.884 181.392 72.281 181.231 71.6159C181.07 70.9508 181.111 70.2535 181.349 69.6122C181.586 68.9709 182.01 68.4143 182.565 68.013C183.121 67.6116 183.784 67.3834 184.471 67.3573C185.158 67.3311 185.837 67.5082 186.423 67.8661C187.009 68.224 187.476 68.7467 187.764 69.368C188.052 69.9893 188.149 70.6813 188.041 71.3566C187.897 72.2617 187.397 73.0721 186.652 73.6102C185.907 74.1482 184.978 74.3699 184.068 74.2266ZM185.05 68.0321C184.498 67.9444 183.931 68.0218 183.423 68.2544C182.915 68.487 182.488 68.8643 182.196 69.3388C181.904 69.8132 181.76 70.3634 181.782 70.9198C181.805 71.4762 181.992 72.0138 182.321 72.4646C182.651 72.9154 183.107 73.2592 183.632 73.4524C184.157 73.6457 184.727 73.6798 185.271 73.5504C185.815 73.4209 186.308 73.1338 186.688 72.7253C187.067 72.3169 187.317 71.8054 187.404 71.2555C187.52 70.5183 187.337 69.7649 186.896 69.1606C186.455 68.5563 185.791 68.1505 185.05 68.0321Z" fill="#222433"/>
<path d="M186.364 81.0386C188.084 81.3113 189.697 80.1457 189.969 78.4352C190.24 76.7246 189.066 75.1168 187.347 74.8441C185.627 74.5714 184.013 75.7369 183.742 77.4475C183.471 79.1581 184.645 80.7658 186.364 81.0386Z" fill="white"/>
<path d="M186.314 81.3557C185.635 81.2481 185.003 80.9426 184.498 80.4779C183.993 80.0132 183.638 79.4101 183.477 78.745C183.316 78.0799 183.357 77.3826 183.595 76.7413C183.832 76.1 184.256 75.5435 184.811 75.1421C185.367 74.7407 186.03 74.5125 186.717 74.4864C187.404 74.4603 188.083 74.6373 188.669 74.9952C189.255 75.3532 189.722 75.8758 190.01 76.4971C190.298 77.1184 190.395 77.8105 190.288 78.4858C190.143 79.3909 189.643 80.2013 188.898 80.7394C188.153 81.2774 187.224 81.4991 186.314 81.3557ZM187.296 75.1613C186.744 75.0736 186.177 75.1509 185.669 75.3835C185.161 75.6161 184.734 75.9935 184.442 76.4679C184.15 76.9424 184.006 77.4926 184.028 78.049C184.051 78.6054 184.238 79.143 184.567 79.5938C184.897 80.0446 185.353 80.3883 185.878 80.5816C186.403 80.7749 186.973 80.8089 187.517 80.6795C188.061 80.5501 188.554 80.263 188.934 79.8545C189.314 79.446 189.563 78.9345 189.65 78.3847C189.766 77.6474 189.583 76.8941 189.142 76.2898C188.701 75.6855 188.037 75.2796 187.296 75.1613Z" fill="#222433"/>
<path d="M180.122 80.2218C181.841 80.4945 183.455 79.329 183.726 77.6184C183.997 75.9078 182.824 74.3001 181.104 74.0273C179.385 73.7546 177.771 74.9202 177.499 76.6307C177.228 78.3413 178.402 79.9491 180.122 80.2218Z" fill="white"/>
<path d="M180.071 80.539C179.392 80.4313 178.761 80.1258 178.256 79.6611C177.751 79.1964 177.395 78.5934 177.235 77.9283C177.074 77.2632 177.115 76.5659 177.352 75.9246C177.59 75.2832 178.013 74.7267 178.569 74.3253C179.125 73.924 179.788 73.6958 180.474 73.6696C181.161 73.6435 181.84 73.8206 182.426 74.1785C183.013 74.5364 183.479 75.059 183.767 75.6803C184.055 76.3017 184.152 76.9937 184.045 77.669C183.9 78.5741 183.401 79.3845 182.656 79.9226C181.911 80.4606 180.981 80.6823 180.071 80.539ZM181.054 74.3445C180.501 74.2568 179.935 74.3342 179.427 74.5667C178.919 74.7993 178.492 75.1767 178.2 75.6512C177.908 76.1256 177.764 76.6758 177.786 77.2322C177.808 77.7886 177.996 78.3262 178.325 78.777C178.654 79.2278 179.11 79.5716 179.635 79.7648C180.16 79.9581 180.731 79.9922 181.275 79.8627C181.819 79.7333 182.312 79.4462 182.691 79.0377C183.071 78.6292 183.32 78.1177 183.407 77.5679C183.523 76.8307 183.341 76.0773 182.9 75.473C182.458 74.8687 181.794 74.4628 181.054 74.3445Z" fill="#222433"/>
<path d="M185.464 87.9505C187.183 88.2232 188.797 87.0576 189.068 85.3471C189.34 83.6365 188.166 82.0287 186.446 81.756C184.727 81.4832 183.113 82.6488 182.842 84.3594C182.57 86.0699 183.744 87.6777 185.464 87.9505Z" fill="white"/>
<path d="M185.413 88.2676C184.735 88.16 184.103 87.8545 183.598 87.3898C183.093 86.9251 182.738 86.322 182.577 85.6569C182.416 84.9918 182.457 84.2945 182.694 83.6532C182.932 83.0119 183.355 82.4554 183.911 82.054C184.467 81.6526 185.13 81.4244 185.817 81.3983C186.503 81.3722 187.183 81.5492 187.769 81.9071C188.355 82.265 188.822 82.7877 189.11 83.409C189.398 84.0303 189.494 84.7224 189.387 85.3977C189.243 86.3028 188.743 87.1132 187.998 87.6513C187.253 88.1893 186.324 88.411 185.413 88.2676ZM186.396 82.0732C185.843 81.9855 185.277 82.0628 184.769 82.2954C184.261 82.528 183.834 82.9054 183.542 83.3798C183.25 83.8543 183.106 84.4045 183.128 84.9609C183.15 85.5173 183.338 86.0549 183.667 86.5057C183.996 86.9565 184.452 87.3002 184.977 87.4935C185.502 87.6868 186.073 87.7208 186.617 87.5914C187.161 87.462 187.654 87.1749 188.034 86.7664C188.413 86.3579 188.662 85.8464 188.75 85.2966C188.866 84.5593 188.683 83.806 188.242 83.2017C187.801 82.5974 187.137 82.1915 186.396 82.0732Z" fill="#222433"/>
<path d="M179.212 87.1215C180.932 87.3942 182.546 86.2286 182.817 84.5181C183.088 82.8075 181.914 81.1997 180.195 80.927C178.475 80.6543 176.862 81.8198 176.59 83.5304C176.319 85.241 177.493 86.8487 179.212 87.1215Z" fill="white"/>
<path d="M179.162 87.4386C178.483 87.3309 177.851 87.0254 177.346 86.5607C176.842 86.096 176.486 85.493 176.325 84.8279C176.165 84.1628 176.206 83.4655 176.443 82.8241C176.68 82.1828 177.104 81.6263 177.66 81.2249C178.215 80.8236 178.878 80.5954 179.565 80.5692C180.252 80.5431 180.931 80.7202 181.517 81.0781C182.103 81.436 182.57 81.9586 182.858 82.5799C183.146 83.2012 183.243 83.8933 183.136 84.5686C182.991 85.4737 182.491 86.2841 181.746 86.8221C181.002 87.3602 180.072 87.5819 179.162 87.4386ZM180.145 81.2441C179.592 81.1564 179.026 81.2338 178.518 81.4663C178.01 81.6989 177.583 82.0763 177.29 82.5508C176.998 83.0252 176.854 83.5754 176.877 84.1318C176.899 84.6882 177.086 85.2258 177.416 85.6766C177.745 86.1274 178.201 86.4712 178.726 86.6644C179.251 86.8577 179.822 86.8918 180.366 86.7623C180.91 86.6329 181.403 86.3458 181.782 85.9373C182.162 85.5288 182.411 85.0173 182.498 84.4675C182.614 83.7303 182.432 82.9769 181.99 82.3726C181.549 81.7683 180.885 81.3624 180.145 81.2441Z" fill="#222433"/>
<path d="M178.383 118.373C178.3 118.36 178.225 118.315 178.175 118.248C178.125 118.181 178.103 118.097 178.113 118.014L184.101 72.234C184.107 72.1922 184.12 72.1519 184.142 72.1153C184.163 72.0788 184.191 72.0468 184.224 72.0211C184.292 71.9692 184.378 71.9463 184.463 71.9574C184.548 71.9685 184.625 72.0128 184.677 72.0803C184.729 72.1479 184.753 72.2334 184.742 72.3178L178.754 118.098C178.748 118.14 178.735 118.18 178.713 118.217C178.692 118.253 178.664 118.285 178.63 118.311C178.597 118.337 178.559 118.355 178.518 118.366C178.477 118.377 178.434 118.38 178.392 118.375L178.383 118.373Z" fill="#222433"/>
</g>
<g clip-path="url(#clip11_1449:45235)">
<path d="M53.7221 128.219C53.8625 128.219 53.9847 128.114 54.0037 127.969L56.7973 106.767C56.818 106.61 56.7085 106.465 56.5528 106.444C56.3968 106.423 56.254 106.534 56.2333 106.691L53.4397 127.894C53.419 128.051 53.5285 128.195 53.6842 128.216C53.6969 128.218 53.7096 128.219 53.7221 128.219Z" fill="#222433"/>
<path d="M56.5155 109.302C55.1088 109.302 53.9685 108.15 53.9685 106.729C53.9685 105.308 55.1088 104.156 56.5155 104.156C57.9222 104.156 59.0625 105.308 59.0625 106.729C59.0625 108.15 57.9222 109.302 56.5155 109.302Z" fill="#82B1FF"/>
</g>
<g clip-path="url(#clip12_1449:45235)">
<path d="M76.4302 102.3C75.8258 101.932 75.0389 102.126 74.6728 102.733C74.6725 102.734 74.6722 102.734 74.6719 102.735C75.0382 102.126 74.8439 101.334 74.238 100.966C73.6321 100.598 72.844 100.793 72.4777 101.402L69.1047 106.97L69.9853 100.512C70.0718 99.807 69.5728 99.1649 68.8709 99.078C68.1849 98.9932 67.5557 99.4704 67.4491 100.157C67.5558 99.4541 67.0756 98.7978 66.3764 98.6905C65.6773 98.5833 65.024 99.0658 64.9173 99.7682C64.9157 99.7788 64.9142 99.7893 64.9129 99.7998L64.7942 100.649L63.9963 106.375C63.7138 108.4 64.6438 110.403 66.37 111.486L66.3611 111.499C66.9824 111.871 67.6708 112.117 68.3867 112.222V112.206C70.405 112.461 72.3833 111.498 73.4362 109.749L76.4153 104.802L76.8572 104.069C77.2256 103.463 77.0354 102.671 76.4324 102.301C76.4316 102.301 76.4309 102.3 76.4302 102.3Z" fill="white"/>
<path d="M69.0267 112.547C68.835 112.547 68.6424 112.537 68.4492 112.516C68.4148 112.524 68.3789 112.525 68.3432 112.52C67.5846 112.408 66.8661 112.152 66.2075 111.757C66.1767 111.738 66.1497 111.715 66.1276 111.687C64.3568 110.531 63.4057 108.441 63.6998 106.334L64.6212 99.7232C64.7527 98.8578 65.56 98.2617 66.4214 98.3933C66.9415 98.4731 67.364 98.8007 67.5881 99.2383C67.9201 98.8997 68.3994 98.7171 68.9073 98.7797C69.7719 98.8867 70.3886 99.6804 70.2821 100.549L69.5959 105.581L72.2218 101.246C72.6724 100.497 73.6464 100.256 74.3926 100.709C74.8433 100.983 75.1094 101.448 75.15 101.939C75.2272 101.906 75.3076 101.88 75.3906 101.859C75.8002 101.758 76.2244 101.823 76.585 102.043C76.5859 102.044 76.5869 102.044 76.5878 102.045C76.5881 102.045 76.5889 102.045 76.5892 102.046L76.5891 102.046C77.3328 102.508 77.5643 103.482 77.1122 104.225L73.692 109.905C72.6976 111.556 70.9167 112.547 69.0267 112.547ZM68.3864 111.906C68.3988 111.906 68.4113 111.906 68.4236 111.908C70.3224 112.147 72.1895 111.239 73.18 109.594L76.601 103.913C76.8834 103.448 76.7374 102.841 76.2762 102.558L76.4301 102.3L76.2751 102.557C76.0511 102.421 75.7878 102.38 75.5333 102.443C75.2795 102.506 75.065 102.664 74.9293 102.888C74.9288 102.889 74.9283 102.89 74.9278 102.89C74.8425 103.032 74.6589 103.078 74.5174 102.992C74.3873 102.914 74.3381 102.751 74.3976 102.615C74.4027 102.603 74.4088 102.591 74.4158 102.579C74.6962 102.113 74.547 101.505 74.0832 101.223C73.6193 100.942 73.014 101.092 72.7337 101.558L69.3601 107.127C69.2864 107.248 69.1379 107.302 69.0044 107.254C68.8708 107.206 68.789 107.071 68.8081 106.93L69.6888 100.471C69.7203 100.214 69.6491 99.9558 69.4878 99.7483C69.3265 99.5408 69.0944 99.4086 68.8342 99.3765C68.3057 99.3106 67.8268 99.6741 67.7446 100.203C67.7192 100.367 67.5663 100.479 67.4033 100.454C67.2403 100.429 67.1283 100.275 67.1532 100.111C67.2349 99.5739 66.8661 99.0698 66.3311 98.9879C65.7963 98.9056 65.2946 99.2762 65.2129 99.8138L65.0903 100.691L64.2924 106.417C64.0265 108.322 64.9042 110.212 66.5283 111.231C66.5536 111.247 66.5762 111.266 66.5955 111.289C67.1363 111.6 67.7207 111.809 68.3354 111.91C68.3521 111.907 68.3692 111.906 68.3864 111.906Z" fill="#222433"/>
<path d="M72.1178 107.275C72.0651 107.275 72.0117 107.261 71.9632 107.232C71.8219 107.146 71.7765 106.961 71.8621 106.819L74.4682 102.491C74.5537 102.349 74.7377 102.304 74.8791 102.39C75.0204 102.475 75.0658 102.66 74.9802 102.802L72.3741 107.13C72.3179 107.224 72.219 107.275 72.1178 107.275Z" fill="#222433"/>
<path d="M61.8618 127.75C61.8286 127.75 61.7947 127.745 61.7616 127.733C61.6059 127.677 61.5245 127.505 61.5799 127.349L67.8171 109.718C67.8724 109.561 68.0436 109.479 68.1992 109.535C68.3549 109.591 68.4362 109.763 68.3809 109.919L62.1438 127.55C62.1002 127.673 61.9849 127.75 61.8618 127.75Z" fill="#222433"/>
<path d="M66.7689 105.364C66.7551 105.364 66.7411 105.363 66.7271 105.361C66.5634 105.338 66.4493 105.186 66.4721 105.022L67.1693 100.013C67.1921 99.8482 67.3429 99.7339 67.5071 99.7565C67.6708 99.7795 67.7849 99.9315 67.762 100.096L67.0649 105.105C67.0438 105.255 66.9157 105.364 66.7689 105.364Z" fill="#222433"/>
<path d="M67.3422 112.259C67.309 112.259 67.2751 112.254 67.242 112.242C67.0863 112.186 67.005 112.014 67.0603 111.858L68.8256 106.87C68.881 106.713 69.0521 106.632 69.2078 106.687C69.3635 106.743 69.4449 106.915 69.3895 107.071L67.6242 112.059C67.5806 112.183 67.4653 112.259 67.3422 112.259Z" fill="#222433"/>
</g>
<defs>
<clipPath id="clip0_1449:45235">
<rect width="163.281" height="25.7812" fill="white" transform="translate(16.3345 127.402) rotate(-8.56886)"/>
</clipPath>
<clipPath id="clip1_1449:45235">
<rect width="6.71875" height="6.71875" fill="white" transform="translate(167.812 46.5)"/>
</clipPath>
<clipPath id="clip2_1449:45235">
<rect width="92.8125" height="94.375" fill="white" transform="translate(78.2812 34)"/>
</clipPath>
<clipPath id="clip3_1449:45235">
<rect width="55.7812" height="59.375" fill="white" transform="translate(34.375 35.875)"/>
</clipPath>
<clipPath id="clip4_1449:45235">
<rect width="7.96875" height="7.96874" fill="white" transform="translate(74.375 54.7812)"/>
</clipPath>
<clipPath id="clip5_1449:45235">
<rect width="25" height="22.6563" fill="white" transform="translate(50.1562 64.9375)"/>
</clipPath>
<clipPath id="clip6_1449:45235">
<rect width="8.75" height="8.75" fill="white" transform="translate(58.125 50.0938)"/>
</clipPath>
<clipPath id="clip7_1449:45235">
<rect width="8.28125" height="8.28125" fill="white" transform="translate(43.2812 54.1562)"/>
</clipPath>
<clipPath id="clip8_1449:45235">
<rect width="8.90626" height="18.125" fill="white" transform="translate(30.9375 109.312)"/>
</clipPath>
<clipPath id="clip9_1449:45235">
<rect width="14.8438" height="48.5938" fill="white" transform="matrix(-1 0 0 1 28.4375 79.1562)"/>
</clipPath>
<clipPath id="clip10_1449:45235">
<rect width="13.4375" height="51.4063" fill="white" transform="translate(178.797 66.3899) rotate(9.01322)"/>
</clipPath>
<clipPath id="clip11_1449:45235">
<rect width="5.625" height="24.0625" fill="white" transform="matrix(-1 0 0 1 59.0625 104.156)"/>
</clipPath>
<clipPath id="clip12_1449:45235">
<rect width="15.7812" height="29.375" fill="white" transform="translate(61.5625 98.375)"/>
</clipPath>
</defs>
</svg>
