<svg viewBox="0 0 240 135" fill="none" xmlns="http://www.w3.org/2000/svg">
<g clip-path="url(#clip0)">
<g clip-path="url(#clip1)">
<path d="M132.149 111.874C131.434 114.465 129.532 116.365 126.915 117.626C123.322 119.357 120.219 120.555 120.219 120.555C118.744 120.927 117.45 121.811 116.567 123.048C115.683 124.285 115.267 125.795 115.394 127.31L133.022 127.308L149.078 127.312L149.091 115.072" fill="white"/>
<path d="M149.078 127.687L133.022 127.683L115.394 127.685C115.299 127.685 115.209 127.65 115.139 127.586C115.07 127.522 115.027 127.435 115.019 127.341C114.881 125.741 115.317 124.144 116.248 122.835C117.179 121.527 118.546 120.591 120.103 120.197C120.379 120.089 123.366 118.919 126.751 117.288C129.44 115.993 131.134 114.138 131.787 111.774C131.813 111.678 131.877 111.597 131.964 111.548C132.05 111.499 132.153 111.486 132.249 111.513C132.345 111.539 132.427 111.603 132.476 111.689C132.525 111.776 132.538 111.879 132.511 111.975C131.808 114.52 129.929 116.591 127.078 117.964C123.513 119.682 120.385 120.893 120.353 120.905C120.339 120.911 120.324 120.915 120.31 120.919C118.977 121.252 117.798 122.03 116.968 123.124C116.139 124.218 115.708 125.562 115.748 126.934L133.021 126.932L148.702 126.937L148.714 115.071C148.714 114.972 148.754 114.876 148.824 114.806C148.895 114.736 148.99 114.696 149.09 114.696C149.19 114.696 149.285 114.736 149.356 114.806C149.426 114.876 149.466 114.972 149.466 115.071L149.453 127.312C149.453 127.411 149.414 127.507 149.343 127.577C149.273 127.648 149.177 127.687 149.078 127.687Z" fill="#262D30"/>
<path d="M196.796 112.079C198.798 113.95 199.59 116.52 199.903 118.287C199.991 118.796 199.92 119.32 199.698 119.787C199.476 120.254 199.115 120.64 198.664 120.894C196.579 122.092 195.53 124.413 195.781 127.147L206.546 127.178L215.968 111.685L219.374 105.977L204.506 97.101" fill="white"/>
<path d="M206.546 127.554H206.545L195.78 127.522C195.687 127.522 195.597 127.487 195.528 127.424C195.459 127.361 195.416 127.274 195.407 127.181C195.142 124.298 196.29 121.825 198.477 120.568C198.86 120.353 199.168 120.024 199.357 119.627C199.546 119.23 199.607 118.785 199.533 118.351C199.223 116.602 198.452 114.141 196.54 112.353C196.467 112.285 196.425 112.191 196.421 112.092C196.418 111.992 196.454 111.895 196.522 111.823C196.591 111.75 196.685 111.707 196.784 111.704C196.884 111.701 196.981 111.737 197.053 111.805C199.117 113.734 199.943 116.359 200.274 118.222C200.374 118.808 200.292 119.41 200.036 119.947C199.781 120.484 199.366 120.928 198.848 121.22C196.982 122.293 196.002 124.305 196.131 126.772L206.335 126.802L215.647 111.49L218.859 106.107L204.313 97.4222C204.27 97.3974 204.232 97.3642 204.202 97.3246C204.172 97.285 204.15 97.2397 204.137 97.1915C204.124 97.1433 204.122 97.0931 204.129 97.0438C204.136 96.9945 204.152 96.9471 204.178 96.9043C204.204 96.8615 204.237 96.8243 204.278 96.7947C204.318 96.7651 204.363 96.7439 204.412 96.7321C204.46 96.7203 204.51 96.7183 204.56 96.7261C204.609 96.734 204.656 96.7515 204.698 96.7778L219.567 105.654C219.652 105.705 219.714 105.788 219.739 105.884C219.763 105.981 219.748 106.083 219.697 106.168L216.291 111.876L206.867 127.373C206.834 127.429 206.786 127.474 206.73 127.506C206.674 127.537 206.611 127.554 206.546 127.554Z" fill="#262D30"/>
<path d="M182.542 81.7138L179.829 61.1386C180.5 59.5102 180.716 57.7303 180.453 55.9891C180.19 54.2478 179.458 52.6108 178.336 51.2529C178.336 51.2529 177.522 54.9858 176.66 59.2057C175.736 63.7356 174.646 68.8232 171.09 70.3375C168.116 71.6033 164.058 68.4078 160.902 65.7807C158.487 63.7712 156.506 62.2769 156.506 62.2769C156.514 62.2943 156.522 62.3113 156.53 62.3287L151.466 58.5574L137.58 70.6454C135.32 72.3652 133.63 76.0877 133.144 78.8844C130.831 92.7332 129.643 102.1 127.33 115.949C139.969 117.444 149.872 118.067 149.872 118.067L154.742 83.4027L159.499 79.897L157.305 63.8506C157.386 63.9856 157.468 64.1199 157.553 64.251L160.965 90.436C161.198 92.2325 161.863 93.9461 162.901 95.4312C163.939 96.9163 165.321 98.1289 166.928 98.9662L196.485 114.356L206.893 94.3926L182.542 81.7138Z" fill="#3366CC"/>
<path d="M154.65 83.4068C154.635 83.4068 154.62 83.4059 154.605 83.4042C154.556 83.3984 154.509 83.383 154.466 83.3589C154.423 83.3348 154.385 83.3025 154.355 83.2637C154.324 83.225 154.301 83.1806 154.288 83.1332C154.275 83.0857 154.271 83.0361 154.277 82.9871L154.709 79.3495C154.714 79.3002 154.729 79.2525 154.753 79.2091C154.777 79.1658 154.81 79.1276 154.848 79.0967C154.887 79.0659 154.932 79.0431 154.98 79.0295C155.027 79.016 155.077 79.012 155.126 79.0179C155.176 79.0237 155.223 79.0392 155.266 79.0636C155.31 79.0879 155.348 79.1205 155.378 79.1595C155.409 79.1986 155.431 79.2433 155.444 79.2911C155.457 79.3389 155.461 79.3888 155.455 79.4379L155.023 83.0756C155.012 83.1668 154.968 83.2508 154.899 83.3119C154.831 83.3729 154.742 83.4067 154.65 83.4068Z" fill="#262D30"/>
<path d="M182.513 82.1171C182.452 82.1172 182.391 82.1024 182.337 82.0738L178.848 80.2396C178.762 80.1921 178.698 80.1127 178.669 80.0185C178.641 79.9242 178.651 79.8227 178.697 79.7357C178.743 79.6486 178.821 79.5831 178.915 79.5532C179.009 79.5233 179.111 79.5313 179.198 79.5756L182.688 81.41C182.762 81.449 182.822 81.5119 182.856 81.5885C182.89 81.6651 182.898 81.751 182.878 81.8325C182.858 81.9141 182.811 81.9865 182.745 82.0382C182.678 82.0899 182.597 82.1179 182.513 82.1177L182.513 82.1171Z" fill="#262D30"/>
<path d="M124.556 52.2398C124.556 52.2398 123.805 54.4922 126.935 56.119L142.171 62.3148C143.232 62.7323 144.388 62.8521 145.512 62.6613C146.637 62.4706 147.688 61.9764 148.552 61.2322L151.903 58.6545L165.233 69.2817C166.342 70.1672 167.72 70.649 169.14 70.6478V70.6528C170.576 70.652 171.968 70.1579 173.083 69.2535C174.197 68.349 174.967 67.0891 175.263 65.6849L183.01 45.8979C183.457 44.755 183.65 43.5282 183.573 42.3033C183.497 41.0784 183.154 39.8849 182.568 38.8064C181.982 37.7278 181.167 36.7901 180.181 36.059C179.194 35.3278 178.06 34.8207 176.857 34.5732L171 34.0928L161.483 34.2218C161.199 34.2183 159.934 34.2544 159.105 34.3308C158.195 34.4139 157.315 34.6943 156.526 35.1525C155.736 35.6107 155.056 36.2356 154.533 36.9836L150.668 42.5195L148.349 45.6077L139.574 46.619L131.717 43.9873C130.65 43.5659 129.487 43.447 128.356 43.6437L126.059 47.235L124.556 52.2398Z" fill="white"/>
<path d="M169.139 71.0279C169.118 71.0279 169.098 71.0262 169.077 71.0227C167.593 71.0081 166.158 70.4985 164.997 69.5747L151.898 59.1311L148.788 61.5236C147.873 62.3097 146.76 62.8314 145.569 63.0324C144.379 63.2334 143.156 63.106 142.033 62.6642L126.793 56.4667C126.782 56.4623 126.772 56.4575 126.761 56.4521C123.498 54.7564 124.141 52.3161 124.196 52.1319L125.698 47.1265C125.708 47.0933 125.723 47.0616 125.742 47.0323L128.039 43.441C128.067 43.397 128.104 43.3594 128.147 43.3306C128.191 43.3017 128.24 43.2822 128.291 43.2733C129.486 43.0662 130.716 43.191 131.845 43.6339L139.614 46.2367L148.145 45.2534L150.363 42.3002L154.225 36.7693C154.778 35.9758 155.499 35.313 156.336 34.8272C157.173 34.3414 158.106 34.0445 159.07 33.9572C159.894 33.8814 161.17 33.8425 161.488 33.8469L170.995 33.7179C171.007 33.7176 171.019 33.718 171.031 33.7191L176.888 34.1994C176.903 34.2006 176.918 34.2028 176.933 34.2058C178.189 34.4643 179.374 34.994 180.404 35.7577C181.435 36.5215 182.286 37.5009 182.898 38.6275C183.51 39.7541 183.868 41.0006 183.948 42.2801C184.028 43.5595 183.827 44.8409 183.36 46.0347L175.624 65.7935C175.299 67.2727 174.48 68.5971 173.301 69.5487C172.122 70.5003 170.654 71.0223 169.139 71.0285L169.139 71.0279ZM169.139 70.2721C169.159 70.2721 169.179 70.2737 169.199 70.2768C170.537 70.2579 171.829 69.7857 172.864 68.9374C173.899 68.0892 174.616 66.9152 174.896 65.6073C174.901 65.5871 174.907 65.5672 174.914 65.5479L182.661 45.7608C183.088 44.6706 183.272 43.5005 183.2 42.332C183.128 41.1636 182.801 40.0249 182.244 38.9953C181.686 37.9657 180.911 37.0699 179.971 36.3705C179.032 35.671 177.951 35.1847 176.804 34.9454L170.988 34.4684L161.489 34.5972C161.231 34.5945 159.969 34.6282 159.14 34.7045C158.285 34.7819 157.457 35.0453 156.715 35.4761C155.972 35.9069 155.333 36.4948 154.842 37.1986L150.976 42.7343C150.974 42.7379 150.971 42.7414 150.969 42.7448L148.649 45.833C148.619 45.8738 148.58 45.908 148.536 45.9333C148.491 45.9587 148.442 45.9748 148.392 45.9807L139.617 46.992C139.562 46.9984 139.507 46.9926 139.454 46.975L131.597 44.3432C131.591 44.3412 131.584 44.3389 131.579 44.3367C130.627 43.9617 129.594 43.8414 128.581 43.9877L126.403 47.3925L124.915 52.3478L124.913 52.3561C124.888 52.4361 124.324 54.3316 127.093 55.7781L142.311 61.9671C143.018 62.2459 143.773 62.3841 144.532 62.374C145.919 62.3566 147.255 61.8517 148.306 60.9481C148.311 60.9436 148.316 60.9392 148.322 60.9355L151.673 58.3578C151.739 58.3066 151.821 58.2791 151.905 58.2798C151.989 58.2805 152.07 58.3093 152.136 58.3616L165.466 68.988C166.508 69.8178 167.801 70.2705 169.134 70.2721C169.136 70.272 169.138 70.272 169.139 70.2721Z" fill="#262D30"/>
<path d="M167.539 20.202C167.639 19.3447 168.012 18.5424 168.604 17.914C169.196 17.2856 169.975 16.8644 170.825 16.713C171.676 16.5615 172.552 16.6878 173.325 17.0732C174.098 17.4585 174.726 18.0824 175.116 18.8523C175.506 19.6223 175.637 20.4974 175.491 21.3479C175.344 22.1984 174.927 22.9791 174.302 23.5743C173.676 24.1695 172.876 24.5475 172.019 24.6523C171.161 24.7571 170.293 24.5832 169.542 24.1562" fill="white"/>
<path d="M151.902 59.0295C151.824 59.0296 151.748 59.0053 151.685 58.9602L148.68 56.829C148.675 56.8262 148.671 56.823 148.667 56.8199C147.861 56.1936 147.211 55.3897 146.767 54.4709C146.324 53.5522 146.098 52.5433 146.109 51.5232C146.11 51.4739 146.12 51.4252 146.139 51.3799C146.159 51.3346 146.187 51.2936 146.222 51.2592C146.258 51.2248 146.299 51.1976 146.345 51.1794C146.391 51.1611 146.44 51.152 146.489 51.1526C146.539 51.1533 146.587 51.1636 146.633 51.183C146.678 51.2025 146.719 51.2307 146.754 51.266C146.788 51.3013 146.815 51.343 146.833 51.3888C146.852 51.4346 146.861 51.4835 146.86 51.5328C146.851 52.4354 147.05 53.328 147.442 54.1412C147.834 54.9544 148.409 55.6662 149.121 56.2214L152.119 58.3479C152.184 58.394 152.233 58.4596 152.258 58.5352C152.284 58.6108 152.284 58.6924 152.26 58.7683C152.236 58.8442 152.188 58.9104 152.124 58.9574C152.059 59.0044 151.981 59.0296 151.902 59.0295H151.902Z" fill="#262D30"/>
<path d="M165.101 53.5506C165.016 53.5507 164.934 53.5218 164.867 53.4688L156.474 46.78C155.751 46.2025 154.881 45.8358 153.963 45.7202C153.913 45.7143 153.866 45.6987 153.823 45.6744C153.78 45.65 153.742 45.6174 153.712 45.5785C153.681 45.5395 153.659 45.4949 153.646 45.4472C153.632 45.3995 153.629 45.3497 153.635 45.3007C153.641 45.2516 153.657 45.2043 153.682 45.1613C153.706 45.1184 153.739 45.0807 153.778 45.0505C153.817 45.0202 153.862 44.998 153.91 44.9851C153.957 44.9722 154.007 44.9689 154.056 44.9753C155.112 45.1081 156.111 45.5295 156.943 46.1931L164.859 52.502L166.534 44.5418C166.543 44.493 166.562 44.4467 166.59 44.4054C166.618 44.3641 166.653 44.3287 166.695 44.3012C166.736 44.2738 166.783 44.2549 166.832 44.2456C166.881 44.2362 166.931 44.2367 166.98 44.2469C167.028 44.2572 167.074 44.277 167.115 44.3052C167.156 44.3334 167.191 44.3694 167.218 44.4112C167.245 44.453 167.263 44.4998 167.272 44.5487C167.281 44.5977 167.28 44.6479 167.269 44.6964L165.469 53.2526C165.451 53.3369 165.405 53.4126 165.338 53.4669C165.271 53.5212 165.188 53.5507 165.101 53.5506Z" fill="#262D30"/>
<path d="M160.919 90.8426C160.827 90.8425 160.739 90.8093 160.671 90.7491C160.603 90.6889 160.558 90.6059 160.547 90.5156L156.966 63.036C156.96 62.9871 156.963 62.9374 156.976 62.8898C156.989 62.8422 157.011 62.7976 157.041 62.7585C157.071 62.7195 157.108 62.6867 157.151 62.6621C157.194 62.6375 157.241 62.6216 157.29 62.6152C157.389 62.6023 157.489 62.6292 157.568 62.69C157.607 62.72 157.639 62.7575 157.664 62.8002C157.689 62.843 157.705 62.8901 157.711 62.939L161.292 90.4186C161.304 90.5173 161.278 90.6171 161.217 90.696C161.156 90.7748 161.066 90.8264 160.968 90.8393C160.951 90.8414 160.935 90.8426 160.919 90.8426Z" fill="#262D30"/>
<path d="M126.009 46.5219C124.219 45.7979 123.139 43.8718 121.52 42.3372C119.277 40.2166 118.028 38.6441 118.19 37.9183C118.556 36.2496 121.709 39.5301 125.433 41.3529L125.489 41.3771C125.753 41.4902 126.009 41.6213 126.255 41.7694C127.495 42.4981 128.68 43.3151 129.803 44.2141C132.401 46.3413 130.014 50.9756 127.747 51.9916C126.899 52.3657 125.957 52.4719 125.047 52.2961C124.137 52.1203 123.302 51.6708 122.655 51.0078C120.958 49.2504 120.319 47.4454 116.571 47.8686C114.879 48.0598 112.379 48.6178 112.261 46.9406C112.18 45.7779 115.082 44.998 117.201 44.3443C114.057 43.8606 109.94 43.2209 110.066 41.7224C110.192 40.2239 113.225 40.3989 117.296 41.0584C112.953 39.5162 110.459 39.3309 110.742 37.9056C111.037 36.4235 114.755 36.9138 118.189 37.9244" fill="white"/>
<path d="M125.912 52.7574C125.255 52.7551 124.606 52.6227 124.001 52.3678C123.396 52.1129 122.848 51.7407 122.388 51.2727C122.071 50.9442 121.797 50.622 121.531 50.3115C120.345 48.9215 119.488 47.9176 116.613 48.2417C116.413 48.2642 116.202 48.2917 115.985 48.3205C114.681 48.4918 113.203 48.686 112.41 48.0388C112.252 47.9073 112.123 47.7437 112.033 47.559C111.943 47.3742 111.893 47.1724 111.887 46.9669C111.805 45.7978 113.567 45.0879 115.547 44.46C112.05 43.8702 109.566 43.1888 109.692 41.6905C109.705 41.5053 109.758 41.325 109.847 41.162C109.936 40.999 110.059 40.857 110.207 40.7456C110.774 40.3032 111.782 40.1278 113.452 40.2178C111.351 39.5686 110.124 39.0853 110.374 37.8317C110.411 37.6532 110.486 37.4847 110.594 37.3375C110.702 37.1903 110.84 37.0678 110.999 36.9782C112.473 36.0871 116.144 36.9531 117.968 37.4696C118.058 37.3237 118.192 37.2106 118.351 37.1467C119.066 36.861 120.157 37.5972 121.807 38.7117C122.938 39.475 124.218 40.3397 125.59 41.012L125.638 41.0325C125.918 41.1525 126.189 41.2915 126.449 41.4485C127.704 42.1865 128.905 43.0138 130.041 43.9239C131.035 44.7383 131.458 45.9356 131.265 47.3866C130.996 49.4039 129.487 51.6234 127.901 52.3343C127.275 52.6127 126.597 52.7569 125.912 52.7574ZM117.587 47.4323C120.062 47.4323 121.057 48.5983 122.103 49.8245C122.361 50.1268 122.628 50.4394 122.925 50.7474C123.519 51.3555 124.284 51.7677 125.119 51.9287C125.953 52.0898 126.817 51.9919 127.594 51.6483C128.945 51.0429 130.285 49.0455 130.52 47.2873C130.63 46.4645 130.553 45.3139 129.564 44.5044C128.456 43.617 127.285 42.8103 126.06 42.0907C125.829 41.9517 125.589 41.8286 125.341 41.7224L125.284 41.6982C125.279 41.6959 125.273 41.6932 125.268 41.6906C123.846 40.9947 122.539 40.1124 121.387 39.3341C120.313 38.6083 118.976 37.7063 118.631 37.844C118.604 37.8546 118.576 37.914 118.557 37.9991C118.526 38.1409 118.534 38.9971 121.778 42.0646C122.31 42.5847 122.816 43.131 123.293 43.7016C124.193 44.7428 125.042 45.7261 126.151 46.1743C126.197 46.1923 126.24 46.2193 126.276 46.2538C126.312 46.2883 126.34 46.3296 126.36 46.3753C126.38 46.421 126.39 46.4702 126.391 46.5199C126.391 46.5697 126.382 46.6191 126.363 46.6652C126.345 46.7114 126.317 46.7533 126.282 46.7887C126.247 46.824 126.205 46.8521 126.159 46.8711C126.113 46.8902 126.064 46.9 126.014 46.8998C125.964 46.8996 125.915 46.8896 125.869 46.8702C124.592 46.354 123.685 45.304 122.725 44.1923C122.265 43.66 121.789 43.1095 121.262 42.6097C118.553 40.048 117.886 38.8682 117.808 38.2044C114.749 37.3325 112.246 37.1022 111.388 37.621C111.318 37.6559 111.257 37.7062 111.209 37.7681C111.161 37.83 111.128 37.9019 111.111 37.9785C110.978 38.6496 111.979 38.9848 114.257 39.6789C115.176 39.959 116.218 40.2766 117.422 40.7043C117.511 40.7357 117.584 40.799 117.628 40.8816C117.672 40.9643 117.683 41.0605 117.66 41.1512C117.637 41.2419 117.581 41.3207 117.502 41.372C117.424 41.4233 117.329 41.4435 117.236 41.4286C114.861 41.0438 111.595 40.6152 110.671 41.3375C110.604 41.3857 110.549 41.4479 110.509 41.5198C110.47 41.5917 110.446 41.6715 110.441 41.7534C110.404 42.1938 111.14 42.6555 112.513 43.0536C113.907 43.4578 115.765 43.7438 117.259 43.9737C117.343 43.9866 117.42 44.0277 117.477 44.09C117.535 44.1524 117.57 44.2325 117.576 44.3172C117.582 44.4018 117.559 44.4861 117.512 44.5563C117.464 44.6264 117.393 44.6783 117.312 44.7034C117.142 44.7558 116.968 44.809 116.79 44.863C115.217 45.3418 112.583 46.143 112.637 46.9152C112.637 47.0183 112.659 47.1202 112.702 47.2139C112.745 47.3076 112.808 47.3909 112.886 47.4581C113.427 47.9 114.792 47.7209 115.888 47.5767C116.11 47.5475 116.326 47.5193 116.53 47.4962C116.881 47.4551 117.234 47.4338 117.587 47.4323Z" fill="#262D30"/>
<path d="M170.911 34.8634C170.913 36.0837 170.434 37.2559 169.578 38.1261C168.722 38.9964 167.558 39.4947 166.337 39.5132C165.116 39.5317 163.936 39.0689 163.054 38.225C162.172 37.3811 161.658 36.224 161.623 35.0042V34.9983L161.606 34.3403L161.534 31.7603C160.332 31.4353 159.233 30.8101 158.339 29.9437C157.445 29.0772 156.787 27.9979 156.425 26.8072C156.064 25.6165 156.011 24.3534 156.273 23.1368C156.534 21.9202 157.1 20.79 157.919 19.8524C157.698 19.3074 157.543 18.7378 157.458 18.1558V18.1534C157.238 16.7077 157.458 15.2293 158.088 13.9096L162.102 13.3241L167.361 14.0728L168.489 17.2011L170.242 16.0743" fill="white"/>
<path d="M166.26 39.8859C164.954 39.8849 163.701 39.3756 162.765 38.4663C161.83 37.5569 161.285 36.319 161.248 35.0152L161.166 32.045C159.957 31.6703 158.859 31.0043 157.968 30.1057C157.078 29.2071 156.422 28.1033 156.058 26.8917C155.695 25.6801 155.635 24.3978 155.884 23.1578C156.134 21.9177 156.684 20.7579 157.488 19.7805C157.128 18.8083 156.966 17.7742 157.011 16.7386C157.056 15.703 157.306 14.6867 157.748 13.749C157.775 13.6934 157.815 13.6451 157.865 13.6085C157.914 13.5719 157.972 13.5481 158.033 13.5392L162.047 12.9536C162.083 12.9484 162.119 12.9484 162.154 12.9536L167.414 13.7022C167.481 13.7118 167.545 13.7397 167.598 13.7827C167.651 13.8258 167.691 13.8824 167.714 13.9466L168.683 16.631L170.038 15.7592C170.08 15.7322 170.126 15.7136 170.175 15.7046C170.224 15.6955 170.274 15.6962 170.322 15.7066C170.371 15.7169 170.417 15.7367 170.457 15.7649C170.498 15.793 170.533 15.8289 170.56 15.8706C170.586 15.9122 170.605 15.9587 170.613 16.0074C170.622 16.0561 170.621 16.1061 170.611 16.1544C170.6 16.2028 170.58 16.2485 170.551 16.2891C170.523 16.3296 170.487 16.3641 170.445 16.3906L168.692 17.5176C168.644 17.5481 168.591 17.5676 168.534 17.5744C168.478 17.5813 168.422 17.5755 168.368 17.5574C168.315 17.5393 168.266 17.5094 168.226 17.4698C168.185 17.4303 168.154 17.3822 168.135 17.3291L167.083 14.4135L162.101 13.7044L158.344 14.2517C157.809 15.4586 157.631 16.7928 157.829 18.0976C157.829 18.1018 157.831 18.1085 157.832 18.1129C157.912 18.6611 158.058 19.1977 158.267 19.7112C158.293 19.7755 158.301 19.8459 158.289 19.9144C158.278 19.9828 158.248 20.0468 158.202 20.0991C157.425 20.9888 156.888 22.0612 156.64 23.2156C156.392 24.3699 156.442 25.5684 156.785 26.6982C157.128 27.828 157.753 28.8521 158.601 29.6742C159.448 30.4964 160.492 31.0896 161.632 31.398C161.71 31.4191 161.779 31.4647 161.829 31.5281C161.879 31.5915 161.907 31.6694 161.91 31.75L161.999 34.9882C162.03 36.1095 162.502 37.1735 163.312 37.9498C164.122 38.7261 165.206 39.1523 166.328 39.1359C167.451 39.1196 168.522 38.6621 169.309 37.8626C170.096 37.0631 170.537 35.9858 170.535 34.864C170.535 34.7645 170.575 34.669 170.645 34.5986C170.716 34.5282 170.811 34.4886 170.911 34.4886C171.01 34.4886 171.106 34.5281 171.176 34.5984C171.247 34.6686 171.286 34.7639 171.286 34.8634C171.296 36.1731 170.789 37.4339 169.876 38.3735C168.963 39.313 167.717 39.8558 166.406 39.8846C166.357 39.8853 166.308 39.8859 166.26 39.8859Z" fill="#262D30"/>
<path d="M172.404 16.6686C172.316 14.9511 171.655 13.3126 170.525 12.0149C169.396 10.7173 167.864 9.83552 166.174 9.51051C164.484 9.1855 162.734 9.43604 161.203 10.2221C159.672 11.0081 158.45 12.2843 157.73 13.8465C157.706 13.8994 157.695 13.9574 157.699 14.0154C157.702 14.0735 157.72 14.1297 157.751 14.1791C157.782 14.2284 157.824 14.2694 157.875 14.2982C157.926 14.3271 157.982 14.343 158.041 14.3445L166.218 14.5507C166.521 14.5597 166.808 14.6876 167.017 14.9068C167.226 15.1259 167.34 15.4185 167.334 15.7212L167.23 20.2045C167.23 20.2045 168.209 18.3286 168.716 17.852C170.534 16.1448 172.404 16.6686 172.404 16.6686Z" fill="#3366CC"/>
<path d="M170.911 35.2387C170.812 35.2387 170.717 35.1997 170.646 35.1302C170.576 35.0606 170.536 34.9662 170.535 34.8673L170.425 24.6827C170.425 24.6334 170.434 24.5845 170.452 24.5387C170.471 24.493 170.498 24.4513 170.533 24.4161C170.567 24.3808 170.608 24.3527 170.654 24.3334C170.699 24.314 170.748 24.3038 170.797 24.3032C170.846 24.3027 170.895 24.3119 170.941 24.3303C170.987 24.3486 171.029 24.3758 171.064 24.4103C171.099 24.4448 171.127 24.4859 171.147 24.5312C171.166 24.5766 171.176 24.6253 171.177 24.6746L171.286 34.8593C171.287 34.9086 171.278 34.9575 171.259 35.0033C171.241 35.049 171.214 35.0907 171.179 35.1259C171.145 35.1612 171.104 35.1893 171.058 35.2086C171.013 35.228 170.964 35.2382 170.915 35.2387H170.911Z" fill="#262D30"/>
<path d="M169.755 23.8605C168.655 23.3117 167.936 22.4228 167.935 20.2306C167.935 20.0554 167.272 20.0463 167.272 20.0463L165.253 23.7978C163.212 21.7081 160.862 21.8851 159.568 21.9834C157.446 22.144 155.934 23.8143 155.871 23.8854C155.819 23.9432 155.788 24.0164 155.783 24.0935C155.77 24.2723 155.763 24.4534 155.762 24.6316C155.756 26.671 156.561 28.6294 157.999 30.076C159.438 31.5227 161.393 32.339 163.434 32.3454H163.461C165.496 32.3421 167.448 31.534 168.889 30.0977C170.33 28.6615 171.144 26.7137 171.153 24.6798C171.153 24.6798 170.176 24.0707 169.755 23.8605Z" fill="#3366CC"/>
<path d="M163.579 19.9913C164.007 19.9913 164.354 19.6448 164.354 19.2174C164.354 18.7901 164.007 18.4436 163.579 18.4436C163.152 18.4436 162.805 18.7901 162.805 19.2174C162.805 19.6448 163.152 19.9913 163.579 19.9913Z" fill="#262D30"/>
<path d="M158.173 19.9701C158.601 19.9701 158.948 19.6237 158.948 19.1963C158.948 18.7689 158.601 18.4225 158.173 18.4225C157.746 18.4225 157.399 18.7689 157.399 19.1963C157.399 19.6237 157.746 19.9701 158.173 19.9701Z" fill="#262D30"/>
<path d="M159.594 21.8249C159.539 21.8249 159.485 21.8128 159.435 21.7895C159.385 21.7662 159.341 21.7322 159.306 21.69C159.271 21.6477 159.245 21.5983 159.231 21.5451C159.217 21.4919 159.215 21.4363 159.225 21.3822L159.824 18.0944C159.845 17.9989 159.902 17.9152 159.983 17.8608C160.064 17.8065 160.163 17.7859 160.259 17.8035C160.355 17.821 160.441 17.8752 160.498 17.9547C160.554 18.0341 160.578 18.1325 160.563 18.229L160.05 21.0468L161.653 20.9532C161.752 20.9474 161.85 20.9813 161.924 21.0475C161.999 21.1137 162.044 21.2067 162.05 21.3061C162.056 21.4055 162.022 21.5032 161.955 21.5776C161.889 21.652 161.796 21.6971 161.697 21.7029L159.617 21.8243C159.609 21.8248 159.602 21.8249 159.594 21.8249Z" fill="#262D30"/>
<path d="M171.575 25.0678C170.812 25.068 170.062 24.8699 169.399 24.4928C169.356 24.4685 169.318 24.4359 169.288 24.3969C169.258 24.358 169.235 24.3134 169.222 24.2657C169.209 24.218 169.205 24.1682 169.211 24.1192C169.218 24.0701 169.233 24.0228 169.258 23.9798C169.282 23.9369 169.315 23.8992 169.354 23.8689C169.393 23.8387 169.438 23.8165 169.486 23.8035C169.534 23.7906 169.584 23.7872 169.633 23.7936C169.682 23.8 169.729 23.816 169.772 23.8407C170.321 24.1531 170.943 24.3172 171.575 24.317H171.577C172.543 24.3168 173.47 23.9329 174.153 23.2499C174.836 22.5668 175.22 21.6405 175.22 20.6748C175.22 19.709 174.836 18.7829 174.152 18.1001C173.469 17.4174 172.542 17.0339 171.575 17.0341H171.574C170.68 17.0336 169.817 17.3615 169.15 17.9556C168.482 18.5496 168.057 19.3682 167.955 20.2555C167.943 20.3544 167.893 20.4448 167.815 20.5067C167.737 20.5686 167.638 20.597 167.539 20.5857C167.44 20.5743 167.349 20.5241 167.287 20.4462C167.225 20.3682 167.197 20.2688 167.208 20.1699C167.331 19.0995 167.844 18.1118 168.649 17.395C169.455 16.6782 170.495 16.2824 171.574 16.2831H171.575C172.741 16.2828 173.859 16.7453 174.684 17.5689C175.508 18.3924 175.971 19.5095 175.972 20.6744C175.972 21.8393 175.509 22.9565 174.685 23.7804C173.861 24.6043 172.743 25.0673 171.577 25.0675L171.575 25.0678Z" fill="#262D30"/>
<path d="M172.864 21.9331C172.821 21.9331 172.778 21.9256 172.737 21.9109L170.16 20.9835C170.088 20.9577 170.026 20.9106 169.982 20.8485C169.937 20.7864 169.913 20.7123 169.912 20.636C169.911 20.5598 169.933 20.4849 169.975 20.4215C170.018 20.3581 170.078 20.3091 170.149 20.2811L172.56 19.3301C172.606 19.3105 172.656 19.3004 172.706 19.3003C172.756 19.3002 172.806 19.3101 172.852 19.3295C172.898 19.3489 172.94 19.3773 172.975 19.4131C173.011 19.4489 173.038 19.4914 173.056 19.538C173.075 19.5846 173.084 19.6344 173.083 19.6845C173.081 19.7346 173.07 19.784 173.05 19.8297C173.029 19.8754 172.999 19.9165 172.963 19.9506C172.926 19.9847 172.883 20.0112 172.836 20.0283L171.351 20.6146L172.991 21.205C173.074 21.2349 173.144 21.2932 173.189 21.3697C173.233 21.4461 173.249 21.5357 173.234 21.6228C173.219 21.7099 173.173 21.7888 173.106 21.8457C173.038 21.9026 172.952 21.9337 172.864 21.9337L172.864 21.9331Z" fill="#262D30"/>
<path d="M160.481 25.4784C160.117 25.4818 159.759 25.3899 159.442 25.2117C158.845 24.8676 158.516 24.2407 158.515 23.4462C158.515 23.3466 158.555 23.2511 158.625 23.1807C158.696 23.1103 158.791 23.0708 158.891 23.0708C158.991 23.0708 159.086 23.1103 159.157 23.1807C159.227 23.2511 159.267 23.3466 159.267 23.4462C159.267 23.9685 159.457 24.3543 159.817 24.5615C160.234 24.8021 160.836 24.7786 161.314 24.5027C161.525 24.3879 161.7 24.2179 161.822 24.011C161.944 23.804 162.007 23.5678 162.004 23.3278C162.004 23.2282 162.044 23.1327 162.114 23.0623C162.185 22.9919 162.28 22.9524 162.38 22.9524C162.48 22.9524 162.575 22.9919 162.646 23.0623C162.716 23.1327 162.756 23.2282 162.756 23.3278C162.759 23.6998 162.662 24.0658 162.474 24.387C162.286 24.7083 162.015 24.973 161.69 25.153C161.322 25.3651 160.906 25.4773 160.481 25.4784Z" fill="#262D30"/>
<path d="M155.764 52.2587C154.235 55.5929 149.102 56.412 147.273 52.9219C147.248 52.8743 147.224 52.828 147.203 52.7805C146.441 51.2092 145.411 49.753 142.879 49.4125C141.093 49.1747 138.382 49.0914 138.667 47.412C138.865 46.2482 142.04 46.2155 144.378 46.1071C141.259 44.8369 137.136 43.5522 137.629 42.1055C138.122 40.6588 140.413 40.7016 144.444 42.3779C144.444 42.3779 138.962 40.378 139.326 39.0815C139.92 36.9542 149.044 40.8032 151.599 43.286C151.599 43.286 152.226 43.8626 154.572 45.8201C156.976 47.8254 156.568 50.5084 155.764 52.2587Z" fill="white"/>
<path d="M151.077 55.5542C149.264 55.5542 147.762 54.6639 146.94 53.0951C146.912 53.0412 146.885 52.9879 146.86 52.9334C146.05 51.2631 145.052 50.0827 142.829 49.7836C142.618 49.7556 142.395 49.7297 142.165 49.703C140.771 49.5415 139.192 49.3584 138.553 48.5074C138.431 48.3431 138.345 48.1549 138.301 47.9552C138.257 47.7555 138.255 47.5487 138.296 47.3484C138.495 46.1875 140.443 45.9297 142.605 45.8113C139.58 44.6379 136.748 43.5251 137.273 41.9836C137.35 41.7494 137.477 41.5342 137.643 41.3526C137.81 41.1709 138.014 41.0269 138.241 40.9302C138.717 40.7152 139.351 40.6478 140.137 40.727C139.189 40.085 138.813 39.5168 138.964 38.9792C139.042 38.7019 139.26 38.3368 139.863 38.1741C142.334 37.5076 149.711 40.9261 151.861 43.016C151.861 43.016 152.51 43.6098 154.813 45.5312C157.719 47.9563 156.685 51.153 156.106 52.4148C155.271 54.2367 153.309 55.4976 151.225 55.5523C151.175 55.5536 151.126 55.5542 151.077 55.5542ZM139.545 41.4405C139.205 41.4278 138.866 41.4871 138.55 41.6144C138.417 41.6696 138.298 41.7527 138.2 41.8582C138.103 41.9636 138.029 42.0889 137.984 42.2255C137.687 43.0985 140.73 44.2788 142.952 45.1405C143.474 45.3432 144.014 45.5527 144.519 45.7584C144.599 45.7907 144.665 45.8491 144.706 45.9238C144.748 45.9986 144.762 46.0854 144.748 46.1697C144.733 46.254 144.691 46.3308 144.626 46.3874C144.562 46.4441 144.481 46.4771 144.395 46.4811C144.204 46.4901 144.008 46.4983 143.807 46.5068C142.072 46.5807 139.168 46.7042 139.037 47.4743C139.013 47.574 139.012 47.6777 139.032 47.7782C139.052 47.8787 139.093 47.9737 139.154 48.0568C139.599 48.6498 141.069 48.8201 142.251 48.9571C142.486 48.9844 142.714 49.0108 142.928 49.0394C145.634 49.4035 146.744 50.9735 147.541 52.616C147.564 52.6661 147.584 52.7058 147.605 52.7462C148.312 54.0944 149.623 54.8428 151.205 54.8018C153.009 54.7543 154.704 53.6693 155.423 52.1017C155.93 50.9967 156.839 48.2005 154.331 46.1078C152.005 44.1669 151.371 43.5856 151.345 43.5618C149.202 41.4799 142.101 38.3487 140.059 38.8994C139.742 38.9849 139.702 39.1281 139.687 39.1819C139.686 39.1876 139.571 39.7075 141.911 40.8774C142.487 41.1652 143.076 41.4236 143.553 41.6221C143.885 41.746 144.23 41.8823 144.588 42.031C144.678 42.069 144.75 42.1407 144.788 42.2308C144.826 42.321 144.828 42.4224 144.792 42.5136C144.757 42.6048 144.687 42.6784 144.597 42.7189C144.508 42.7593 144.407 42.7634 144.315 42.7301C144.283 42.7186 143.854 42.5613 143.25 42.3101C141.488 41.654 140.319 41.4405 139.545 41.4405Z" fill="#262D30"/>
</g>
<g clip-path="url(#clip2)">
<path d="M117.295 56.9595L110.065 34.9952L132.034 27.7634L139.31 49.7547L117.295 56.9595Z" fill="white"/>
<path d="M139.441 50.1519L117.426 57.3567C117.321 57.3914 117.206 57.3828 117.107 57.3328C117.008 57.2829 116.933 57.1956 116.898 57.0903L109.668 35.1261C109.633 35.0207 109.642 34.9059 109.692 34.8069C109.742 34.7079 109.829 34.6328 109.934 34.5981L131.903 27.3662C132.009 27.3315 132.123 27.3401 132.222 27.3901C132.321 27.44 132.397 27.5273 132.431 27.6326L139.707 49.6239C139.724 49.6761 139.731 49.7312 139.727 49.786C139.723 49.8409 139.708 49.8944 139.684 49.9435C139.659 49.9925 139.625 50.0363 139.583 50.0722C139.541 50.1081 139.493 50.1354 139.441 50.1526L139.441 50.1519ZM117.562 56.4322L138.781 49.4879L131.768 28.2911L110.593 35.2617L117.562 56.4322Z" fill="#262D30"/>
<path d="M134.753 47.7937L119.763 52.7283C119.657 52.763 119.542 52.7544 119.443 52.7044C119.344 52.6544 119.269 52.5672 119.235 52.4619L114.301 37.4748C114.266 37.3695 114.275 37.2547 114.325 37.1557C114.375 37.0567 114.462 36.9815 114.568 36.9469L129.558 32.0123C129.663 31.9776 129.778 31.9862 129.877 32.0361C129.976 32.0861 130.051 32.1733 130.086 32.2787L135.019 47.2657C135.054 47.3711 135.045 47.4859 134.995 47.5849C134.945 47.6839 134.858 47.759 134.753 47.7937ZM119.898 51.8031L134.094 47.1301L129.422 32.9374L115.226 37.6105L119.898 51.8031Z" fill="#262D30"/>
<path d="M119.763 52.7283C119.684 52.7541 119.599 52.7561 119.52 52.734C119.44 52.7118 119.369 52.6666 119.315 52.6039C119.261 52.5412 119.227 52.464 119.217 52.3819C119.207 52.2998 119.221 52.2166 119.258 52.1428L129.315 32.2211C129.339 32.1711 129.373 32.1264 129.415 32.0897C129.456 32.0529 129.505 32.0248 129.558 32.007C129.61 31.9891 129.666 31.982 129.721 31.9859C129.777 31.9898 129.831 32.0046 129.88 32.0297C129.93 32.0547 129.974 32.0893 130.01 32.1315C130.046 32.1738 130.073 32.2228 130.09 32.2757C130.107 32.3286 130.113 32.3843 130.108 32.4396C130.104 32.4949 130.088 32.5487 130.062 32.5978L120.005 52.5195C119.98 52.5685 119.946 52.6122 119.905 52.6481C119.863 52.6839 119.815 52.7112 119.763 52.7283Z" fill="#262D30"/>
<path d="M134.753 47.7936C134.701 47.8109 134.646 47.8176 134.591 47.8135C134.536 47.8094 134.483 47.7945 134.434 47.7697L114.51 37.7173C114.46 37.6928 114.416 37.6588 114.38 37.6172C114.344 37.5755 114.316 37.5272 114.299 37.4748C114.281 37.4224 114.274 37.3671 114.278 37.3121C114.282 37.257 114.297 37.2033 114.322 37.154C114.347 37.1048 114.381 37.0609 114.423 37.025C114.465 36.989 114.514 36.9618 114.566 36.9447C114.619 36.9277 114.674 36.9212 114.729 36.9257C114.784 36.9301 114.838 36.9454 114.887 36.9707L134.811 47.0231C134.885 47.0604 134.946 47.1187 134.986 47.1907C135.027 47.2627 135.045 47.3452 135.039 47.4277C135.033 47.5101 135.003 47.5889 134.952 47.6541C134.901 47.7192 134.831 47.7678 134.753 47.7936Z" fill="#262D30"/>
</g>
<g clip-path="url(#clip3)">
<path d="M208.981 39.422L210.493 39.3896C211.183 39.3745 211.755 39.9344 211.77 40.6402C211.774 40.8389 211.733 41.0359 211.649 41.2155L209.854 45.0892L207.9 41.2973C207.578 40.6719 207.813 39.8982 208.425 39.5689C208.596 39.4767 208.787 39.4264 208.981 39.422Z" fill="white"/>
<path d="M207.374 40.7033C207.374 40.537 207.399 40.37 207.449 40.2066C207.578 39.7808 207.862 39.432 208.248 39.2245C208.47 39.1047 208.721 39.0384 208.972 39.0328C208.972 39.0328 208.972 39.0328 208.972 39.0328L210.485 39.0004C210.92 38.9909 211.333 39.1553 211.648 39.4634C211.963 39.7716 212.141 40.1865 212.15 40.6318C212.156 40.8911 212.102 41.1493 211.993 41.3824L210.198 45.2559C210.137 45.3891 210.006 45.4753 209.862 45.4784C209.718 45.4815 209.584 45.4011 209.517 45.2705L207.563 41.4787C207.438 41.2355 207.374 40.9705 207.374 40.7033ZM208.989 39.8113C208.855 39.8143 208.721 39.8496 208.602 39.9136C208.396 40.0244 208.245 40.2104 208.176 40.4375C208.107 40.6647 208.129 40.9056 208.237 41.1161L209.836 44.219L211.305 41.0489C211.363 40.9245 211.392 40.7878 211.389 40.6485C211.384 40.4112 211.289 40.19 211.121 40.0257C210.953 39.8614 210.733 39.7738 210.501 39.7789L208.989 39.8113Z" fill="#262D30"/>
<path d="M215.4 44.2002L215.431 45.7458C215.444 46.4524 214.893 47.0354 214.202 47.0478C214.009 47.0513 213.819 47.0094 213.645 46.9255L209.854 45.0892L213.568 43.0919C214.18 42.7643 214.937 43.0062 215.257 43.6323C215.347 43.8079 215.396 44.0022 215.4 44.2002Z" fill="white"/>
<path d="M209.473 45.0892C209.473 44.9449 209.551 44.8121 209.677 44.7448L213.39 42.7476C214.189 42.3205 215.177 42.6366 215.595 43.452C215.711 43.6795 215.775 43.9355 215.78 44.1922L215.812 45.7378C215.828 46.6592 215.109 47.421 214.209 47.4373C213.959 47.4419 213.708 47.3866 213.482 47.2777L209.691 45.441C209.561 45.3778 209.476 45.2448 209.473 45.0974C209.473 45.0946 209.473 45.0919 209.473 45.0892ZM215.051 45.7688C215.051 45.7635 215.051 45.7582 215.051 45.7529L215.019 44.2086C215.019 44.2084 215.019 44.2083 215.019 44.2082C215.016 44.0711 214.982 43.9346 214.92 43.8131C214.697 43.3781 214.17 43.2096 213.744 43.4372L210.706 45.0713L213.808 46.5739C213.928 46.6318 214.062 46.6613 214.195 46.6589C214.67 46.6501 215.051 46.2524 215.051 45.7688ZM215.4 44.2002V44.2015V44.2002Z" fill="#262D30"/>
</g>
<g clip-path="url(#clip4)">
<path d="M37.1532 37.8408L37.1222 36.3959C37.1078 35.7361 37.6428 35.1898 38.3173 35.1756C38.5071 35.1716 38.6954 35.211 38.867 35.2907L42.5686 37.0061L38.9451 38.8732C38.3475 39.1809 37.6082 38.9564 37.2936 38.3718C37.2054 38.2078 37.1574 38.026 37.1532 37.8408Z" fill="white"/>
<path d="M38.3776 39.3756C38.2187 39.3756 38.0591 39.3522 37.903 39.3047C37.4961 39.1812 37.1628 38.9101 36.9645 38.5413C36.8501 38.3286 36.7867 38.089 36.7814 37.8488C36.7814 37.8487 36.7814 37.8486 36.7814 37.8486L36.7504 36.4037C36.7413 35.9876 36.8984 35.5927 37.1928 35.2919C37.4873 34.9912 37.8838 34.8207 38.3093 34.8119C38.557 34.8067 38.8038 34.8586 39.0265 34.9621L42.7278 36.6771C42.8552 36.7362 42.9375 36.8606 42.9405 36.9984C42.9435 37.1362 42.8666 37.2638 42.7418 37.3281L39.1185 39.1952C38.8861 39.3149 38.6329 39.3756 38.3776 39.3756ZM37.5253 37.8332C37.5281 37.9613 37.5619 38.0889 37.623 38.2022C37.7289 38.399 37.9066 38.5436 38.1236 38.6095C38.3407 38.6754 38.5709 38.6546 38.772 38.5511L41.737 37.0234L38.7078 35.6196C38.589 35.5644 38.4583 35.537 38.3252 35.5394C38.0984 35.5442 37.8871 35.635 37.7301 35.7954C37.5732 35.9557 37.4894 36.1661 37.4943 36.388L37.5253 37.8332Z" fill="#262D30"/>
<path d="M41.7192 31.707L43.1961 31.6767C43.8713 31.6651 44.4283 32.191 44.4402 32.8515C44.4436 33.0353 44.4035 33.2174 44.3233 33.3836L42.5686 37.0062L40.6602 33.4576C40.347 32.8723 40.5782 32.1495 41.1765 31.8432C41.3443 31.7573 41.5299 31.7107 41.7192 31.707Z" fill="white"/>
<path d="M42.5686 37.3701C42.4307 37.3701 42.3038 37.2954 42.2395 37.1756L40.331 33.6271C39.9229 32.8641 40.225 31.9196 41.0041 31.5207C41.2215 31.4093 41.4662 31.3479 41.7115 31.3432L43.1884 31.3129C44.0688 31.2979 44.7967 31.985 44.8123 32.8451C44.8167 33.0836 44.7639 33.3236 44.6598 33.5392L42.9048 37.1619C42.8444 37.2865 42.7173 37.3671 42.5764 37.37C42.5738 37.3701 42.5712 37.3701 42.5686 37.3701ZM43.218 32.0404C43.2129 32.0404 43.2078 32.0404 43.2027 32.0405L41.7271 32.0709C41.727 32.0709 41.7268 32.0709 41.7267 32.0709C41.5958 32.0734 41.4653 32.1062 41.3492 32.1656C40.9336 32.3784 40.7725 32.8822 40.99 33.2889L42.5515 36.1922L43.9873 33.2279C44.0426 33.1132 44.0708 32.9852 44.0686 32.858C44.0601 32.4041 43.68 32.0404 43.218 32.0404ZM41.7191 31.707H41.7204H41.7191Z" fill="#262D30"/>
</g>
<g clip-path="url(#clip5)">
<path d="M70.0911 18.5626C70.0911 18.5626 95.7227 11.3885 100.769 9.80725C109.505 7.07166 110.839 18.2048 103.961 18.5626H70.0911Z" fill="#99CCFF"/>
<path d="M104.751 18.5625C104.751 18.5625 112.8 15.0208 117.397 13.2964C124.446 10.6491 125.642 18.2691 119.994 18.5625H104.751Z" fill="#99CCFF"/>
<path d="M13.6875 18.5625C13.6875 18.5625 21.7365 15.0208 26.3335 13.2964C33.3825 10.6491 34.5792 18.2691 28.9306 18.5625H13.6875Z" fill="#99CCFF"/>
</g>
<g clip-path="url(#clip6)">
<path d="M65.7615 63.1876C65.8013 63.1876 65.8417 63.1819 65.8818 63.1699C66.1028 63.1033 66.2281 62.8692 66.1617 62.6471L65.1866 59.3835C65.1203 59.1614 64.8873 59.0355 64.6664 59.1022C64.4455 59.1688 64.3202 59.4029 64.3866 59.625L65.3616 62.8886C65.4159 63.0702 65.5819 63.1876 65.7615 63.1876Z" fill="#262D30"/>
<path d="M67.3524 62.7581C67.3922 62.7581 67.4326 62.7524 67.4725 62.7404C67.6935 62.6738 67.8188 62.4397 67.7525 62.2176L66.8867 59.3184C66.8202 59.0963 66.5874 58.9704 66.3665 59.037C66.1455 59.1036 66.0202 59.3377 66.0865 59.5598L66.9524 62.459C67.0068 62.6407 67.1728 62.7581 67.3524 62.7581Z" fill="#262D30"/>
<path d="M70.901 49.6902L73.875 50.11L70.9804 51.6282L70.901 49.6902Z" fill="#262D30"/>
<path d="M70.7381 52.5742C70.3907 53.1142 70.2025 53.7419 70.1951 54.3849V56.2208C70.1951 57.9983 68.7614 59.4392 66.9927 59.4392H58.5497L64.222 52.055C64.6724 51.4571 65.0077 50.78 65.2106 50.0582C65.6933 48.4287 67.399 47.501 69.0204 47.9863C70.6417 48.4714 71.5649 50.1857 71.082 51.8152C71.0035 52.0805 70.8896 52.3338 70.7437 52.5686L70.7381 52.5742Z" fill="white"/>
<path d="M58.5497 59.8589H66.9928C68.9888 59.8589 70.6128 58.2268 70.6128 56.2207V54.3849C70.6191 53.8345 70.7784 53.2945 71.0738 52.8259C71.0824 52.8147 71.0905 52.8031 71.0979 52.7912C71.2637 52.5246 71.3931 52.2365 71.4823 51.9351C72.0301 50.0862 70.9791 48.1343 69.1396 47.5838C67.3002 47.0333 65.358 48.0897 64.8103 49.9383C64.6191 50.6181 64.3099 51.243 63.8891 51.8015L58.2192 59.1825C58.1218 59.3092 58.1047 59.4806 58.1749 59.6241C58.245 59.7677 58.3904 59.8589 58.5497 59.8589ZM70.4034 52.3233C70.3976 52.331 70.392 52.3387 70.3874 52.3461C69.9966 52.9534 69.7858 53.6567 69.7774 54.38V56.2206C69.7774 57.7638 68.5282 59.0192 66.9928 59.0192H59.3998L64.5527 52.3115C65.0391 51.666 65.3948 50.9473 65.6126 50.1723C66.0272 48.7729 67.5032 47.9703 68.9014 48.3886C70.2994 48.807 71.098 50.2904 70.6817 51.6954C70.6163 51.9159 70.5227 52.1271 70.4034 52.3233Z" fill="#262D30"/>
<path d="M69.1899 51.4477C68.7569 51.4477 68.406 51.095 68.406 50.6599C68.406 50.2248 68.7569 49.8721 69.1899 49.8721C69.6228 49.8721 69.9738 50.2248 69.9738 50.6599C69.9738 51.095 69.6228 51.4477 69.1899 51.4477Z" fill="#262D30"/>
<path d="M58.212 59.1894L63.882 51.8084C64.3028 51.2499 64.6122 50.625 64.8029 49.9459C65.3473 48.0963 67.2876 47.0363 69.128 47.5835C69.6793 47.7473 70.1861 48.049 70.5939 48.4559C70.7139 48.5757 70.7501 48.7565 70.6856 48.9138C70.6212 49.0711 70.4686 49.1736 70.2995 49.1736H68.5218C67.8621 49.1742 67.3248 49.7141 67.324 50.377V50.5689C67.3239 50.8907 67.4486 51.1933 67.675 51.4206C68.4681 52.2177 68.4681 53.5147 67.6746 54.3124L67.2088 54.7791C66.9823 55.0072 66.8576 55.3104 66.8576 55.6328V56.5074C66.8576 58.3592 65.3584 59.8657 63.516 59.8657H58.5424C58.3832 59.8657 58.2378 59.7748 58.1676 59.6311C58.0975 59.4875 58.1147 59.3162 58.212 59.1894Z" fill="#99CCFF"/>
</g>
<g clip-path="url(#clip7)">
<path d="M59.0665 83.0222V62.0664H80.0269L80.0585 83.0585L59.0665 83.0222Z" fill="white"/>
<path d="M80.0585 83.4375L59.0665 83.4012C58.966 83.4012 58.8696 83.3613 58.7985 83.2902C58.7274 83.2192 58.6875 83.1228 58.6875 83.0223V62.0664C58.6875 61.9659 58.7274 61.8696 58.7985 61.7985C58.8696 61.7274 58.966 61.6875 59.0665 61.6875H80.0269C80.1274 61.6875 80.2238 61.7274 80.2949 61.7985C80.366 61.8696 80.4059 61.9659 80.4059 62.0664L80.4375 83.0585C80.4376 83.1083 80.4279 83.1577 80.4088 83.2037C80.3898 83.2498 80.3619 83.2916 80.3267 83.3269C80.2915 83.3622 80.2497 83.3901 80.2037 83.4092C80.1577 83.4283 80.1083 83.4381 80.0585 83.4381V83.4375ZM59.4456 82.644L79.6788 82.679L79.6485 62.4454H59.4456V82.644Z" fill="#262D30"/>
<path d="M76.6915 80.0791H62.3894C62.2889 80.0791 62.1925 80.0392 62.1214 79.9681C62.0503 79.897 62.0104 79.8006 62.0104 79.7001V65.4012C62.0104 65.3007 62.0503 65.2043 62.1214 65.1332C62.1925 65.0621 62.2889 65.0222 62.3894 65.0222H76.6915C76.792 65.0222 76.8884 65.0621 76.9595 65.1332C77.0306 65.2043 77.0705 65.3007 77.0705 65.4012V79.7001C77.0705 79.8006 77.0306 79.897 76.9595 79.9681C76.8884 80.0392 76.792 80.0791 76.6915 80.0791ZM62.7684 79.3212H76.3125V65.7801H62.7684V79.3212Z" fill="#262D30"/>
<path d="M62.3893 80.0791C62.3144 80.0791 62.2411 80.0569 62.1788 80.0152C62.1165 79.9736 62.0679 79.9144 62.0392 79.8452C62.0105 79.7759 62.003 79.6997 62.0177 79.6263C62.0323 79.5528 62.0684 79.4852 62.1214 79.4322L76.4234 65.1333C76.4584 65.0971 76.5002 65.0682 76.5465 65.0483C76.5927 65.0285 76.6424 65.018 76.6928 65.0176C76.7431 65.0172 76.793 65.0267 76.8396 65.0458C76.8862 65.0649 76.9285 65.093 76.9641 65.1286C76.9997 65.1641 77.0278 65.2065 77.0469 65.253C77.0659 65.2996 77.0755 65.3495 77.0751 65.3998C77.0746 65.4501 77.0642 65.4999 77.0443 65.5461C77.0245 65.5923 76.9956 65.6341 76.9594 65.6691L62.6573 79.9681C62.6221 80.0033 62.5804 80.0313 62.5344 80.0503C62.4884 80.0694 62.4391 80.0792 62.3893 80.0791Z" fill="#262D30"/>
<path d="M76.6914 80.0791C76.6416 80.0791 76.5923 80.0694 76.5463 80.0503C76.5003 80.0312 76.4586 80.0033 76.4234 79.968L62.1214 65.6691C62.0857 65.634 62.0573 65.5922 62.0379 65.5461C62.0185 65.5 62.0084 65.4505 62.0082 65.4005C62.008 65.3504 62.0177 65.3009 62.0368 65.2546C62.0558 65.2084 62.0838 65.1663 62.1192 65.131C62.1546 65.0956 62.1966 65.0676 62.2429 65.0486C62.2892 65.0295 62.3388 65.0198 62.3888 65.02C62.4388 65.0202 62.4883 65.0303 62.5344 65.0498C62.5805 65.0692 62.6223 65.0976 62.6574 65.1332L76.9595 79.4322C77.0125 79.4852 77.0486 79.5527 77.0632 79.6262C77.0778 79.6998 77.0703 79.7759 77.0416 79.8452C77.0129 79.9144 76.9643 79.9736 76.902 80.0152C76.8397 80.0569 76.7664 80.0791 76.6914 80.0791Z" fill="#262D30"/>
</g>
<g clip-path="url(#clip8)">
<path d="M224.228 128.416C224.209 128.418 224.191 128.42 224.172 128.419L15.6377 127.312C15.541 127.311 15.4485 127.272 15.3805 127.203C15.3124 127.134 15.2744 127.041 15.2748 126.944C15.2752 126.847 15.314 126.754 15.3826 126.686C15.4513 126.618 15.5441 126.58 15.6407 126.581L224.175 127.688C224.267 127.689 224.355 127.724 224.423 127.787C224.49 127.85 224.531 127.936 224.538 128.028C224.544 128.12 224.516 128.211 224.459 128.283C224.401 128.355 224.319 128.402 224.228 128.416Z" fill="#262D30"/>
</g>
<g clip-path="url(#clip9)">
<path d="M55.5371 87.7884V82.9122H96.3379V127.088H55.5371V87.7884Z" fill="white"/>
<path d="M96.3379 127.5H55.5371C55.4278 127.5 55.323 127.457 55.2457 127.379C55.1684 127.302 55.125 127.197 55.125 127.088V82.9122C55.125 82.8029 55.1684 82.698 55.2457 82.6207C55.323 82.5434 55.4278 82.5 55.5371 82.5H96.3379C96.4472 82.5 96.552 82.5434 96.6293 82.6207C96.7066 82.698 96.75 82.8029 96.75 82.9122V127.088C96.75 127.197 96.7066 127.302 96.6293 127.379C96.552 127.457 96.4472 127.5 96.3379 127.5ZM55.9493 126.676H95.9257V83.3244H55.9493V126.676Z" fill="#262D30"/>
<path d="M91.9555 122.76H59.9057C59.7964 122.76 59.6915 122.716 59.6142 122.639C59.537 122.562 59.4935 122.457 59.4935 122.347V87.6527C59.4935 87.5434 59.537 87.4385 59.6142 87.3612C59.6915 87.2839 59.7964 87.2405 59.9057 87.2405H91.9555C92.0648 87.2405 92.1697 87.2839 92.2469 87.3612C92.3242 87.4385 92.3677 87.5434 92.3677 87.6527V122.347C92.3677 122.457 92.3242 122.562 92.2469 122.639C92.1697 122.716 92.0648 122.76 91.9555 122.76ZM60.3178 121.935H91.5434V88.0649H60.3178V121.935Z" fill="#262D30"/>
<path d="M75.9375 122.76C75.8282 122.76 75.7234 122.716 75.6461 122.639C75.5688 122.562 75.5254 122.457 75.5254 122.347V87.6527C75.5254 87.5434 75.5688 87.4385 75.6461 87.3612C75.7234 87.2839 75.8282 87.2405 75.9375 87.2405C76.0468 87.2405 76.1517 87.2839 76.2289 87.3612C76.3062 87.4385 76.3497 87.5434 76.3497 87.6527V122.347C76.3497 122.457 76.3062 122.562 76.2289 122.639C76.1517 122.716 76.0468 122.76 75.9375 122.76Z" fill="#262D30"/>
<path d="M83.9466 122.76C83.8373 122.76 83.7324 122.716 83.6551 122.639C83.5778 122.562 83.5344 122.457 83.5344 122.347V87.6527C83.5344 87.5434 83.5778 87.4385 83.6551 87.3612C83.7324 87.2839 83.8373 87.2405 83.9466 87.2405C84.0559 87.2405 84.1607 87.2839 84.238 87.3612C84.3153 87.4385 84.3587 87.5434 84.3587 87.6527V122.347C84.3587 122.457 84.3153 122.562 84.238 122.639C84.1607 122.716 84.0559 122.76 83.9466 122.76Z" fill="#262D30"/>
<path d="M67.9147 122.76C67.8054 122.76 67.7006 122.716 67.6233 122.639C67.546 122.562 67.5026 122.457 67.5026 122.347V87.6527C67.5026 87.5434 67.546 87.4385 67.6233 87.3612C67.7006 87.2839 67.8054 87.2405 67.9147 87.2405C68.024 87.2405 68.1288 87.2839 68.2061 87.3612C68.2834 87.4385 68.3268 87.5434 68.3268 87.6527V122.347C68.3268 122.457 68.2834 122.562 68.2061 122.639C68.1288 122.716 68.024 122.76 67.9147 122.76Z" fill="#262D30"/>
</g>
<g clip-path="url(#clip10)">
<path d="M222.014 127.312L224.721 119.499C225.019 118.636 224.565 117.694 223.708 117.395C223.69 117.388 223.671 117.382 223.652 117.376C222.787 117.106 221.868 117.592 221.598 118.462L221.025 120.32V117.344C221.026 116.533 220.373 115.876 219.568 115.875C219.566 115.875 219.564 115.875 219.562 115.875C218.757 115.874 218.103 116.531 218.102 117.341C218.102 117.342 218.102 117.343 218.102 117.344V122.118L217.648 121.497C217.156 120.826 216.244 120.629 215.522 121.038C214.734 121.484 214.454 122.489 214.898 123.282C214.898 123.283 214.899 123.284 214.899 123.284L217.156 127.312H222.014Z" fill="#3366CC"/>
</g>
<g clip-path="url(#clip11)">
<path d="M15.8034 65.6899C16.1746 65.5367 16.5915 65.5369 16.9624 65.6906C17.3333 65.8443 17.628 66.1388 17.7816 66.5095C17.6352 66.1394 17.6409 65.7266 17.7974 65.3606C17.9538 64.9947 18.2484 64.7051 18.6173 64.5547C18.9861 64.4043 19.3995 64.4053 19.7676 64.5573C20.1358 64.7093 20.4291 65.0002 20.584 65.3668L23.5274 72.464L23.6724 64.7836C23.6619 64.3824 23.8113 63.9934 24.0879 63.7023C24.3645 63.4111 24.7456 63.2416 25.1473 63.231C25.3462 63.2258 25.5442 63.2597 25.73 63.3309C25.9158 63.4021 26.0857 63.5091 26.2301 63.6459C26.5216 63.9222 26.6914 64.3028 26.702 64.704C26.6964 64.7467 26.6978 64.7901 26.7059 64.8324C26.7034 64.6323 26.7407 64.4338 26.8156 64.2482C26.8905 64.0626 27.0014 63.8936 27.142 63.7511C27.2826 63.6086 27.4501 63.4953 27.6347 63.4178C27.8194 63.3402 28.0177 63.3 28.218 63.2994C28.4183 63.2989 28.6168 63.3379 28.8019 63.4144C28.9871 63.4908 29.1552 63.6032 29.2966 63.7449C29.438 63.8866 29.5499 64.0549 29.6259 64.24C29.7018 64.4252 29.7403 64.6235 29.739 64.8236C29.7425 64.8375 29.7324 64.854 29.7358 64.8675L29.7196 65.8773L29.6117 72.6864C29.5965 73.8648 29.2381 75.0132 28.5803 75.9916C27.9225 76.97 26.9938 77.7359 25.9074 78.1959L25.9107 78.2098C25.1161 78.525 24.2688 78.6865 23.4138 78.6859L23.4103 78.672C22.2309 78.6346 21.0874 78.2575 20.1176 77.5861C19.1478 76.9147 18.393 75.9776 17.9441 74.8877L15.3624 68.5895L14.9799 67.6521C14.9012 67.4697 14.8602 67.2733 14.8593 67.0747C14.8583 66.8761 14.8975 66.6793 14.9744 66.4962C15.0513 66.313 15.1644 66.1472 15.3069 66.0087C15.4494 65.8702 15.6184 65.7618 15.8038 65.69L15.8034 65.6899Z" fill="white"/>
<path d="M23.4135 79.1031C24.3215 79.1047 25.2214 78.9331 26.0649 78.5975C26.1022 78.5826 26.1372 78.5624 26.1688 78.5376C27.3046 78.034 28.272 77.2157 28.9563 76.1796C29.6406 75.1436 30.0131 73.9333 30.0297 72.6923L30.1535 64.8921C30.1577 64.8614 30.1588 64.8303 30.1567 64.7993C30.1525 64.4046 30.0268 64.0207 29.7968 63.6998C29.5668 63.3788 29.2435 63.1362 28.8708 63.005C28.4981 62.8737 28.0939 62.8601 27.7132 62.9659C27.3325 63.0718 26.9935 63.292 26.7424 63.5967C26.6724 63.5023 26.594 63.4144 26.5083 63.334C26.3251 63.1605 26.1093 63.0252 25.8733 62.9358C25.6373 62.8464 25.3858 62.8049 25.1336 62.8135C24.8779 62.8203 24.6262 62.8778 24.393 62.9826C24.1598 63.0874 23.9498 63.2375 23.7752 63.4241C23.6028 63.6056 23.4681 63.8194 23.3786 64.053C23.2891 64.2867 23.2467 64.5357 23.2537 64.7858L23.1468 70.4551L20.9703 65.2075C20.8152 64.8417 20.5507 64.5327 20.213 64.3229C19.8753 64.113 19.4809 64.0125 19.0838 64.0351C18.6867 64.0578 18.3063 64.2025 17.9948 64.4494C17.6832 64.6963 17.4557 65.0334 17.3433 65.4145C17.091 65.2719 16.8101 65.1871 16.521 65.1662C16.2318 65.1453 15.9416 65.1887 15.6714 65.2935C15.6463 65.3011 15.6221 65.3111 15.5989 65.3233C15.1355 65.5238 14.7687 65.8969 14.5765 66.3633C14.4809 66.595 14.4334 66.8437 14.437 67.0943C14.4406 67.3449 14.4951 67.5921 14.5973 67.821L14.9749 68.7469L17.5568 75.0459C18.0302 76.1947 18.8217 77.1849 19.8385 77.9004C20.8554 78.6159 22.0554 79.0269 23.2979 79.0854C23.3353 79.0971 23.3743 79.1031 23.4135 79.1031ZM25.6606 77.8584C24.973 78.119 24.2451 78.2573 23.5097 78.2669C23.4816 78.2595 23.4528 78.2553 23.4238 78.2544C22.3252 78.2193 21.2601 77.868 20.3566 77.2427C19.4532 76.6173 18.7499 75.7446 18.3313 74.7296L15.367 67.4945C15.3087 67.3667 15.2773 67.2283 15.2746 67.0878C15.2719 66.9474 15.2981 66.8079 15.3514 66.678C15.4067 66.542 15.4891 66.4186 15.5936 66.3154C15.6982 66.2122 15.8226 66.1313 15.9594 66.0777C16.2278 65.9666 16.5293 65.9661 16.798 66.0763C17.0668 66.1865 17.2809 66.3984 17.3938 66.6657C17.4353 66.7675 17.5153 66.8489 17.6164 66.8922C17.7176 66.9355 17.8317 66.9372 17.9342 66.897C18.0366 66.8568 18.119 66.778 18.1636 66.6775C18.2082 66.577 18.2113 66.463 18.1723 66.3602C18.0676 66.0887 18.0748 65.7869 18.1924 65.5207C18.31 65.2545 18.5283 65.0457 18.7997 64.9399C19.064 64.8367 19.3581 64.8407 19.6194 64.9509C19.8808 65.0612 20.0887 65.2689 20.199 65.53L23.1408 72.6233C23.1774 72.7121 23.2436 72.7856 23.3281 72.8313C23.4127 72.8771 23.5104 72.8924 23.6049 72.8746C23.6994 72.8569 23.7849 72.8071 23.8469 72.7338C23.909 72.6604 23.9439 72.568 23.9457 72.472L24.0907 64.7916C24.0907 64.7845 24.0907 64.7777 24.0907 64.7703C24.0857 64.6283 24.1092 64.4867 24.1596 64.3537C24.21 64.2208 24.2864 64.0992 24.3843 63.9961C24.4838 63.8897 24.6036 63.8042 24.7365 63.7444C24.8694 63.6847 25.0129 63.6519 25.1587 63.648C25.301 63.6434 25.4429 63.667 25.5761 63.7174C25.7093 63.7678 25.8311 63.8441 25.9347 63.9418C26.1454 64.138 26.2705 64.409 26.2832 64.6964C26.2763 64.7762 26.2821 64.8565 26.3005 64.9345C26.3255 65.033 26.3857 65.1191 26.4697 65.1766C26.5537 65.234 26.6559 65.2588 26.7569 65.2465C26.858 65.2341 26.951 65.1853 27.0187 65.1093C27.0863 65.0333 27.1238 64.9352 27.1242 64.8335C27.1231 64.5444 27.2363 64.2664 27.4393 64.0602C27.6423 63.854 27.9186 63.7362 28.2081 63.7324C28.4976 63.7286 28.7769 63.8392 28.9852 64.04C29.1935 64.2409 29.314 64.5157 29.3204 64.8048C29.3174 64.8298 29.3164 64.8549 29.3174 64.88L29.1935 72.679C29.1795 73.7765 28.8458 74.8462 28.2333 75.7574C27.6208 76.6687 26.7559 77.3822 25.7442 77.8109C25.7146 77.8235 25.6866 77.8394 25.6606 77.8584Z" fill="#262D30"/>
<path d="M26.6107 71.0931C26.7205 71.0931 26.8259 71.05 26.9041 70.9731C26.9824 70.8962 27.0272 70.7916 27.029 70.682L27.1234 64.7243C27.1251 64.6135 27.0827 64.5066 27.0056 64.427C26.9284 64.3474 26.8227 64.3017 26.7118 64.3C26.6567 64.2984 26.6018 64.3078 26.5504 64.3278C26.499 64.3477 26.4522 64.3777 26.4126 64.416C26.373 64.4543 26.3415 64.5002 26.3199 64.5508C26.2983 64.6015 26.2871 64.656 26.287 64.711L26.1926 70.6686C26.1917 70.7235 26.2016 70.778 26.2218 70.829C26.242 70.88 26.2721 70.9266 26.3103 70.966C26.3486 71.0054 26.3942 71.0369 26.4446 71.0587C26.495 71.0805 26.5492 71.0922 26.6042 71.0931H26.6107Z" fill="#262D30"/>
<path d="M19.9949 72.3422C20.0636 72.3422 20.1312 72.3253 20.1918 72.293C20.2524 72.2607 20.3041 72.2139 20.3423 72.157C20.3805 72.1 20.4041 72.0344 20.411 71.9662C20.4179 71.8979 20.4078 71.829 20.3817 71.7656L18.1141 66.2497C18.0936 66.1984 18.0631 66.1517 18.0245 66.1122C17.9858 66.0727 17.9397 66.0413 17.8888 66.0198C17.8379 65.9983 17.7832 65.987 17.7279 65.9867C17.6726 65.9864 17.6178 65.997 17.5667 66.018C17.5156 66.039 17.4691 66.0699 17.43 66.1089C17.3909 66.1479 17.3599 66.1943 17.3388 66.2453C17.3178 66.2964 17.3071 66.3511 17.3073 66.4063C17.3076 66.4615 17.3188 66.5161 17.3403 66.567L19.6077 72.0831C19.6392 72.1597 19.6929 72.2253 19.7618 72.2715C19.8308 72.3176 19.9119 72.3422 19.9949 72.3422Z" fill="#262D30"/>
<path d="M34.0818 126.563C34.109 126.563 34.1362 126.56 34.1629 126.555C34.2717 126.533 34.3676 126.47 34.4295 126.378C34.4913 126.286 34.514 126.173 34.4926 126.064L24.4903 75.2889C24.4682 75.181 24.4042 75.0861 24.3123 75.0251C24.2204 74.964 24.1081 74.9417 23.9998 74.9629C23.8916 74.9842 23.7961 75.0474 23.7342 75.1386C23.6723 75.2299 23.6491 75.3419 23.6695 75.4502L33.6713 126.225C33.6899 126.32 33.741 126.406 33.8158 126.467C33.8907 126.529 33.9847 126.563 34.0818 126.563Z" fill="#262D30"/>
</g>
<g clip-path="url(#clip12)">
<path d="M106.545 127.125C106.628 127.125 106.708 127.096 106.772 127.044C106.837 126.991 106.881 126.918 106.897 126.836L109.673 113.156C109.683 113.109 109.684 113.061 109.675 113.014C109.666 112.968 109.648 112.923 109.622 112.883C109.596 112.844 109.562 112.809 109.523 112.783C109.483 112.756 109.439 112.737 109.392 112.728C109.346 112.718 109.298 112.718 109.251 112.728C109.204 112.737 109.16 112.755 109.12 112.782C109.081 112.808 109.047 112.842 109.02 112.882C108.994 112.921 108.976 112.966 108.967 113.012L106.192 126.693C106.173 126.787 106.192 126.884 106.244 126.963C106.297 127.043 106.379 127.099 106.473 127.118C106.496 127.122 106.52 127.125 106.545 127.125Z" fill="#262D30"/>
<path d="M109.969 113.444C111.1 113.444 112.205 113.109 113.146 112.48C114.086 111.851 114.819 110.958 115.252 109.912C115.685 108.866 115.798 107.716 115.578 106.606C115.357 105.496 114.812 104.476 114.013 103.676C113.213 102.876 112.194 102.331 111.084 102.11C109.975 101.889 108.825 102.002 107.78 102.436C106.735 102.869 105.842 103.602 105.214 104.543C104.585 105.484 104.25 106.59 104.25 107.722C104.252 109.239 104.855 110.694 105.927 111.767C106.999 112.839 108.453 113.443 109.969 113.444ZM109.969 102.721C110.957 102.721 111.924 103.015 112.745 103.564C113.567 104.114 114.208 104.895 114.586 105.808C114.964 106.722 115.063 107.728 114.871 108.698C114.678 109.668 114.202 110.559 113.503 111.258C112.804 111.958 111.913 112.434 110.944 112.627C109.974 112.82 108.969 112.721 108.056 112.343C107.143 111.964 106.362 111.323 105.813 110.501C105.264 109.678 104.971 108.711 104.971 107.722C104.972 106.396 105.499 105.125 106.436 104.188C107.373 103.25 108.644 102.723 109.969 102.721Z" fill="#262D30"/>
<path d="M109.969 113.444C111.1 113.444 112.205 113.109 113.146 112.48C114.086 111.851 114.819 110.958 115.252 109.912C115.685 108.866 115.798 107.716 115.578 106.606C115.357 105.496 114.812 104.476 114.013 103.676C113.213 102.876 112.194 102.331 111.084 102.11C109.975 101.889 108.825 102.002 107.78 102.436C106.735 102.869 105.842 103.602 105.214 104.543C104.585 105.484 104.25 106.59 104.25 107.722C104.252 109.239 104.855 110.694 105.927 111.767C106.999 112.839 108.453 113.443 109.969 113.444ZM109.969 102.721C110.957 102.721 111.924 103.015 112.745 103.564C113.567 104.114 114.208 104.895 114.586 105.808C114.964 106.722 115.063 107.728 114.871 108.698C114.678 109.668 114.202 110.559 113.503 111.258C112.804 111.958 111.913 112.434 110.944 112.627C109.974 112.82 108.969 112.721 108.056 112.343C107.143 111.964 106.362 111.323 105.813 110.501C105.264 109.678 104.971 108.711 104.971 107.722C104.972 106.396 105.499 105.125 106.436 104.188C107.373 103.25 108.644 102.723 109.969 102.721Z" fill="#262D30"/>
<path d="M109.969 113.084C107.009 113.084 104.61 110.683 104.61 107.722C104.61 104.761 107.009 102.361 109.969 102.361C112.928 102.361 115.327 104.761 115.327 107.722C115.327 110.683 112.928 113.084 109.969 113.084Z" fill="white"/>
<path d="M109.969 113.444C111.1 113.444 112.205 113.109 113.146 112.48C114.086 111.851 114.819 110.958 115.252 109.912C115.685 108.866 115.798 107.716 115.578 106.606C115.357 105.496 114.812 104.476 114.013 103.676C113.213 102.876 112.194 102.331 111.084 102.11C109.975 101.889 108.825 102.002 107.78 102.436C106.735 102.869 105.842 103.602 105.214 104.543C104.585 105.484 104.25 106.59 104.25 107.722C104.252 109.239 104.855 110.694 105.927 111.767C106.999 112.839 108.453 113.443 109.969 113.444ZM109.969 102.721C110.957 102.721 111.924 103.015 112.745 103.564C113.567 104.114 114.208 104.895 114.586 105.808C114.964 106.722 115.063 107.728 114.871 108.698C114.678 109.668 114.202 110.559 113.503 111.258C112.804 111.958 111.913 112.434 110.944 112.627C109.974 112.82 108.969 112.721 108.056 112.343C107.143 111.964 106.362 111.323 105.813 110.501C105.264 109.678 104.971 108.711 104.971 107.722C104.972 106.396 105.499 105.125 106.436 104.188C107.373 103.25 108.644 102.723 109.969 102.721Z" fill="#262D30"/>
<path d="M110.824 108.998C111.728 108.997 112.62 108.783 113.426 108.371C114.231 107.96 114.928 107.363 115.459 106.631C115.488 106.592 115.508 106.549 115.52 106.502C115.531 106.456 115.534 106.408 115.526 106.361C115.519 106.313 115.502 106.268 115.478 106.227C115.453 106.186 115.42 106.151 115.381 106.123C115.342 106.095 115.298 106.075 115.252 106.064C115.205 106.053 115.157 106.052 115.11 106.06C115.063 106.068 115.018 106.085 114.978 106.111C114.937 106.136 114.902 106.169 114.875 106.209C114.317 106.98 113.55 107.576 112.665 107.926C111.78 108.276 110.814 108.366 109.879 108.186C108.945 108.005 108.081 107.561 107.39 106.907C106.699 106.252 106.21 105.413 105.979 104.489C105.967 104.444 105.947 104.4 105.919 104.362C105.89 104.324 105.855 104.292 105.814 104.268C105.774 104.243 105.729 104.227 105.682 104.22C105.635 104.213 105.588 104.215 105.542 104.227C105.496 104.238 105.452 104.259 105.414 104.287C105.376 104.315 105.344 104.35 105.32 104.391C105.295 104.432 105.279 104.477 105.272 104.523C105.265 104.57 105.268 104.618 105.279 104.664C105.546 105.72 106.107 106.678 106.897 107.427C107.688 108.176 108.675 108.685 109.743 108.894C110.099 108.963 110.461 108.998 110.824 108.998Z" fill="#262D30"/>
<path d="M107.698 107.987C107.727 107.987 107.756 107.983 107.784 107.976C108.843 107.714 109.806 107.154 110.558 106.363C111.309 105.572 111.82 104.583 112.029 103.511C112.081 103.239 112.113 102.964 112.126 102.687C112.129 102.64 112.122 102.592 112.107 102.547C112.091 102.502 112.066 102.461 112.034 102.425C112.002 102.39 111.964 102.361 111.921 102.341C111.878 102.32 111.831 102.308 111.784 102.306C111.736 102.304 111.688 102.311 111.644 102.327C111.599 102.344 111.558 102.369 111.523 102.401C111.488 102.433 111.459 102.472 111.439 102.515C111.419 102.559 111.408 102.606 111.406 102.653C111.395 102.895 111.366 103.136 111.321 103.374C111.138 104.311 110.692 105.175 110.035 105.866C109.378 106.557 108.537 107.046 107.612 107.275C107.526 107.296 107.451 107.348 107.4 107.42C107.35 107.493 107.328 107.582 107.339 107.669C107.349 107.757 107.392 107.838 107.458 107.897C107.524 107.955 107.61 107.987 107.698 107.987Z" fill="#262D30"/>
</g>
<g clip-path="url(#clip13)">
<path d="M43.5488 127.313C43.4509 127.312 43.3565 127.276 43.2836 127.211C43.2107 127.146 43.1644 127.056 43.1536 126.958L41.1764 109.185C41.1657 109.081 41.1968 108.976 41.2627 108.895C41.3286 108.813 41.4241 108.761 41.5284 108.749C41.6327 108.738 41.7374 108.768 41.8196 108.833C41.9019 108.898 41.9551 108.993 41.9677 109.097L43.9449 126.871C43.9565 126.975 43.9261 127.081 43.8601 127.163C43.7942 127.245 43.6982 127.298 43.5932 127.31C43.5785 127.312 43.5636 127.313 43.5488 127.313Z" fill="#262D30"/>
<path d="M37.4756 109.757C36.9496 109.756 36.4347 109.606 35.99 109.325C35.5453 109.044 35.1889 108.644 34.9618 108.17C34.7347 107.695 34.6461 107.167 34.7062 106.644C34.7663 106.122 34.9726 105.627 35.3015 105.217C35.5304 104.93 35.8142 104.691 36.1362 104.514C36.4583 104.337 36.8123 104.226 37.1777 104.186L44.9055 103.33C45.6423 103.249 46.3811 103.464 46.9594 103.928C47.5376 104.391 47.908 105.065 47.9891 105.802C48.0686 106.538 47.853 107.276 47.3894 107.853C46.9259 108.431 46.2522 108.801 45.5159 108.884L37.7881 109.74C37.6844 109.751 37.58 109.757 37.4756 109.757ZM45.216 104.109C45.1415 104.109 45.0671 104.113 44.9931 104.121L37.2652 104.977C36.7401 105.037 36.2601 105.303 35.9303 105.715C35.6004 106.128 35.4475 106.654 35.5049 107.179C35.5624 107.704 35.8256 108.185 36.237 108.517C36.6483 108.849 37.1743 109.004 37.6999 108.949L45.4278 108.092C45.8209 108.049 46.1924 107.891 46.4953 107.637C46.7982 107.382 47.0189 107.044 47.1294 106.665C47.2399 106.285 47.2352 105.881 47.1161 105.505C46.9969 105.128 46.7685 104.795 46.4598 104.548C46.1076 104.263 45.6686 104.108 45.216 104.109ZM36.9353 107.965C36.7223 107.965 36.5158 107.892 36.3506 107.758C36.2062 107.642 36.0994 107.486 36.0439 107.309C35.9884 107.132 35.9866 106.943 36.0387 106.765C36.0908 106.587 36.1945 106.429 36.3366 106.31C36.4788 106.191 36.6531 106.117 36.8373 106.097L45.6088 105.125C45.7312 105.111 45.855 105.122 45.9732 105.156C46.0915 105.191 46.2017 105.248 46.2977 105.325C46.3937 105.402 46.4735 105.497 46.5326 105.605C46.5917 105.713 46.6289 105.832 46.642 105.954C46.6686 106.201 46.5962 106.448 46.4407 106.642C46.2852 106.835 46.0593 106.959 45.8125 106.987L37.041 107.959C37.0059 107.963 36.9706 107.965 36.9353 107.965ZM36.9251 106.888C36.887 106.892 36.8521 106.911 36.8279 106.94C36.8164 106.955 36.8079 106.971 36.8029 106.988C36.7979 107.006 36.7964 107.024 36.7986 107.042C36.8005 107.061 36.8061 107.079 36.815 107.096C36.824 107.112 36.8362 107.127 36.8509 107.139C36.8649 107.151 36.8812 107.159 36.8987 107.164C36.9162 107.169 36.9346 107.171 36.9527 107.168L45.7241 106.196C45.7426 106.194 45.7606 106.189 45.777 106.18C45.7935 106.172 45.808 106.16 45.8198 106.146C45.8315 106.131 45.8403 106.115 45.8456 106.097C45.8509 106.079 45.8526 106.06 45.8506 106.042C45.8467 106.004 45.8279 105.969 45.7983 105.945C45.7843 105.934 45.768 105.925 45.7505 105.92C45.733 105.915 45.7146 105.913 45.6965 105.916L36.9251 106.888Z" fill="#262D30"/>
<path d="M46.4821 117.065C45.9444 117.065 45.0855 116.824 43.8665 116.332C42.9076 115.945 42.0953 115.55 42.0618 115.534C42.0014 115.504 41.9495 115.46 41.9108 115.405C41.8721 115.351 41.8478 115.287 41.8403 115.221C41.8328 115.154 41.8422 115.087 41.8677 115.025C41.8931 114.963 41.9339 114.908 41.9861 114.866C42.2875 114.624 44.963 112.495 46.1197 112.366C46.7436 112.298 47.3693 112.479 47.8597 112.871C48.35 113.262 48.6651 113.832 48.7356 114.456C48.8008 115.077 48.6177 115.699 48.2263 116.186C47.8348 116.673 47.2667 116.986 46.6455 117.057C46.5912 117.063 46.5367 117.066 46.4821 117.065ZM42.9904 115.091C44.2439 115.662 45.9552 116.332 46.5576 116.266C46.7629 116.243 46.9616 116.179 47.1422 116.079C47.3228 115.979 47.4817 115.844 47.6097 115.682C47.738 115.524 47.8336 115.342 47.891 115.146C47.9485 114.951 47.9666 114.746 47.9443 114.544C47.8977 114.13 47.6886 113.752 47.363 113.492C47.0373 113.232 46.6218 113.111 46.2076 113.157C45.6088 113.224 44.086 114.257 42.9904 115.091Z" fill="#262D30"/>
<path d="M38.0814 117.987C37.5418 117.988 37.0182 117.804 36.5978 117.466C36.3573 117.275 36.1572 117.037 36.0092 116.768C35.8613 116.498 35.7683 116.202 35.7358 115.896C35.6675 115.273 35.849 114.647 36.2407 114.157C36.6324 113.668 37.2024 113.353 37.8258 113.282C38.3443 113.224 39.2539 113.461 40.6048 114.006C41.5639 114.393 42.3761 114.789 42.4102 114.805C42.4705 114.835 42.5223 114.879 42.561 114.933C42.5996 114.988 42.6238 115.052 42.6313 115.118C42.6388 115.185 42.6293 115.252 42.6038 115.314C42.5782 115.376 42.5374 115.431 42.4852 115.473C42.184 115.715 39.5083 117.844 38.3516 117.972C38.2619 117.982 38.1717 117.987 38.0814 117.987ZM38.0042 114.068C37.9739 114.068 37.9437 114.07 37.9137 114.073C37.4998 114.12 37.1216 114.329 36.8617 114.655C36.6019 114.98 36.4816 115.395 36.5272 115.809C36.5486 116.011 36.6098 116.206 36.7074 116.384C36.8049 116.562 36.9369 116.719 37.0956 116.845C37.2583 116.976 37.4453 117.073 37.6458 117.13C37.8462 117.188 38.0561 117.205 38.2633 117.181C38.8626 117.115 40.3855 116.082 41.4808 115.247C40.2857 114.703 38.6711 114.068 38.0042 114.068Z" fill="#262D30"/>
</g>
</g>
<defs>
<clipPath id="clip0">
<rect width="240" height="135" fill="white"/>
</clipPath>
<clipPath id="clip1">
<rect width="110.062" height="118.313" fill="white" transform="translate(109.688 9.375)"/>
</clipPath>
<clipPath id="clip2">
<rect width="24" height="24" fill="white" transform="matrix(0.949858 -0.312681 0.31268 0.949859 109.537 34.7289)"/>
</clipPath>
<clipPath id="clip3">
<rect width="8.4375" height="8.4375" fill="white" transform="translate(215.812 39) rotate(90)"/>
</clipPath>
<clipPath id="clip4">
<rect width="8.0625" height="8.0625" fill="white" transform="translate(36.75 31.3125)"/>
</clipPath>
<clipPath id="clip5">
<rect width="109.875" height="9.1875" fill="white" transform="translate(13.6875 9.375)"/>
</clipPath>
<clipPath id="clip6">
<rect width="15.75" height="15.75" fill="white" transform="matrix(-1 0 0 1 73.875 47.4375)"/>
</clipPath>
<clipPath id="clip7">
<rect width="21.75" height="21.75" fill="white" transform="translate(58.6875 61.6875)"/>
</clipPath>
<clipPath id="clip8">
<rect width="206.813" height="32.625" fill="white" transform="translate(15.2249 126.638) rotate(-8.49301)"/>
</clipPath>
<clipPath id="clip9">
<rect width="41.625" height="45" fill="white" transform="translate(55.125 82.5)"/>
</clipPath>
<clipPath id="clip10">
<rect width="10.125" height="11.4375" fill="white" transform="matrix(-1 0 0 1 224.812 115.875)"/>
</clipPath>
<clipPath id="clip11">
<rect width="20.0625" height="63.75" fill="white" transform="matrix(-1 0 0 1 34.5 62.8125)"/>
</clipPath>
<clipPath id="clip12">
<rect width="11.4375" height="25.125" fill="white" transform="matrix(-1 0 0 1 115.688 102)"/>
</clipPath>
<clipPath id="clip13">
<rect width="14.0625" height="24" fill="white" transform="translate(34.6875 103.312)"/>
</clipPath>
</defs>
</svg>
