<svg width="64" height="64" viewBox="0 0 64 64" fill="none" xmlns="http://www.w3.org/2000/svg">
<rect width="64" height="64" rx="32" fill="#262D30"/>
<path d="M32 50.6665H29.7076C25.5863 50.6252 21.6479 48.968 18.7483 46.0553C15.8487 43.1426 14.2222 39.2096 14.2222 35.111C14.2222 31.0124 15.8487 27.0794 18.7483 24.1666C21.6479 21.2539 25.5863 19.5968 29.7076 19.5554H32V25.6984H29.7076C27.2185 25.7305 24.8424 26.7363 23.0937 28.498C21.3449 30.2597 20.3644 32.6355 20.3644 35.111C20.3644 37.5864 21.3449 39.9622 23.0937 41.7239C24.8424 43.4856 27.2185 44.4914 29.7076 44.5236H32V50.6665Z" fill="white"/>
<path d="M32 44.4436H34.251C36.2825 44.4643 38.298 44.0773 40.1809 43.3049C42.0638 42.5325 43.7767 41.3901 45.2205 39.9436C46.6644 38.4972 47.8105 36.7754 48.5928 34.8779C49.375 32.9804 49.7777 30.9448 49.7777 28.8888C49.7777 26.8328 49.375 24.7972 48.5928 22.8997C47.8105 21.0022 46.6644 19.2804 45.2205 17.834C43.7767 16.3875 42.0638 15.2451 40.1809 14.4727C38.298 13.7003 36.2825 13.3133 34.251 13.334H32V19.4703H34.251C35.4825 19.4542 36.705 19.6857 37.8474 20.1514C38.9899 20.6172 40.0295 21.3079 40.9061 22.1835C41.7826 23.0591 42.4786 24.1021 42.9536 25.2521C43.4287 26.4021 43.6733 27.6361 43.6733 28.8825C43.6733 30.1289 43.4287 31.3629 42.9536 32.5128C42.4786 33.6628 41.7826 34.7058 40.9061 35.5814C40.0295 36.457 38.9899 37.1478 37.8474 37.6135C36.705 38.0793 35.4825 38.3108 34.251 38.2946H32V44.4436Z" fill="#2445E5"/>
</svg>
