<svg width="48" height="48" viewBox="0 0 48 48" fill="none" xmlns="http://www.w3.org/2000/svg">
<path d="M24 45H21.4211C16.7846 44.9535 12.3539 43.0892 9.0919 39.8124C5.82984 36.5355 4 32.1109 4 27.5C4 22.8891 5.82984 18.4645 9.0919 15.1876C12.3539 11.9108 16.7846 10.0465 21.4211 10H24V16.9108H21.4211C18.6209 16.947 15.9477 18.0785 13.9804 20.0604C12.0131 22.0424 10.91 24.7151 10.91 27.5C10.91 30.2849 12.0131 32.9576 13.9804 34.9396C15.9477 36.9215 18.6209 38.053 21.4211 38.0892H24V45Z" fill="white"/>
<path d="M24 37.9991H26.5324C28.8179 38.0225 31.0853 37.5871 33.2036 36.7181C35.3218 35.8492 37.2488 34.5639 38.8731 32.9367C40.4974 31.3094 41.7869 29.3724 42.6669 27.2377C43.5469 25.1031 44 22.813 44 20.5C44 18.187 43.5469 15.8969 42.6669 13.7623C41.7869 11.6276 40.4974 9.69059 38.8731 8.06333C37.2488 6.43607 35.3218 5.15081 33.2036 4.28187C31.0853 3.41293 28.8179 2.97754 26.5324 3.00089H24V9.90423H26.5324C27.9179 9.88604 29.2931 10.1465 30.5784 10.6704C31.8636 11.1944 33.0333 11.9715 34.0194 12.9565C35.0055 13.9416 35.7885 15.115 36.3229 16.4087C36.8573 17.7024 37.1325 19.0907 37.1325 20.4929C37.1325 21.8951 36.8573 23.2833 36.3229 24.577C35.7885 25.8707 35.0055 27.0442 34.0194 28.0292C33.0333 29.0143 31.8636 29.7913 30.5784 30.3153C29.2931 30.8393 27.9179 31.0997 26.5324 31.0815H24V37.9991Z" fill="#2445E5"/>
</svg>
