<?xml version="1.0" encoding="UTF-8" standalone="no"?>
<svg
   width="750"
   height="750"
   version="1.1"
   id="svg12"
   sodipodi:docname="vizdiff-icon.svg"
   viewBox="0 0 750 750"
   inkscape:version="1.3 (0e150ed, 2023-07-21)"
   xmlns:inkscape="http://www.inkscape.org/namespaces/inkscape"
   xmlns:sodipodi="http://sodipodi.sourceforge.net/DTD/sodipodi-0.dtd"
   xmlns="http://www.w3.org/2000/svg"
   xmlns:svg="http://www.w3.org/2000/svg">
  <defs
     id="defs12" />
  <sodipodi:namedview
     id="namedview12"
     pagecolor="#ffffff"
     bordercolor="#000000"
     borderopacity="0.25"
     inkscape:showpageshadow="2"
     inkscape:pageopacity="0.0"
     inkscape:pagecheckerboard="0"
     inkscape:deskcolor="#d1d1d1"
     inkscape:zoom="0.55919312"
     inkscape:cx="216.3832"
     inkscape:cy="341.56357"
     inkscape:window-width="1552"
     inkscape:window-height="913"
     inkscape:window-x="37"
     inkscape:window-y="53"
     inkscape:window-maximized="0"
     inkscape:current-layer="svg12" />
  <path
     fill="#7ad4e8"
     d="m 319.8526,223.6146 c 0.056,-0.255 0.116,-0.51 0.168,-0.766 0.83,-4.111 0.263,-9.465 0.254,-13.687 -0.028,-12.606 -1.551,-53.074 1.411,-62.529 q 0.366,-1.184 0.827,-2.335 0.461,-1.151 1.015,-2.26 0.554,-1.108 1.196,-2.168 0.643,-1.06 1.37,-2.064 0.727,-1.004 1.534,-1.945 0.807,-0.941 1.688,-1.813 0.881,-0.872 1.83,-1.669 0.95,-0.797 1.961,-1.514 c 4.384,-3.105 9.041,-4.985 14.397,-5.424 7.122,-0.583 14.396,-0.299 21.542,-0.299 l 35.48,0.001 112.489,0.03 71.946,-0.029 c 10.216,-0.005 25.162,-1.026 34.654,0.521 7.933,1.292 15.437,6.582 19.87,13.2 3.441,5.139 4.701,10.264 4.981,16.38 0.554,12.07 0.15,24.284 0.141,36.375 l -0.031,65.418 -0.002,203.144 0.026,90.26 v 24.3 c -0.006,5.314 0.424,11.387 -0.65,16.576 -1.604,7.75 -6.588,15.019 -13.278,19.19 -4.905,3.058 -9.984,4.401 -15.713,4.773 -7.217,0.469 -14.612,0.142 -21.847,0.123 l -37.729,-0.006 -119.328,0.016 h -62.493 c -8.885,0.014 -25.67,1.184 -33.646,-0.745 q -0.75,-0.178 -1.49,-0.393 -0.74,-0.216 -1.468,-0.469 -0.729,-0.253 -1.443,-0.542 -0.714,-0.29 -1.413,-0.615 -0.699,-0.326 -1.38,-0.686 -0.681,-0.361 -1.343,-0.756 -0.662,-0.394 -1.304,-0.822 -0.641,-0.428 -1.259,-0.888 -0.619,-0.46 -1.213,-0.951 -0.595,-0.491 -1.163,-1.011 -0.569,-0.52 -1.111,-1.069 -0.541,-0.548 -1.054,-1.124 -0.513,-0.575 -0.996,-1.176 -0.483,-0.601 -0.935,-1.225 -0.452,-0.625 -0.871,-1.271 -0.42,-0.647 -0.806,-1.314 -0.724,-1.265 -1.333,-2.59 -0.609,-1.324 -1.099,-2.697 -0.491,-1.372 -0.858,-2.783 -0.367,-1.41 -0.609,-2.848 c -1.614,-9.405 1.213,-50.477 -1.349,-54.449 -25.891,4.375 -51.46,5.103 -77.478,1.261 -72.103,-10.646 -133.155,-53.88 -176.005004,-111.593 -7.112,-9.578 -21.811,-29.324 -25.622,-39.868 -1.058,-2.929 -1.51,-5.942 -0.973,-9.03 1.342,-7.711 7.706,-15.708 12.042,-22.113 22.176,-32.762 49.037004,-62.883 81.310004,-85.986 55.862,-39.989 119.377,-55.313 187.16,-44.046 z"
     id="path2"
     style="display:inline"
     inkscape:label="document" />
  <path
     fill="#095669"
     d="M 319.4186,534.9896 C 247.55958,548.54784 171.38165,525.78478 116.28666,478.30587 86.105486,452.66885 60.394766,421.44884 41.151246,386.86971 c -7.4014,-20.04174 14.5469,-35.50252 23.20426,-51.34434 C 110.97343,271.98635 183.5076,223.92059 263.74882,220.37539 c 78.44104,-5.30342 155.86133,32.35011 205.79326,92.02516 15.796,18.75469 31.18843,38.27721 42.98674,59.7953 4.30223,23.0209 -19.70928,39.74282 -29.80199,58.36905 -39.69434,53.04199 -97.54183,92.72807 -163.30823,104.4247 z"
     id="path3"
     style="display:inline"
     inkscape:label="eye_outline" />
  <path
     fill="#fefefe"
     d="m 265.9316,255.0516 c 17.233,-1.483 36.152,0.322 53.038,3.949 68.958,14.815 120.105,62.273 157.582,120.099 -13.997,20.802 -27.501,40.524 -45.077,58.57 -36.804,37.791 -91.803,65.032 -145.109,65.716 -17.956,0.659 -35.303,-0.663 -52.878,-4.477 -46.353,-10.059 -89.383,-36.086 -121.126,-71.174 -13.688004,-15.129 -25.429004,-31.891 -36.456004,-49.017 q 7.472,-11.74 15.819,-22.876 8.347004,-11.136 17.520004,-21.602 c 40.426,-45.827 95.388,-75.425 156.687,-79.188 z"
     id="path4"
     style="display:inline"
     inkscape:label="eye_white" />
  <path
     fill="#40b6d3"
     d="m 273.7816,295.3326 q 2.115,-0.076 4.232,-0.048 2.116,0.028 4.229,0.16 2.112,0.132 4.216,0.367 2.103,0.235 4.192,0.573 2.09,0.339 4.16,0.779 2.07,0.44 4.117,0.981 2.046,0.541 4.063,1.182 2.017,0.641 4.001,1.38 1.983,0.739 3.928,1.575 1.944,0.835 3.846,1.765 1.901,0.93 3.755,1.952 1.853,1.022 3.654,2.134 1.802,1.112 3.546,2.31 1.744,1.199 3.428,2.482 1.684,1.283 3.302,2.647 1.619,1.363 3.169,2.805 1.549,1.442 3.026,2.958 1.478,1.515 2.879,3.102 1.401,1.586 2.722,3.24 1.322,1.653 2.561,3.369 1.239,1.716 2.392,3.491 1.153,1.775 2.218,3.604 1.065,1.83 2.038,3.709 0.974,1.879 1.854,3.804 0.881,1.925 1.666,3.891 0.785,1.965 1.472,3.967 0.688,2.002 1.276,4.035 0.589,2.033 1.077,4.093 0.488,2.059 0.875,4.14 0.386,2.081 0.67,4.179 0.284,2.097 0.465,4.206 0.181,2.109 0.258,4.224 0.077,2.115 0.05,4.232 -0.026,2.116 -0.157,4.229 -0.13,2.112 -0.364,4.216 -0.234,2.103 -0.571,4.193 -0.337,2.09 -0.776,4.16 -0.439,2.071 -0.979,4.117 -0.54,2.047 -1.179,4.065 -0.64,2.017 -1.378,4.001 -0.738,1.984 -1.572,3.929 -0.834,1.945 -1.763,3.847 -0.929,1.902 -1.95,3.756 -1.021,1.855 -2.131,3.656 -1.111,1.802 -2.308,3.547 -1.198,1.746 -2.48,3.43 -1.282,1.684 -2.644,3.304 -1.363,1.619 -2.804,3.17 -1.441,1.55 -2.956,3.028 -1.515,1.479 -3.1,2.881 -1.586,1.402 -3.238,2.724 -1.653,1.323 -3.368,2.563 -1.716,1.24 -3.49,2.394 -1.774,1.154 -3.602,2.22 -1.829,1.066 -3.708,2.041 -1.879,0.975 -3.803,1.856 -1.924,0.882 -3.889,1.668 -1.965,0.786 -3.967,1.475 -2.001,0.689 -4.034,1.279 -2.033,0.589 -4.092,1.079 -2.059,0.489 -4.14,0.877 -2.081,0.388 -4.178,0.673 -2.097,0.285 -4.206,0.467 -2.109,0.183 -4.224,0.261 -2.117,0.078 -4.235,0.053 -2.118,-0.026 -4.232,-0.155 -2.115,-0.129 -4.22,-0.363 -2.105,-0.233 -4.197,-0.569 -2.091,-0.336 -4.164,-0.774 -2.072,-0.439 -4.12,-0.978 -2.049,-0.54 -4.068,-1.179 -2.02,-0.64 -4.005,-1.378 -1.986,-0.738 -3.933,-1.572 -1.947,-0.834 -3.85,-1.763 -1.904,-0.929 -3.76,-1.951 -1.856,-1.021 -3.659,-2.132 -1.803,-1.111 -3.55,-2.31 -1.747,-1.198 -3.433,-2.481 -1.685,-1.283 -3.306,-2.646 -1.621,-1.364 -3.173,-2.806 -1.552,-1.442 -3.031,-2.958 -1.479,-1.516 -2.882,-3.103 -1.403,-1.587 -2.726,-3.241 -1.324,-1.654 -2.564,-3.371 -1.241,-1.717 -2.396,-3.493 -1.155,-1.776 -2.221,-3.606 -1.066,-1.83 -2.042,-3.711 -0.975,-1.88 -1.856,-3.806 -0.882,-1.926 -1.668,-3.893 -0.786,-1.967 -1.475,-3.97 -0.688,-2.003 -1.278,-4.038 -0.589,-2.035 -1.078,-4.096 -0.489,-2.061 -0.876,-4.143 -0.387,-2.083 -0.671,-4.182 -0.285,-2.099 -0.466,-4.21 -0.181,-2.11 -0.258,-4.227 -0.077,-2.117 -0.05,-4.235 0.026,-2.118 0.157,-4.232 0.131,-2.114 0.365,-4.22 0.235,-2.105 0.572,-4.196 0.338,-2.091 0.777,-4.163 0.44,-2.073 0.981,-4.121 0.541,-2.048 1.181,-4.067 0.641,-2.019 1.38,-4.004 0.739,-1.985 1.575,-3.931 0.835,-1.947 1.766,-3.85 0.93,-1.903 1.952,-3.758 1.023,-1.855 2.135,-3.658 1.112,-1.803 2.312,-3.549 1.199,-1.746 2.483,-3.431 1.284,-1.685 2.648,-3.305 1.365,-1.62 2.808,-3.171 1.443,-1.551 2.96,-3.029 1.517,-1.478 3.105,-2.88 1.588,-1.402 3.243,-2.725 1.654,-1.322 3.372,-2.562 1.718,-1.239 3.494,-2.393 1.777,-1.154 3.608,-2.219 1.831,-1.065 3.712,-2.039 1.881,-0.974 3.807,-1.855 1.927,-0.88 3.894,-1.665 1.968,-0.785 3.971,-1.472 2.004,-0.687 4.039,-1.276 2.035,-0.588 4.096,-1.075 2.062,-0.488 4.145,-0.874 2.082,-0.386 4.182,-0.669 2.099,-0.283 4.209,-0.462 2.111,-0.18 4.228,-0.256 z"
     id="path5"
     style="display:inline"
     inkscape:label="iris" />
  <path
     fill="#095669"
     d="m 292.2716,340.2896 c 6.79009,-9.23741 21.27624,-10.95666 30.041,-3.567 9.14096,6.91951 10.65758,21.42952 3.144,30.089 -2.17242,2.68267 -5.89504,3.82298 -3.14423,7.48901 1.94741,10.14323 -0.39349,20.9811 -5.52266,29.8753 -9.15113,15.37851 -27.90699,24.42266 -45.64311,21.56988 -16.22426,-2.01602 -30.94668,-13.39783 -36.453,-28.87119 -6.70297,-16.58831 -1.74039,-36.89927 11.69075,-48.66894 12.12919,-10.92949 30.83705,-14.64691 45.88725,-7.91606 z"
     id="path6"
     style="display:inline"
     inkscape:label="pupil" />
  <path
     fill="#fefefe"
     d="m 292.2716,340.2896 c 5.18843,-6.86935 14.77608,-9.91204 22.976,-7.29075 8.26706,2.40128 14.52549,10.27666 14.996,18.87275 0.71228,8.68549 -4.55926,17.43727 -12.575,20.862 -8.01477,3.69391 -18.18541,1.62911 -24.125,-4.898 -6.12266,-6.35669 -7.51321,-16.64098 -3.3,-24.396 0.58313,-1.10594 1.25997,-2.16322 2.028,-3.15 z"
     id="path7"
     style="display:inline"
     inkscape:label="eye_highlight" />
  <path
     fill="#40b6d3"
     d="m 516.6296,428.0276 c 24.89218,-0.16249 49.79652,-0.0868 74.68182,-0.16384 6.91981,-0.0523 15.65759,-0.0356 19.39612,6.94324 4.30124,7.86205 1.3695,17.0568 2.10933,25.52801 -0.0432,29.73127 0.0703,59.47239 -0.009,89.19747 -0.16006,7.59415 -6.78223,13.68389 -14.29593,13.67077 -25.74435,0.13962 -51.51295,0.0393 -77.26166,0.40092 -6.98479,0.23419 -15.43978,-2.08742 -17.73423,-9.53454 -2.77801,-8.50483 -0.41144,-17.56247 -1.12411,-26.30489 0.0415,-28.28153 -0.20202,-56.56961 -0.0832,-84.84684 -0.1447,-7.26145 5.02324,-14.26904 12.56006,-14.68673 l 0.87939,-0.11566 z"
     id="path8"
     style="display:inline"
     inkscape:label="image" />
  <path
     fill="#40b6d3"
     d="m 389.1516,179.8596 c 64.71446,-0.0898 129.4312,0.0582 194.14422,-0.16229 9.24761,0.36305 20.77698,-2.5083 27.68253,5.47317 7.34375,8.11735 0.15618,22.30928 -10.51419,22.0785 -40.03879,0.30732 -80.08384,0.0149 -120.12566,0.11361 -28.03442,-0.0634 -56.07083,0.044 -84.10198,0.12867 -7.22757,0.4713 -15.95882,-1.67914 -18.14592,-9.61466 -2.74735,-7.97821 2.9019,-16.57025 11.061,-18.017 z"
     id="path9"
     style="display:inline"
     inkscape:label="line1" />
  <path
     fill="#40b6d3"
     d="m 468.2056,242.0466 c 33.24184,-0.062 66.48607,0.19692 99.72619,-0.0988 11.9693,-0.0821 24.05923,-0.8973 35.93155,0.89348 7.78165,2.3385 13.1337,12.71585 8.03635,19.84355 -2.63277,5.17508 -8.3488,7.89794 -14.03787,7.4929 -44.25529,0.0814 -88.51517,-0.14105 -132.76747,0.18029 -7.16079,0.27615 -15.13523,-3.37016 -17.01219,-10.79716 -2.37833,-6.41505 1.38965,-13.77616 7.78929,-16.00009 3.90211,-1.58738 8.19819,-1.49692 12.33415,-1.51419 z"
     id="path10"
     style="display:inline"
     inkscape:label="line2" />
  <path
     fill="#40b6d3"
     d="m 525.9276,303.4756 c 20.26379,-0.99901 40.54979,0.53881 60.81717,-0.32572 5.99207,0.065 12.18784,-0.3837 17.97089,1.46376 7.00181,2.25092 10.77908,10.58964 8.34494,17.43096 -1.91111,6.51224 -8.67654,10.75183 -15.34887,10.19672 -19.55496,0.35104 -39.12096,-0.43354 -58.66735,0.43063 -6.67891,-0.0938 -13.84353,0.46176 -19.94046,-2.76438 -5.02271,-2.52879 -8.18102,-8.38533 -6.72574,-13.9616 0.88591,-5.57576 4.80865,-10.89271 10.59673,-11.93637 0.97175,-0.24012 1.95996,-0.40897 2.95269,-0.534 z"
     id="path11"
     style="display:inline"
     inkscape:label="line3" />
  <path
     fill="#095669"
     d="m 127.0916,50.504596 c 164.1332,-0.76873 328.35336,-0.26883 492.51708,-0.27834 55.27836,-1.03568 103.56675,49.02618 101.73675,103.994134 -0.27289,148.23016 0.42985,296.48301 -0.37683,444.70151 -1.10267,53.65766 -48.66078,100.51691 -102.48003,99.64231 -163.56433,0.0102 -327.15536,0.38989 -490.71355,-0.1742 -53.293904,-1.30414 -96.640314,-50.16022 -96.826034,-102.53089 -0.65416,-65.22348 0.57771,-130.51701 -0.59839,-195.72752 8.68088,22.67365 32.62733,38.34296 38.97771,60.63005 0.62196,48.46696 -1.40952,97.06371 1.15329,145.40995 4.80236,36.28457 42.475134,58.09571 77.158084,53.52931 158.32168,-0.16762 316.68414,0.36277 474.97696,-0.25852 36.97017,-0.91372 64.73527,-37.51685 60.04417,-73.56384 -0.22572,-145.69225 0.36945,-291.43656 -0.35843,-437.09208 -1.63549,-38.00569 -39.83754,-65.342904 -76.66083,-60.508564 -157.73803,0.23917 -315.52669,-0.4527 -473.22876,0.38544 -38.630394,0.61199 -67.685154,37.922694 -63.144494,75.364554 0.0194,46.44289 0.0325,92.8858 0.0553,139.3287 -10.81149,10.39843 -44.86474,62.38475 -38.58806,49.14394 0.6616,-69.62452 -1.02029,-139.32927 0.85965,-208.90299 3.47222,-49.669924 46.20189,-90.117494 95.496414,-93.092954 z"
     id="path12"
     style="display:inline"
     inkscape:label="outline" />
</svg>
